# Blender v2.90.1 OBJ File: ''
# www.blender.org
mtllib arrow_0.mtl
o Plane
v -1.000000 0.197474 1.000000
v 1.000000 0.197474 1.000000
v -1.000000 0.197474 -1.000000
v 1.000000 0.197474 -1.000000
v -1.331931 0.197474 1.000000
v 1.331931 0.197474 1.000000
v -1.437615 0.197474 1.129916
v 1.437615 0.197474 1.129916
v -0.120759 0.197474 2.706450
v 0.120759 0.197474 2.706450
vt 0.000000 0.000000
vt 0.000000 0.000000
vt 0.000000 0.000000
vt 0.000000 0.000000
vt 0.000000 0.000000
vt 0.000000 0.000000
vt 0.000000 0.000000
vt 0.000000 0.000000
vt 0.000000 0.000000
vt 0.000000 0.000000
vn 0.0000 1.0000 0.0000
usemtl None
s off
f 3/1/1 1/2/1 2/3/1 4/4/1
f 10/5/1 2/3/1 1/2/1 9/6/1
f 5/7/1 7/8/1 9/6/1 1/2/1
f 6/9/1 2/3/1 10/5/1 8/10/1
