# Blender v2.90.1 OBJ File: 'items.blend'
# www.blender.org
mtllib ammoBox.mtl
o Cube.002
v -0.440344 -0.008746 0.440344
v -0.440344 0.871942 0.440344
v -0.440344 -0.008746 -0.440344
v -0.440344 0.871942 -0.440344
v 0.440344 -0.008746 0.440344
v 0.440344 0.871942 0.440344
v 0.440344 -0.008746 -0.440344
v 0.440344 0.871942 -0.440344
vt 0.259598 0.019196
vt 0.500000 0.259598
vt 0.259598 0.500000
vt 0.019196 0.259598
vt 0.019196 0.740402
vt 0.500000 0.740402
vt 0.259598 0.980804
vt 0.740402 0.980804
vt 0.740402 0.500000
vt 0.980804 0.740402
vt 0.980804 0.259598
vt 0.740402 0.019197
vn -1.0000 0.0000 0.0000
vn 0.0000 0.0000 -1.0000
vn 1.0000 0.0000 0.0000
vn 0.0000 0.0000 1.0000
vn 0.0000 1.0000 0.0000
usemtl bakeTo
s off
f 1/1/1 2/2/1 4/3/1 3/4/1
f 3/5/2 4/3/2 8/6/2 7/7/2
f 7/8/3 8/6/3 6/9/3 5/10/3
f 5/11/4 6/9/4 2/2/4 1/12/4
f 8/6/5 4/3/5 2/2/5 6/9/5
