# Blender v2.90.1 OBJ File: 'items.blend'
# www.blender.org
mtllib coin.mtl
o Circle.004
v 0.000000 1.054531 0.087883
v -0.156840 1.029690 0.087883
v -0.298328 0.957598 0.087883
v -0.410613 0.845313 0.087883
v -0.482704 0.703825 0.087883
v -0.507545 0.546985 0.087883
v -0.482704 0.390145 0.087883
v -0.410613 0.248658 0.087883
v -0.298328 0.136373 0.087883
v -0.156840 0.064281 0.087883
v 0.000000 0.039440 0.087883
v 0.156840 0.064281 0.087883
v 0.298328 0.136373 0.087883
v 0.410613 0.248658 0.087883
v 0.482704 0.390146 0.087883
v 0.507545 0.546986 0.087883
v 0.482704 0.703826 0.087883
v 0.410612 0.845313 0.087883
v 0.298327 0.957599 0.087883
v 0.156839 1.029690 0.087883
v -0.000000 0.996869 0.087883
v -0.139022 0.974850 0.087883
v -0.264435 0.910949 0.087883
v -0.363964 0.811420 0.087883
v -0.427865 0.686007 0.087883
v -0.449884 0.546985 0.087883
v -0.427865 0.407964 0.087883
v -0.363964 0.282550 0.087883
v -0.264435 0.183022 0.087883
v -0.139022 0.119121 0.087883
v 0.000000 0.097102 0.087883
v 0.139022 0.119121 0.087883
v 0.264435 0.183022 0.087883
v 0.363964 0.282551 0.087883
v 0.427865 0.407964 0.087883
v 0.449884 0.546986 0.087883
v 0.427865 0.686008 0.087883
v 0.363963 0.811421 0.087883
v 0.264435 0.910949 0.087883
v 0.139021 0.974851 0.087883
v -0.000000 0.996869 0.034825
v -0.139022 0.974850 0.034825
v -0.264435 0.910949 0.034825
v -0.363964 0.811420 0.034825
v -0.427865 0.686007 0.034825
v -0.449884 0.546985 0.034825
v -0.427865 0.407964 0.034825
v -0.363964 0.282550 0.034825
v -0.264435 0.183022 0.034825
v -0.139022 0.119121 0.034825
v 0.000000 0.097102 0.034825
v 0.139022 0.119121 0.034825
v 0.264435 0.183022 0.034825
v 0.363964 0.282551 0.034825
v 0.427865 0.407964 0.034825
v 0.449884 0.546986 0.034825
v 0.427865 0.686008 0.034825
v 0.363963 0.811421 0.034825
v 0.264435 0.910949 0.034825
v 0.139021 0.974851 0.034825
v -0.159322 0.752855 0.034603
v -0.159322 0.334080 0.034603
v 0.159322 0.334079 0.034603
v 0.159322 0.752854 0.034603
v 0.000000 1.054531 -0.087883
v -0.156840 1.029690 -0.087883
v -0.298328 0.957598 -0.087883
v -0.410613 0.845313 -0.087883
v -0.482704 0.703825 -0.087883
v -0.507545 0.546985 -0.087883
v -0.482704 0.390145 -0.087883
v -0.410613 0.248658 -0.087883
v -0.298328 0.136373 -0.087883
v -0.156840 0.064281 -0.087883
v 0.000000 0.039440 -0.087883
v 0.156840 0.064281 -0.087883
v 0.298328 0.136373 -0.087883
v 0.410613 0.248658 -0.087883
v 0.482704 0.390146 -0.087883
v 0.507545 0.546986 -0.087883
v 0.482704 0.703826 -0.087883
v 0.410612 0.845313 -0.087883
v 0.298327 0.957599 -0.087883
v 0.156839 1.029690 -0.087883
v 0.000000 1.054531 0.000000
v -0.156840 1.029690 0.000000
v -0.410613 0.845313 0.000000
v -0.507545 0.546985 0.000000
v -0.482704 0.390145 0.000000
v 0.410612 0.845313 0.000000
v -0.000000 0.996869 -0.087883
v -0.139022 0.974850 -0.087883
v -0.264435 0.910949 -0.087883
v -0.363964 0.811420 -0.087883
v -0.427865 0.686007 -0.087883
v -0.449884 0.546985 -0.087883
v -0.427865 0.407964 -0.087883
v -0.363964 0.282550 -0.087883
v -0.264435 0.183022 -0.087883
v -0.139022 0.119121 -0.087883
v 0.000000 0.097102 -0.087883
v 0.139022 0.119121 -0.087883
v 0.264435 0.183022 -0.087883
v 0.363964 0.282551 -0.087883
v 0.427865 0.407964 -0.087883
v 0.449884 0.546986 -0.087883
v 0.427865 0.686008 -0.087883
v 0.363963 0.811421 -0.087883
v 0.264435 0.910949 -0.087883
v 0.139021 0.974851 -0.087883
v -0.000000 0.996869 -0.034825
v -0.139022 0.974850 -0.034825
v -0.264435 0.910949 -0.034825
v -0.363964 0.811420 -0.034825
v -0.427865 0.686007 -0.034825
v -0.449884 0.546985 -0.034825
v -0.427865 0.407964 -0.034825
v -0.363964 0.282550 -0.034825
v -0.264435 0.183022 -0.034825
v -0.139022 0.119121 -0.034825
v 0.000000 0.097102 -0.034825
v 0.139022 0.119121 -0.034825
v 0.264435 0.183022 -0.034825
v 0.363964 0.282551 -0.034825
v 0.427865 0.407964 -0.034825
v 0.449884 0.546986 -0.034825
v 0.427865 0.686008 -0.034825
v 0.363963 0.811421 -0.034825
v 0.264435 0.910949 -0.034825
v 0.139021 0.974851 -0.034825
v -0.159322 0.752855 -0.034603
v -0.159322 0.334080 -0.034603
v 0.159322 0.334079 -0.034603
v 0.159322 0.752854 -0.034603
v -0.298328 0.957598 0.000000
v 0.159322 0.334079 0.000000
v -0.482704 0.703825 0.000000
v 0.159322 0.752854 0.000000
v -0.159322 0.752855 0.000000
v -0.410613 0.248658 0.000000
v -0.298328 0.136373 0.000000
v -0.156840 0.064281 0.000000
v 0.000000 0.039440 0.000000
v 0.156840 0.064281 0.000000
v 0.298328 0.136373 0.000000
v 0.410613 0.248658 0.000000
v 0.482704 0.390146 0.000000
v 0.507545 0.546986 0.000000
v 0.482704 0.703826 0.000000
v -0.159322 0.334080 0.000000
v 0.298327 0.957599 0.000000
v 0.156839 1.029690 0.000000
vt 0.775334 0.490597
vt 0.827147 0.453754
vt 0.855622 0.481221
vt 0.794001 0.526106
vt 0.488846 0.209435
vt 0.469000 0.270700
vt 0.428992 0.265200
vt 0.453055 0.192127
vt 0.713196 0.510222
vt 0.720274 0.550428
vt 0.525908 0.158341
vt 0.497515 0.130785
vt 0.646647 0.510248
vt 0.641244 0.551134
vt 0.862765 0.213127
vt 0.823688 0.160405
vt 0.851700 0.130561
vt 0.898747 0.193579
vt 0.577819 0.121643
vt 0.559266 0.086107
vt 0.582917 0.490166
vt 0.565417 0.527490
vt 0.883498 0.275736
vt 0.923642 0.268405
vt 0.639951 0.102200
vt 0.632987 0.062046
vt 0.528901 0.452124
vt 0.500802 0.482078
vt 0.883689 0.341309
vt 0.923642 0.346686
vt 0.706356 0.102325
vt 0.711826 0.061562
vt 0.489721 0.399239
vt 0.453603 0.418818
vt 0.864048 0.402568
vt 0.899864 0.419751
vt 0.769861 0.122440
vt 0.787351 0.085260
vt 0.469018 0.336415
vt 0.428750 0.343684
vt 0.765134 0.469516
vt 0.811042 0.437406
vt 0.509558 0.219883
vt 0.492334 0.274298
vt 0.709787 0.486522
vt 0.541970 0.174738
vt 0.650426 0.486333
vt 0.841505 0.224010
vt 0.806984 0.177446
vt 0.587961 0.142738
vt 0.593611 0.468513
vt 0.859968 0.279531
vt 0.643306 0.125870
vt 0.545648 0.435030
vt 0.860383 0.337774
vt 0.702548 0.126177
vt 0.511048 0.388344
vt 0.843324 0.392187
vt 0.759172 0.144018
vt 0.492607 0.332653
vt 0.796840 0.423314
vt 0.824952 0.383497
vt 0.792586 0.192617
vt 0.750126 0.163214
vt 0.512909 0.277020
vt 0.513290 0.329017
vt 0.756152 0.450927
vt 0.527921 0.228626
vt 0.706689 0.465560
vt 0.556137 0.188873
vt 0.653504 0.465153
vt 0.822899 0.233763
vt 0.596899 0.161337
vt 0.602655 0.449255
vt 0.839326 0.283190
vt 0.646366 0.146806
vt 0.560079 0.419815
vt 0.839831 0.335099
vt 0.699447 0.147306
vt 0.529707 0.378584
vt 0.684623 0.219550
vt 0.770680 0.297939
vt 0.580121 0.316334
vt 0.666219 0.394791
vt 0.452599 0.849098
vt 0.480133 0.877938
vt 0.418139 0.921828
vt 0.401283 0.886120
vt 0.267386 0.493089
vt 0.262271 0.453565
vt 0.339530 0.453555
vt 0.332363 0.493508
vt 0.490553 0.796894
vt 0.526256 0.816026
vt 0.206859 0.511930
vt 0.189891 0.476279
vt 0.510822 0.734280
vt 0.551132 0.741447
vt 0.158534 0.845090
vt 0.129185 0.873898
vt 0.082429 0.810379
vt 0.119122 0.792196
vt 0.155669 0.549097
vt 0.128067 0.520369
vt 0.510491 0.668057
vt 0.551132 0.662294
vt 0.212740 0.883770
vt 0.193587 0.920071
vt 0.117918 0.601362
vt 0.082225 0.582373
vt 0.489639 0.605574
vt 0.526462 0.587323
vt 0.275802 0.904187
vt 0.268540 0.944050
vt 0.097868 0.663897
vt 0.057656 0.656843
vt 0.450066 0.552535
vt 0.479483 0.523591
vt 0.340711 0.904785
vt 0.345704 0.944297
vt 0.098306 0.729916
vt 0.057811 0.735708
vt 0.395621 0.513818
vt 0.414754 0.477373
vt 0.391016 0.865579
vt 0.436017 0.832787
vt 0.328508 0.517084
vt 0.270727 0.516224
vt 0.469348 0.786352
vt 0.217185 0.532442
vt 0.487156 0.730704
vt 0.140271 0.781023
vt 0.175277 0.827746
vt 0.172285 0.565348
vt 0.486826 0.671966
vt 0.223542 0.862188
vt 0.139115 0.611832
vt 0.468426 0.616782
vt 0.279702 0.880657
vt 0.121486 0.667416
vt 0.433293 0.569952
vt 0.337433 0.881657
vt 0.121900 0.725991
vt 0.384829 0.535473
vt 0.335083 0.861284
vt 0.382401 0.847522
vt 0.142650 0.722903
vt 0.158940 0.771474
vt 0.375022 0.554433
vt 0.324633 0.537791
vt 0.421511 0.818420
vt 0.273123 0.536602
vt 0.450739 0.776982
vt 0.225848 0.550476
vt 0.466410 0.727324
vt 0.190152 0.812581
vt 0.186814 0.579668
vt 0.466021 0.675038
vt 0.233353 0.843284
vt 0.157714 0.621145
vt 0.449709 0.626360
vt 0.283606 0.859988
vt 0.142196 0.670754
vt 0.418395 0.585180
vt 0.212272 0.677906
vt 0.269634 0.779047
vt 0.341306 0.617536
vt 0.398687 0.718755
vt 0.664306 0.378879
vt 0.753405 0.300677
vt 0.686534 0.235452
vt 0.597405 0.313598
vt 0.272712 0.763260
vt 0.381600 0.715945
vt 0.229350 0.680712
vt 0.338221 0.633334
vn -0.7030 -0.2284 0.6735
vn -0.7391 0.0000 0.6735
vn -1.0000 0.0000 0.0000
vn -0.9510 -0.3090 0.0000
vn 0.7030 -0.2284 0.6735
vn 0.5980 -0.4345 0.6735
vn 0.8090 -0.5878 0.0000
vn 0.9510 -0.3090 0.0000
vn -0.5980 -0.4345 0.6735
vn -0.8090 -0.5878 0.0000
vn 0.7391 0.0000 0.6735
vn 1.0000 0.0000 0.0000
vn -0.4345 -0.5980 0.6735
vn -0.5878 -0.8090 0.0000
vn -0.2284 0.7030 0.6735
vn 0.0000 0.7391 0.6735
vn 0.0000 1.0000 0.0000
vn -0.3090 0.9510 0.0000
vn 0.7030 0.2284 0.6735
vn 0.9510 0.3090 0.0000
vn -0.2284 -0.7030 0.6735
vn -0.3090 -0.9510 0.0000
vn -0.4345 0.5980 0.6735
vn -0.5878 0.8090 0.0000
vn 0.5980 0.4345 0.6735
vn 0.8090 0.5878 0.0000
vn 0.0000 -0.7391 0.6735
vn 0.0000 -1.0000 0.0000
vn -0.5980 0.4345 0.6735
vn -0.8090 0.5878 0.0000
vn 0.4345 0.5980 0.6735
vn 0.5878 0.8090 0.0000
vn 0.2284 -0.7030 0.6735
vn 0.3090 -0.9510 0.0000
vn -0.7030 0.2284 0.6735
vn -0.9510 0.3090 0.0000
vn 0.2284 0.7030 0.6735
vn 0.3090 0.9510 0.0000
vn 0.4345 -0.5980 0.6735
vn 0.5878 -0.8090 0.0000
vn 0.6354 0.2064 0.7440
vn 0.6681 0.0000 0.7440
vn -0.6354 0.2064 0.7440
vn -0.5405 0.3927 0.7440
vn 0.5405 0.3927 0.7440
vn -0.6681 0.0000 0.7440
vn 0.3927 0.5405 0.7440
vn 0.2064 -0.6354 0.7440
vn 0.0000 -0.6681 0.7440
vn -0.6354 -0.2064 0.7440
vn 0.2064 0.6354 0.7440
vn 0.3927 -0.5405 0.7440
vn -0.5405 -0.3927 0.7440
vn 0.0000 0.6681 0.7440
vn 0.5405 -0.3927 0.7440
vn -0.3927 -0.5405 0.7440
vn -0.2064 0.6354 0.7440
vn 0.6354 -0.2064 0.7440
vn -0.2064 -0.6354 0.7440
vn -0.3927 0.5405 0.7440
vn 0.7394 0.0000 0.6732
vn 0.7032 -0.2285 0.6732
vn 0.0000 -0.7394 0.6732
vn -0.2285 -0.7033 0.6731
vn -0.5983 0.4346 0.6731
vn -0.4347 0.5983 0.6731
vn 0.7032 0.2285 0.6732
vn -0.7032 0.2285 0.6732
vn 0.5983 0.4346 0.6731
vn -0.7394 0.0000 0.6732
vn 0.4347 0.5983 0.6731
vn 0.2285 -0.7033 0.6731
vn -0.7032 -0.2285 0.6732
vn 0.2285 0.7033 0.6731
vn 0.4346 -0.5983 0.6731
vn -0.5983 -0.4346 0.6731
vn 0.0000 0.7394 0.6732
vn 0.5983 -0.4346 0.6731
vn -0.4346 -0.5983 0.6731
vn -0.2285 0.7033 0.6731
vn -0.3019 -0.3020 0.9042
vn 0.3019 -0.3020 0.9042
vn -0.3019 0.3020 0.9042
vn 0.3019 0.3020 0.9042
vn -0.7030 -0.2284 -0.6735
vn -0.7391 0.0000 -0.6735
vn 0.7030 -0.2284 -0.6735
vn 0.5980 -0.4345 -0.6735
vn -0.5980 -0.4345 -0.6735
vn 0.7391 0.0000 -0.6735
vn -0.4345 -0.5980 -0.6735
vn -0.2284 0.7030 -0.6735
vn 0.0000 0.7391 -0.6735
vn 0.7030 0.2284 -0.6735
vn -0.2284 -0.7030 -0.6735
vn -0.4345 0.5980 -0.6735
vn 0.5980 0.4345 -0.6735
vn 0.0000 -0.7391 -0.6735
vn -0.5980 0.4345 -0.6735
vn 0.4345 0.5980 -0.6735
vn 0.2284 -0.7030 -0.6735
vn -0.7030 0.2284 -0.6735
vn 0.2284 0.7030 -0.6735
vn 0.4345 -0.5980 -0.6735
vn 0.6681 0.0000 -0.7440
vn 0.6354 0.2064 -0.7440
vn -0.5405 0.3927 -0.7440
vn -0.6354 0.2064 -0.7440
vn 0.5405 0.3927 -0.7440
vn -0.6681 0.0000 -0.7440
vn 0.3927 0.5405 -0.7440
vn 0.0000 -0.6681 -0.7440
vn 0.2064 -0.6354 -0.7440
vn -0.6354 -0.2064 -0.7440
vn 0.2064 0.6354 -0.7440
vn 0.3927 -0.5405 -0.7440
vn -0.5405 -0.3927 -0.7440
vn 0.0000 0.6681 -0.7440
vn 0.5405 -0.3927 -0.7440
vn -0.3927 -0.5405 -0.7440
vn -0.2064 0.6354 -0.7440
vn 0.6354 -0.2064 -0.7440
vn -0.2064 -0.6354 -0.7440
vn -0.3927 0.5405 -0.7440
vn 0.7032 -0.2285 -0.6732
vn 0.7394 0.0000 -0.6732
vn -0.2285 -0.7033 -0.6731
vn 0.0000 -0.7394 -0.6732
vn -0.4347 0.5983 -0.6731
vn -0.5983 0.4346 -0.6731
vn 0.7032 0.2285 -0.6732
vn -0.7032 0.2285 -0.6732
vn 0.5983 0.4346 -0.6731
vn -0.7394 0.0000 -0.6732
vn 0.4347 0.5983 -0.6731
vn 0.2285 -0.7033 -0.6731
vn -0.7032 -0.2285 -0.6732
vn 0.2285 0.7033 -0.6731
vn 0.4346 -0.5983 -0.6731
vn -0.5983 -0.4346 -0.6731
vn 0.0000 0.7394 -0.6732
vn 0.5983 -0.4346 -0.6731
vn -0.4346 -0.5983 -0.6731
vn -0.2285 0.7033 -0.6731
vn -0.3019 -0.3020 -0.9042
vn 0.3019 -0.3020 -0.9042
vn -0.3019 0.3020 -0.9042
vn 0.3019 0.3020 -0.9042
vn 0.7071 0.7071 0.0000
vn 0.7071 -0.7071 0.0000
vn -0.7071 -0.7071 0.0000
vn -0.7071 0.7071 0.0000
usemtl bakeTo
s 1
f 7/1/1 6/2/2 88/3/3 89/4/4
f 15/5/5 14/6/6 146/7/7 147/8/8
f 8/9/9 7/1/1 89/4/4 140/10/10
f 16/11/11 15/5/5 147/8/8 148/12/12
f 9/13/13 8/9/9 140/10/10 141/14/14
f 2/15/15 1/16/16 85/17/17 86/18/18
f 17/19/19 16/11/11 148/12/12 149/20/20
f 10/21/21 9/13/13 141/14/14 142/22/22
f 3/23/23 2/15/15 86/18/18 135/24/24
f 18/25/25 17/19/19 149/20/20 90/26/26
f 11/27/27 10/21/21 142/22/22 143/28/28
f 4/29/29 3/23/23 135/24/24 87/30/30
f 19/31/31 18/25/25 90/26/26 151/32/32
f 12/33/33 11/27/27 143/28/28 144/34/34
f 5/35/35 4/29/29 87/30/30 137/36/36
f 20/37/37 19/31/31 151/32/32 152/38/38
f 13/39/39 12/33/33 144/34/34 145/40/40
f 6/2/2 5/35/35 137/36/36 88/3/3
f 1/16/16 20/37/37 152/38/38 85/17/17
f 14/6/6 13/39/39 145/40/40 146/7/7
f 6/2/2 7/1/1 27/41/41 26/42/42
f 14/6/6 15/5/5 35/43/43 34/44/44
f 7/1/1 8/9/9 28/45/45 27/41/41
f 15/5/5 16/11/11 36/46/46 35/43/43
f 8/9/9 9/13/13 29/47/47 28/45/45
f 1/16/16 2/15/15 22/48/48 21/49/49
f 16/11/11 17/19/19 37/50/50 36/46/46
f 9/13/13 10/21/21 30/51/51 29/47/47
f 2/15/15 3/23/23 23/52/52 22/48/48
f 17/19/19 18/25/25 38/53/53 37/50/50
f 10/21/21 11/27/27 31/54/54 30/51/51
f 3/23/23 4/29/29 24/55/55 23/52/52
f 18/25/25 19/31/31 39/56/56 38/53/53
f 11/27/27 12/33/33 32/57/57 31/54/54
f 4/29/29 5/35/35 25/58/58 24/55/55
f 19/31/31 20/37/37 40/59/59 39/56/56
f 12/33/33 13/39/39 33/60/60 32/57/57
f 5/35/35 6/2/2 26/42/42 25/58/58
f 20/37/37 1/16/16 21/49/49 40/59/59
f 13/39/39 14/6/6 34/44/44 33/60/60
f 25/58/58 26/42/42 46/61/61 45/62/62
f 40/59/59 21/49/49 41/63/63 60/64/64
f 33/60/60 34/44/44 54/65/65 53/66/66
f 26/42/42 27/41/41 47/67/67 46/61/61
f 34/44/44 35/43/43 55/68/68 54/65/65
f 27/41/41 28/45/45 48/69/69 47/67/67
f 35/43/43 36/46/46 56/70/70 55/68/68
f 28/45/45 29/47/47 49/71/71 48/69/69
f 21/49/49 22/48/48 42/72/72 41/63/63
f 36/46/46 37/50/50 57/73/73 56/70/70
f 29/47/47 30/51/51 50/74/74 49/71/71
f 22/48/48 23/52/52 43/75/75 42/72/72
f 37/50/50 38/53/53 58/76/76 57/73/73
f 30/51/51 31/54/54 51/77/77 50/74/74
f 23/52/52 24/55/55 44/78/78 43/75/75
f 38/53/53 39/56/56 59/79/79 58/76/76
f 31/54/54 32/57/57 52/80/80 51/77/77
f 24/55/55 25/58/58 45/62/62 44/78/78
f 39/56/56 40/59/59 60/64/64 59/79/79
f 32/57/57 33/60/60 53/66/66 52/80/80
f 64/81/81 41/63/63 61/82/82
f 64/81/81 59/79/79 60/64/64
f 64/81/81 58/76/76 59/79/79
f 64/81/81 57/73/73 58/76/76
f 64/81/81 56/70/70 57/73/73
f 63/83/83 56/70/70 64/81/81
f 63/83/83 54/65/65 55/68/68
f 63/83/83 53/66/66 54/65/65
f 63/83/83 52/80/80 53/66/66
f 63/83/83 51/77/77 52/80/80
f 62/84/84 51/77/77 63/83/83
f 62/84/84 49/71/71 50/74/74
f 62/84/84 48/69/69 49/71/71
f 62/84/84 47/67/67 48/69/69
f 62/84/84 46/61/61 47/67/67
f 61/82/82 46/61/61 62/84/84
f 61/82/82 44/78/78 45/62/62
f 61/82/82 43/75/75 44/78/78
f 61/82/82 42/72/72 43/75/75
f 61/82/82 41/63/63 42/72/72
f 64/81/81 60/64/64 41/63/63
f 63/83/83 55/68/68 56/70/70
f 62/84/84 50/74/74 51/77/77
f 61/82/82 45/62/62 46/61/61
f 71/85/85 89/86/4 88/87/3 70/88/86
f 79/89/87 147/90/8 146/91/7 78/92/88
f 72/93/89 140/94/10 89/86/4 71/85/85
f 80/95/90 148/96/12 147/90/8 79/89/87
f 73/97/91 141/98/14 140/94/10 72/93/89
f 66/99/92 86/100/18 85/101/17 65/102/93
f 81/103/94 149/104/20 148/96/12 80/95/90
f 74/105/95 142/106/22 141/98/14 73/97/91
f 67/107/96 135/108/24 86/100/18 66/99/92
f 82/109/97 90/110/26 149/104/20 81/103/94
f 75/111/98 143/112/28 142/106/22 74/105/95
f 68/113/99 87/114/30 135/108/24 67/107/96
f 83/115/100 151/116/32 90/110/26 82/109/97
f 76/117/101 144/118/34 143/112/28 75/111/98
f 69/119/102 137/120/36 87/114/30 68/113/99
f 84/121/103 152/122/38 151/116/32 83/115/100
f 77/123/104 145/124/40 144/118/34 76/117/101
f 70/88/86 88/87/3 137/120/36 69/119/102
f 65/102/93 85/101/17 152/122/38 84/121/103
f 78/92/88 146/91/7 145/124/40 77/123/104
f 70/88/86 96/125/105 97/126/106 71/85/85
f 78/92/88 104/127/107 105/128/108 79/89/87
f 71/85/85 97/126/106 98/129/109 72/93/89
f 79/89/87 105/128/108 106/130/110 80/95/90
f 72/93/89 98/129/109 99/131/111 73/97/91
f 65/102/93 91/132/112 92/133/113 66/99/92
f 80/95/90 106/130/110 107/134/114 81/103/94
f 73/97/91 99/131/111 100/135/115 74/105/95
f 66/99/92 92/133/113 93/136/116 67/107/96
f 81/103/94 107/134/114 108/137/117 82/109/97
f 74/105/95 100/135/115 101/138/118 75/111/98
f 67/107/96 93/136/116 94/139/119 68/113/99
f 82/109/97 108/137/117 109/140/120 83/115/100
f 75/111/98 101/138/118 102/141/121 76/117/101
f 68/113/99 94/139/119 95/142/122 69/119/102
f 83/115/100 109/140/120 110/143/123 84/121/103
f 76/117/101 102/141/121 103/144/124 77/123/104
f 69/119/102 95/142/122 96/125/105 70/88/86
f 84/121/103 110/143/123 91/132/112 65/102/93
f 77/123/104 103/144/124 104/127/107 78/92/88
f 95/142/122 115/145/125 116/146/126 96/125/105
f 110/143/123 130/147/127 111/148/128 91/132/112
f 103/144/124 123/149/129 124/150/130 104/127/107
f 96/125/105 116/146/126 117/151/131 97/126/106
f 104/127/107 124/150/130 125/152/132 105/128/108
f 97/126/106 117/151/131 118/153/133 98/129/109
f 105/128/108 125/152/132 126/154/134 106/130/110
f 98/129/109 118/153/133 119/155/135 99/131/111
f 91/132/112 111/148/128 112/156/136 92/133/113
f 106/130/110 126/154/134 127/157/137 107/134/114
f 99/131/111 119/155/135 120/158/138 100/135/115
f 92/133/113 112/156/136 113/159/139 93/136/116
f 107/134/114 127/157/137 128/160/140 108/137/117
f 100/135/115 120/158/138 121/161/141 101/138/118
f 93/136/116 113/159/139 114/162/142 94/139/119
f 108/137/117 128/160/140 129/163/143 109/140/120
f 101/138/118 121/161/141 122/164/144 102/141/121
f 94/139/119 114/162/142 115/145/125 95/142/122
f 109/140/120 129/163/143 130/147/127 110/143/123
f 102/141/121 122/164/144 123/149/129 103/144/124
f 134/165/145 131/166/146 111/148/128
f 134/165/145 130/147/127 129/163/143
f 134/165/145 129/163/143 128/160/140
f 134/165/145 128/160/140 127/157/137
f 134/165/145 127/157/137 126/154/134
f 133/167/147 134/165/145 126/154/134
f 133/167/147 125/152/132 124/150/130
f 133/167/147 124/150/130 123/149/129
f 133/167/147 123/149/129 122/164/144
f 133/167/147 122/164/144 121/161/141
f 132/168/148 133/167/147 121/161/141
f 132/168/148 120/158/138 119/155/135
f 132/168/148 119/155/135 118/153/133
f 132/168/148 118/153/133 117/151/131
f 132/168/148 117/151/131 116/146/126
f 131/166/146 132/168/148 116/146/126
f 131/166/146 115/145/125 114/162/142
f 131/166/146 114/162/142 113/159/139
f 131/166/146 113/159/139 112/156/136
f 131/166/146 112/156/136 111/148/128
f 134/165/145 111/148/128 130/147/127
f 133/167/147 126/154/134 125/152/132
f 132/168/148 121/161/141 120/158/138
f 131/166/146 116/146/126 115/145/125
f 150/169/149 139/170/150 61/82/82 62/84/84
f 139/170/150 138/171/151 64/81/81 61/82/82
f 138/171/151 136/172/152 63/83/83 64/81/81
f 136/172/152 150/169/149 62/84/84 63/83/83
f 132/168/148 131/166/146 139/173/150 150/174/149
f 131/166/146 134/165/145 138/175/151 139/173/150
f 134/165/145 133/167/147 136/176/152 138/175/151
f 133/167/147 132/168/148 150/174/149 136/176/152
