# Blender v2.90.1 OBJ File: 'items.blend'
# www.blender.org
mtllib key.mtl
o Circle.006
v 0.108583 0.892121 -0.024426
v 0.067574 0.922588 0.031975
v 0.158179 0.773862 -0.110703
v 0.140934 0.839017 -0.075370
v 0.147370 0.621092 -0.131519
v 0.160477 0.696049 -0.130751
v 0.080285 0.492165 -0.078924
v 0.118737 0.548293 -0.113014
v 0.031658 0.452186 -0.028934
v 0.017527 0.930700 0.094356
v -0.000479 0.909138 0.175978
v 0.048631 0.924998 0.120052
v -0.087558 0.813031 0.260058
v -0.049106 0.869160 0.225969
v -0.129297 0.665275 0.277796
v -0.116191 0.740233 0.278564
v -0.109755 0.522307 0.222415
v -0.127000 0.587463 0.257747
v -0.036395 0.438736 0.115070
v -0.077404 0.469203 0.171471
v 0.062762 0.446484 -0.003238
v 0.013652 0.430625 0.052689
v 0.149841 0.542591 -0.087318
v 0.111389 0.486463 -0.053228
v 0.191581 0.690347 -0.105055
v 0.178474 0.615390 -0.105823
v 0.172038 0.833315 -0.049674
v 0.189283 0.768160 -0.085007
v 0.098678 0.916886 0.057671
v 0.139687 0.886419 0.001270
v 0.018084 0.855291 0.141559
v 0.033569 0.860292 0.123925
v -0.009372 0.824988 0.168070
v 0.002752 0.842686 0.157322
v -0.022533 0.778400 0.173663
v -0.018400 0.802034 0.173905
v -0.016371 0.733321 0.156201
v -0.021809 0.753865 0.167342
v 0.006760 0.706971 0.122355
v -0.006171 0.716577 0.140138
v 0.038024 0.709414 0.085051
v 0.022540 0.704413 0.102685
v 0.065481 0.739717 0.058540
v 0.053357 0.722019 0.069289
v 0.078642 0.786305 0.052948
v 0.074509 0.762671 0.052706
v 0.072480 0.831384 0.070410
v 0.077917 0.810840 0.059269
v 0.049349 0.857734 0.104256
v 0.062279 0.848128 0.086473
v -0.013020 0.860993 0.115864
v -0.040476 0.830690 0.142375
v -0.028352 0.848388 0.131626
v -0.053637 0.784102 0.147967
v -0.049504 0.807736 0.148209
v -0.047475 0.739023 0.130505
v -0.052913 0.759567 0.141646
v -0.024344 0.712673 0.096659
v -0.037275 0.722279 0.114442
v -0.008564 0.710115 0.076990
v -0.053727 0.467581 0.108030
v 0.094057 0.515307 -0.060268
v -0.043899 0.134762 0.022279
v 0.103885 0.182489 -0.146019
v 0.032595 0.070526 -0.084569
v -0.068261 0.470245 0.096023
v -0.058433 0.137427 0.010272
v -0.017452 0.436327 0.026993
v -0.108508 0.474905 0.145775
v -0.067499 0.444439 0.089374
v -0.158104 0.593165 0.232052
v -0.140859 0.528009 0.196719
v -0.147295 0.745935 0.252868
v -0.160402 0.670977 0.252100
v -0.080210 0.874862 0.200273
v -0.118662 0.818733 0.234363
v -0.031583 0.914840 0.150282
v -0.062687 0.920542 0.124587
v -0.013577 0.936402 0.068660
v -0.149766 0.824435 0.208667
v -0.111314 0.880564 0.174577
v -0.191506 0.676679 0.226404
v -0.178399 0.751637 0.227172
v -0.171963 0.533711 0.171023
v -0.189208 0.598867 0.206356
v -0.098603 0.450141 0.063678
v -0.139612 0.480607 0.120079
v 0.000554 0.457888 -0.054629
v -0.048556 0.442029 0.001297
v 0.087633 0.553995 -0.138710
v 0.049181 0.497867 -0.104620
v 0.129373 0.701751 -0.156447
v 0.116266 0.626794 -0.157215
v 0.109830 0.844719 -0.101066
v 0.127075 0.779564 -0.136398
v 0.036470 0.928290 0.006279
v 0.077479 0.897823 -0.050122
v -0.044124 0.866695 0.090168
v -0.028639 0.871696 0.072534
v -0.071580 0.836392 0.116679
v -0.059456 0.854090 0.105930
v -0.084741 0.789804 0.122272
v -0.080608 0.813438 0.122514
v -0.078579 0.744725 0.104810
v -0.084017 0.765269 0.115950
v -0.055448 0.718375 0.070963
v -0.068379 0.727981 0.088747
v -0.024184 0.720818 0.033660
v -0.039668 0.715817 0.051294
v 0.003273 0.751121 0.007149
v -0.008851 0.733423 0.017898
v 0.016434 0.797709 0.001556
v 0.012301 0.774075 0.001314
v 0.010272 0.842788 0.019018
v 0.015709 0.822244 0.007878
v -0.012859 0.869138 0.052865
v 0.000071 0.859532 0.035081
v 0.002465 0.865994 0.098230
v 0.006920 0.715116 0.059356
v 0.034377 0.745419 0.032845
v 0.022253 0.727721 0.043593
v 0.047538 0.792007 0.027252
v 0.043405 0.768373 0.027010
v 0.041376 0.837086 0.044714
v 0.046813 0.816542 0.033573
v 0.018245 0.863436 0.078561
v 0.031175 0.853830 0.060777
v -0.082795 0.472910 0.084016
v 0.064989 0.520636 -0.084282
v -0.072967 0.140091 -0.001735
v 0.074817 0.187817 -0.170033
v 0.003526 0.075855 -0.108583
v 0.079523 0.517972 -0.072275
v 0.089351 0.185153 -0.158026
v 0.018061 0.073191 -0.096576
vt 0.426850 0.778216
vt 0.450562 0.726539
vt 0.483844 0.734945
vt 0.455435 0.796540
vt 0.312488 0.500989
vt 0.257297 0.498117
vt 0.253241 0.465444
vt 0.318655 0.468201
vt 0.106084 0.744307
vt 0.134787 0.793206
vt 0.110342 0.813973
vt 0.076550 0.756593
vt 0.119226 0.586003
vt 0.098923 0.635645
vt 0.067667 0.628743
vt 0.091330 0.570056
vt 0.443827 0.609795
vt 0.411649 0.558206
vt 0.436929 0.534964
vt 0.475545 0.596002
vt 0.337656 0.848359
vt 0.386266 0.821625
vt 0.407232 0.847703
vt 0.349499 0.879216
vt 0.201373 0.512994
vt 0.155689 0.542202
vt 0.133870 0.518373
vt 0.187575 0.483469
vt 0.094264 0.692095
vt 0.062404 0.695021
vt 0.456592 0.666013
vt 0.491120 0.663119
vt 0.367763 0.522217
vt 0.384213 0.492630
vt 0.280641 0.859355
vt 0.282332 0.891977
vt 0.174673 0.829205
vt 0.226660 0.852873
vt 0.218543 0.884242
vt 0.157472 0.856402
vt 0.317129 0.711212
vt 0.334463 0.718902
vt 0.362192 0.603341
vt 0.344234 0.601937
vt 0.325823 0.606445
vt 0.290133 0.665638
vt 0.294193 0.683013
vt 0.393585 0.622810
vt 0.379854 0.610799
vt 0.403539 0.639449
vt 0.352322 0.720780
vt 0.303777 0.699296
vt 0.386546 0.707697
vt 0.399201 0.693288
vt 0.291642 0.646809
vt 0.370942 0.716800
vt 0.407814 0.657303
vt 0.298435 0.630300
vt 0.310636 0.615875
vt 0.406252 0.676523
vt 0.380100 0.649246
vt 0.374568 0.639120
vt 0.322362 0.683417
vt 0.330221 0.690541
vt 0.366751 0.631841
vt 0.356720 0.627263
vt 0.370737 0.688892
vt 0.378047 0.680641
vt 0.314434 0.663390
vt 0.316753 0.673751
vt 0.350823 0.696348
vt 0.361652 0.694132
vt 0.340346 0.695155
vt 0.382911 0.659782
vt 0.319500 0.642550
vt 0.315414 0.652286
vt 0.382124 0.670950
vt 0.335683 0.628713
vt 0.326717 0.634151
vt 0.346354 0.626233
vt 0.532165 0.509435
vt 0.777847 0.477762
vt 0.781925 0.463119
vt 0.530139 0.493395
vt 0.846702 0.523332
vt 0.859514 0.518920
vt 0.820740 0.600748
vt 0.832812 0.610987
vt 0.583913 0.706738
vt 0.590916 0.722195
vt 0.524427 0.090553
vt 0.542021 0.061513
vt 0.594652 0.104302
vt 0.568474 0.126506
vt 0.543842 0.389812
vt 0.563819 0.416534
vt 0.506303 0.447817
vt 0.495556 0.416697
vt 0.251375 0.262260
vt 0.219448 0.264237
vt 0.224518 0.197839
vt 0.255610 0.205718
vt 0.332891 0.398599
vt 0.314869 0.425201
vt 0.267778 0.382933
vt 0.292800 0.362971
vt 0.613841 0.234286
vt 0.648391 0.232700
vt 0.640603 0.304506
vt 0.607671 0.294773
vt 0.413458 0.066859
vt 0.410500 0.033940
vt 0.476212 0.036807
vt 0.468874 0.069453
vt 0.438796 0.427970
vt 0.439411 0.460554
vt 0.375823 0.452868
vt 0.384917 0.421866
vt 0.263757 0.314343
vt 0.233865 0.325746
vt 0.632817 0.165583
vt 0.600543 0.178191
vt 0.611918 0.365730
vt 0.584120 0.346411
vt 0.357426 0.082096
vt 0.344578 0.052063
vt 0.275565 0.155832
vt 0.248146 0.138990
vt 0.290715 0.087100
vt 0.311817 0.111688
vt 0.467603 0.184492
vt 0.455427 0.199031
vt 0.527886 0.285201
vt 0.543391 0.276032
vt 0.509372 0.289262
vt 0.447254 0.234448
vt 0.451261 0.251836
vt 0.555964 0.261557
vt 0.563001 0.244727
vt 0.564611 0.225405
vt 0.482810 0.174941
vt 0.448687 0.215608
vt 0.537006 0.178978
vt 0.519299 0.171615
vt 0.460908 0.268075
vt 0.501280 0.170314
vt 0.560586 0.207493
vt 0.474277 0.279905
vt 0.491583 0.287483
vt 0.550719 0.190925
vt 0.538745 0.238458
vt 0.539252 0.226931
vt 0.476285 0.211823
vt 0.472366 0.221679
vt 0.527943 0.256964
vt 0.534933 0.248436
vt 0.523583 0.199648
vt 0.513387 0.195460
vt 0.471588 0.232828
vt 0.474068 0.243152
vt 0.502922 0.194756
vt 0.492224 0.197536
vt 0.483343 0.203221
vt 0.537136 0.216234
vt 0.479839 0.252689
vt 0.487794 0.259631
vt 0.531511 0.206553
vt 0.497973 0.263993
vt 0.508417 0.264927
vt 0.519090 0.262454
vt 0.886285 0.642285
vt 0.880608 0.627148
vt 0.643701 0.717633
vt 0.654130 0.728691
vt 0.601033 0.803151
vt 0.614425 0.801088
vt 0.678421 0.812013
vt 0.667545 0.872185
vt 0.932394 0.840981
vt 0.933397 0.857921
vn 0.1619 0.3027 0.9392
vn 0.2788 0.4733 0.8356
vn -0.3184 0.7678 0.5558
vn -0.4765 0.5371 0.6960
vn 0.9296 0.3678 0.0244
vn 0.9820 0.1698 -0.0829
vn 0.6329 0.3572 -0.6868
vn 0.5620 0.6251 -0.5416
vn 0.4604 -0.8250 0.3276
vn 0.3164 -0.8017 0.5071
vn -0.2675 -0.9571 0.1114
vn -0.0727 -0.9886 -0.1314
vn 0.8664 -0.4912 -0.0897
vn 0.7495 -0.6618 0.0139
vn 0.3184 -0.7678 -0.5558
vn 0.4765 -0.5371 -0.6960
vn 0.5679 0.6365 0.5218
vn 0.7119 0.6132 0.3424
vn 0.2675 0.9571 -0.1114
vn 0.0727 0.9886 0.1314
vn 0.0397 -0.1345 0.9901
vn 0.0795 0.0933 0.9924
vn -0.5880 0.2537 0.7680
vn -0.6418 -0.0544 0.7649
vn 0.9886 -0.0540 -0.1406
vn 0.9487 -0.2818 -0.1429
vn 0.5880 -0.2537 -0.7680
vn 0.6418 0.0544 -0.7649
vn 0.6096 -0.7768 0.1577
vn 0.1292 -0.9234 -0.3613
vn 0.4187 0.5883 0.6918
vn -0.1292 0.9234 0.3613
vn 0.8365 0.5206 0.1710
vn 0.4361 0.8318 -0.3433
vn 0.0463 -0.3583 0.9324
vn -0.6329 -0.3572 0.6868
vn 0.1918 -0.7091 0.6785
vn 0.0987 -0.5563 0.8251
vn -0.5620 -0.6251 0.5416
vn -0.4361 -0.8318 0.3433
vn 0.8593 0.4516 0.2398
vn 0.9435 0.3135 0.1074
vn 0.1925 -0.5218 0.8310
vn 0.1451 -0.3428 0.9281
vn 0.1392 -0.1405 0.9802
vn 0.4817 0.5128 0.7106
vn 0.6166 0.5564 0.5570
vn 0.3893 -0.7436 0.5437
vn 0.2766 -0.6599 0.6986
vn 0.5194 -0.7646 0.3815
vn 0.9908 0.1346 0.0103
vn 0.7467 0.5353 0.3948
vn 0.9608 -0.2737 -0.0439
vn 0.8863 -0.4629 0.0042
vn 0.3552 0.4089 0.8406
vn 0.9968 -0.0678 -0.0418
vn 0.6543 -0.7211 0.2278
vn 0.2496 0.2547 0.9342
vn 0.1751 0.0654 0.9824
vn 0.7807 -0.6171 0.0978
vn 0.3184 -0.7678 -0.5559
vn 0.9961 0.0484 -0.0737
vn 0.9394 -0.2695 -0.2120
vn 0.5936 -0.2330 -0.7703
vn 0.6453 0.2084 -0.7349
vn 0.4736 -0.8639 0.1709
vn 0.0286 -0.9680 -0.2494
vn 0.0284 -0.5637 0.8255
vn -0.5688 -0.6084 0.5535
vn 0.0834 -0.2463 0.9656
vn -0.6453 -0.2084 0.7349
vn -0.8664 0.4912 0.0897
vn -0.7495 0.6618 -0.0139
vn -0.0987 0.5563 -0.8251
vn -0.0463 0.3583 -0.9324
vn -0.5679 -0.6365 -0.5218
vn -0.7119 -0.6132 -0.3424
vn -0.1619 -0.3027 -0.9392
vn -0.2788 -0.4733 -0.8356
vn -0.4604 0.8250 -0.3276
vn -0.3164 0.8017 -0.5071
vn -0.9886 0.0540 0.1406
vn -0.9487 0.2818 0.1429
vn -0.0397 0.1345 -0.9901
vn -0.0795 -0.0933 -0.9924
vn -0.4187 -0.5883 -0.6918
vn -0.6096 0.7768 -0.1577
vn -0.1918 0.7091 -0.6785
vn -0.9820 -0.1698 0.0829
vn -0.8365 -0.5206 -0.1710
vn -0.9296 -0.3678 -0.0244
vn -0.1925 0.5218 -0.8310
vn -0.2766 0.6599 -0.6986
vn -0.9908 -0.1346 -0.0103
vn -0.9435 -0.3135 -0.1074
vn -0.9968 0.0678 0.0418
vn -0.5194 0.7646 -0.3815
vn -0.6543 0.7211 -0.2278
vn -0.8593 -0.4516 -0.2398
vn -0.7467 -0.5353 -0.3948
vn -0.6166 -0.5564 -0.5570
vn -0.1451 0.3428 -0.9281
vn -0.3893 0.7436 -0.5437
vn -0.2496 -0.2547 -0.9342
vn -0.1751 -0.0654 -0.9824
vn -0.7807 0.6171 -0.0978
vn -0.1392 0.1405 -0.9802
vn -0.4817 -0.5128 -0.7106
vn -0.8863 0.4629 -0.0042
vn -0.9608 0.2737 0.0439
vn -0.3552 -0.4089 -0.8406
vn -0.0834 0.2463 -0.9656
vn -0.0089 -0.0956 -0.9954
vn -0.4275 -0.6988 -0.5735
vn -0.9199 -0.3899 0.0421
vn -0.9961 -0.0484 0.0737
usemtl bakeTo
s 1
f 13/1/1 14/2/2 75/3/3 76/4/4
f 27/5/5 28/6/6 3/7/7 4/8/8
f 22/9/9 19/10/10 70/11/11 68/12/12
f 23/13/13 24/14/14 7/15/15 8/16/16
f 12/17/17 29/18/18 2/19/19 10/20/20
f 15/21/21 16/22/22 73/23/23 74/24/24
f 25/25/25 26/26/26 5/27/27 6/28/28
f 21/29/29 22/9/9 68/12/12 9/30/30
f 16/22/22 13/1/1 76/4/4 73/23/23
f 14/2/2 11/31/31 77/32/32 75/3/3
f 26/26/26 23/13/13 8/16/16 5/27/27
f 29/18/18 30/33/33 1/34/34 2/19/19
f 28/6/6 25/25/25 6/28/28 3/7/7
f 24/14/14 21/29/29 9/30/30 7/15/15
f 30/33/33 27/5/5 4/8/8 1/34/34
f 18/35/35 15/21/21 74/24/24 71/36/36
f 20/37/37 17/38/38 72/39/39 69/40/40
f 17/38/38 18/35/35 71/36/36 72/39/39
f 11/31/31 12/17/17 10/20/20 77/32/32
f 19/10/10 20/37/37 69/40/40 70/11/11
f 17/38/38 20/37/37 40/41/41 37/42/42
f 28/6/6 27/5/5 47/43/43 48/44/44
f 25/25/25 28/6/6 48/44/44 45/45/45
f 22/9/9 21/29/29 41/46/46 42/47/47
f 30/33/33 29/18/18 49/48/48 50/49/49
f 29/18/18 12/17/17 32/50/50 49/48/48
f 18/35/35 17/38/38 37/42/42 38/51/51
f 19/10/10 22/9/9 42/47/47 39/52/52
f 27/5/5 30/33/33 50/49/49 47/43/43
f 13/1/1 16/22/22 36/53/53 33/54/54
f 21/29/29 24/14/14 44/55/55 41/46/46
f 16/22/22 15/21/21 35/56/56 36/53/53
f 12/17/17 11/31/31 31/57/57 32/50/50
f 24/14/14 23/13/13 43/58/58 44/55/55
f 15/21/21 18/35/35 38/51/51 35/56/56
f 26/26/26 25/25/25 45/45/45 46/59/59
f 23/13/13 26/26/26 46/59/59 43/58/58
f 20/37/37 19/10/10 39/52/52 40/41/41
f 14/2/2 13/1/1 33/54/54 34/60/60
f 11/31/31 14/2/2 34/60/60 31/57/57
f 49/48/48 32/50/50 118/61/12 126/62/11
f 40/41/41 39/52/52 58/63/19 59/64/34
f 47/43/43 50/49/49 127/65/40 124/66/39
f 33/54/54 36/53/53 55/67/27 52/68/16
f 42/47/47 41/46/46 119/69/32 60/70/20
f 35/56/56 38/51/51 57/71/7 54/72/28
f 36/53/53 35/56/56 54/72/28 55/67/27
f 37/42/42 40/41/41 59/64/34 56/73/8
f 50/49/49 49/48/48 126/62/11 127/65/40
f 32/50/50 31/57/57 51/74/30 118/61/12
f 39/52/52 42/47/47 60/70/20 58/63/19
f 44/55/55 43/58/58 120/75/4 121/76/3
f 34/60/60 33/54/54 52/68/16 53/77/61
f 41/46/46 44/55/55 121/76/3 119/69/32
f 38/51/51 37/42/42 56/73/8 57/71/7
f 46/59/59 45/45/45 122/78/24 123/79/23
f 43/58/58 46/59/59 123/79/23 120/75/4
f 31/57/57 34/60/60 53/77/61 51/74/30
f 48/44/44 47/43/43 124/66/39 125/80/36
f 45/45/45 48/44/44 125/80/36 122/78/24
f 62/81/62 64/82/63 134/83/64 133/84/65
f 64/82/63 65/85/66 135/86/67 134/83/64
f 63/87/68 67/88/69 135/86/67 65/85/66
f 61/89/70 66/90/71 67/88/69 63/87/68
f 80/91/72 76/92/4 75/93/3 81/94/73
f 94/95/74 4/96/8 3/97/7 95/98/75
f 89/99/76 68/100/12 70/101/11 86/102/77
f 90/103/78 8/104/16 7/105/15 91/106/79
f 79/107/80 10/108/20 2/109/19 96/110/81
f 82/111/82 74/112/24 73/113/23 83/114/83
f 92/115/84 6/116/28 5/117/27 93/118/85
f 88/119/86 9/120/30 68/100/12 89/99/76
f 83/114/83 73/113/23 76/92/4 80/91/72
f 81/94/73 75/93/3 77/121/32 78/122/87
f 93/118/85 5/117/27 8/104/16 90/103/78
f 96/110/81 2/109/19 1/123/34 97/124/88
f 95/98/75 3/97/7 6/116/28 92/115/84
f 91/106/79 7/105/15 9/120/30 88/119/86
f 97/124/88 1/123/34 4/96/8 94/95/74
f 85/125/89 71/126/36 74/112/24 82/111/82
f 87/127/90 69/128/40 72/129/39 84/130/91
f 84/130/91 72/129/39 71/126/36 85/125/89
f 78/122/87 77/121/32 10/108/20 79/107/80
f 86/102/77 70/101/11 69/128/40 87/127/90
f 84/130/91 104/131/92 107/132/93 87/127/90
f 95/98/75 115/133/94 114/134/95 94/95/74
f 92/115/84 112/135/96 115/133/94 95/98/75
f 89/99/76 109/136/97 108/137/98 88/119/86
f 97/124/88 117/138/99 116/139/100 96/110/81
f 96/110/81 116/139/100 99/140/101 79/107/80
f 85/125/89 105/141/102 104/131/92 84/130/91
f 86/102/77 106/142/103 109/136/97 89/99/76
f 94/95/74 114/134/95 117/138/99 97/124/88
f 80/91/72 100/143/104 103/144/105 83/114/83
f 88/119/86 108/137/98 111/145/106 91/106/79
f 83/114/83 103/144/105 102/146/107 82/111/82
f 79/107/80 99/140/101 98/147/108 78/122/87
f 91/106/79 111/145/106 110/148/109 90/103/78
f 82/111/82 102/146/107 105/141/102 85/125/89
f 93/118/85 113/149/110 112/135/96 92/115/84
f 90/103/78 110/148/109 113/149/110 93/118/85
f 87/127/90 107/132/93 106/142/103 86/102/77
f 81/94/73 101/150/111 100/143/104 80/91/72
f 78/122/87 98/147/108 101/150/111 81/94/73
f 116/139/100 126/151/11 118/152/12 99/140/101
f 107/132/93 59/153/34 58/154/19 106/142/103
f 114/134/95 124/155/39 127/156/40 117/138/99
f 100/143/104 52/157/16 55/158/27 103/144/105
f 109/136/97 60/159/20 119/160/32 108/137/98
f 102/146/107 54/161/28 57/162/7 105/141/102
f 103/144/105 55/158/27 54/161/28 102/146/107
f 104/131/92 56/163/8 59/153/34 107/132/93
f 117/138/99 127/156/40 126/151/11 116/139/100
f 99/140/101 118/152/12 51/164/30 98/147/108
f 106/142/103 58/154/19 60/159/20 109/136/97
f 111/145/106 121/165/3 120/166/4 110/148/109
f 101/150/111 53/167/61 52/157/16 100/143/104
f 108/137/98 119/160/32 121/165/3 111/145/106
f 105/141/102 57/162/7 56/163/8 104/131/92
f 113/149/110 123/168/23 122/169/24 112/135/96
f 110/148/109 120/166/4 123/168/23 113/149/110
f 98/147/108 51/164/30 53/167/61 101/150/111
f 115/133/94 125/170/36 124/155/39 114/134/95
f 112/135/96 122/169/24 125/170/36 115/133/94
f 129/171/112 133/172/65 134/173/64 131/174/113
f 131/174/113 134/173/64 135/175/67 132/176/114
f 130/177/115 132/176/114 135/175/67 67/178/69
f 128/179/116 130/177/115 67/178/69 66/180/71
f 63/87/68 64/82/63 62/81/62 61/89/70
f 65/85/66 64/82/63 63/87/68
f 132/176/114 130/177/115 131/174/113
f 130/177/115 128/179/116 129/171/112 131/174/113
