# Blender v2.90.1 OBJ File: 'hats.blend'
# www.blender.org
mtllib bag.mtl
o Plane.002_Plane.003
v -0.497162 -0.536037 0.533278
v -0.386681 -0.600223 0.529099
v -0.276201 -0.536037 0.533278
v -0.165721 -0.600223 0.529099
v -0.055240 -0.536037 0.533278
v 0.055240 -0.600223 0.529099
v 0.165721 -0.536037 0.533278
v 0.276201 -0.600223 0.529099
v 0.386681 -0.536037 0.533278
v 0.497162 -0.600223 0.529099
v 0.165721 -0.466692 -0.531887
v 0.055240 -0.530878 -0.536066
v -0.055240 -0.466692 -0.531887
v -0.165721 -0.530878 -0.536066
v -0.276201 -0.466692 -0.531887
v -0.386681 -0.530878 -0.536066
v -0.497162 -0.466692 -0.531887
v 0.276201 -0.530878 -0.536066
v 0.386681 -0.466692 -0.531887
v 0.497162 -0.530878 -0.536066
v -0.597940 -0.594816 0.522358
v 0.597940 -0.540524 0.525893
v 0.598061 -0.472042 -0.525568
v -0.598061 -0.526392 -0.529107
v 0.520107 -0.501363 0.000674
v -0.520106 -0.565549 -0.003506
v -0.000000 -0.243287 0.558709
v -0.000000 -0.174603 -0.529309
v -0.528247 0.251689 0.071548
v 0.528247 0.253090 0.075813
v -0.607421 0.075530 -0.464766
v 0.607421 0.076716 -0.461156
v 0.607299 0.429120 0.611737
v -0.607299 0.427936 0.608131
v -0.000000 0.073898 -0.469735
v -0.000000 0.430895 0.617141
v -0.611985 -0.242717 0.549689
v 0.611985 -0.242945 0.553299
v 0.612108 -0.175146 -0.520720
v -0.612108 -0.174918 -0.524334
v 0.532323 -0.209078 0.016812
v -0.532323 -0.208809 0.012542
v -0.523038 0.514279 0.031449
v 0.523038 0.516184 0.035442
v -0.601432 0.274746 -0.470625
v 0.601432 0.276358 -0.467245
v 0.601311 0.755544 0.537150
v -0.601311 0.753933 0.533774
v -0.000000 0.272526 -0.475276
v -0.000000 0.757958 0.542210
v -0.550471 0.902719 -0.247191
v 0.550472 0.905552 -0.243792
v -0.632977 0.546492 -0.674456
v 0.632977 0.548890 -0.671580
v 0.632849 1.261521 0.183163
v -0.632849 1.259126 0.180290
v -0.000000 0.543191 -0.678415
v -0.000000 1.265111 0.187468
v 0.000000 0.885451 -0.238114
v -0.000000 -0.344280 -0.001428
v -0.497162 -0.536037 0.533278
v -0.497162 -0.536037 0.533278
v -0.386681 -0.600223 0.529099
v -0.386681 -0.600223 0.529099
v -0.276201 -0.536037 0.533278
v -0.276201 -0.536037 0.533278
v -0.165721 -0.600223 0.529099
v -0.165721 -0.600223 0.529099
v -0.055240 -0.536037 0.533278
v -0.055240 -0.536037 0.533278
v 0.055240 -0.600223 0.529099
v 0.055240 -0.600223 0.529099
v 0.165721 -0.536037 0.533278
v 0.165721 -0.536037 0.533278
v 0.276201 -0.600223 0.529099
v 0.276201 -0.600223 0.529099
v 0.386681 -0.536037 0.533278
v 0.386681 -0.536037 0.533278
v 0.497162 -0.600223 0.529099
v 0.497162 -0.600223 0.529099
v 0.497162 -0.530878 -0.536066
v 0.497162 -0.530878 -0.536066
v 0.386681 -0.466692 -0.531887
v 0.386681 -0.466692 -0.531887
v 0.276201 -0.530878 -0.536066
v 0.276201 -0.530878 -0.536066
v 0.165721 -0.466692 -0.531887
v 0.165721 -0.466692 -0.531887
v 0.055240 -0.530878 -0.536066
v 0.055240 -0.530878 -0.536066
v -0.055240 -0.466692 -0.531887
v -0.055240 -0.466692 -0.531887
v -0.165721 -0.530878 -0.536066
v -0.165721 -0.530878 -0.536066
v -0.276201 -0.466692 -0.531887
v -0.276201 -0.466692 -0.531887
v -0.386681 -0.530878 -0.536066
v -0.386681 -0.530878 -0.536066
v -0.497162 -0.466692 -0.531887
v -0.497162 -0.466692 -0.531887
v -0.597940 -0.594816 0.522358
v -0.597940 -0.594816 0.522358
v 0.598061 -0.472042 -0.525568
v 0.598061 -0.472042 -0.525568
v 0.598061 -0.472042 -0.525568
v 0.520107 -0.501363 0.000674
v -0.598061 -0.526392 -0.529107
v -0.598061 -0.526392 -0.529107
v 0.597940 -0.540524 0.525893
v 0.597940 -0.540524 0.525893
v 0.597940 -0.540524 0.525893
v -0.520106 -0.565549 -0.003506
v 0.607299 0.429120 0.611737
v 0.611985 -0.242945 0.553299
v -0.611985 -0.242717 0.549689
v -0.607299 0.427936 0.608131
v 0.607421 0.076716 -0.461156
v 0.612108 -0.175146 -0.520720
v -0.607421 0.075530 -0.464766
v -0.612108 -0.174918 -0.524334
v -0.000000 0.272526 -0.475276
v -0.601432 0.274746 -0.470625
v -0.601432 0.274746 -0.470625
v 0.601432 0.276358 -0.467245
v 0.601432 0.276358 -0.467245
v 0.601311 0.755544 0.537150
v -0.601311 0.753933 0.533774
v -0.000000 0.543191 -0.678415
v -0.632977 0.546492 -0.674456
v -0.632977 0.546492 -0.674456
v 0.632977 0.548890 -0.671580
v 0.632977 0.548890 -0.671580
v -0.000000 1.265111 0.187468
v 0.632849 1.261521 0.183163
v 0.632849 1.261521 0.183163
v -0.550471 0.902719 -0.247191
v -0.632849 1.259126 0.180290
v -0.632849 1.259126 0.180290
v 0.550472 0.905552 -0.243792
v -0.000000 -0.344280 -0.001428
v -0.000000 -0.344280 -0.001428
v -0.000000 -0.344280 -0.001428
v -0.000000 -0.344280 -0.001428
v -0.000000 -0.344280 -0.001428
v -0.000000 -0.344280 -0.001428
v -0.000000 -0.344280 -0.001428
v -0.000000 -0.344280 -0.001428
v -0.000000 -0.344280 -0.001428
v -0.000000 -0.344280 -0.001428
v -0.000000 -0.344280 -0.001428
v -0.000000 -0.344280 -0.001428
v -0.000000 -0.344280 -0.001428
v -0.000000 -0.344280 -0.001428
v -0.000000 -0.344280 -0.001428
v -0.000000 -0.344280 -0.001428
v -0.000000 -0.344280 -0.001428
v -0.000000 -0.344280 -0.001428
v -0.000000 -0.344280 -0.001428
v -0.000000 -0.344280 -0.001428
v -0.000000 -0.344280 -0.001428
vt 0.482484 0.068544
vt 0.510664 0.043568
vt 0.611109 0.130432
vt 0.133611 0.234985
vt 0.163746 0.225850
vt 0.220268 0.276060
vt 0.157287 0.382063
vt 0.063314 0.390256
vt 0.087986 0.369559
vt 0.037952 0.503812
vt 0.054089 0.475527
vt 0.127955 0.504151
vt 0.546315 0.055688
vt 0.083425 0.336597
vt 0.424211 0.081645
vt 0.446796 0.056527
vt 0.446584 0.159789
vt 0.574507 0.030727
vt 0.110532 0.316641
vt 0.281958 0.136882
vt 0.424211 0.081645
vt 0.446584 0.159789
vt 0.318602 0.202267
vt 0.238553 0.952765
vt 0.234924 0.915481
vt 0.313865 0.878651
vt 0.107824 0.284812
vt 0.159372 0.810233
vt 0.130139 0.792277
vt 0.214456 0.744225
vt 0.200737 0.900166
vt 0.135563 0.266290
vt 0.163746 0.225850
vt 0.220268 0.276060
vt 0.046813 0.443727
vt 0.197128 0.862880
vt 0.130139 0.792277
vt 0.062868 0.652468
vt 0.150834 0.625791
vt 0.214456 0.744225
vt 0.069976 0.423009
vt 0.162960 0.847521
vt 0.037952 0.503812
vt 0.127955 0.504151
vt 0.239710 0.585779
vt 0.262547 0.701965
vt 0.622532 0.204212
vt 0.452570 0.223817
vt 0.245378 0.501037
vt 0.356353 0.292508
vt 0.302627 0.357731
vt 0.262547 0.701965
vt 0.372971 0.832895
vt 0.302627 0.357731
vt 0.259854 0.423573
vt 0.452570 0.223817
vt 0.245378 0.501037
vt 0.378495 0.329854
vt 0.329285 0.383631
vt 0.299044 0.439211
vt 0.282676 0.500535
vt 0.462032 0.268001
vt 0.281486 0.573772
vt 0.299749 0.676323
vt 0.299749 0.676323
vt 0.412464 0.797609
vt 0.282676 0.500535
vt 0.329285 0.383631
vt 0.627000 0.256912
vt 0.462032 0.268001
vt 0.485782 0.327527
vt 0.424103 0.384453
vt 0.352230 0.565485
vt 0.357843 0.649356
vt 0.372142 0.408668
vt 0.358069 0.462739
vt 0.412464 0.797609
vt 0.299749 0.676323
vt 0.357843 0.649356
vt 0.480881 0.708670
vt 0.331211 0.511838
vt 0.372142 0.408668
vt 0.331211 0.511838
vt 0.462032 0.268001
vt 0.627000 0.256912
vt 0.616105 0.368366
vt 0.485782 0.327527
vt 0.372142 0.408668
vt 0.424103 0.384453
vt 0.503150 0.520482
vt 0.352230 0.565485
vt 0.331211 0.511838
vt 0.485782 0.327527
vt 0.616105 0.368366
vt 0.357843 0.649356
vt 0.358069 0.462739
vt 0.480881 0.708670
vt 0.721423 0.341539
vt 0.701860 0.326618
vt 0.819188 0.257859
vt 0.737909 0.113766
vt 0.760235 0.113617
vt 0.819188 0.257859
vt 0.874553 0.154613
vt 0.898442 0.160976
vt 0.819188 0.257859
vt 0.960339 0.199408
vt 0.980025 0.210007
vt 0.819188 0.257859
vt 0.745212 0.348284
vt 0.721423 0.341539
vt 0.819188 0.257859
vt 0.853526 0.141598
vt 0.874553 0.154613
vt 0.819188 0.257859
vt 0.678954 0.317810
vt 0.662912 0.302219
vt 0.819188 0.257859
vt 0.765932 0.361820
vt 0.745212 0.348284
vt 0.819188 0.257859
vt 0.829250 0.137031
vt 0.853526 0.141598
vt 0.819188 0.257859
vt 0.662912 0.302219
vt 0.717163 0.214587
vt 0.819188 0.257859
vt 0.790241 0.366630
vt 0.765932 0.361820
vt 0.819188 0.257859
vt 0.807313 0.125723
vt 0.829250 0.137031
vt 0.819188 0.257859
vt 0.905095 0.398576
vt 0.883475 0.392703
vt 0.811954 0.378554
vt 0.790241 0.366630
vt 0.819188 0.257859
vt 0.782911 0.122907
vt 0.807313 0.125723
vt 0.819188 0.257859
vt 0.737909 0.113766
vt 0.941580 0.183701
vt 0.960339 0.199408
vt 0.819188 0.257859
vt 0.836461 0.381548
vt 0.811954 0.378554
vt 0.819188 0.257859
vt 0.760235 0.113617
vt 0.782911 0.122907
vt 0.819188 0.257859
vt 0.927077 0.298069
vt 0.918411 0.175420
vt 0.941580 0.183701
vt 0.819188 0.257859
vt 0.859005 0.391508
vt 0.836461 0.381548
vt 0.819188 0.257859
vt 0.701860 0.326618
vt 0.678954 0.317810
vt 0.819188 0.257859
vt 0.898442 0.160976
vt 0.918411 0.175420
vt 0.819188 0.257859
vt 0.883475 0.392703
vt 0.859005 0.391508
vt 0.819188 0.257859
vn -0.0949 -0.1169 -0.9886
vn 0.0061 0.0237 -0.9997
vn 0.0022 0.1264 -0.9919
vn 0.0149 -0.0773 0.9969
vn 0.0182 -0.0734 0.9971
vn 0.0134 -0.0800 0.9967
vn -0.0017 -0.0827 0.9966
vn -0.0016 -0.0819 0.9966
vn 0.0025 -0.0870 0.9962
vn -0.0226 -0.0647 0.9976
vn -0.0185 -0.0675 0.9975
vn -0.0185 -0.0757 0.9969
vn -0.0211 -0.0031 -0.9998
vn 0.0006 -0.0826 0.9966
vn 0.0238 0.0354 -0.9991
vn 0.0163 0.0256 -0.9995
vn 0.0186 0.1352 -0.9906
vn 0.0015 0.0192 -0.9998
vn -0.0081 -0.0911 0.9958
vn 0.9991 -0.0415 -0.0035
vn 0.9884 -0.0492 0.1436
vn 0.9888 -0.0315 0.1457
vn 0.9998 -0.0185 0.0017
vn 0.0066 0.0076 -0.9999
vn 0.0023 -0.0809 0.9967
vn -0.0136 0.0249 -0.9996
vn -0.0126 0.0209 -0.9997
vn -0.0102 0.1281 -0.9917
vn -0.0042 0.0209 -0.9998
vn -0.0366 -0.1344 0.9902
vn 0.9883 -0.0330 -0.1489
vn 0.9888 -0.0044 -0.1492
vn -0.0027 -0.0797 0.9968
vn 0.0425 -0.0313 -0.9986
vn -0.9887 -0.0409 0.1440
vn -0.9994 -0.0345 -0.0039
vn -0.9999 -0.0150 0.0026
vn -0.9889 -0.0273 0.1460
vn 0.0163 -0.1018 0.9947
vn -0.0071 0.0267 -0.9996
vn -0.9886 -0.0276 -0.1481
vn -0.9889 -0.0019 -0.1487
vn -0.9998 0.0135 -0.0166
vn -0.9897 0.0063 0.1433
vn 0.0029 0.1029 -0.9947
vn 0.0137 0.1038 -0.9945
vn -0.9891 0.0039 -0.1473
vn 0.9998 0.0135 -0.0168
vn 0.9890 0.0038 -0.1475
vn -0.0079 0.1045 -0.9945
vn 0.0091 0.0677 0.9977
vn -0.0030 0.0694 0.9976
vn 0.9897 0.0064 0.1431
vn -0.0151 0.0674 0.9976
vn 0.9996 -0.0254 -0.0062
vn 0.9906 -0.0702 -0.1171
vn -0.0031 0.4055 0.9141
vn -0.0154 0.4072 0.9132
vn 0.9890 0.0316 0.1444
vn -0.9996 -0.0254 -0.0061
vn -0.9890 0.0316 0.1446
vn -0.0080 -0.0285 -0.9995
vn 0.0029 -0.0287 -0.9996
vn -0.9906 -0.0702 -0.1169
vn 0.0093 0.4073 0.9132
vn 0.0139 -0.0290 -0.9995
vn 0.9876 0.0250 0.1547
vn 0.9980 -0.0555 0.0276
vn -0.9980 -0.0555 0.0279
vn -0.9876 0.0250 0.1549
vn 0.0090 0.5730 0.8195
vn -0.0030 0.5730 0.8195
vn 0.0030 -0.6005 -0.7996
vn -0.0082 -0.6004 -0.7996
vn -0.0150 0.5728 0.8195
vn 0.9878 -0.1279 -0.0889
vn -0.9878 -0.1279 -0.0887
vn 0.0143 -0.6005 -0.7995
vn -0.0170 0.7584 -0.6515
vn -0.0346 0.7676 -0.6399
vn 0.0000 0.7682 -0.6401
vn 0.0346 0.7676 -0.6399
vn 0.0171 0.7584 -0.6515
vn -0.0173 0.7773 -0.6288
vn -0.0001 0.7895 -0.6137
vn 0.0172 0.7773 -0.6288
vn 0.0001 0.7462 -0.6657
vn 0.4252 -0.7635 0.4861
vn 0.3671 -0.6552 -0.6602
vn 0.4936 -0.8336 -0.2479
vn 0.4869 -0.8615 0.1437
vn 0.4424 -0.8934 0.0777
vn 0.4055 -0.9121 -0.0606
vn -0.5007 -0.8646 0.0431
vn -0.4821 -0.8077 -0.3395
vn 0.3609 -0.7237 0.5882
vn 0.4639 -0.8203 0.3342
vn 0.4671 -0.7764 -0.4232
vn -0.2874 -0.9530 -0.0957
vn -0.2883 -0.9555 -0.0617
vn -0.2883 -0.9555 -0.0627
vn -0.4802 -0.8424 0.2444
vn -0.5009 -0.8523 -0.1504
vn 0.4392 -0.8769 -0.1952
vn 0.4859 -0.8335 -0.2630
vn 0.4928 -0.8577 0.1466
vn 0.4306 -0.7045 -0.5641
vn -0.2889 -0.9569 -0.0285
vn -0.4110 -0.6670 -0.6214
vn -0.4453 -0.7934 0.4149
vn -0.5002 -0.8643 0.0518
vn 0.3910 -0.9185 -0.0587
vn 0.5031 -0.8628 -0.0495
vn 0.5031 -0.8619 -0.0631
vn -0.4999 -0.8495 -0.1684
vn -0.4496 -0.7414 -0.4981
vn -0.4046 -0.7320 0.5481
usemtl bakeTo
s 1
f 83/1/1 85/2/2 28/3/3
f 79/4/4 110/5/5 38/6/6 27/7/7
f 67/8/8 69/9/9 27/7/7
f 101/10/10 61/11/11 27/7/7 37/12/12
f 85/2/2 87/13/13 28/3/3
f 69/9/9 71/14/14 27/7/7
f 103/15/15 81/16/16 28/3/3 118/17/17
f 87/13/13 89/18/18 28/3/3
f 71/14/14 73/19/19 27/7/7
f 106/20/20 104/21/21 39/22/22 41/23/23
f 89/24/18 91/25/24 28/26/3
f 73/19/19 75/27/25 27/7/7
f 99/28/26 107/29/27 40/30/28 28/26/3
f 91/25/24 93/31/29 28/26/3
f 75/27/25 77/32/30 27/7/7
f 109/33/31 106/20/20 41/23/23 114/34/32
f 61/11/11 63/35/33 27/7/7
f 93/31/29 95/36/34 28/26/3
f 77/32/30 79/4/4 27/7/7
f 108/37/35 112/38/36 42/39/37 120/40/38
f 63/35/33 65/41/39 27/7/7
f 95/36/34 97/42/40 28/26/3
f 81/16/16 83/1/1 28/3/3
f 112/38/36 102/43/41 115/44/42 42/39/37
f 65/41/39 67/8/8 27/7/7
f 97/42/40 99/28/26 28/26/3
f 120/40/38 42/39/37 29/45/43 119/46/44
f 118/17/17 28/3/3 35/47/45 117/48/46
f 42/39/37 115/44/42 116/49/47 29/45/43
f 114/34/32 41/23/23 30/50/48 113/51/49
f 28/26/3 40/30/28 31/52/50 35/53/45
f 27/7/7 38/6/6 33/54/51 36/55/52
f 41/23/23 39/22/22 32/56/53 30/50/48
f 37/12/12 27/7/7 36/55/52 34/57/54
f 113/51/49 30/50/48 44/58/55 47/59/56
f 34/57/54 36/55/52 50/60/57 48/61/58
f 30/50/48 32/56/53 125/62/59 44/58/55
f 119/46/44 29/45/43 43/63/60 123/64/61
f 35/53/45 31/52/50 122/65/62 121/66/63
f 29/45/43 116/49/47 127/67/64 43/63/60
f 36/55/52 33/54/51 126/68/65 50/60/57
f 117/48/46 35/47/45 121/69/63 124/70/66
f 44/58/55 125/62/59 132/71/67 139/72/68
f 123/64/61 43/63/60 136/73/69 130/74/70
f 50/60/57 126/68/65 134/75/71 133/76/72
f 49/77/73 45/78/74 129/79/74 128/80/73
f 48/61/58 50/60/57 133/76/72 138/81/75
f 47/59/56 44/58/55 139/72/68 135/82/76
f 43/63/60 127/67/64 137/83/77 136/73/69
f 46/84/78 49/85/73 128/86/73 131/87/78
f 55/88/79 52/89/80 59/90/81
f 51/91/82 56/92/83 59/90/81
f 54/93/84 57/94/85 59/90/81
f 52/89/80 54/93/84 59/90/81
f 53/95/86 51/91/82 59/90/81
f 58/96/87 55/88/79 59/90/81
f 57/97/85 53/95/86 59/90/81
f 56/92/83 58/96/87 59/90/81
f 86/98/88 84/99/88 141/100/88
f 111/101/89 80/102/89 142/103/89
f 70/104/90 68/105/90 143/106/90
f 62/107/91 21/108/92 140/109/93
f 88/110/94 18/111/94 144/112/94
f 72/113/95 5/114/95 145/115/95
f 82/116/96 105/117/96 146/118/96
f 90/119/97 11/120/97 147/121/97
f 74/122/98 6/123/98 148/124/98
f 23/125/99 25/126/100 149/127/101
f 92/128/102 12/129/102 150/130/102
f 76/131/103 7/132/103 151/133/103
f 24/134/104 100/135/105 140/109/93
f 94/136/106 13/137/106 152/138/106
f 78/139/107 8/140/107 153/141/107
f 25/126/100 22/142/108 149/127/101
f 64/143/109 1/144/109 154/145/109
f 96/146/110 14/147/110 155/148/110
f 10/149/111 9/150/111 159/151/111
f 26/152/112 24/134/104 140/109/93
f 66/153/113 2/154/113 156/155/113
f 98/156/114 15/157/114 157/158/114
f 19/159/115 20/160/115 160/161/115
f 21/108/92 26/152/112 140/109/93
f 4/162/116 3/163/116 158/164/116
f 17/165/117 16/166/117 60/167/117
