# Blender v2.90.1 OBJ File: 'hats.blend'
# www.blender.org
mtllib newSteve.mtl
o Plane_Plane.001
v -0.521188 -0.522982 0.521188
v 0.521188 -0.522982 0.521188
v -0.521188 -0.522982 -0.521188
v 0.521188 -0.522982 -0.521188
v -0.521188 0.520747 0.521188
v 0.521188 0.520747 0.521188
v -0.521188 0.520747 -0.521188
v 0.521188 0.520747 -0.521188
v 0.114868 -0.054378 0.521188
v 0.383926 -0.054378 0.521188
v 0.114868 0.141542 0.521188
v 0.383926 0.141542 0.521188
v -0.114868 -0.054378 0.521188
v -0.383926 -0.054378 0.521188
v -0.114868 0.141542 0.521188
v -0.383926 0.141542 0.521188
v 0.114868 -0.054378 0.418752
v 0.383926 -0.054378 0.418752
v 0.114868 0.141542 0.418752
v 0.383926 0.141542 0.418752
v -0.114868 -0.054378 0.418752
v -0.383926 -0.054378 0.418752
v -0.114868 0.141542 0.418752
v -0.383926 0.141542 0.418752
v -0.198716 -0.252665 0.521188
v 0.198716 -0.252665 0.521188
v -0.198716 -0.088405 0.521188
v 0.198716 -0.088405 0.521188
v -0.198716 -0.252665 0.619270
v 0.198716 -0.252665 0.619270
v -0.198716 -0.088405 0.619270
v 0.198716 -0.088405 0.619270
vt 0.500000 0.012407
vt 0.500000 0.256046
vt 0.256362 0.256046
vt 0.256362 0.012408
vt 0.500000 0.743638
vt 0.256362 0.743638
vt 0.256362 0.500000
vt 0.500000 0.500000
vt 0.351333 0.832271
vt 0.405029 0.832271
vt 0.405029 0.878064
vt 0.351333 0.878064
vt 0.012407 0.743638
vt 0.012407 0.500000
vt 0.743954 0.500000
vt 0.743954 0.743638
vt 0.827241 0.337368
vt 0.797496 0.336109
vt 0.792569 0.373718
vt 0.822314 0.374977
vt 0.827241 0.206158
vt 0.822314 0.243767
vt 0.792569 0.242508
vt 0.797496 0.204899
vt 0.851041 0.400606
vt 0.768769 0.408740
vt 0.851041 0.302345
vt 0.768769 0.179270
vt 0.851041 0.171136
vt 0.768769 0.277531
vt 0.768769 0.310480
vt 0.851041 0.269396
vt 0.288445 0.832271
vt 0.256362 0.987593
vt 0.288445 0.878064
vt 0.500000 0.987592
vt 0.467917 0.878064
vt 0.467917 0.832271
vt 0.824504 0.050247
vt 0.819523 0.109648
vt 0.790229 0.108481
vt 0.795210 0.049080
vt 0.845964 0.136585
vt 0.768769 0.146321
vt 0.845964 0.012407
vt 0.768769 0.022144
vn 0.0000 -1.0000 0.0000
vn 0.0000 1.0000 0.0000
vn 0.0000 0.0000 -1.0000
vn 0.0000 0.0000 1.0000
vn 1.0000 0.0000 0.0000
vn -1.0000 0.0000 0.0000
usemtl bakeTo
s off
f 1/1/1 3/2/1 4/3/1 2/4/1
f 5/5/2 6/6/2 8/7/2 7/8/2
f 4/3/3 3/2/3 7/8/3 8/7/3
f 11/9/4 15/10/4 13/11/4 9/12/4
f 2/13/5 4/14/5 8/7/5 6/6/5
f 3/15/6 1/16/6 5/5/6 7/8/6
f 18/17/4 20/18/4 19/19/4 17/20/4
f 22/21/4 21/22/4 23/23/4 24/24/4
f 9/25/5 17/20/5 19/19/5 11/26/5
f 10/27/2 18/17/2 17/20/2 9/25/2
f 16/28/5 14/29/5 22/21/5 24/24/5
f 15/30/1 16/28/1 24/24/1 23/23/1
f 12/31/6 20/18/6 18/17/6 10/27/6
f 11/26/1 19/19/1 20/18/1 12/31/1
f 13/32/6 15/30/6 23/23/6 21/22/6
f 14/29/2 13/32/2 21/22/2 22/21/2
f 5/5/4 15/10/4 11/9/4 6/6/4
f 11/9/4 12/33/4 6/6/4
f 2/34/4 6/6/4 12/33/4 10/35/4
f 2/34/4 10/35/4 9/12/4
f 1/36/4 2/34/4 9/12/4 13/11/4
f 1/36/4 13/11/4 14/37/4
f 16/38/4 5/5/4 1/36/4 14/37/4
f 5/5/4 16/38/4 15/10/4
f 29/39/4 30/40/4 32/41/4 31/42/4
f 26/43/5 28/44/5 32/41/5 30/40/5
f 25/45/1 26/43/1 30/40/1 29/39/1
f 27/46/6 25/45/6 29/39/6 31/42/6
f 28/44/2 27/46/2 31/42/2 32/41/2
