# Blender v2.90.1 OBJ File: 'hats.blend'
# www.blender.org
mtllib pumpkin.mtl
o Cube.002_Cube.006
v -0.052766 0.525530 0.124860
v -0.152772 0.525530 0.024984
v -0.152772 0.525530 -0.078623
v -0.052766 0.525530 -0.178499
v 0.052766 0.525530 -0.178499
v 0.152772 0.525530 -0.078623
v 0.152772 0.525530 0.024984
v 0.052766 0.525530 0.124860
v -0.062973 0.902764 -0.015437
v -0.182322 0.828023 -0.108288
v -0.182322 0.750490 -0.204607
v -0.062973 0.675748 -0.297458
v 0.062973 0.675748 -0.297458
v 0.182322 0.750490 -0.204607
v 0.182322 0.828023 -0.108288
v 0.062973 0.902764 -0.015437
v 0.000000 0.789256 -0.156448
v 0.000048 0.525530 0.436459
v 0.212707 0.525530 0.194896
v 0.458627 0.525530 -0.010794
v 0.212647 0.525530 -0.226513
v -0.000000 0.525530 -0.459140
v -0.212647 0.525530 -0.226513
v -0.458626 0.525530 -0.010794
v -0.211611 0.525530 0.194410
v 0.011908 -0.525530 0.542036
v -0.248463 -0.525530 0.433267
v -0.075435 -0.461442 0.680336
v -0.335601 -0.461442 0.571307
v -0.444856 -0.525530 0.237138
v -0.546577 -0.525530 -0.024355
v -0.583544 -0.461442 0.323694
v -0.685233 -0.461443 0.062349
v -0.505484 0.525530 0.304476
v -0.608083 0.525530 0.045177
v -0.741937 0.453903 0.122734
v -0.639652 0.453903 0.381773
v -0.386226 0.453902 0.634873
v -0.128141 0.453902 0.736635
v -0.054465 0.525530 0.599682
v -0.312700 0.525530 0.497186
v -0.546577 -0.525530 0.023875
v -0.444846 -0.525530 -0.237147
v -0.685233 -0.461443 -0.062848
v -0.583534 -0.461442 -0.323704
v -0.241046 -0.525530 -0.440673
v 0.020521 -0.525530 -0.542036
v -0.327889 -0.461442 -0.579010
v -0.066478 -0.461442 -0.680336
v -0.312825 0.525530 -0.504943
v -0.053440 0.525530 -0.607690
v -0.127523 0.453902 -0.736635
v -0.386750 0.453902 -0.634350
v -0.638924 0.453903 -0.382499
v -0.741937 0.453903 -0.124065
v -0.607994 0.525530 -0.055686
v -0.504090 0.525530 -0.314128
v 0.546577 -0.525530 -0.024355
v 0.445085 -0.525530 0.236908
v 0.685233 -0.461443 0.062349
v 0.583783 -0.461442 0.323456
v 0.241147 -0.525530 0.440573
v -0.021464 -0.525530 0.542036
v 0.327993 -0.461442 0.578905
v 0.065496 -0.461442 0.680336
v 0.313427 0.525530 0.496460
v 0.054564 0.525530 0.599682
v 0.128253 0.453902 0.736635
v 0.387031 0.453902 0.634070
v 0.639590 0.453903 0.381835
v 0.741937 0.453903 0.122734
v 0.608083 0.525530 0.045177
v 0.505428 0.525530 0.304531
v -0.020521 -0.525530 -0.542036
v 0.241046 -0.525530 -0.440673
v 0.066478 -0.461442 -0.680336
v 0.327889 -0.461442 -0.579010
v 0.444846 -0.525530 -0.237147
v 0.546577 -0.525530 0.023875
v 0.583534 -0.461442 -0.323704
v 0.685233 -0.461443 -0.062848
v 0.504090 0.525530 -0.314128
v 0.607994 0.525530 -0.055686
v 0.741937 0.453903 -0.124065
v 0.638924 0.453903 -0.382499
v 0.386750 0.453902 -0.634350
v 0.127523 0.453902 -0.736635
v 0.053440 0.525530 -0.607690
v 0.312825 0.525530 -0.504943
v -0.539796 -0.307360 0.710559
v -0.282399 -0.302678 0.826298
v -0.293925 -0.210818 0.901624
v -0.550728 -0.210818 0.801557
v -0.806744 -0.210818 0.545869
v -0.908114 -0.210818 0.287670
v -0.830598 -0.368372 0.208709
v -0.737789 -0.348900 0.476773
v -0.741620 0.339343 0.482437
v -0.843477 0.339343 0.224050
v -0.908114 0.158494 0.288589
v -0.806555 0.158494 0.546394
v -0.551580 0.158494 0.801045
v -0.294901 0.158494 0.901624
v -0.229992 0.339344 0.837448
v -0.487413 0.339344 0.736319
v -0.488136 0.339344 -0.735597
v -0.229492 0.339344 -0.837448
v -0.294457 0.158494 -0.901624
v -0.552559 0.158494 -0.800067
v -0.806061 0.158494 -0.546888
v -0.908114 0.158494 -0.289368
v -0.843477 0.339343 -0.225030
v -0.741033 0.339343 -0.483024
v -0.728902 -0.368372 -0.468749
v -0.830598 -0.368372 -0.209278
v -0.908114 -0.210818 -0.288327
v -0.806303 -0.210818 -0.546309
v -0.552043 -0.210818 -0.800244
v -0.293498 -0.210818 -0.901624
v -0.213931 -0.368372 -0.824661
v -0.473962 -0.368372 -0.723357
v 0.741033 0.339343 -0.483024
v 0.843477 0.339343 -0.225030
v 0.908114 0.158494 -0.289368
v 0.806061 0.158494 -0.546888
v 0.552559 0.158494 -0.800067
v 0.294457 0.158494 -0.901624
v 0.229492 0.339344 -0.837448
v 0.488136 0.339344 -0.735597
v 0.473962 -0.368372 -0.723357
v 0.213931 -0.368372 -0.824661
v 0.293498 -0.210818 -0.901624
v 0.552043 -0.210818 -0.800244
v 0.806303 -0.210818 -0.546309
v 0.908114 -0.210818 -0.288327
v 0.830598 -0.368372 -0.209278
v 0.728902 -0.368372 -0.468749
v 0.488352 0.339344 0.735381
v 0.230128 0.339344 0.837448
v 0.295066 0.158494 0.901624
v 0.552730 0.158494 0.799897
v 0.806466 0.158494 0.546483
v 0.908114 0.158494 0.288589
v 0.843477 0.339343 0.224050
v 0.741548 0.339343 0.482510
v 0.729180 -0.368372 0.468472
v 0.830598 -0.368372 0.208709
v 0.908114 -0.210818 0.287670
v 0.806632 -0.210818 0.545982
v 0.552181 -0.210818 0.800106
v 0.294129 -0.210818 0.901624
v 0.220947 -0.353168 0.825040
v 0.474079 -0.368372 0.723240
vt 0.663863 0.122838
vt 0.616555 0.169380
vt 0.582684 0.151538
vt 0.644855 0.090316
vt 0.863384 0.321186
vt 0.816352 0.367549
vt 0.794756 0.296902
vt 0.616376 0.321156
vt 0.663876 0.367887
vt 0.644871 0.400410
vt 0.582486 0.338978
vt 0.690886 0.193795
vt 0.328471 0.120014
vt 0.378672 0.087349
vt 0.427509 0.143712
vt 0.389585 0.180017
vt 0.888710 0.232402
vt 0.888710 0.258310
vt 0.852095 0.245356
vt 0.355454 0.200541
vt 0.307047 0.153013
vt 0.186366 0.151232
vt 0.136099 0.200576
vt 0.101859 0.180047
vt 0.164907 0.118157
vt 0.816352 0.123162
vt 0.863384 0.169526
vt 0.794756 0.193809
vt 0.727789 0.097954
vt 0.752650 0.097975
vt 0.741585 0.134183
vt 0.136158 0.315441
vt 0.186391 0.364762
vt 0.164932 0.398725
vt 0.101920 0.336857
vt 0.786377 0.710247
vt 0.756078 0.685786
vt 0.756078 0.625961
vt 0.786377 0.601389
vt 0.380527 0.252218
vt 0.380527 0.263904
vt 0.414649 0.243345
vt 0.414649 0.273680
vt 0.305219 0.364773
vt 0.355452 0.315462
vt 0.389582 0.336885
vt 0.326570 0.398740
vt 0.542591 0.669402
vt 0.548435 0.804334
vt 0.529926 0.795211
vt 0.512810 0.679281
vt 0.591113 0.258558
vt 0.591113 0.232129
vt 0.631345 0.245344
vt 0.708719 0.065507
vt 0.769551 0.065507
vt 0.832166 0.585742
vt 0.832166 0.725839
vt 0.922854 0.725651
vt 0.922854 0.586028
vt 0.959887 0.605287
vt 0.959887 0.706608
vt 0.262137 0.423286
vt 0.229366 0.423283
vt 0.250863 0.389328
vt 0.240747 0.389327
vt 0.444281 0.392571
vt 0.381610 0.454095
vt 0.362497 0.434367
vt 0.425335 0.372680
vt 0.184570 0.862817
vt 0.182360 0.785051
vt 0.222193 0.772887
vt 0.224409 0.850859
vt 0.833251 0.090478
vt 0.895328 0.151606
vt 0.076853 0.273648
vt 0.040946 0.309773
vt 0.040946 0.208493
vt 0.076853 0.243312
vt 0.752650 0.392736
vt 0.727789 0.392758
vt 0.741585 0.356529
vt 0.181846 0.717932
vt 0.090910 0.718613
vt 0.092278 0.585570
vt 0.183209 0.585340
vt 0.557403 0.276417
vt 0.557403 0.214266
vt 0.432603 0.738653
vt 0.342166 0.738886
vt 0.342166 0.596131
vt 0.432603 0.596363
vt 0.296077 0.723138
vt 0.265193 0.698420
vt 0.265193 0.636596
vt 0.296077 0.611878
vt 0.895328 0.339105
vt 0.833251 0.400233
vt 0.555250 0.524107
vt 0.545094 0.602284
vt 0.511709 0.613168
vt 0.521891 0.534793
vt 0.769551 0.425204
vt 0.708719 0.425204
vt 0.066012 0.372646
vt 0.128850 0.434345
vt 0.111083 0.263878
vt 0.111083 0.252192
vt 0.229608 0.093586
vt 0.264344 0.093589
vt 0.242870 0.126652
vt 0.251096 0.126653
vt 0.920539 0.214443
vt 0.920539 0.276267
vt 0.858104 0.065725
vt 0.920359 0.127029
vt 0.557788 0.126976
vt 0.620116 0.065601
vt 0.450401 0.208532
vt 0.450401 0.309812
vt 0.298404 0.458907
vt 0.192943 0.458897
vt 0.128821 0.083828
vt 0.065943 0.145553
vt 0.679114 0.682755
vt 0.712787 0.699043
vt 0.715335 0.757874
vt 0.683687 0.788332
vt 0.557556 0.363506
vt 0.620134 0.425127
vt 0.047247 0.708929
vt 0.020401 0.693536
vt 0.020985 0.636724
vt 0.048310 0.605552
vt 0.920359 0.363681
vt 0.858104 0.424984
vt 0.631649 0.671647
vt 0.637512 0.807019
vt 0.469022 0.615650
vt 0.469022 0.719366
vt 0.222673 0.609215
vt 0.221683 0.705434
vt 0.915223 0.850599
vt 0.824554 0.850439
vt 0.829998 0.788440
vt 0.920689 0.788347
vt 0.339313 0.801451
vt 0.429755 0.801326
vt 0.422621 0.862960
vt 0.332201 0.862901
vt 0.091428 0.785644
vt 0.093631 0.863178
vt 0.634166 0.604602
vt 0.644294 0.526645
vt 0.381286 0.065972
vt 0.444390 0.127932
vt 0.778774 0.834801
vt 0.784203 0.772989
vt 0.286121 0.847138
vt 0.293216 0.785834
vt 0.691748 0.537764
vt 0.681643 0.615555
vt 0.049966 0.853447
vt 0.047769 0.776098
vt 0.191201 0.059273
vt 0.315225 0.059331
vt 0.601795 0.927659
vt 0.575783 0.927659
vt 0.573268 0.894769
vt 0.604311 0.894769
vt 0.970098 0.892155
vt 0.993034 0.921085
vt 0.958203 0.936351
vt 0.780977 0.908399
vt 0.804891 0.899587
vt 0.799914 0.978767
vt 0.771010 0.969424
vt 0.885170 0.989785
vt 0.854240 0.983937
vt 0.843853 0.905141
vt 0.880403 0.893040
vt 0.758775 0.918823
vt 0.744161 0.962719
vt 0.518029 0.899159
vt 0.537570 0.913286
vt 0.527155 0.973785
vt 0.497915 0.975945
vt 0.909809 0.990276
vt 0.909809 0.893626
vt 0.563321 0.930458
vt 0.563595 0.975945
vt 0.828794 0.893021
vt 0.828794 0.990077
vt 0.946307 0.980547
vt 0.923371 0.951616
vt 0.993034 0.951615
vt 0.970098 0.980546
vt 0.923371 0.921087
vt 0.946307 0.892155
vt 0.691006 0.296651
vt 0.691293 0.839523
vt 0.645084 0.858083
vt 0.920680 0.523601
vt 0.957716 0.542499
vt 0.466176 0.782399
vt 0.429755 0.533691
vt 0.466176 0.552618
vt 0.184942 0.533585
vt 0.224409 0.557122
vt 0.317989 0.041719
vt 0.953124 0.771684
vt 0.784190 0.538960
vt 0.829987 0.523427
vt 0.293216 0.549182
vt 0.339313 0.533566
vt 0.050048 0.553798
vt 0.094012 0.533925
vt 0.555982 0.855466
vt 0.532630 0.301106
vt 0.683822 0.449817
vt 0.794513 0.449817
vt 0.715335 0.631677
vt 0.945463 0.300985
vt 0.945463 0.189725
vt 0.794513 0.040892
vt 0.683822 0.040892
vn 0.2010 0.9703 0.1344
vn 0.1348 0.9706 0.1994
vn 0.2892 0.8400 0.4591
vn 0.4590 0.8397 0.2901
vn -0.1388 0.9683 -0.2077
vn -0.2047 0.9687 -0.1398
vn 0.0000 1.0000 0.0000
vn -0.1346 0.9705 0.1996
vn -0.2010 0.9703 0.1344
vn -0.4590 0.8397 0.2901
vn -0.2888 0.8399 0.4594
vn -0.2431 -0.8812 0.4054
vn -0.3952 -0.7271 0.5614
vn -0.5620 -0.7334 0.3824
vn -0.3498 -0.9049 0.2425
vn 0.0382 0.9648 -0.2601
vn -0.0382 0.9648 -0.2601
vn -0.1748 -0.9778 0.1149
vn -0.1165 -0.9781 0.1723
vn 0.1146 -0.9778 0.1753
vn 0.1749 -0.9778 0.1149
vn 0.3365 -0.9177 0.2110
vn 0.2084 -0.9133 0.3500
vn 0.2047 0.9687 -0.1398
vn 0.1388 0.9683 -0.2077
vn 0.2522 0.9669 0.0368
vn 0.2532 0.9666 -0.0393
vn 0.1747 -0.9779 -0.1150
vn 0.1147 -0.9778 -0.1751
vn 0.2108 -0.9175 -0.3373
vn 0.3363 -0.9177 -0.2112
vn -0.8167 0.5560 0.1545
vn -0.5870 0.8042 0.0934
vn -0.5887 0.8029 -0.0937
vn -0.8164 0.5561 -0.1554
vn -0.3313 -0.9411 -0.0673
vn -0.3314 -0.9411 0.0672
vn -0.4458 -0.8921 0.0736
vn -0.4438 -0.8935 -0.0686
vn -0.1147 -0.9778 -0.1751
vn -0.1747 -0.9779 -0.1150
vn -0.3363 -0.9177 -0.2112
vn -0.2108 -0.9175 -0.3373
vn 0.1878 -0.2798 0.9415
vn -0.1804 -0.3064 0.9346
vn -0.1718 -0.6926 0.7005
vn 0.1021 -0.7022 0.7046
vn -0.0373 0.9680 0.2480
vn 0.0374 0.9680 0.2481
vn 0.5870 0.8042 0.0934
vn 0.5887 0.8029 -0.0937
vn -0.9608 0.1954 -0.1968
vn -0.9610 0.1953 0.1958
vn -0.9464 -0.2570 0.1956
vn -0.9466 -0.2559 -0.1959
vn -0.7042 -0.6990 -0.1244
vn -0.7017 -0.7002 0.1313
vn -0.0683 -0.8926 -0.4456
vn 0.0683 -0.8926 -0.4456
vn 0.0671 -0.9408 -0.3322
vn -0.0671 -0.9408 -0.3322
vn -0.7981 -0.2853 -0.5307
vn -0.5295 -0.2850 -0.7989
vn -0.3610 -0.7455 -0.5603
vn -0.5591 -0.7460 -0.3617
vn 0.5295 -0.2850 -0.7989
vn 0.7981 -0.2853 -0.5307
vn 0.5591 -0.7460 -0.3617
vn 0.3610 -0.7455 -0.5603
vn 0.4623 0.8371 -0.2923
vn 0.2927 0.8358 -0.4645
vn 0.4438 -0.8935 -0.0686
vn 0.7042 -0.6990 -0.1244
vn 0.7043 -0.6989 0.1240
vn 0.4439 -0.8934 0.0684
vn -0.2532 0.9666 -0.0393
vn -0.2522 0.9669 0.0368
vn 0.9466 -0.2559 -0.1959
vn 0.9608 0.1954 -0.1968
vn 0.9610 0.1953 0.1959
vn 0.9468 -0.2558 0.1951
vn -0.0922 0.8047 0.5864
vn 0.0926 0.8047 0.5863
vn -0.1950 -0.2549 -0.9471
vn -0.1958 0.1945 -0.9611
vn 0.1958 0.1945 -0.9611
vn 0.1950 -0.2549 -0.9471
vn -0.1546 0.5543 -0.8178
vn -0.0944 0.7991 -0.5937
vn 0.0944 0.7991 -0.5937
vn 0.1546 0.5543 -0.8178
vn -0.2927 0.8358 -0.4645
vn -0.4623 0.8371 -0.2923
vn 0.7985 -0.2853 0.5301
vn 0.5276 -0.2882 0.7991
vn 0.3540 -0.7465 0.5633
vn 0.5594 -0.7459 0.3614
vn 0.3315 -0.9410 0.0671
vn 0.3313 -0.9411 -0.0673
vn 0.0461 -0.8616 0.5054
vn -0.1036 -0.8458 0.5233
vn -0.0714 -0.9423 0.3269
vn 0.0669 -0.9407 0.3324
vn 0.6622 0.6103 -0.4346
vn 0.4335 0.6097 -0.6636
vn 0.4339 0.6098 0.6632
vn 0.6628 0.6102 0.4339
vn -0.1239 -0.6975 -0.7058
vn 0.1239 -0.6975 -0.7058
vn 0.1550 0.5545 0.8176
vn -0.1542 0.5543 0.8178
vn -0.4332 0.6097 0.6637
vn -0.6629 0.6102 0.4339
vn 0.8164 0.5561 -0.1554
vn 0.8167 0.5560 0.1545
vn -0.4335 0.6097 -0.6636
vn -0.6622 0.6103 -0.4346
vn 0.1964 0.1946 0.9610
vn -0.1950 0.1946 0.9613
vn -0.5072 -0.3238 0.7986
vn -0.5378 0.2211 0.8136
vn -0.8128 0.2213 0.5389
vn -0.7962 -0.2910 0.5304
vn -0.5384 0.2210 -0.8132
vn -0.8123 0.2213 -0.5397
vn 0.8123 0.2213 -0.5397
vn 0.5384 0.2210 -0.8132
vn 0.5388 0.2210 0.8129
vn 0.8127 0.2213 0.5390
vn 0.3945 -0.5666 -0.7233
vn -0.3945 -0.5666 -0.7233
vn -0.2865 0.0425 -0.9571
vn 0.2865 0.0425 -0.9571
vn 0.7334 0.2906 -0.6146
vn 0.0000 0.7790 -0.6270
vn -0.9421 -0.2521 -0.2211
vn -0.8685 0.1222 0.4804
vn -0.7562 0.6491 -0.0815
vn -0.7334 0.2906 -0.6146
vn 0.3313 0.3208 0.8873
vn 0.8685 0.1222 0.4804
vn 0.7562 0.6491 -0.0815
vn 0.3120 0.9003 0.3035
vn 0.9421 -0.2521 -0.2211
vn -0.3313 0.3208 0.8873
vn -0.3120 0.9003 0.3035
usemtl bakeTo
s 1
f 73/1/1 66/2/2 69/3/3 70/4/4
f 50/5/5 57/6/6 23/7/7
f 41/8/8 34/9/9 37/10/10 38/11/11
f 66/2/2 73/1/1 19/12/7
f 29/13/12 90/14/13 97/15/14 32/16/15
f 88/17/16 51/18/17 22/19/7
f 30/20/18 27/21/19 29/13/12 32/16/15
f 62/22/20 59/23/21 61/24/22 64/25/23
f 82/26/24 89/27/25 21/28/7
f 72/29/26 83/30/27 20/31/7
f 78/32/28 75/33/29 77/34/30 80/35/31
f 99/36/32 36/37/33 55/38/34 112/39/35
f 42/40/36 31/41/37 33/42/38 44/43/39
f 46/44/40 43/45/41 45/46/42 48/47/43
f 151/48/44 92/49/45 91/50/46 152/51/47
f 40/52/48 67/53/49 18/54/7
f 71/55/50 84/56/51 83/30/27 72/29/26
f 111/57/52 100/58/53 99/36/32 112/39/35
f 95/59/54 116/60/55 115/61/56 96/62/57
f 49/63/58 76/64/59 74/65/60 47/66/61
f 117/67/62 118/68/63 121/69/64 114/70/65
f 133/71/66 134/72/67 137/73/68 130/74/69
f 89/27/25 82/26/24 85/75/70 86/76/71
f 81/77/72 136/78/73 147/79/74 60/80/75
f 56/81/76 35/82/77 24/83/7
f 135/84/78 124/85/79 143/86/80 148/87/81
f 67/53/49 40/52/48 39/88/82 68/89/83
f 119/90/84 108/91/85 127/92/86 132/93/87
f 107/94/88 52/95/89 87/96/90 128/97/91
f 57/6/6 50/5/5 53/98/92 54/99/93
f 149/100/94 150/101/95 153/102/96 146/103/97
f 35/82/77 56/81/76 55/104/34 36/105/33
f 121/69/64 48/47/43 45/46/42 114/70/65
f 137/106/68 80/35/31 77/34/30 130/107/69
f 81/77/72 60/80/75 58/108/98 79/109/99
f 65/110/100 28/111/101 26/112/102 63/113/103
f 87/114/90 52/115/89 51/18/17 88/17/16
f 85/75/70 122/116/104 129/117/105 86/76/71
f 69/3/3 138/118/106 145/119/107 70/4/4
f 33/42/38 96/120/57 115/121/56 44/43/39
f 49/63/58 120/122/108 131/123/109 76/64/59
f 153/124/96 64/25/23 61/24/22 146/125/97
f 42/40/36 43/45/41 46/44/40 47/66/61 74/65/60 75/33/29 78/32/28 79/109/99 58/108/98 59/23/21 62/22/20 63/113/103 26/112/102 27/21/19 30/20/18 31/41/37
f 139/126/110 68/127/83 39/128/82 104/129/111
f 105/130/112 38/11/11 37/10/10 98/131/113
f 123/132/114 84/133/51 71/134/50 144/135/115
f 53/98/92 106/136/116 113/137/117 54/99/93
f 151/48/44 140/138/118 103/139/119 92/49/45
f 103/139/119 140/138/118 139/126/110 104/129/111
f 119/90/84 132/93/87 131/140/109 120/141/108
f 135/84/78 148/87/81 147/142/74 136/143/73
f 93/144/120 102/145/121 101/146/122 94/147/123
f 109/148/124 118/149/63 117/150/62 110/151/125
f 125/152/126 134/72/67 133/71/66 126/153/127
f 141/154/128 150/101/95 149/100/94 142/155/129
f 95/59/54 100/58/53 111/57/52 116/60/55
f 93/156/120 94/157/123 97/15/14 90/14/13
f 127/92/86 108/91/85 107/94/88 128/97/91
f 101/146/122 102/145/121 105/158/112 98/159/113
f 143/86/80 124/85/79 123/132/114 144/135/115
f 109/148/124 110/151/125 113/160/117 106/161/116
f 141/154/128 142/155/129 145/162/107 138/163/106
f 125/152/126 126/153/127 129/164/105 122/165/104
f 65/110/100 152/166/47 91/167/46 28/111/101
f 5/168/130 4/169/131 12/170/132 13/171/133
f 14/172/134 13/173/133 17/174/135
f 3/175/136 2/176/137 10/177/138 11/178/139
f 8/179/140 7/180/141 15/181/142 16/182/143
f 4/183/131 3/175/136 11/178/139 12/184/132
f 7/185/141 6/186/144 14/187/134 15/188/142
f 1/189/145 8/179/140 16/182/143 9/190/146
f 6/186/144 5/191/130 13/192/133 14/187/134
f 2/176/137 1/193/145 9/194/146 10/177/138
f 10/195/138 9/196/146 17/174/135
f 13/173/133 12/197/132 17/174/135
f 11/198/139 10/195/138 17/174/135
f 16/199/143 15/200/142 17/174/135
f 12/197/132 11/198/139 17/174/135
f 15/200/142 14/172/134 17/174/135
f 9/196/146 16/199/143 17/174/135
f 18/54/7 19/12/7 20/31/7 21/28/7 22/19/7 23/7/7 24/83/7 25/201/7
f 39/88/82 40/52/48 41/8/8 38/11/11
f 35/82/77 36/105/33 37/10/10 34/9/9
f 49/63/58 47/66/61 46/44/40 48/47/43
f 42/40/36 44/43/39 45/46/42 43/45/41
f 81/77/72 79/109/99 78/32/28 80/35/31
f 74/65/60 76/64/59 77/34/30 75/33/29
f 65/110/100 63/113/103 62/22/20 64/25/23
f 58/108/98 60/80/75 61/24/22 59/23/21
f 33/42/38 31/41/37 30/20/18 32/16/15
f 26/112/102 28/111/101 29/13/12 27/21/19
f 55/104/34 56/81/76 57/6/6 54/99/93
f 51/18/17 52/115/89 53/98/92 50/5/5
f 87/114/90 88/17/16 89/27/25 86/76/71
f 83/30/27 84/56/51 85/75/70 82/26/24
f 71/55/50 72/29/26 73/1/1 70/4/4
f 67/53/49 68/89/83 69/3/3 66/2/2
f 40/52/48 18/54/7 25/201/7 41/8/8
f 99/36/32 100/58/53 101/146/122 98/159/113
f 103/139/119 104/129/111 105/202/112 102/203/121
f 115/61/56 116/60/55 117/204/62 114/205/65
f 119/90/84 120/141/108 121/206/64 118/149/63
f 131/140/109 132/93/87 133/207/66 130/208/69
f 135/84/78 136/143/73 137/73/68 134/72/67
f 147/142/74 148/87/81 149/209/94 146/210/97
f 151/48/44 152/51/47 153/102/96 150/101/95
f 91/167/46 92/211/45 93/156/120 90/14/13
f 95/59/54 96/62/57 97/212/14 94/147/123
f 107/94/88 108/91/85 109/148/124 106/161/116
f 111/57/52 112/39/35 113/213/117 110/214/125
f 123/132/114 124/85/79 125/152/126 122/165/104
f 127/92/86 128/97/91 129/215/105 126/216/127
f 139/126/110 140/138/118 141/154/128 138/163/106
f 143/86/80 144/135/115 145/217/107 142/218/129
f 28/111/101 91/167/46 90/14/13 29/13/12
f 96/120/57 33/42/38 32/16/15 97/15/14
f 92/49/45 103/139/119 102/203/121 93/219/120
f 100/58/53 95/59/54 94/147/123 101/146/122
f 150/101/95 141/154/128 140/138/118 151/48/44
f 64/25/23 153/124/96 152/166/47 65/110/100
f 110/214/125 117/204/62 116/60/55 111/57/52
f 114/70/65 45/46/42 44/43/39 115/121/56
f 104/220/111 39/88/82 38/11/11 105/130/112
f 36/105/33 99/221/32 98/131/113 37/10/10
f 54/99/93 113/137/117 112/222/35 55/104/34
f 138/163/106 69/223/3 68/127/83 139/126/110
f 52/115/89 107/224/88 106/136/116 53/98/92
f 108/91/85 119/90/84 118/149/63 109/148/124
f 126/216/127 133/207/66 132/93/87 127/92/86
f 86/76/71 129/117/105 128/225/91 87/114/90
f 120/122/108 49/63/58 48/47/43 121/69/64
f 130/107/69 77/34/30 76/64/59 131/123/109
f 84/56/51 123/226/114 122/116/104 85/75/70
f 124/85/79 135/84/78 134/72/67 125/152/126
f 142/218/129 149/209/94 148/87/81 143/86/80
f 70/4/4 145/119/107 144/227/115 71/55/50
f 136/78/73 81/77/72 80/35/31 137/106/68
f 146/125/97 61/24/22 60/80/75 147/79/74
f 24/83/7 35/82/77 34/9/9 25/201/7
f 23/7/7 57/6/6 56/81/76 24/83/7
f 66/2/2 19/12/7 18/54/7 67/53/49
f 22/19/7 51/18/17 50/5/5 23/7/7
f 21/28/7 89/27/25 88/17/16 22/19/7
f 72/29/26 20/31/7 19/12/7 73/1/1
f 82/26/24 21/28/7 20/31/7 83/30/27
f 34/9/9 41/8/8 25/201/7
