# Blender v2.83.0 OBJ File: ''
# www.blender.org
mtllib world_test_corner.mtl
o Plane
v -5.000000 0.000000 5.000000
v 5.000000 0.000000 5.000000
v -5.000000 0.000000 -5.000000
v 5.000000 0.000000 -5.000000
v -5.000000 2.500000 5.000000
v -5.000000 2.500000 -5.000000
v 5.000000 2.500000 -5.000000
vt 0.000000 0.000000
vt 1.000000 0.000000
vt 1.000000 1.000000
vt 0.000000 1.000000
vt 1.000000 1.000000
vt 0.000000 1.000000
vt 0.000000 0.000000
vn 0.0000 1.0000 0.0000
vn 0.0000 0.0000 1.0000
vn 1.0000 0.0000 0.0000
usemtl None
s off
f 1/1/1 2/2/1 4/3/1 3/4/1
f 3/4/2 4/3/2 7/5/2 6/6/2
f 1/1/3 3/4/3 6/6/3 5/7/3
