# Blender v2.83.0 OBJ File: 'House.blend'
# www.blender.org
mtllib world_house_border_corner.mtl
o Plane.008_Plane.031
v 2.000000 0.291293 0.324907
v -2.000000 0.000000 2.000000
v -2.000000 3.344386 2.000000
v 2.000000 0.291293 0.274006
v 0.320421 3.344386 2.000000
v 2.000000 0.000000 0.324907
v 0.324907 0.000000 2.000000
v 2.000000 3.344386 0.320421
v 0.274006 0.291293 2.000000
v 2.000000 3.344386 -2.000000
v 0.324907 0.291293 2.000000
v 2.000000 0.000000 -2.000000
v 1.385434 0.000000 0.336139
v 0.837495 0.000000 0.658321
v 0.680139 0.000000 0.796975
v 0.354471 0.000000 1.368877
v 1.385434 0.291293 0.336139
v 0.837495 0.291293 0.658321
v 0.680139 0.291293 0.796975
v 0.354471 0.291293 1.368877
v 1.381417 0.291293 0.294357
v 0.817135 0.291293 0.627780
v 0.649598 0.291293 0.776615
v 0.313750 0.291293 1.358697
v 1.385080 3.344386 0.332457
v 0.835701 3.344386 0.655629
v 0.677448 3.344386 0.795181
v 0.350882 3.344386 1.367980
v -2.000000 3.344386 -2.000000
v -2.000000 0.000000 -2.000000
vt 0.222122 0.130423
vt 0.066826 0.108057
vt 0.037565 0.042325
vt 0.223521 0.038204
vt 0.221029 0.141723
vt 0.057552 0.119150
vt 0.220430 0.961412
vt 0.046399 0.958974
vt 0.820055 0.957771
vt 0.651159 0.960159
vt 0.647507 0.140533
vt 0.808448 0.119261
vt 0.470656 0.961642
vt 0.468960 0.136371
vt 0.411486 0.961796
vt 0.409476 0.137712
vt 0.644716 0.129674
vt 0.798145 0.108085
vt 0.468528 0.127024
vt 0.410321 0.127834
vt 0.644396 0.047309
vt 0.820055 0.038330
vt 0.469205 0.047012
vt 0.412589 0.046262
vt 0.862747 0.414152
vt 0.967109 0.414152
vt 0.967109 0.518513
vt 0.862747 0.414152
vt 0.967109 0.414152
vt 0.967109 0.518513
vt 0.862747 0.414152
vt 0.967109 0.414152
vt 0.967109 0.518513
vt 0.862747 0.518513
vt 0.862747 0.414152
vt 0.967109 0.518513
vt 0.862747 0.518513
vt 0.862747 0.414152
vt 0.967109 0.518513
vt 0.862747 0.518513
vt 0.862747 0.414152
vt 0.967109 0.414152
vt 0.967109 0.518513
vt 0.862747 0.518513
vt 0.862747 0.414152
vt 0.967109 0.414152
vt 0.862747 0.414152
vt 0.967109 0.518513
vt 0.862747 0.414152
vt 0.967109 0.414152
vt 0.862747 0.414152
vt 0.967109 0.414152
vt 0.967109 0.518513
vt 0.967109 0.414152
vt 0.967109 0.518513
vt 0.967109 0.518513
vn 0.9989 0.0000 0.0468
vn 0.0000 1.0000 0.0000
vn 0.9984 -0.0137 0.0550
vn 0.0262 -0.0139 0.9996
vn 0.5079 -0.0112 0.8614
vn 0.6628 -0.0107 0.7487
vn 0.8674 -0.0115 0.4975
vn 0.0183 0.0000 0.9998
vn 0.5069 0.0000 0.8620
vn 0.6611 0.0000 0.7503
vn 0.8690 0.0000 0.4948
vn 0.0000 0.0000 1.0000
vn 1.0000 0.0000 0.0000
vn 0.0000 0.0000 -1.0000
vn -1.0000 0.0000 0.0000
usemtl BakeTo
s off
f 20/1/1 11/2/1 7/3/1 16/4/1
f 24/5/2 9/6/2 11/2/2 20/1/2
f 28/7/3 5/8/3 9/6/3 24/5/3
f 8/9/4 25/10/4 21/11/4 4/12/4
f 25/10/5 26/13/5 22/14/5 21/11/5
f 26/13/6 27/15/6 23/16/6 22/14/6
f 27/15/7 28/7/7 24/5/7 23/16/7
f 4/12/2 21/11/2 17/17/2 1/18/2
f 21/11/2 22/14/2 18/19/2 17/17/2
f 22/14/2 23/16/2 19/20/2 18/19/2
f 23/16/2 24/5/2 20/1/2 19/20/2
f 1/18/8 17/17/8 13/21/8 6/22/8
f 17/17/9 18/19/9 14/23/9 13/21/9
f 18/19/10 19/20/10 15/24/10 14/23/10
f 19/20/11 20/1/11 16/4/11 15/24/11
usemtl black
f 7/25/12 9/26/12 2/27/12
f 11/2/12 9/6/12 7/3/12
f 1/18/13 6/22/13 4/12/13
f 6/28/13 12/29/13 4/30/13
f 9/31/12 5/32/12 3/33/12 2/34/12
f 4/35/13 12/29/13 10/36/13 8/37/13
f 10/38/14 12/29/14 30/39/14 29/40/14
f 2/41/15 3/42/15 29/43/15 30/44/15
f 27/45/2 26/46/2 29/43/2
f 28/47/2 3/42/2 5/48/2
f 3/49/2 27/50/2 29/43/2
f 29/51/2 26/46/2 10/36/2
f 3/49/2 28/52/2 27/53/2
f 10/38/2 25/54/2 8/55/2
f 10/38/2 26/46/2 25/56/2
