# Blender v2.83.0 OBJ File: ''
# www.blender.org
mtllib Glock.mtl
o Cube_Cube.001
v 0.349255 0.998196 -0.010267
v 0.349255 0.987160 -1.218252
v -0.349255 0.987160 -1.218252
v -0.349255 0.998196 -0.010267
v 0.349255 -1.259474 -1.896299
v 0.349255 -1.355959 -1.784034
v -0.349255 -1.355959 -1.784034
v -0.349255 -1.259474 -1.896299
v 0.349255 -1.111866 -1.907456
v -0.349255 -1.111866 -1.907456
v -0.349255 -1.580236 -0.919392
v -0.349255 -1.591393 -1.067000
v 0.349255 -1.591393 -1.067000
v 0.349255 -1.580236 -0.919392
v -0.349255 -1.467972 -0.822907
v 0.349255 -1.467972 -0.822907
v 0.449731 -1.355959 -1.784034
v 0.449731 -1.259474 -1.896299
v 0.449731 -1.111866 -1.907456
v 0.449731 0.987160 -1.218252
v 0.449731 0.998196 -0.010267
v 0.449731 -1.467972 -0.822907
v 0.449731 -1.580236 -0.919392
v 0.449731 -1.591393 -1.067000
v -0.449731 -1.591393 -1.067000
v -0.449731 -1.580236 -0.919392
v -0.449731 -1.467972 -0.822907
v -0.449731 0.998196 -0.010267
v -0.449731 0.987160 -1.218252
v -0.449731 -1.111866 -1.907456
v -0.449731 -1.259474 -1.896299
v -0.449731 -1.355959 -1.784034
v 0.456251 1.985853 3.352527
v -0.456251 1.985853 3.352527
v 0.456251 2.492215 3.714573
v -0.456251 2.492215 3.714573
v 0.456251 1.985853 3.096459
v -0.456251 1.985853 3.096459
v 0.456251 2.492215 3.096459
v -0.456251 2.492215 3.096459
v 0.000000 2.444308 3.339246
v -0.329874 2.253855 3.339246
v -0.329874 1.872949 3.339246
v 0.000000 1.682496 3.339246
v 0.329874 1.872949 3.339246
v 0.329874 2.253855 3.339246
v 0.000000 2.283569 4.227729
v -0.190670 2.173486 4.227729
v -0.190670 1.953318 4.227729
v 0.000000 1.843234 4.227729
v 0.190671 1.953318 4.227729
v 0.190671 2.173486 4.227729
v 0.000000 2.063402 3.643193
v -0.522736 2.560327 3.763272
v -0.660762 2.560327 3.763272
v 0.522736 2.560327 3.763272
v 0.660762 2.560327 3.763272
v -0.660762 2.570720 -1.514220
v -0.530172 2.701308 -1.540206
v -0.660762 2.261755 -1.823134
v -0.530172 2.287719 -1.953726
v -0.660762 2.480217 -1.732667
v -0.530172 2.580157 -1.832624
v 0.660762 2.261755 -1.823134
v 0.530172 2.287719 -1.953726
v 0.660762 2.570720 -1.514220
v 0.530172 2.701308 -1.540206
v 0.660762 2.480217 -1.732667
v 0.530172 2.580157 -1.832624
v -0.530172 2.701715 3.690546
v -0.660762 2.571130 3.757715
v -0.575154 2.614021 3.735653
v 0.660762 2.571130 3.757715
v 0.530172 2.701715 3.690546
v 0.575154 2.614021 3.735653
v -0.364347 1.038039 -1.677702
v -0.454896 1.128588 -1.677702
v -0.364347 1.128580 -1.768251
v 0.364347 1.038039 -1.677702
v 0.364347 1.128580 -1.768251
v 0.454896 1.128588 -1.677702
v -0.454896 2.578939 3.317894
v -0.364347 2.578947 3.408443
v -0.364347 2.578495 -1.768251
v -0.454896 2.578503 -1.677702
v 0.454896 2.578503 -1.677702
v 0.364347 2.578495 -1.768251
v 0.364347 2.578947 3.408443
v 0.454896 2.578939 3.317894
v -0.454896 1.128982 2.830026
v -0.364347 1.038434 2.841954
v -0.454896 1.616893 3.317894
v -0.364347 1.604972 3.408443
v -0.454896 1.195535 3.078322
v -0.364347 1.114354 3.125199
v -0.454896 1.368591 3.251363
v -0.364347 1.321721 3.332548
v 0.454896 1.616893 3.317894
v 0.364347 1.604972 3.408443
v 0.454896 1.128982 2.830026
v 0.364347 1.038434 2.841954
v 0.454896 1.368591 3.251363
v 0.364347 1.321721 3.332548
v 0.454896 1.195535 3.078322
v 0.364347 1.114354 3.125199
v -0.349255 0.910473 0.071872
v -0.289715 1.040474 0.167517
v -0.349255 1.059048 0.110948
v -0.289715 1.495449 -1.218147
v -0.349255 1.334055 -1.218180
v -0.349255 1.476875 -1.161578
v 0.289715 1.040474 0.167517
v 0.349255 0.910473 0.071872
v 0.349255 1.059048 0.110948
v 0.349255 1.334055 -1.218180
v 0.289715 1.495449 -1.218147
v 0.349255 1.476875 -1.161578
v -0.349255 -1.734280 -1.038028
v -0.289715 -1.799015 -1.024902
v -0.289715 -1.641326 -0.713038
v -0.349255 -1.586686 -0.747668
v -0.289715 -1.784760 -0.836312
v -0.349255 -1.720830 -0.862281
v -0.349255 -1.162874 -2.038422
v -0.289715 -1.186351 -2.098702
v -0.289715 -1.498214 -1.941013
v -0.349255 -1.453860 -1.892069
v -0.349255 -1.338849 -2.025636
v -0.289715 -1.374941 -2.084447
v 0.349255 -1.586686 -0.747668
v 0.289715 -1.641326 -0.713038
v 0.289715 -1.799015 -1.024902
v 0.349255 -1.734280 -1.038028
v 0.349255 -1.720830 -0.862281
v 0.289715 -1.784760 -0.836312
v 0.349255 -1.453860 -1.892069
v 0.289715 -1.498214 -1.941013
v 0.289715 -1.186351 -2.098702
v 0.349255 -1.162874 -2.038422
v 0.289715 -1.374941 -2.084447
v 0.349255 -1.338849 -2.025636
v -0.183610 1.078704 1.265970
v -0.219573 1.078704 1.230008
v 0.219573 1.078704 1.230008
v 0.183610 1.078704 1.265970
v -0.219573 -0.043372 -0.243116
v -0.183610 -0.079006 -0.238265
v 0.183610 -0.079006 -0.238265
v 0.219573 -0.043372 -0.243116
v -0.219573 0.523182 1.230008
v -0.183610 0.516439 1.265970
v -0.183610 0.073064 0.878861
v -0.219573 0.107788 0.867328
v -0.183610 0.224753 1.152589
v -0.219573 0.249904 1.123781
v 0.219573 0.107788 0.867328
v 0.183610 0.073064 0.878861
v 0.183610 0.516439 1.265970
v 0.219573 0.523182 1.230008
v 0.219573 0.249904 1.123781
v 0.183610 0.224753 1.152589
v -0.219573 1.078704 1.121933
v -0.183610 1.078704 1.085970
v -0.219573 0.543449 1.121933
v -0.183610 0.550192 1.085970
v 0.183610 0.550192 1.085970
v 0.219573 0.543449 1.121933
v 0.183610 1.078704 1.085970
v 0.219573 1.078704 1.121933
v -0.219573 0.325490 1.037210
v -0.183610 0.350641 1.008402
v 0.183610 0.350641 1.008402
v 0.219573 0.325490 1.037210
v -0.219573 0.212142 0.832670
v -0.183610 0.246866 0.821137
v 0.183610 0.246866 0.821137
v 0.219573 0.212142 0.832670
v -0.183610 0.099350 -0.262544
v -0.219573 0.063716 -0.257693
v 0.219573 0.063716 -0.257693
v 0.183610 0.099350 -0.262544
v -0.598831 1.906382 3.233779
v -0.660762 1.965335 3.337857
v 0.598831 1.906382 3.233779
v 0.660762 1.965335 3.337857
v -0.598831 1.905948 -1.797451
v -0.660762 1.965289 -1.823109
v -0.504520 1.905940 -1.891762
v -0.530172 1.965470 -1.953698
v 0.504520 1.905940 -1.891762
v 0.530172 1.965470 -1.953698
v 0.598831 1.905948 -1.797451
v 0.660762 1.965289 -1.823109
v 0.000000 2.444308 4.190209
v 0.000000 2.400983 4.227729
v -0.292354 2.232193 4.227729
v -0.329874 2.253855 4.190209
v -0.292354 1.894611 4.227729
v -0.329874 1.872949 4.190209
v 0.000000 1.725820 4.227729
v 0.000000 1.682496 4.190209
v 0.292354 1.894611 4.227729
v 0.329874 1.872949 4.190209
v 0.292354 2.232193 4.227729
v 0.329874 2.253855 4.190209
vt 0.395124 1.000000
vt 0.625000 1.000000
vt 0.625000 1.000000
vt 0.395124 1.000000
vt 0.353690 0.542358
vt 0.146310 0.542358
vt 0.146310 0.500000
vt 0.353690 0.500000
vt 0.625000 0.250000
vt 0.395124 0.250000
vt 0.395124 0.250000
vt 0.625000 0.250000
vt 0.395124 0.771310
vt 0.625000 0.771310
vt 0.625000 0.978690
vt 0.395124 0.978690
vt 0.125000 0.500000
vt 0.125000 0.542358
vt 0.125000 0.542358
vt 0.125000 0.500000
vt 0.375000 0.250000
vt 0.375000 0.250000
vt 0.353690 0.707642
vt 0.146310 0.707642
vt 0.375000 0.478690
vt 0.375000 0.271310
vt 0.395124 0.271310
vt 0.395124 0.478690
vt 0.125000 0.707642
vt 0.125000 0.707642
vt 0.375000 1.000000
vt 0.375000 1.000000
vt 0.353690 0.750000
vt 0.146310 0.750000
vt 0.375000 0.500000
vt 0.395124 0.500000
vt 0.395124 0.500000
vt 0.375000 0.500000
vt 0.375000 0.542358
vt 0.375000 0.542358
vt 0.625000 0.271310
vt 0.625000 0.478690
vt 0.375000 0.707642
vt 0.375000 0.707642
vt 0.395124 0.750000
vt 0.375000 0.750000
vt 0.375000 0.750000
vt 0.395124 0.750000
vt 0.625000 0.500000
vt 0.625000 0.510206
vt 0.625000 0.739794
vt 0.625000 0.750000
vt 0.625000 0.750000
vt 0.625000 0.500000
vt 0.375000 0.978690
vt 0.375000 0.771310
vt 0.125000 0.750000
vt 0.125000 0.750000
vt 0.375000 0.542358
vt 0.380894 0.512406
vt 0.395124 0.500000
vt 0.625000 0.500000
vt 0.625000 0.750000
vt 0.395124 0.750000
vt 0.380894 0.737594
vt 0.375000 0.707642
vt 0.380894 0.512406
vt 0.380894 0.737594
vt 0.375000 0.042358
vt 0.380894 0.012406
vt 0.395124 0.000000
vt 0.625000 0.000000
vt 0.625000 0.250000
vt 0.395124 0.250000
vt 0.380894 0.237594
vt 0.375000 0.207642
vt 0.380894 0.012406
vt 0.375000 0.042358
vt 0.395124 0.000000
vt 0.625000 0.000000
vt 0.380894 0.237594
vt 0.375000 0.207642
vt 0.649882 0.736321
vt 0.850118 0.736321
vt 0.850118 0.722642
vt 0.649882 0.722642
vt 0.625000 0.745938
vt 0.625000 0.744020
vt 0.625000 0.734385
vt 0.625000 0.722128
vt 0.625000 0.504374
vt 0.625000 0.504373
vt 0.625000 0.745627
vt 0.850118 0.750000
vt 0.649882 0.750000
vt 0.649882 0.750000
vt 0.850118 0.750000
vt 0.875000 0.504373
vt 0.875000 0.722128
vt 0.875000 0.734385
vt 0.875000 0.744020
vt 0.875000 0.745938
vt 0.875000 0.745627
vt 0.875000 0.504373
vt 0.625000 0.505388
vt 0.625000 0.506081
vt 0.649704 0.500000
vt 0.649704 0.500000
vt 0.850296 0.500000
vt 0.850296 0.500000
vt 0.875000 0.506081
vt 0.875000 0.505388
vt 0.625000 0.750000
vt 0.625000 0.507931
vt 0.625000 0.518726
vt 0.625000 0.749429
vt 0.625000 0.750000
vt 0.875000 0.750000
vt 0.875000 0.750000
vt 0.875000 0.749429
vt 0.875000 0.518726
vt 0.875000 0.507931
vt 0.649704 0.517770
vt 0.850296 0.517770
vt 0.850296 0.742531
vt 0.649704 0.742531
vt 0.625000 0.747163
vt 0.875000 0.747163
vt 0.875000 0.750000
vt 0.625000 0.750000
vt 0.649704 0.501764
vt 0.850296 0.501764
vt 0.875000 0.750000
vt 0.875000 0.750000
vt 0.875000 0.750000
vt 0.875000 0.750000
vt 0.904583 0.750000
vt 0.595417 0.750000
vt 0.625000 0.750000
vt 0.625000 0.750000
vt 0.625000 0.750000
vt 0.625000 0.750000
vt 0.000000 0.000000
vt 0.000000 0.000000
vt 0.000000 0.000000
vt 0.000000 0.000000
vt 0.000000 0.000000
vt 0.000000 0.000000
vt 0.000000 0.000000
vt 0.000000 0.000000
vt 0.000000 0.000000
vt 0.000000 0.000000
vt 0.000000 0.000000
vt 0.000000 0.000000
vt 0.000000 0.000000
vt 0.000000 0.000000
vt 0.000000 0.000000
vt 0.000000 0.000000
vt 0.000000 0.000000
vt 0.000000 0.000000
vt 0.000000 0.000000
vt 0.000000 0.000000
vt 0.000000 0.000000
vt 0.000000 0.000000
vt 0.000000 0.000000
vt 0.000000 0.000000
vt 0.000000 0.000000
vt 0.641195 0.744469
vt 0.651111 0.745656
vt 0.881351 0.750000
vt 0.876278 0.750000
vt 0.649882 0.748778
vt 0.850118 0.748778
vt 0.649882 0.504373
vt 0.850118 0.504373
vt 0.875000 0.746465
vt 0.635617 0.743801
vt 0.850118 0.500000
vt 0.649882 0.500000
vt 0.649882 0.500000
vt 0.850118 0.500000
vt 0.875000 0.750000
vt 0.875000 0.750000
vt 0.875000 0.739794
vt 0.612511 0.250000
vt 0.625000 0.250000
vt 0.612511 0.750000
vt 0.625000 0.750000
vt 0.625000 0.500000
vt 0.875000 0.510206
vt 0.875000 0.500000
vt 0.875000 0.500000
vt 0.875000 0.750000
vt 0.000000 0.000000
vt 0.000000 0.000000
vt 0.000000 0.000000
vt 0.000000 0.000000
vt 0.000000 0.000000
vt 0.000000 0.000000
vt 0.000000 0.000000
vt 0.000000 0.000000
vt 0.000000 0.000000
vt 0.000000 0.000000
vt 0.000000 0.000000
vt 0.000000 0.000000
vt 0.000000 0.000000
vt 0.000000 0.000000
vt 0.000000 0.000000
vt 0.000000 0.000000
vt 0.000000 0.000000
vt 0.000000 0.000000
vt 0.000000 0.000000
vt 0.000000 0.000000
vt 0.000000 0.000000
vt 0.000000 0.000000
vt 0.000000 0.000000
vt 0.000000 0.000000
vt 0.000000 0.000000
vt 0.000000 0.000000
vt 0.000000 0.000000
vt 0.000000 0.000000
vt 0.000000 0.000000
vt 0.000000 0.000000
vt 0.000000 0.000000
vt 0.000000 0.000000
vt 0.000000 0.000000
vt 0.000000 0.000000
vt 0.000000 0.000000
vt 0.000000 0.000000
vt 0.000000 0.000000
vt 0.000000 0.000000
vt 0.000000 0.000000
vt 0.000000 0.000000
vt 0.863284 0.747051
vt 0.636716 0.747051
vt 0.845443 0.502949
vt 0.863284 0.507441
vt 0.636716 0.507441
vt 0.654557 0.502949
vn -0.8983 -0.1961 0.3930
vn -0.9065 -0.1280 0.4022
vn -0.8797 0.2804 0.3840
vn -0.7536 -0.3232 0.5723
vn 0.3797 -0.8011 -0.4626
vn -0.3797 -0.8011 -0.4626
vn -0.3819 -0.4204 -0.8230
vn 0.3819 -0.4204 -0.8230
vn -0.9065 0.1353 -0.3999
vn -0.8983 0.0750 -0.4328
vn -0.7537 0.0793 -0.6523
vn -0.8643 0.4060 -0.2969
vn 0.3616 -0.4705 0.8049
vn 0.3707 -0.2744 0.8873
vn -0.3707 -0.2744 0.8873
vn -0.3616 -0.4705 0.8049
vn -0.9069 -0.1819 -0.3799
vn -0.9111 -0.3656 -0.1903
vn -0.7537 -0.5723 -0.3229
vn -0.8042 -0.2682 -0.5304
vn 0.3797 -0.9194 -0.1023
vn -0.3797 -0.9194 -0.1023
vn -0.3616 0.0982 -0.9272
vn 0.3616 0.0982 -0.9272
vn -0.9111 -0.4073 -0.0634
vn -0.7537 -0.6523 -0.0793
vn -0.9069 -0.3717 0.1981
vn -0.8042 -0.5304 0.2682
vn 0.3819 -0.8264 0.4136
vn -0.3819 -0.8264 0.4136
vn 0.9069 -0.1819 -0.3799
vn 0.8983 0.0750 -0.4328
vn 0.7537 0.0793 -0.6523
vn 0.8042 -0.2682 -0.5304
vn 0.9111 -0.3656 -0.1903
vn 0.7537 -0.5723 -0.3229
vn -0.3707 0.3049 -0.8772
vn 0.3707 0.3049 -0.8772
vn 0.9111 -0.4073 -0.0634
vn 0.7537 -0.6523 -0.0793
vn 0.8983 -0.1961 0.3930
vn 0.9069 -0.3717 0.1981
vn 0.8042 -0.5304 0.2682
vn 0.7536 -0.3232 0.5723
vn 0.9065 0.1353 -0.3999
vn 0.9288 0.1365 -0.3446
vn 0.9288 -0.0942 0.3584
vn 0.9065 -0.1280 0.4022
vn 0.8797 0.2804 0.3840
vn 0.8643 0.4060 -0.2969
vn 0.6657 -0.6499 -0.3666
vn 0.6302 -0.3503 -0.6928
vn 0.6657 0.0900 -0.7407
vn 0.5965 0.6479 -0.4737
vn 0.5620 0.4878 0.6679
vn 0.6658 -0.3669 0.6496
vn 0.6302 -0.6928 0.3503
vn 0.6657 -0.7407 -0.0900
vn -0.6657 -0.7407 -0.0900
vn -0.6302 -0.6928 0.3503
vn -0.6658 -0.3669 0.6496
vn -0.5620 0.4878 0.6679
vn -0.5965 0.6479 -0.4737
vn -0.6657 0.0900 -0.7407
vn -0.6302 -0.3503 -0.6928
vn -0.6657 -0.6499 -0.3666
vn 0.3692 -0.8048 0.4647
vn -0.3692 -0.8048 0.4647
vn -0.3737 -0.9196 0.1211
vn 0.3737 -0.9196 0.1211
vn 0.9133 -0.0531 0.4037
vn 0.9048 -0.2128 0.3687
vn 0.9048 -0.3687 0.2129
vn 0.9133 -0.4037 0.0532
vn 0.8756 -0.3416 -0.3416
vn 0.9239 0.0000 -0.3826
vn 0.9239 0.0000 0.3827
vn -0.3737 -0.1210 0.9196
vn 0.3737 -0.1210 0.9196
vn 0.3827 0.0000 0.9239
vn -0.3827 0.0000 0.9239
vn -0.8756 -0.3416 -0.3416
vn -0.9133 -0.4037 0.0532
vn -0.9048 -0.3687 0.2129
vn -0.9048 -0.2128 0.3687
vn -0.9133 -0.0531 0.4037
vn -0.9239 0.0000 0.3827
vn -0.9239 0.0000 -0.3826
vn 0.9088 0.0813 -0.4092
vn 0.8554 -0.3775 -0.3545
vn 0.3544 -0.3767 -0.8559
vn 0.3710 0.1811 -0.9108
vn -0.3710 0.1811 -0.9108
vn -0.3544 -0.3767 -0.8559
vn -0.8554 -0.3775 -0.3545
vn -0.9088 0.0813 -0.4092
vn 0.6668 -0.5907 0.4543
vn 0.8991 0.3095 -0.3095
vn 0.9088 0.4092 -0.0814
vn 0.7067 0.4781 0.5215
vn 0.6065 -0.0578 0.7929
vn -0.6668 -0.5907 0.4543
vn -0.6065 -0.0578 0.7929
vn -0.7067 0.4781 0.5215
vn -0.9088 0.4092 -0.0814
vn -0.8991 0.3095 -0.3095
vn 0.3710 0.9108 -0.1812
vn -0.3710 0.9108 -0.1812
vn -0.2904 0.8513 0.4371
vn 0.2904 0.8513 0.4371
vn 0.0000 0.4574 0.8892
vn 0.0000 -0.0727 0.9973
vn 0.3688 0.6572 -0.6573
vn -0.3688 0.6572 -0.6573
vn 0.1625 -0.7374 0.6556
vn 0.4798 -0.2561 0.8392
vn 0.7071 0.7071 0.0000
vn 0.7071 -0.7071 0.0000
vn -0.4798 -0.2561 0.8392
vn -0.1625 -0.7374 0.6556
vn -0.7071 -0.7071 0.0000
vn -0.7071 0.7071 0.0000
vn -0.3830 0.2211 -0.8969
vn 0.0000 0.4422 -0.8969
vn 0.0000 -0.4135 -0.9105
vn 0.3581 -0.2067 -0.9105
vn 0.0000 -0.4422 -0.8969
vn -0.3830 -0.2211 -0.8969
vn 0.3581 0.2067 -0.9105
vn 0.0000 0.4135 -0.9105
vn 0.3830 0.2211 -0.8969
vn 0.3830 -0.2211 -0.8969
vn -0.3581 0.2067 -0.9105
vn -0.3581 -0.2067 -0.9105
vn 0.0000 -1.0000 0.0000
vn -0.8660 -0.5000 0.0000
vn -0.8037 -0.4640 -0.3724
vn 0.0000 -0.9280 -0.3724
vn -0.8660 0.5000 0.0000
vn 0.0000 1.0000 0.0000
vn 0.0000 0.9280 -0.3724
vn -0.8037 0.4640 -0.3724
vn 0.8660 0.5000 0.0000
vn 0.8660 -0.5000 0.0000
vn 0.8037 -0.4640 -0.3724
vn 0.8037 0.4640 -0.3724
vn 0.0000 0.0000 -1.0000
vn 0.3692 -0.4646 0.8048
vn -0.3692 -0.4646 0.8048
vn 0.3416 -0.8756 -0.3415
vn -0.3416 -0.8756 -0.3415
vn -0.3416 -0.3416 -0.8755
vn 0.3416 -0.3416 -0.8755
vn 0.3827 0.0000 -0.9239
vn -0.3827 0.0000 -0.9239
vn -0.9288 -0.0943 0.3584
vn -0.9288 0.1365 -0.3446
vn 0.9239 0.0000 -0.3827
vn 0.9095 0.0766 -0.4085
vn 0.9407 -0.0625 0.3334
vn 0.9008 0.2856 -0.3272
vn 0.9095 0.3945 -0.1310
vn 0.9407 -0.3219 0.1069
vn 0.9557 -0.1935 0.2217
vn -0.9095 0.3945 -0.1310
vn -0.9008 0.2856 -0.3272
vn -0.9557 -0.1935 0.2217
vn -0.9407 -0.3219 0.1069
vn 0.9239 0.3792 -0.0516
vn 0.9239 -0.3792 0.0516
vn 0.4039 -0.1686 0.8991
vn 0.4320 -0.5931 0.6793
vn -0.4320 -0.5931 0.6793
vn -0.4039 -0.1686 0.8991
vn 0.4039 -0.8682 0.2883
vn -0.4039 -0.8682 0.2883
vn 0.3827 -0.9154 0.1246
vn -0.3827 -0.9154 0.1246
vn 0.3685 0.6114 -0.7002
vn -0.3685 0.6114 -0.7002
vn -0.3713 0.8811 -0.2926
vn 0.3713 0.8811 -0.2926
vn -0.9095 0.0766 -0.4085
vn -0.9407 -0.0625 0.3334
vn -0.9239 0.0000 -0.3827
vn -0.3827 0.9154 -0.1246
vn 0.3827 0.9154 -0.1246
vn 0.3713 0.1711 -0.9126
vn -0.3713 0.1711 -0.9126
vn -0.9239 0.3792 -0.0516
vn -0.9239 -0.3792 0.0516
vn -0.3085 -0.9333 0.1838
vn 0.3085 -0.9333 0.1838
vn -0.1633 -0.9041 -0.3948
vn -0.3938 -0.9045 -0.1634
vn 0.3938 -0.9045 -0.1634
vn 0.1633 -0.9041 -0.3948
usemtl None
s 1
f 121/1/1 106/2/2 4/3/3 15/4/4
f 137/5/5 126/6/6 129/7/7 140/8/8
f 110/9/9 124/10/10 10/11/11 3/12/12
f 131/13/13 112/14/14 107/15/15 120/16/16
f 128/17/17 127/18/18 7/19/19 8/20/20
f 124/10/10 128/21/17 8/22/20 10/11/11
f 126/6/6 137/5/5 132/23/21 119/24/22
f 140/25/8 129/26/7 125/27/23 138/28/24
f 127/18/18 118/29/25 12/30/26 7/19/19
f 123/31/27 121/1/1 15/4/4 11/32/28
f 119/24/22 132/23/21 135/33/29 122/34/30
f 141/35/31 139/36/32 9/37/33 5/38/34
f 136/39/35 141/35/31 5/38/34 6/40/36
f 125/27/23 109/41/37 116/42/38 138/28/24
f 133/43/39 136/39/35 6/40/36 13/44/40
f 130/45/41 134/46/42 14/47/43 16/48/44
f 115/49/45 117/50/46 114/51/47 113/52/48 1/53/49 2/54/50
f 139/36/32 115/49/45 2/54/50 9/37/33
f 113/52/48 130/45/41 16/48/44 1/53/49
f 122/55/30 135/56/29 131/13/13 120/16/16
f 118/29/25 123/57/27 11/58/28 12/30/26
f 134/46/42 133/43/39 13/44/40 14/47/43
f 17/59/51 18/60/52 19/61/53 20/62/54 21/63/55 22/64/56 23/65/57 24/66/58
f 5/67/34 18/60/52 17/59/51 6/40/36
f 9/37/33 19/61/53 18/60/52 5/67/34
f 2/54/50 20/62/54 19/61/53 9/37/33
f 1/53/49 21/63/55 20/62/54 2/54/50
f 16/48/44 22/64/56 21/63/55 1/53/49
f 14/68/43 23/65/57 22/64/56 16/48/44
f 13/44/40 24/66/58 23/65/57 14/68/43
f 6/40/36 17/59/51 24/66/58 13/44/40
f 25/69/59 26/70/60 27/71/61 28/72/62 29/73/63 30/74/64 31/75/65 32/76/66
f 11/77/28 26/70/60 25/69/59 12/78/26
f 15/79/4 27/71/61 26/70/60 11/77/28
f 4/80/3 28/72/62 27/71/61 15/79/4
f 3/12/12 29/73/63 28/72/62 4/80/3
f 10/11/11 30/74/64 29/73/63 3/12/12
f 8/81/20 31/75/65 30/74/64 10/11/11
f 7/82/19 32/76/66 31/75/65 8/81/20
f 12/78/26 25/69/59 32/76/66 7/82/19
f 105/83/67 95/84/68 91/85/69 101/86/70
f 98/87/71 102/88/72 104/89/73 100/90/74 81/91/75 86/92/76 89/93/77
f 93/94/78 99/95/79 88/96/80 83/97/81
f 77/98/82 90/99/83 94/100/84 96/101/85 92/102/86 82/103/87 85/104/88
f 64/105/89 193/106/90 191/107/91 65/108/92
f 61/109/93 189/110/94 187/111/95 60/112/96
f 185/113/97 193/106/90 64/105/89 68/114/98 66/115/99 73/116/100 57/117/101
f 187/111/95 183/118/102 55/119/103 71/120/104 58/121/105 62/122/106 60/112/96
f 67/123/107 59/124/108 70/125/109 74/126/110
f 75/127/111 74/126/110 70/125/109 72/128/111 54/129/112 56/130/112
f 59/124/108 67/123/107 69/131/113 63/132/114
f 36/133/115 34/134/116 38/135/117 40/136/118
f 54/129/112 55/119/103 183/118/102 34/134/116 36/133/115
f 183/137/102 185/138/97 33/139/119 34/134/116
f 63/132/114 69/131/113 65/108/92 61/109/93
f 35/140/120 36/133/115 40/136/118 39/141/121
f 33/139/119 35/140/120 39/141/121 37/142/122
f 34/134/116 33/139/119 37/142/122 38/135/117
f 202/143/123 200/144/124 50/145/125 51/146/126
f 195/147/127 204/148/128 52/149/129 47/150/130
f 198/151/131 196/152/132 48/153/133 49/154/134
f 204/148/128 202/143/123 51/146/126 52/149/129
f 200/144/124 198/151/131 49/154/134 50/145/125
f 41/155/135 46/156/136 205/157/137 194/158/138
f 45/159/139 44/160/140 201/161/141 203/162/142
f 43/163/143 42/164/144 197/165/145 199/166/146
f 46/156/136 45/159/139 203/162/142 205/157/137
f 44/160/140 43/163/143 199/166/146 201/161/141
f 42/164/144 41/155/135 194/158/138 197/165/145
f 52/149/129 51/146/126 53/167/147
f 50/145/125 49/154/134 53/167/147
f 48/153/133 47/150/130 53/167/147
f 47/150/130 52/149/129 53/167/147
f 51/146/126 50/145/125 53/167/147
f 49/154/134 48/153/133 53/167/147
f 73/116/100 75/168/111 56/169/112 57/117/101
f 54/129/112 72/170/111 71/171/104 55/119/103
f 56/130/112 54/129/112 36/133/115 35/140/120
f 103/172/148 97/173/149 95/84/68 105/83/67
f 99/95/79 93/94/78 97/173/149 103/172/148
f 79/174/150 101/86/70 91/85/69 76/175/151
f 70/125/109 71/176/104 72/128/111
f 73/116/100 74/177/110 75/168/111
f 62/122/106 58/121/105 59/124/108 63/132/114
f 66/115/99 68/114/98 69/131/113 67/123/107
f 60/112/96 62/122/106 63/132/114 61/109/93
f 68/114/98 64/105/89 65/108/92 69/131/113
f 191/107/91 189/110/94 61/109/93 65/108/92
f 73/116/100 66/115/99 67/123/107 74/126/110
f 58/121/105 71/120/104 70/125/109 59/124/108
f 185/113/97 57/117/101 56/130/112 35/140/120 33/139/119
f 76/175/151 77/98/82 78/178/152
f 79/174/150 80/179/153 81/91/75
f 78/178/152 80/179/153 79/174/150 76/175/151
f 80/179/153 87/180/154 86/92/76 81/91/75
f 84/181/155 78/178/152 77/98/82 85/104/88
f 102/88/72 98/87/71 99/95/79 103/172/148
f 92/102/86 96/101/85 97/173/149 93/94/78
f 104/89/73 102/88/72 103/172/148 105/83/67
f 96/101/85 94/100/84 95/84/68 97/173/149
f 100/90/74 104/89/73 105/83/67 101/86/70
f 94/100/84 90/99/83 91/85/69 95/84/68
f 76/175/151 91/85/69 90/99/83 77/98/82
f 93/94/78 83/97/81 82/103/87 92/102/86
f 81/91/75 100/90/74 101/86/70 79/174/150
f 98/87/71 89/93/77 88/96/80 99/95/79
f 80/179/153 78/178/152 84/181/155 87/180/154
f 106/182/2 107/183/15 108/184/156
f 109/41/37 110/185/9 111/186/157
f 112/14/14 113/187/48 114/188/47
f 115/49/45 116/189/38 117/50/46
f 141/35/31 136/39/35 137/5/5 140/8/8
f 127/18/18 128/17/17 129/7/7 126/6/6
f 139/36/32 141/35/31 140/25/8 138/28/24
f 128/21/17 124/10/10 125/27/23 129/26/7
f 123/57/27 118/29/25 119/24/22 122/34/30
f 133/43/39 134/46/42 135/33/29 132/23/21
f 121/1/1 123/31/27 122/55/30 120/16/16
f 134/46/42 130/45/41 131/13/13 135/56/29
f 118/29/25 127/18/18 126/6/6 119/24/22
f 136/39/35 133/43/39 132/23/21 137/5/5
f 120/16/16 107/15/15 106/2/2 121/1/1
f 109/41/37 125/27/23 124/10/10 110/9/9
f 130/45/41 113/52/48 112/14/14 131/13/13
f 115/49/45 139/36/32 138/28/24 116/42/38
f 106/182/2 108/184/156 111/190/157 110/191/9 3/192/12 4/193/3
f 143/194/158 150/195/159 164/196/160 162/197/77
f 155/198/161 153/199/162 174/200/163 170/201/164
f 156/202/165 160/203/166 173/204/167 177/205/168
f 153/199/162 146/206/169 179/207/170 174/200/163
f 165/208/171 171/209/172 172/210/173 166/211/174
f 171/209/172 175/212/175 176/213/176 172/210/173
f 175/212/175 178/214/177 181/215/178 176/213/176
f 154/216/179 161/217/180 157/218/181 152/219/182
f 150/195/159 155/198/161 170/201/164 164/196/160
f 160/203/166 159/220/183 167/221/184 173/204/167
f 163/222/80 165/208/171 166/211/174 168/223/81
f 159/220/183 144/224/185 169/225/87 167/221/184
f 152/219/182 157/218/181 148/226/186 147/227/187
f 151/228/188 158/229/189 161/217/180 154/216/179
f 149/230/190 156/202/165 177/205/168 180/231/191
f 155/198/161 150/195/159 151/228/188 154/216/179
f 159/220/183 160/203/166 161/217/180 158/229/189
f 153/199/162 155/198/161 154/216/179 152/219/182
f 160/203/166 156/202/165 157/218/181 161/217/180
f 146/206/169 153/199/162 152/219/182 147/227/187
f 156/202/165 149/230/190 148/226/186 157/218/181
f 150/195/159 143/194/158 142/232/154 151/228/188
f 144/224/185 159/220/183 158/229/189 145/233/155
f 165/208/171 163/222/80 162/197/77 164/196/160
f 168/223/81 166/211/174 167/221/184 169/225/87
f 171/209/172 165/208/171 164/196/160 170/201/164
f 166/211/174 172/210/173 173/204/167 167/221/184
f 175/212/175 171/209/172 170/201/164 174/200/163
f 172/210/173 176/213/176 177/205/168 173/204/167
f 178/214/177 175/212/175 174/200/163 179/207/170
f 176/213/176 181/215/178 180/231/191 177/205/168
f 142/232/154 145/233/155 158/229/189 151/228/188
f 185/138/97 183/137/102 182/234/192 184/235/193
f 188/236/194 186/237/195 187/111/95 189/110/94
f 192/238/196 190/239/197 191/107/91 193/106/90
f 186/237/195 182/234/192 183/118/102 187/111/95
f 189/110/94 191/107/91 190/239/197 188/236/194
f 193/106/90 185/113/97 184/235/193 192/238/196
f 190/239/197 192/238/196 184/235/193 182/234/192 186/237/195 188/236/194
f 197/165/145 194/158/138 195/147/127 196/152/132
f 199/166/146 197/165/145 196/152/132 198/151/131
f 201/161/141 199/166/146 198/151/131 200/144/124
f 203/162/142 201/161/141 200/144/124 202/143/123
f 205/157/137 203/162/142 202/143/123 204/148/128
f 194/158/138 205/157/137 204/148/128 195/147/127
f 196/152/132 195/147/127 47/150/130 48/153/133
