# Blender v2.83.0 OBJ File: 'NPA6_animations.blend'
# www.blender.org
mtllib superShotgun.mtl
o Gun_Cube.002
v -0.141190 -0.027023 0.389833
v 0.141190 -0.027023 0.389833
v -0.082667 0.031500 1.503296
v 0.082667 0.031500 1.503296
v -0.000000 0.121873 0.964061
v -0.141190 -0.027023 0.550372
v -0.141190 -0.027023 0.597375
v 0.141190 -0.027023 0.597375
v 0.141190 -0.027023 0.550372
v -0.132899 -0.018732 0.573874
v 0.132899 -0.018732 0.573874
v -0.141190 0.196758 0.389833
v -0.082591 0.255357 0.389833
v 0.082591 0.255357 0.389833
v 0.141190 0.196758 0.389833
v -0.082667 0.137139 1.503296
v -0.022972 0.196835 1.503296
v 0.022972 0.196835 1.503296
v 0.082667 0.137139 1.503296
v -0.082025 0.255357 0.597375
v -0.141190 0.196192 0.597375
v -0.141190 0.196652 0.550372
v -0.082485 0.255357 0.550372
v 0.082485 0.255357 0.550372
v 0.141190 0.196652 0.550372
v 0.141190 0.196192 0.597375
v 0.082025 0.255357 0.597375
v -0.132899 0.188130 0.573874
v -0.073963 0.247066 0.573874
v 0.132899 0.188130 0.573874
v 0.073963 0.247066 0.573874
v -0.132601 0.115211 0.211696
v -0.088438 0.084602 0.243532
v -0.088438 0.246668 0.074969
v -0.132601 0.216059 0.106805
v 0.088438 0.084602 0.243532
v 0.132601 0.115211 0.211696
v 0.132601 0.216059 0.106805
v 0.088438 0.246668 0.074969
v -0.205073 -0.026432 0.031334
v -0.190441 -0.041065 0.031334
v -0.190441 -0.026432 0.016701
v -0.205073 0.254766 0.031334
v -0.190441 0.254766 0.016701
v -0.190441 0.269399 0.031334
v 0.190441 -0.041065 0.031334
v 0.205073 -0.026432 0.031334
v 0.190441 -0.026432 0.016701
v 0.190441 0.269399 0.031334
v 0.190441 0.254766 0.016701
v 0.205073 0.254766 0.031334
v -0.205073 0.254766 0.406890
v -0.190441 0.269399 0.406890
v -0.190441 0.254766 0.421523
v -0.205073 -0.026432 0.406890
v -0.190441 -0.026432 0.421523
v -0.190441 -0.041065 0.406890
v 0.190441 -0.041065 0.406890
v 0.190441 -0.026432 0.421523
v 0.205073 -0.026432 0.406890
v 0.190441 0.269399 0.406890
v 0.205073 0.254766 0.406890
v 0.190441 0.254766 0.421523
v -0.076541 -0.226761 -0.095675
v -0.088438 -0.225963 -0.055063
v -0.103878 -0.207814 -0.115382
v -0.132601 -0.195354 -0.086898
v -0.103878 -0.123456 -0.203121
v -0.132601 -0.094506 -0.191790
v -0.076541 -0.104509 -0.222828
v -0.088438 -0.063897 -0.223626
v 0.103878 -0.207814 -0.115382
v 0.132601 -0.195354 -0.086898
v 0.076541 -0.226761 -0.095675
v 0.088438 -0.225963 -0.055063
v 0.076541 -0.104509 -0.222828
v 0.088438 -0.063897 -0.223626
v 0.103878 -0.123456 -0.203121
v 0.132601 -0.094506 -0.191790
v -0.171540 -0.007116 1.425731
v -0.191405 0.012749 1.405866
v -0.171540 -0.007116 0.280914
v -0.191405 0.012749 0.300779
v 0.171540 -0.007116 1.425731
v 0.191405 0.012749 1.405866
v 0.171540 -0.007116 0.280914
v 0.191405 0.012749 0.300779
v -0.112798 -0.105554 0.280914
v -0.115413 -0.125418 0.300779
v -0.171540 -0.046811 0.280914
v -0.191405 -0.049426 0.300779
v -0.143126 -0.097427 0.280914
v -0.153409 -0.115237 0.300779
v -0.163414 -0.077140 0.280914
v -0.181224 -0.087422 0.300779
v -0.171540 -0.046811 1.425731
v -0.191405 -0.049426 1.405866
v -0.112798 -0.105554 1.425731
v -0.115413 -0.125418 1.405866
v -0.163414 -0.077140 1.425731
v -0.181224 -0.087422 1.405866
v -0.143126 -0.097427 1.425731
v -0.153409 -0.115237 1.405866
v 0.171540 -0.046811 0.280914
v 0.191405 -0.049426 0.300779
v 0.112798 -0.105554 0.280914
v 0.115413 -0.125418 0.300779
v 0.163414 -0.077140 0.280914
v 0.181224 -0.087422 0.300779
v 0.143126 -0.097427 0.280914
v 0.153409 -0.115237 0.300779
v 0.112798 -0.105554 1.425731
v 0.115413 -0.125418 1.405866
v 0.171540 -0.046811 1.425731
v 0.191405 -0.049426 1.405866
v 0.143126 -0.097427 1.425731
v 0.153409 -0.115237 1.405866
v 0.163414 -0.077140 1.425731
v 0.181224 -0.087422 1.405866
v -0.124595 -0.010428 1.503296
v -0.141190 -0.027023 1.484045
v 0.141190 -0.027023 1.484045
v 0.124595 -0.010428 1.503296
v -0.065299 0.239026 1.503296
v -0.081689 0.255357 1.484045
v -0.141190 0.195856 1.484045
v -0.124808 0.179414 1.503296
v 0.081689 0.255357 1.484045
v 0.065299 0.239026 1.503296
v 0.124808 0.179414 1.503296
v 0.141190 0.195856 1.484045
vt 0.390626 0.047216
vt 0.625000 0.047216
vt 0.625000 0.202784
vt 0.390626 0.202784
vt 0.625000 0.547216
vt 0.390626 0.547216
vt 0.390626 0.458368
vt 0.625000 0.458368
vt 0.625000 0.291632
vt 0.390626 0.291632
vt 0.625000 0.791632
vt 0.390626 0.791632
vt 0.390626 0.702784
vt 0.625000 0.702784
vt 0.362111 0.750000
vt 0.137889 0.750000
vt 0.137304 0.750000
vt 0.141150 0.750000
vt 0.155775 0.750000
vt 0.176152 0.750000
vt 0.323848 0.750000
vt 0.344225 0.750000
vt 0.358850 0.750000
vt 0.362696 0.750000
vt 0.375000 0.504338
vt 0.375000 0.745662
vt 0.375000 0.745662
vt 0.375000 0.504338
vt 0.174628 0.504338
vt 0.174628 0.745662
vt 0.149814 0.745662
vt 0.149814 0.504338
vt 0.137889 0.500000
vt 0.362111 0.500000
vt 0.362696 0.500000
vt 0.358850 0.500000
vt 0.344225 0.500000
vt 0.323848 0.500000
vt 0.176152 0.500000
vt 0.155775 0.500000
vt 0.141150 0.500000
vt 0.137304 0.500000
vt 0.127216 0.504338
vt 0.127216 0.745662
vt 0.125000 0.745662
vt 0.125000 0.504338
vt 0.325372 0.504338
vt 0.325372 0.745662
vt 0.372784 0.745662
vt 0.372784 0.504338
vt 0.350186 0.745662
vt 0.350186 0.504338
vt 0.125000 0.504338
vt 0.125000 0.745662
vt 0.375000 0.491081
vt 0.375000 0.491081
vt 0.375000 0.258919
vt 0.375000 0.258919
vt 0.625000 0.258919
vt 0.625000 0.258919
vt 0.625000 0.491081
vt 0.625000 0.491081
vt 0.613217 0.500000
vt 0.613217 0.500000
vt 0.386783 0.500000
vt 0.386783 0.500000
vt 0.386783 0.258919
vt 0.613217 0.258919
vt 0.613217 0.491081
vt 0.386783 0.491081
vt 0.386783 0.258919
vt 0.386783 0.491081
vt 0.613217 0.491081
vt 0.613217 0.258919
vt 0.822322 0.748229
vt 0.822619 0.666667
vt 0.875000 0.666667
vt 0.875000 0.748229
vt 0.375000 0.666667
vt 0.572619 0.666667
vt 0.572322 0.748229
vt 0.375000 0.748229
vt 0.676879 0.500000
vt 0.823121 0.500000
vt 0.823027 0.583333
vt 0.676973 0.583333
vt 0.125000 0.750000
vt 0.375000 0.750000
vt 0.375000 0.750000
vt 0.125000 0.750000
vt 0.677381 0.666667
vt 0.677678 0.748229
vt 0.125000 0.750000
vt 0.375000 0.500000
vt 0.573121 0.500000
vt 0.573027 0.583333
vt 0.375000 0.583333
vt 0.561796 0.000000
vt 0.534736 0.000000
vt 0.625000 0.000000
vt 0.625000 0.000000
vt 0.375000 0.000000
vt 0.375000 0.000000
vt 0.680433 0.625000
vt 0.819567 0.625000
vt 0.715264 0.750000
vt 0.784736 0.750000
vt 0.715046 0.750000
vt 0.534736 0.750000
vt 0.375000 0.750000
vt 0.375000 0.166667
vt 0.573027 0.166667
vt 0.573121 0.250000
vt 0.375000 0.250000
vt 0.375000 0.083333
vt 0.572619 0.083333
vt 0.569567 0.125000
vt 0.375000 0.125000
vt 0.125000 0.500000
vt 0.125000 0.583333
vt 0.125000 0.625000
vt 0.375000 0.625000
vt 0.125000 0.666667
vt 0.534954 0.000000
vt 0.561796 0.750000
vt 0.569567 0.625000
vt 0.875000 0.500000
vt 0.875000 0.583333
vt 0.688171 0.750000
vt 0.811829 0.750000
vt 0.784954 0.750000
vt 0.875000 0.750000
vt 0.534954 0.750000
vt 0.875000 0.612734
vt 0.875000 0.625000
vt 0.875000 0.637036
vt 0.125000 0.748229
vt 0.625000 0.958368
vt 0.390626 0.958368
vt 0.625000 1.000000
vt 0.390626 1.000000
vt 0.386783 0.250000
vt 0.613217 0.250000
vt 0.613217 0.250000
vt 0.386783 0.250000
vt 0.152076 0.690064
vt 0.177847 0.719292
vt 0.166632 0.750000
vt 0.125000 0.702784
vt 0.177847 0.530708
vt 0.152076 0.559936
vt 0.125000 0.547216
vt 0.166632 0.500000
vt 0.347924 0.559936
vt 0.322153 0.530708
vt 0.333368 0.500000
vt 0.375000 0.547216
vt 0.322153 0.719292
vt 0.347924 0.690064
vt 0.375000 0.702784
vt 0.333368 0.750000
vt 0.375000 0.190064
vt 0.375000 0.059936
vt 0.375000 0.447153
vt 0.375000 0.302847
vt 0.375000 0.947153
vt 0.375000 0.802847
vt 0.875000 0.750000
vt 0.822316 0.750000
vt 0.572322 0.001771
vt 0.375000 0.001771
vn -1.0000 0.0000 0.0000
vn 0.7071 0.4901 -0.5097
vn -0.7071 0.4901 -0.5097
vn 0.7071 -0.4901 0.5097
vn 0.0000 0.0000 1.0000
vn 1.0000 0.0000 0.0000
vn -0.2588 -0.9659 0.0000
vn 0.0000 0.0000 -1.0000
vn -0.9659 -0.2588 -0.0000
vn 0.0000 -1.0000 0.0000
vn 0.9659 -0.2588 0.0000
vn -0.7071 -0.7071 0.0000
vn 0.7071 -0.7071 -0.0000
vn 0.2588 -0.9659 0.0000
vn 0.0000 1.0000 0.0000
vn -0.7071 0.7071 0.0003
vn 0.7071 0.7071 0.0003
vn 0.0000 0.9862 0.1653
vn 0.0000 0.9430 -0.3327
vn 0.0000 -0.9905 0.1377
vn -0.9885 0.0000 0.1515
vn -0.9430 -0.0000 -0.3327
vn -0.0000 -0.9430 -0.3327
vn 0.9885 0.0000 0.1515
vn 0.9430 -0.0000 0.3327
vn -0.0000 0.9430 0.3327
vn 0.9430 0.0000 -0.3327
vn 0.0000 -0.9430 0.3327
vn -0.9430 0.0000 0.3327
vn -0.7071 0.7071 0.0005
vn 0.7013 -0.7013 0.1274
vn -0.7013 -0.7013 0.1274
vn -0.6310 0.6310 0.4514
vn 0.7071 0.7071 0.0005
vn 0.6345 0.6345 -0.4415
vn -0.6345 0.6345 -0.4415
vn 0.6310 0.6310 0.4514
vn 0.0000 -0.6931 0.7209
vn 0.0000 0.6931 -0.7209
vn -0.7071 -0.4901 0.5097
vn -0.5774 -0.5773 -0.5774
vn -0.5774 0.5774 -0.5774
vn 0.5774 -0.5773 -0.5774
vn 0.5774 0.5774 -0.5774
vn -0.5774 0.5773 0.5773
vn -0.5774 -0.5773 0.5774
vn 0.5774 -0.5773 0.5774
vn 0.5774 0.5773 0.5773
vn -0.7071 0.0000 -0.7071
vn -0.0000 -0.7071 -0.7071
vn 0.0000 0.7071 -0.7071
vn 0.7071 0.0000 -0.7071
vn -0.7071 0.0000 0.7071
vn 0.0000 -0.7071 0.7071
vn 0.0000 0.7071 0.7071
vn 0.7071 0.0000 0.7071
vn 0.7071 0.7071 0.0000
vn -0.7071 0.7071 0.0000
vn -0.5000 -0.8563 -0.1296
vn -0.5000 -0.1632 -0.8505
vn 0.5000 -0.1632 -0.8505
vn 0.5000 -0.8563 -0.1296
vn -0.7071 -0.5097 -0.4901
vn 0.0000 -0.0196 -0.9998
vn 0.7071 -0.5097 -0.4901
vn 0.0000 -0.9998 0.0196
vn 0.0000 -0.7209 -0.6931
vn -0.1830 -0.6830 -0.7071
vn -0.1830 -0.6830 0.7071
vn -0.5000 -0.5000 -0.7071
vn -0.5000 -0.5000 0.7071
vn -0.6830 -0.1830 -0.7071
vn -0.6830 -0.1830 0.7071
vn 0.1830 -0.6830 0.7071
vn 0.1830 -0.6830 -0.7071
vn 0.5000 -0.5000 0.7071
vn 0.5000 -0.5000 -0.7071
vn 0.6830 -0.1830 0.7071
vn 0.6830 -0.1830 -0.7071
vn -0.0000 -0.7574 0.6529
vn 0.4520 0.4516 0.7692
vn -0.4520 0.4516 0.7692
vn -0.7595 -0.0004 0.6505
vn 0.0000 0.7626 0.6469
vn 0.7595 -0.0004 0.6505
usemtl None
s off
f 67/1/1 32/2/1 35/3/1 69/4/1
f 38/5/2 79/6/2 77/7/2 39/8/2
f 34/9/3 71/10/3 69/4/3 35/3/3
f 36/11/4 75/12/4 73/13/4 37/14/4
f 84/15/5 80/16/5 96/17/5 100/18/5 102/19/5 98/20/5 112/21/5 116/22/5 118/23/5 114/24/5
f 87/25/6 85/26/6 115/27/6 105/28/6
f 89/29/7 99/30/7 103/31/7 93/32/7
f 82/33/8 86/34/8 104/35/8 108/36/8 110/37/8 106/38/8 88/39/8 92/40/8 94/41/8 90/42/8
f 95/43/9 101/44/9 97/45/9 91/46/9
f 89/29/10 107/47/10 113/48/10 99/30/10
f 119/49/11 109/50/11 105/28/11 115/27/11
f 93/32/12 103/31/12 101/44/12 95/43/12
f 117/51/13 111/52/13 109/50/13 119/49/13
f 113/48/14 107/47/14 111/52/14 117/51/14
f 83/53/15 81/54/15 85/26/15 87/25/15
f 46/55/10 58/56/10 57/57/10 41/58/10
f 45/59/15 53/60/15 61/61/15 49/62/15
f 51/63/6 62/64/6 60/65/6 47/66/6
f 42/67/8 44/68/8 50/69/8 48/70/8
f 56/71/5 59/72/5 63/73/5 54/74/5
f 125/75/16 20/76/16 21/77/16 126/78/16
f 8/79/6 26/80/6 131/81/6 122/82/6
f 14/83/15 13/84/15 23/85/15 24/86/15
f 120/87/5 123/88/5 4/89/5 3/90/5
f 27/91/17 128/92/17 131/81/17 26/80/17
f 3/90/18 4/89/18 5/93/18
f 2/94/6 15/95/6 25/96/6 9/97/6
f 127/98/5 16/99/5 17/100/5 124/101/5
f 127/98/5 120/102/5 3/103/5 16/99/5
f 31/104/19 29/105/19 20/76/19 27/91/19
f 18/106/20 17/107/20 5/108/20
f 4/89/21 19/109/21 5/110/21
f 6/111/1 22/112/1 12/113/1 1/114/1
f 7/115/22 21/116/22 28/117/22 10/118/22
f 1/119/10 2/94/10 9/97/10 6/120/10
f 10/121/23 11/122/23 8/79/23 7/123/23
f 16/99/24 3/103/24 5/124/24
f 123/88/5 130/125/5 19/109/5 4/89/5
f 9/97/25 25/96/25 30/126/25 11/122/25
f 24/86/26 23/85/26 29/105/26 31/104/26
f 11/122/27 30/126/27 26/80/27 8/79/27
f 6/120/28 9/97/28 11/122/28 10/121/28
f 10/118/29 28/117/29 22/112/29 6/111/29
f 23/85/30 13/84/30 12/127/30 22/128/30
f 19/109/5 130/125/5 129/129/5 18/106/5
f 129/129/5 124/130/5 17/107/5 18/106/5
f 5/131/31 17/107/31 16/132/31
f 5/133/32 19/109/32 18/106/32
f 27/91/15 20/76/15 125/75/15 128/92/15
f 29/105/33 23/85/33 22/134/33 28/135/33
f 14/83/34 24/86/34 25/96/34 15/95/34
f 31/104/35 27/91/35 26/80/35 30/126/35
f 20/76/36 29/105/36 28/135/36 21/136/36
f 24/86/37 31/104/37 30/126/37 25/96/37
f 7/123/10 8/79/10 122/82/10 121/137/10
f 75/12/38 36/11/38 33/138/38 65/139/38
f 71/10/39 34/9/39 39/8/39 77/7/39
f 79/6/6 38/5/6 37/14/6 73/13/6
f 65/139/40 33/138/40 32/140/40 67/141/40
f 40/142/41 42/67/41 41/58/41
f 43/143/42 45/59/42 44/68/42
f 46/55/43 48/70/43 47/66/43
f 49/62/44 51/63/44 50/69/44
f 52/144/45 54/74/45 53/60/45
f 55/145/46 57/57/46 56/71/46
f 58/56/47 60/65/47 59/72/47
f 61/61/48 63/73/48 62/64/48
f 43/143/49 44/68/49 42/67/49 40/142/49
f 48/70/50 46/55/50 41/58/50 42/67/50
f 44/68/51 45/59/51 49/62/51 50/69/51
f 50/69/52 51/63/52 47/66/52 48/70/52
f 54/74/53 52/144/53 55/145/53 56/71/53
f 58/56/54 59/72/54 56/71/54 57/57/54
f 53/60/55 54/74/55 63/73/55 61/61/55
f 62/64/56 63/73/56 59/72/56 60/65/56
f 40/142/12 41/58/12 57/57/12 55/145/12
f 60/65/13 58/56/13 46/55/13 47/66/13
f 51/63/57 49/62/57 61/61/57 62/64/57
f 52/144/58 53/60/58 45/59/58 43/143/58
f 40/142/1 55/145/1 52/144/1 43/143/1
f 66/146/59 64/147/59 65/148/59 67/149/59
f 70/150/60 68/151/60 69/152/60 71/153/60
f 78/154/61 76/155/61 77/156/61 79/157/61
f 74/158/62 72/159/62 73/160/62 75/161/62
f 67/1/63 69/4/63 68/162/63 66/163/63
f 71/10/64 77/7/64 76/164/64 70/165/64
f 79/6/65 73/13/65 72/159/65 78/154/65
f 75/12/66 65/139/66 64/166/66 74/167/66
f 68/151/67 70/150/67 76/155/67 78/154/67 72/159/67 74/158/67 64/147/67 66/146/67
f 86/34/51 82/33/51 83/53/51 87/25/51
f 80/16/55 84/15/55 85/26/55 81/54/55
f 92/40/68 88/39/68 89/29/68 93/32/68
f 98/20/69 102/19/69 103/31/69 99/30/69
f 94/41/70 92/40/70 93/32/70 95/43/70
f 102/19/71 100/18/71 101/44/71 103/31/71
f 90/42/72 94/41/72 95/43/72 91/46/72
f 100/18/73 96/17/73 97/45/73 101/44/73
f 116/22/74 112/21/74 113/48/74 117/51/74
f 106/38/75 110/37/75 111/52/75 107/47/75
f 118/23/76 116/22/76 117/51/76 119/49/76
f 110/37/77 108/36/77 109/50/77 111/52/77
f 114/24/78 118/23/78 119/49/78 115/27/78
f 108/36/79 104/35/79 105/28/79 109/50/79
f 96/17/53 80/16/53 81/54/53 97/45/53
f 82/33/49 90/42/49 91/46/49 83/53/49
f 88/39/50 106/38/50 107/47/50 89/29/50
f 112/21/54 98/20/54 99/30/54 113/48/54
f 87/25/52 105/28/52 104/35/52 86/34/52
f 115/27/56 85/26/56 84/15/56 114/24/56
f 81/54/1 83/53/1 91/46/1 97/45/1
f 121/137/80 122/82/80 123/88/80 120/87/80
f 129/129/81 130/125/81 131/81/81 128/92/81
f 125/75/82 126/78/82 127/168/82 124/169/82
f 120/102/83 127/98/83 126/170/83 121/171/83
f 124/130/84 129/129/84 128/92/84 125/75/84
f 130/125/85 123/88/85 122/82/85 131/81/85
f 121/171/1 126/170/1 21/116/1 7/115/1
