# Blender v2.90.1 OBJ File: ''
# www.blender.org
mtllib hats_paperBag.mtl
o Cube_Cube.001
v -0.496291 -0.543534 0.502952
v -0.526625 -0.539623 0.466772
v -0.496286 0.532286 0.532286
v -0.526619 0.532286 0.495857
v -0.526459 -0.433144 -0.518212
v -0.496292 -0.429119 -0.555454
v -0.526446 0.532286 -0.494747
v -0.496286 0.532286 -0.532286
v 0.526625 -0.539623 0.466772
v 0.496291 -0.543534 0.502952
v 0.526619 0.532286 0.495857
v 0.496286 0.532286 0.532286
v 0.496292 -0.429119 -0.555454
v 0.526459 -0.433144 -0.518212
v 0.496286 0.532286 -0.532286
v 0.526446 0.532286 -0.494747
v -0.460436 0.886019 -0.067474
v -0.429088 0.941347 -0.057586
v -0.431003 0.829990 -0.238819
v -0.461787 0.808063 -0.194483
v 0.461787 0.808063 -0.194483
v 0.431003 0.829990 -0.238819
v 0.429088 0.941347 -0.057586
v 0.460436 0.886019 -0.067474
v -0.526773 1.201148 0.258259
v -0.496269 1.232513 0.283621
v -0.522119 1.207805 0.225090
v -0.487147 1.245540 0.218712
v -0.520228 0.711254 -0.545922
v -0.486030 0.737926 -0.573375
v -0.526893 0.663240 -0.566258
v -0.496270 0.664287 -0.604565
v 0.522119 1.207805 0.225090
v 0.487147 1.245540 0.218712
v 0.526773 1.201148 0.258259
v 0.496269 1.232513 0.283621
v 0.526893 0.663240 -0.566258
v 0.496270 0.664287 -0.604565
v 0.520228 0.711254 -0.545922
v 0.486030 0.737926 -0.573375
v -0.453254 -0.488935 -0.002118
v -0.453254 -0.483717 -0.050384
v -0.453259 0.532286 0.024306
v -0.453259 0.532286 -0.024306
v 0.453254 -0.483717 -0.050384
v 0.453254 -0.488935 -0.002118
v 0.453259 0.532286 -0.024306
v 0.453259 0.532286 0.024306
v -0.453086 0.771743 -0.121043
v -0.453025 0.798550 -0.083106
v 0.453025 0.798550 -0.083106
v 0.453086 0.771743 -0.121043
v -0.496289 -0.034138 0.557442
v -0.526622 -0.031802 0.521107
v -0.496289 0.034162 -0.504937
v -0.526453 0.031756 -0.467515
v 0.526453 0.031756 -0.467515
v 0.496289 0.034162 -0.504937
v 0.496289 -0.034138 0.557442
v 0.526622 -0.031802 0.521107
v 0.453257 -0.001547 0.050492
v 0.453257 0.001570 0.002013
v -0.453257 0.001570 0.002013
v -0.453257 -0.001547 0.050492
vt 0.500000 0.630704
vt 0.625000 0.630708
vt 0.625000 0.741445
vt 0.500000 0.741450
vt 0.625000 0.119292
vt 0.625000 0.008555
vt 0.625000 0.008355
vt 0.625000 0.015378
vt 0.625000 0.108459
vt 0.625000 0.119645
vt 0.625000 0.108142
vt 0.625000 0.143580
vt 0.625000 0.130446
vt 0.625000 0.119543
vt 0.625000 0.991546
vt 0.625000 0.758454
vt 0.625000 0.758458
vt 0.625000 0.991542
vt 0.625000 0.491546
vt 0.625000 0.258454
vt 0.625000 0.258458
vt 0.625000 0.491542
vt 0.625000 0.606420
vt 0.621835 0.640682
vt 0.623976 0.630077
vt 0.625000 0.619554
vt 0.500000 0.258454
vt 0.500000 0.491547
vt 0.625000 0.241184
vt 0.625000 0.130708
vt 0.625000 0.231617
vt 0.625000 0.241692
vt 0.625000 0.619292
vt 0.625000 0.508816
vt 0.625000 0.508308
vt 0.625000 0.518383
vt 0.625000 0.630355
vt 0.625000 0.641541
vt 0.625000 0.734622
vt 0.625000 0.741645
vt 0.500000 0.758453
vt 0.500000 0.991546
vt 0.865316 0.648617
vt 0.634684 0.648617
vt 0.634645 0.598491
vt 0.865355 0.598491
vt 0.625000 0.760600
vt 0.625000 0.989400
vt 0.866391 0.736254
vt 0.633609 0.736254
vt 0.500000 0.508806
vt 0.500000 0.619296
vt 0.625000 0.260863
vt 0.625000 0.489138
vt 0.633628 0.515430
vt 0.866372 0.515430
vt 0.500000 0.000000
vt 0.625000 0.000000
vt 0.500000 0.008550
vt 0.375000 0.258453
vt 0.375000 0.241203
vt 0.500000 0.241194
vt 0.375000 0.508797
vt 0.375000 0.491547
vt 0.375000 0.758453
vt 0.375000 0.741454
vt 0.625000 0.100930
vt 0.625000 0.151432
vt 0.624993 0.598566
vt 0.620482 0.647391
vt 0.625000 0.234570
vt 0.625000 0.249126
vt 0.625000 0.500874
vt 0.625000 0.515430
vt 0.625000 0.736254
vt 0.625000 0.748990
vt 0.625000 0.001010
vt 0.625000 0.013746
vt 0.625000 0.014811
vt 0.625000 0.101383
vt 0.625000 1.000000
vt 0.625000 1.000000
vt 0.625000 0.151509
vt 0.625000 0.233236
vt 0.500000 0.130704
vt 0.375000 0.630700
vt 0.375000 0.619300
vt 0.375000 0.130700
vt 0.375000 0.119300
vt 0.500000 0.119296
vt 0.375000 0.008546
vt 0.375000 0.000000
vt 0.375000 0.991547
vn 0.9967 0.0023 -0.0808
vn 0.9962 -0.0189 -0.0843
vn 0.9515 0.0656 0.3004
vn 0.9585 -0.0083 0.2848
vn -0.9962 -0.0189 -0.0843
vn -0.9515 0.0656 0.3004
vn -0.9344 0.3021 0.1887
vn -0.8771 0.3914 -0.2781
vn -0.9428 0.2137 -0.2557
vn -0.9976 -0.0593 -0.0357
vn -0.9500 0.3085 -0.0473
vn -0.9967 -0.0056 0.0808
vn -0.4058 0.1709 0.8978
vn 0.4058 0.1709 0.8978
vn 0.4118 0.7035 0.5792
vn -0.4118 0.7035 0.5792
vn 0.4446 -0.2590 -0.8574
vn -0.4446 -0.2590 -0.8574
vn -0.4063 -0.0210 -0.9135
vn 0.4063 -0.0210 -0.9135
vn 0.9500 0.3085 -0.0473
vn 0.9428 0.2137 -0.2557
vn 0.9976 -0.0593 -0.0357
vn 0.9967 -0.0056 0.0808
vn -0.4412 0.0236 -0.8971
vn 0.4412 0.0236 -0.8971
vn -0.9779 -0.0503 -0.2029
vn -0.9975 0.0152 0.0684
vn -0.8971 0.4049 -0.1769
vn -0.9357 0.0237 -0.3519
vn 0.9975 0.0152 0.0684
vn 0.9779 -0.0503 -0.2029
vn 0.9357 0.0237 -0.3519
vn 0.8971 0.4049 -0.1769
vn 0.8771 0.3914 -0.2781
vn 0.9344 0.3021 0.1887
vn 0.4168 -0.0286 0.9085
vn -0.4168 -0.0286 0.9085
vn -0.3629 0.6748 -0.6426
vn 0.3629 0.6748 -0.6426
vn 0.3890 0.8688 -0.3063
vn -0.3890 0.8688 -0.3063
vn 0.3554 0.8791 -0.3174
vn -0.3554 0.8791 -0.3174
vn 0.9711 0.0070 -0.2385
vn 0.9973 -0.0022 0.0732
vn -0.3704 0.7217 -0.5847
vn 0.3704 0.7217 -0.5847
vn -0.9585 -0.0083 0.2848
vn -0.4316 0.0978 -0.8967
vn -0.9658 0.0281 -0.2575
vn -0.9711 0.0070 -0.2385
vn 0.9658 0.0281 -0.2575
vn 0.4316 0.0978 -0.8967
vn 0.4239 -0.0963 0.9005
vn 0.9636 -0.0284 0.2657
vn -0.9973 -0.0022 0.0732
vn 0.9970 0.0082 -0.0767
vn 0.9970 -0.0083 0.0767
vn -0.9970 -0.0083 0.0767
vn -0.9970 0.0082 -0.0767
vn -0.9967 0.0023 -0.0808
vn -0.9636 -0.0284 0.2657
vn -0.4239 -0.0963 0.9005
usemtl None
s 1
f 61/1/1 48/2/2 11/3/3 60/4/4
f 43/5/5 4/6/6 25/7/7 27/8/8 17/9/9 50/10/10
f 17/11/9 20/12/11 49/13/12 50/14/10
f 3/15/13 12/16/14 36/17/15 26/18/16
f 15/19/17 8/20/18 32/21/19 38/22/20
f 21/23/21 24/24/22 51/25/23 52/26/24
f 55/27/25 8/20/18 15/19/17 58/28/26
f 7/29/27 44/30/28 49/13/12 20/12/11 29/31/29 31/32/30
f 47/33/31 16/34/32 37/35/33 39/36/34 21/23/21 52/26/24
f 11/3/3 48/2/2 51/37/23 24/38/22 33/39/35 35/40/36
f 59/41/37 12/16/14 3/15/13 53/42/38
f 18/43/39 23/44/40 22/45/41 19/46/42
f 34/47/43 28/48/44 26/18/16 36/17/15
f 23/44/40 18/43/39 28/49/44 34/50/43
f 57/51/45 16/34/32 47/33/31 62/52/46
f 30/53/47 40/54/48 38/22/20 32/21/19
f 40/55/48 30/56/47 19/46/42 22/45/41
f 53/57/38 3/58/13 4/6/6 54/59/49
f 55/27/25 6/60/50 5/61/51 56/62/52
f 57/51/45 14/63/53 13/64/54 58/28/26
f 59/41/37 10/65/55 9/66/56 60/4/4
f 18/67/39 19/68/42 20/12/11 17/11/9
f 22/69/41 23/70/40 24/24/22 21/23/21
f 31/32/30 29/31/29 30/71/47 32/72/19
f 39/36/34 37/35/33 38/73/20 40/74/48
f 35/40/36 33/39/35 34/75/43 36/76/15
f 27/8/8 25/7/7 26/77/16 28/78/44
f 33/39/35 24/38/22 23/44/40 34/50/43
f 17/9/9 27/8/8 28/79/44 18/80/39
f 25/81/7 4/82/6 3/15/13 26/18/16
f 11/3/3 35/40/36 36/17/15 12/16/14
f 21/23/21 39/36/34 40/55/48 22/45/41
f 29/31/29 20/12/11 19/83/42 30/84/47
f 37/35/33 16/34/32 15/19/17 38/22/20
f 7/29/27 31/32/30 32/21/19 8/20/18
f 63/85/57 44/30/28 7/29/27 56/62/52
f 61/1/1 46/86/58 45/87/59 62/52/46
f 63/85/57 42/88/60 41/89/61 64/90/62
f 43/5/5 50/10/10 49/13/12 44/30/28
f 47/33/31 52/26/24 51/37/23 48/2/2
f 54/59/49 4/6/6 43/5/5 64/90/62
f 2/91/63 54/59/49 64/90/62 41/89/61
f 44/30/28 63/85/57 64/90/62 43/5/5
f 48/2/2 61/1/1 62/52/46 47/33/31
f 42/88/60 63/85/57 56/62/52 5/61/51
f 12/16/14 59/41/37 60/4/4 11/3/3
f 16/34/32 57/51/45 58/28/26 15/19/17
f 8/20/18 55/27/25 56/62/52 7/29/27
f 1/92/64 53/57/38 54/59/49 2/91/63
f 14/63/53 57/51/45 62/52/46 45/87/59
f 10/65/55 59/41/37 53/42/38 1/93/64
f 6/60/50 55/27/25 58/28/26 13/64/54
f 46/86/58 61/1/1 60/4/4 9/66/56
