# Blender v2.90.1 OBJ File: 'newWeaponFile.blend'
# www.blender.org
mtllib Weapon_Melee_key.mtl
o keyLP_Plane.003
v -0.070661 -0.175276 0.270382
v 0.070661 -0.175276 0.270382
v -0.070661 -0.175276 -0.270382
v 0.070661 -0.175276 -0.270382
v -0.070661 -0.188746 -0.234870
v -0.070661 -0.188746 0.234870
v 0.070661 -0.188746 0.234870
v 0.070661 -0.188746 -0.234870
v -0.070661 -0.116263 0.270382
v 0.070661 -0.116263 0.270382
v -0.070661 -0.116263 -0.270382
v 0.070661 -0.116263 -0.270382
v -0.070661 -0.116263 -0.234870
v -0.070661 -0.116263 0.234870
v 0.070661 -0.116263 0.234870
v 0.070661 -0.116263 -0.234870
v -0.070661 0.281509 0.219646
v 0.070661 0.281509 0.219646
v -0.070661 0.281509 -0.219646
v 0.070661 0.281509 -0.219646
v -0.070661 0.281509 -0.174828
v -0.070661 0.281509 0.174828
v 0.070661 0.281509 0.174828
v 0.070661 0.281509 -0.174828
v -0.070661 0.340522 -0.166670
v -0.070661 0.340522 0.166670
v 0.070661 0.340522 0.166670
v 0.070661 0.340522 -0.166670
v -0.000000 -0.123793 -0.054057
v -0.031774 -0.123793 -0.043733
v -0.051412 -0.123793 -0.016705
v -0.051412 -0.123793 0.016705
v -0.031774 -0.123793 0.043733
v -0.000000 -0.123793 0.054057
v 0.031774 -0.123793 0.043733
v 0.051412 -0.123793 0.016705
v 0.051412 -0.123793 -0.016705
v 0.031774 -0.123793 -0.043733
v -0.000000 0.290515 -0.054057
v -0.031774 0.290515 -0.043733
v -0.051412 0.290515 -0.016705
v -0.051412 0.290515 0.016705
v -0.031774 0.290515 0.043733
v -0.000000 0.290515 0.054057
v 0.031774 0.290515 0.043733
v 0.051412 0.290515 0.016705
v 0.051412 0.290515 -0.016705
v 0.031774 0.290515 -0.043733
v -0.000000 0.333118 -0.054057
v -0.031774 0.333118 -0.043733
v -0.051412 0.333118 -0.016705
v -0.051412 0.333118 0.016705
v -0.031774 0.333118 0.043733
v -0.000000 0.333118 0.054057
v 0.031774 0.333118 0.043733
v 0.051412 0.333118 0.016705
v 0.051412 0.333118 -0.016705
v 0.031774 0.333118 -0.043733
v -0.000000 1.235546 -0.054057
v -0.031774 1.235546 -0.043733
v -0.051412 1.235546 -0.016705
v -0.051412 1.235546 0.016705
v -0.031774 1.235546 0.043733
v -0.000000 1.235546 0.054057
v 0.031774 1.235546 0.043733
v 0.051412 1.235546 0.016705
v 0.051412 1.235546 -0.016705
v 0.031774 1.235546 -0.043733
v -0.000000 1.247535 -0.046076
v -0.027083 1.247535 -0.037276
v -0.043821 1.247535 -0.014238
v -0.043821 1.247535 0.014238
v -0.027083 1.247535 0.037276
v -0.000000 1.247535 0.046076
v 0.027083 1.247535 0.037276
v 0.043821 1.247535 0.014238
v 0.043821 1.247535 -0.014238
v 0.027083 1.247535 -0.037276
v -0.000000 1.247535 -0.000000
v 0.030265 1.239415 -0.226856
v 0.030265 0.993330 -0.226856
v 0.030265 1.239415 -0.027631
v 0.030265 0.993330 -0.027631
v -0.030265 1.239415 -0.226856
v -0.030265 0.993330 -0.226856
v -0.030265 1.239415 -0.027631
v -0.030265 0.993330 -0.027631
v -0.070661 -0.236551 0.000000
v 0.070661 -0.236551 -0.000000
v -0.070661 -0.116263 0.000000
v 0.070661 -0.116263 -0.000000
v -0.070661 0.281509 0.000000
v 0.070661 0.281509 -0.000000
v -0.070661 0.362759 0.000000
v 0.070661 0.362759 -0.000000
v 0.030265 1.198401 -0.143993
v 0.030265 1.157387 -0.176296
v 0.030265 1.116372 -0.090624
v 0.030265 1.075358 -0.176296
v 0.030265 1.034344 -0.143993
v 0.030265 1.034344 -0.027631
v 0.030265 1.075358 -0.027631
v 0.030265 1.116372 -0.027631
v 0.030265 1.157386 -0.027631
v 0.030265 1.198400 -0.027631
v -0.030265 1.034344 -0.027631
v -0.030265 1.075358 -0.027631
v -0.030265 1.116372 -0.027631
v -0.030265 1.157386 -0.027631
v -0.030265 1.198400 -0.027631
v -0.030265 1.034344 -0.143993
v -0.030265 1.075358 -0.176296
v -0.030265 1.116372 -0.090624
v -0.030265 1.157386 -0.176296
v -0.030265 1.198400 -0.143993
vt 0.099669 0.753673
vt 0.099669 0.777184
vt 0.000987 0.777184
vt 0.000987 0.753673
vt 0.099669 0.412673
vt 0.099669 0.437037
vt 0.000987 0.437037
vt 0.000987 0.412673
vt 0.099669 0.596869
vt 0.000987 0.596869
vt 0.770951 0.331891
vt 0.739908 0.335719
vt 0.746353 0.064435
vt 0.770951 0.061402
vt 0.101643 0.455058
vt 0.200325 0.455058
vt 0.200325 0.725338
vt 0.101643 0.725338
vt 0.202299 0.570690
vt 0.300981 0.570690
vt 0.300981 0.729183
vt 0.202299 0.729183
vt 0.185667 0.004010
vt 0.352575 0.015936
vt 0.358979 0.064435
vt 0.196294 0.084496
vt 0.573041 0.004010
vt 0.739950 0.015936
vt 0.583669 0.084496
vt 0.401637 0.713285
vt 0.302955 0.713285
vt 0.302955 0.673796
vt 0.401637 0.673796
vt 0.200325 0.765038
vt 0.101643 0.765038
vt 0.003798 0.068104
vt 0.027206 0.056058
vt 0.033609 0.104557
vt 0.009011 0.107590
vt 0.391172 0.068104
vt 0.414580 0.056058
vt 0.420984 0.104557
vt 0.396386 0.107590
vt 0.378363 0.021916
vt 0.383577 0.061402
vt 0.765738 0.021916
vt 0.110340 0.365585
vt 0.079296 0.369413
vt 0.403611 0.411742
vt 0.502293 0.411742
vt 0.502293 0.683148
vt 0.403611 0.683148
vt 0.874418 0.749826
vt 0.874418 0.867673
vt 0.775736 0.867673
vt 0.775736 0.749826
vt 0.703605 0.559854
vt 0.604922 0.559854
vt 0.604922 0.447383
vt 0.703605 0.447383
vt 0.618811 0.350652
vt 0.625989 0.405017
vt 0.508579 0.404374
vt 0.497714 0.365585
vt 0.466671 0.369413
vt 0.775736 0.631980
vt 0.874418 0.631980
vt 0.739470 0.375902
vt 0.602949 0.676086
vt 0.504267 0.676086
vt 0.504267 0.411672
vt 0.602949 0.411672
vt 0.383577 0.331891
vt 0.352533 0.335719
vt 0.302955 0.412040
vt 0.401637 0.412040
vt 0.302412 0.719978
vt 0.302412 0.997219
vt 0.324599 0.996319
vt 0.324599 0.719078
vt 0.957187 0.632421
vt 0.957187 0.911889
vt 0.980516 0.911889
vt 0.980516 0.632421
vt 0.581305 0.960240
vt 0.581305 0.681522
vt 0.559118 0.682069
vt 0.559118 0.960787
vt 0.918218 0.632421
vt 0.918218 0.911889
vt 0.937092 0.912265
vt 0.937092 0.632797
vt 0.938313 0.632797
vt 0.938313 0.912265
vt 0.603492 0.960787
vt 0.603492 0.682069
vt 0.894889 0.632421
vt 0.894889 0.911889
vt 0.346786 0.997219
vt 0.346786 0.719978
vt 0.999389 0.912265
vt 0.999389 0.632797
vt 0.876016 0.632797
vt 0.876016 0.912265
vt 0.856531 0.006173
vt 0.856531 0.614897
vt 0.879860 0.614897
vt 0.879860 0.006173
vt 0.921975 0.620887
vt 0.921975 0.013796
vt 0.899788 0.014342
vt 0.899788 0.621434
vt 0.817562 0.006173
vt 0.817562 0.614897
vt 0.836436 0.615273
vt 0.836436 0.006549
vt 0.837657 0.006549
vt 0.837657 0.615273
vt 0.944162 0.621434
vt 0.944162 0.014342
vt 0.794233 0.006173
vt 0.794233 0.614897
vt 0.967237 0.006134
vt 0.967237 0.610007
vt 0.989424 0.610906
vt 0.989424 0.007033
vt 0.898733 0.615273
vt 0.898733 0.006549
vt 0.775360 0.006549
vt 0.775360 0.615273
vt 0.945050 0.007033
vt 0.945050 0.610906
vt 0.921975 0.006153
vt 0.903064 0.006619
vt 0.815840 0.623130
vt 0.831927 0.623450
vt 0.842166 0.623450
vt 0.858253 0.623130
vt 0.940886 0.006619
vt 0.795956 0.623130
vt 0.967237 0.618725
vt 0.986148 0.619492
vt 0.878138 0.623130
vt 0.894225 0.623450
vt 0.779869 0.623450
vt 0.948326 0.619492
vt 0.766402 0.587433
vt 0.735803 0.577835
vt 0.754714 0.602962
vt 0.716891 0.602962
vt 0.705203 0.587433
vt 0.716891 0.552709
vt 0.735803 0.546777
vt 0.766402 0.568238
vt 0.735803 0.608894
vt 0.705203 0.568238
vt 0.754714 0.552709
vt 0.461876 0.715187
vt 0.543129 0.715187
vt 0.543129 0.687522
vt 0.404015 0.687522
vt 0.744441 0.814921
vt 0.663188 0.814921
vt 0.605327 0.842587
vt 0.744441 0.842587
vt 0.287114 0.732925
vt 0.244847 0.732925
vt 0.244847 0.790079
vt 0.287114 0.790079
vt 0.347652 0.717640
vt 0.347652 0.851931
vt 0.389919 0.851931
vt 0.389919 0.717640
vt 0.705014 0.410372
vt 0.705014 0.544811
vt 0.747281 0.544811
vt 0.747281 0.410372
vt 0.202299 0.412197
vt 0.300981 0.412197
vt 0.604922 0.411634
vt 0.703605 0.411634
vt 0.352096 0.375902
vt 0.121204 0.404374
vt 0.200325 0.412552
vt 0.101643 0.412552
vt 0.238615 0.405017
vt 0.231436 0.350652
vt 0.703605 0.672326
vt 0.604922 0.672326
vt 0.101079 0.825039
vt 0.143346 0.825039
vt 0.143346 0.769122
vt 0.101079 0.769122
vt 0.772880 0.716188
vt 0.772880 0.675341
vt 0.746100 0.675341
vt 0.746100 0.716188
vt 0.201735 0.790743
vt 0.244002 0.790743
vt 0.244002 0.732931
vt 0.201735 0.732931
vt 0.747281 0.610106
vt 0.705014 0.610106
vt 0.705014 0.669153
vt 0.747281 0.669153
vt 0.144072 0.768971
vt 0.144072 0.809818
vt 0.174393 0.809818
vt 0.174393 0.768971
vt 0.744441 0.676592
vt 0.605327 0.676592
vt 0.663188 0.704258
vt 0.744441 0.704258
vt 0.640632 0.731924
vt 0.744441 0.731924
vt 0.700454 0.759590
vt 0.744441 0.759590
vt 0.640632 0.787255
vt 0.744441 0.787255
vt 0.404015 0.853516
vt 0.543129 0.853516
vt 0.543129 0.825850
vt 0.461876 0.825850
vt 0.543129 0.798184
vt 0.439320 0.798185
vt 0.543129 0.770519
vt 0.499142 0.770519
vt 0.543129 0.742853
vt 0.439320 0.742853
vn -0.6894 -0.6959 -0.2013
vn -0.5988 -0.4549 -0.6591
vn 0.5988 -0.4549 -0.6591
vn 0.6894 -0.6959 -0.2013
vn -0.5988 -0.4549 0.6591
vn -0.6894 -0.6959 0.2013
vn 0.6894 -0.6959 0.2013
vn 0.5988 -0.4549 0.6591
vn -0.6648 -0.7470 0.0000
vn 0.6648 -0.7470 0.0000
vn -0.6458 0.3177 0.6942
vn -0.8865 -0.3507 -0.3018
vn -0.9215 0.2533 -0.2944
vn -0.6931 0.0457 0.7194
vn 0.6458 0.3177 0.6942
vn 0.6931 0.0457 0.7194
vn -0.7071 0.7071 0.0000
vn 0.7071 0.7071 0.0000
vn 0.9215 0.2533 0.2944
vn -0.9215 0.2533 0.2944
vn -0.6931 0.0457 -0.7194
vn 0.6931 0.0457 -0.7194
vn 0.9215 0.2533 -0.2944
vn 0.8865 -0.3507 -0.3018
vn -0.7071 -0.7071 0.0000
vn -0.8865 -0.3507 0.3018
vn 0.8865 -0.3507 0.3018
vn 0.7071 -0.7071 0.0000
vn -0.6785 0.7346 0.0000
vn 0.6785 0.7346 0.0000
vn 0.6369 0.6817 -0.3601
vn -0.6369 0.6817 -0.3601
vn -0.6458 0.3177 -0.6942
vn -0.6369 0.6817 0.3601
vn 0.6458 0.3177 -0.6942
vn 0.5878 0.0000 0.8090
vn 0.0000 0.0000 1.0000
vn -0.9510 0.0000 0.3090
vn -0.9510 0.0000 -0.3090
vn 0.0000 0.0000 -1.0000
vn 0.5878 0.0000 -0.8090
vn 0.9510 0.0000 0.3090
vn -0.5878 0.0000 0.8090
vn -0.5878 0.0000 -0.8090
vn 0.9510 0.0000 -0.3090
vn -0.9144 0.2748 0.2971
vn -0.9144 0.2748 -0.2971
vn 0.0000 0.2748 -0.9615
vn 0.5651 0.2748 -0.7779
vn 0.9144 0.2748 0.2971
vn 0.5651 0.2748 0.7779
vn -0.5651 0.2748 0.7779
vn -0.5651 0.2748 -0.7779
vn 0.9144 0.2748 -0.2971
vn 0.0000 0.2748 0.9615
vn 0.0000 0.8423 -0.5389
vn 0.3168 0.8423 -0.4360
vn 0.5126 0.8423 0.1665
vn 0.3168 0.8423 0.4360
vn -0.3168 0.8423 0.4360
vn -0.5126 0.8423 0.1665
vn -0.3168 0.8423 -0.4360
vn 0.5126 0.8423 -0.1665
vn 0.0000 0.8423 0.5389
vn -0.5126 0.8423 -0.1665
vn 0.0000 1.0000 0.0000
vn 0.9277 0.0822 -0.3641
vn 1.0000 0.0000 0.0000
vn 0.5404 -0.1917 -0.8193
vn -1.0000 0.0000 0.0000
vn -0.9277 0.0822 -0.3641
vn -0.5404 -0.1917 -0.8193
vn 0.5404 0.1917 -0.8193
vn -0.5404 0.1917 -0.8193
vn 0.6369 0.6817 0.3601
vn 0.9277 -0.0822 -0.3641
vn -0.9277 -0.0822 -0.3641
vn 0.5666 -0.1867 -0.8025
vn -0.5666 -0.1867 -0.8025
vn 0.9698 0.0000 -0.2441
vn -0.9698 0.0000 -0.2441
vn 0.5666 0.1867 -0.8025
vn -0.5666 0.1867 -0.8025
usemtl bakeTo
s 1
f 5/1/1 3/2/2 4/3/3 8/4/4
f 1/5/5 6/6/6 7/7/7 2/8/8
f 88/9/9 5/1/1 8/4/4 89/10/10
f 17/11/11 22/12/12 14/13/13 9/14/14
f 18/15/15 17/16/11 9/17/14 10/18/16
f 90/19/17 91/20/18 16/21/19 13/22/20
f 89/23/10 8/24/4 16/25/19 91/26/18
f 88/27/9 6/28/6 14/13/13 90/29/17
f 4/30/3 3/31/2 11/32/21 12/33/22
f 1/34/5 2/35/8 10/18/16 9/17/14
f 2/36/8 7/37/7 15/38/23 10/39/16
f 3/40/2 5/41/1 13/42/20 11/43/21
f 8/24/4 4/44/3 12/45/22 16/25/19
f 6/28/6 1/46/5 9/14/14 14/13/13
f 23/47/24 18/48/15 10/39/16 15/38/23
f 22/49/12 23/50/24 15/51/23 14/52/13
f 92/53/25 21/54/26 24/55/27 93/56/28
f 94/57/29 95/58/30 28/59/31 25/60/32
f 92/61/25 94/62/29 25/63/32 21/64/26
f 21/64/26 25/63/32 19/65/33
f 23/66/24 22/67/12 92/53/25 93/56/28
f 94/62/29 92/61/25 22/12/12 26/68/34
f 13/69/20 16/70/19 24/71/27 21/72/26
f 16/25/19 12/45/22 20/73/35 24/74/27
f 12/33/22 11/32/21 19/75/33 20/76/35
f 11/43/21 13/42/20 21/64/26 19/65/33
f 35/77/36 45/78/36 44/79/37 34/80/37
f 32/81/38 42/82/38 41/83/39 31/84/39
f 29/85/40 39/86/40 48/87/41 38/88/41
f 36/89/42 46/90/42 45/91/36 35/92/36
f 33/93/43 43/94/43 42/82/38 32/81/38
f 30/95/44 40/96/44 39/86/40 29/85/40
f 37/97/45 47/98/45 46/90/42 36/89/42
f 34/80/37 44/79/37 43/99/43 33/100/43
f 31/84/39 41/83/39 40/101/44 30/102/44
f 38/103/41 48/104/41 47/98/45 37/97/45
f 52/105/38 62/106/46 61/107/47 51/108/39
f 49/109/40 59/110/48 68/111/49 58/112/41
f 56/113/42 66/114/50 65/115/51 55/116/36
f 53/117/43 63/118/52 62/106/46 52/105/38
f 50/119/44 60/120/53 59/110/48 49/109/40
f 57/121/45 67/122/54 66/114/50 56/113/42
f 54/123/37 64/124/55 63/125/52 53/126/43
f 51/108/39 61/107/47 60/127/53 50/128/44
f 58/129/41 68/130/49 67/122/54 57/121/45
f 55/131/36 65/132/51 64/124/55 54/123/37
f 59/110/48 69/133/56 78/134/57 68/111/49
f 66/114/50 76/135/58 75/136/59 65/115/51
f 63/118/52 73/137/60 72/138/61 62/106/46
f 60/120/53 70/139/62 69/133/56 59/110/48
f 67/122/54 77/140/63 76/135/58 66/114/50
f 64/124/55 74/141/64 73/142/60 63/125/52
f 61/107/47 71/143/65 70/144/62 60/127/53
f 68/130/49 78/145/57 77/140/63 67/122/54
f 65/132/51 75/146/59 74/141/64 64/124/55
f 62/106/46 72/138/61 71/143/65 61/107/47
f 76/147/58 79/148/66 75/149/59
f 73/150/60 79/148/66 72/151/61
f 70/152/62 79/148/66 69/153/56
f 77/154/63 79/148/66 76/147/58
f 74/155/64 79/148/66 73/150/60
f 71/156/65 79/148/66 70/152/62
f 78/157/57 79/148/66 77/154/63
f 75/149/59 79/148/66 74/155/64
f 72/151/61 79/148/66 71/156/65
f 69/153/56 79/148/66 78/157/57
f 100/158/67 101/159/68 83/160/28 81/161/69
f 106/162/70 111/163/71 85/164/72 87/165/25
f 111/166/71 100/167/67 81/168/69 85/169/72
f 82/170/18 80/171/73 84/172/74 86/173/17
f 87/174/25 85/175/72 81/176/69 83/177/28
f 5/41/1 88/27/9 90/29/17 13/42/20
f 7/37/7 89/23/10 91/26/18 15/38/23
f 14/178/13 15/179/23 91/20/18 90/19/17
f 6/6/6 88/9/9 89/10/10 7/7/7
f 28/59/31 20/180/35 19/181/33 25/60/32
f 28/182/31 24/74/27 20/73/35
f 23/47/24 27/183/75 18/48/15
f 26/184/34 17/16/11 18/15/15 27/185/75
f 26/68/34 22/12/12 17/11/11
f 95/186/30 93/187/28 24/74/27 28/182/31
f 23/47/24 93/187/28 95/186/30 27/183/75
f 26/188/34 27/189/75 95/58/30 94/57/29
f 84/190/74 80/191/73 96/192/76 115/193/77
f 115/194/77 96/195/76 97/196/78 114/197/79
f 114/198/79 97/199/78 98/200/80 113/201/81
f 113/202/81 98/203/80 99/204/82 112/205/83
f 112/206/83 99/207/82 100/208/67 111/209/71
f 86/210/17 84/211/74 115/212/77 110/213/70
f 110/213/70 115/212/77 114/214/79 109/215/70
f 109/215/70 114/214/79 113/216/81 108/217/70
f 108/217/70 113/216/81 112/218/83 107/219/70
f 107/219/70 112/218/83 111/163/71 106/162/70
f 80/220/73 82/221/18 105/222/68 96/223/76
f 96/223/76 105/222/68 104/224/68 97/225/78
f 97/225/78 104/224/68 103/226/68 98/227/80
f 98/227/80 103/226/68 102/228/68 99/229/82
f 99/229/82 102/228/68 101/159/68 100/158/67
