# Blender v2.90.1 OBJ File: 'newWeaponFile.blend'
# www.blender.org
mtllib Weapon_Melee_sword.mtl
o swordLP_Circle.005
v -0.000000 -0.183092 -0.084663
v -0.049764 -0.183092 -0.068494
v -0.080519 -0.183092 -0.026162
v -0.080519 -0.183092 0.026162
v -0.049764 -0.183092 0.068493
v -0.000000 -0.183092 0.084663
v 0.049763 -0.183092 0.068493
v 0.080519 -0.183092 0.026162
v 0.080519 -0.183092 -0.026162
v 0.049763 -0.183092 -0.068494
v -0.000000 -0.263472 -0.133830
v -0.078663 -0.263472 -0.108271
v -0.127280 -0.263472 -0.041356
v -0.127280 -0.263472 0.041356
v -0.078663 -0.263472 0.108271
v -0.000000 -0.263472 0.133830
v 0.078663 -0.263472 0.108271
v 0.127280 -0.263472 0.041356
v 0.127280 -0.263472 -0.041356
v 0.078663 -0.263472 -0.108271
v -0.000000 -0.362851 -0.000000
v 0.049763 -0.138897 -0.068494
v -0.080519 -0.138897 -0.026162
v -0.000000 -0.138897 0.084663
v 0.080519 -0.138897 -0.026162
v 0.080519 -0.138897 0.026162
v -0.049764 -0.138897 -0.068494
v -0.000000 -0.138897 -0.084663
v -0.049764 -0.138897 0.068493
v -0.080519 -0.138897 0.026162
v 0.049763 -0.138897 0.068493
v 0.034919 -0.138897 -0.048063
v -0.056501 -0.138897 -0.018358
v -0.000000 -0.138897 0.059409
v 0.056501 -0.138897 -0.018358
v 0.056501 -0.138897 0.018358
v -0.034920 -0.138897 -0.048063
v -0.000000 -0.138897 -0.059409
v -0.034920 -0.138897 0.048063
v -0.056501 -0.138897 0.018358
v 0.034920 -0.138897 0.048063
v -0.049917 0.232795 0.018358
v -0.000000 0.232795 -0.059409
v 0.049917 0.232795 0.018358
v 0.030850 0.232795 0.048063
v 0.030850 0.232795 -0.048063
v -0.049917 0.232795 -0.018358
v -0.000000 0.232795 0.059409
v 0.049917 0.232795 -0.018358
v -0.030850 0.232795 -0.048063
v -0.030850 0.232795 0.048063
v -0.054609 0.195132 0.099979
v -0.054609 0.320471 0.099979
v -0.054609 0.195132 -0.099979
v -0.054609 0.320471 -0.099979
v 0.054609 0.195132 0.099979
v 0.054609 0.320471 0.099979
v 0.054609 0.195132 -0.099979
v 0.054609 0.320471 -0.099979
v -0.018832 0.131997 0.270631
v -0.018832 0.153490 0.283047
v -0.018832 0.153490 -0.283047
v -0.018832 0.131997 -0.270631
v 0.018832 0.131997 -0.270631
v 0.018832 0.153490 -0.283047
v 0.018832 0.153490 0.283047
v 0.018832 0.131997 0.270631
v 0.029746 0.222617 0.227202
v 0.045074 0.291857 0.148773
v 0.046002 0.194289 0.141034
v 0.028965 0.166767 0.222298
v -0.028965 0.166767 0.222298
v -0.046002 0.194289 0.141034
v -0.045074 0.291857 0.148773
v -0.029746 0.222617 0.227202
v 0.029746 0.222617 -0.227202
v 0.045074 0.291857 -0.148773
v -0.045074 0.291857 -0.148773
v -0.029746 0.222617 -0.227202
v -0.046002 0.194289 -0.141034
v -0.028965 0.166767 -0.222298
v 0.028965 0.166767 -0.222298
v 0.046002 0.194289 -0.141034
v -0.015042 0.306080 0.099979
v -0.015042 0.306080 -0.099979
v 0.015042 0.306080 0.099979
v 0.015042 0.306080 -0.099979
v -0.015042 1.376372 0.131150
v -0.015042 1.376372 -0.131150
v 0.015042 1.376372 -0.131150
v 0.015042 1.376372 0.131150
v 0.000000 1.499134 0.000000
vt 0.408594 0.117279
vt 0.451762 0.124387
vt 0.447848 0.149264
vt 0.405955 0.147429
vt 0.424293 0.001772
vt 0.515027 0.005596
vt 0.477290 0.063335
vt 0.420528 0.047925
vt 0.415089 0.238563
vt 0.461203 0.222175
vt 0.476489 0.249075
vt 0.424358 0.273552
vt 0.448031 0.173311
vt 0.406055 0.176965
vt 0.460615 0.097135
vt 0.413742 0.085036
vt 0.502749 0.281181
vt 0.436544 0.315313
vt 0.452280 0.197354
vt 0.409038 0.206956
vt 0.557345 0.330854
vt 0.450072 0.369337
vt 0.557345 0.162400
vt 0.386553 0.243384
vt 0.382422 0.209790
vt 0.399009 0.375698
vt 0.398473 0.321244
vt 0.381896 0.114337
vt 0.384575 0.081118
vt 0.380315 0.177722
vt 0.392287 0.279762
vt 0.385988 0.045365
vt 0.380221 0.146199
vt 0.381037 0.003379
vt 0.365931 0.247201
vt 0.362934 0.212636
vt 0.366279 0.047128
vt 0.362094 0.012940
vt 0.369866 0.364110
vt 0.372567 0.323414
vt 0.361463 0.146876
vt 0.362868 0.114275
vt 0.365032 0.081060
vt 0.361428 0.179441
vt 0.006949 0.243529
vt 0.007750 0.211982
vt 0.001772 0.341037
vt 0.003812 0.308485
vt 0.008460 0.122656
vt 0.008017 0.090303
vt 0.008187 0.182804
vt 0.005580 0.276571
vt 0.369704 0.283908
vt 0.007014 0.059289
vt 0.008434 0.153783
vt 0.005703 0.027771
vt 0.201072 0.696266
vt 0.160178 0.625059
vt 0.222849 0.548747
vt 0.300981 0.585958
vt 0.183150 0.503484
vt 0.149906 0.406639
vt 0.193129 0.397018
vt 0.210662 0.480855
vt 0.115784 0.586008
vt 0.008066 0.553933
vt 0.138742 0.650283
vt 0.093319 0.616151
vt 0.397417 0.631126
vt 0.252480 0.786721
vt 0.357093 0.445454
vt 0.346129 0.439779
vt 0.354527 0.405859
vt 0.386969 0.420284
vt 0.048978 0.792425
vt 0.027675 0.765095
vt 0.065808 0.756247
vt 0.070077 0.767977
vt 0.317572 0.554570
vt 0.405851 0.584288
vt 0.171823 0.714768
vt 0.094200 0.707092
vt 0.104730 0.751721
vt 0.248350 0.524623
vt 0.002259 0.602764
vt 0.210860 0.798665
vt 0.113794 0.811769
vt 0.275094 0.436220
vt 0.290078 0.385581
vt 0.354535 0.379242
vt 0.003001 0.703927
vt 0.052929 0.684660
vt 0.001772 0.767143
vt 0.405851 0.483859
vt 0.348917 0.481569
vt 0.303421 0.477386
vt 0.804017 0.806568
vt 0.998228 0.859024
vt 0.855423 0.931027
vt 0.598783 0.002197
vt 0.777787 0.003783
vt 0.777787 0.859024
vt 0.583576 0.806569
vt 0.819224 0.002197
vt 0.998228 0.003783
vt 0.576019 0.001772
vt 0.560889 0.811964
vt 0.796461 0.001772
vt 0.781330 0.811963
vt 0.634981 0.931027
vn -0.6993 0.5028 0.5081
vn -0.2671 0.5028 -0.8221
vn 0.8644 0.5028 0.0000
vn -0.2671 0.5028 0.8221
vn -0.6993 0.5028 -0.5081
vn 0.6993 0.5028 -0.5081
vn 0.2671 0.5028 0.8221
vn -0.8644 0.5028 0.0000
vn 0.2671 0.5028 -0.8221
vn 0.6993 0.5028 0.5081
vn -0.1902 -0.7882 -0.5853
vn 0.6154 -0.7882 0.0000
vn -0.1902 -0.7882 0.5853
vn -0.4979 -0.7882 -0.3617
vn 0.4979 -0.7882 -0.3617
vn 0.1902 -0.7882 0.5853
vn -0.6154 -0.7882 0.0000
vn 0.1902 -0.7882 -0.5853
vn 0.4979 -0.7882 0.3617
vn -0.4979 -0.7882 0.3617
vn 0.8090 0.0000 0.5878
vn 0.3090 0.0000 -0.9511
vn -1.0000 0.0000 0.0000
vn 0.3090 0.0000 0.9511
vn 0.8090 0.0000 -0.5878
vn -0.8090 0.0000 -0.5878
vn -0.3090 0.0000 0.9511
vn 1.0000 0.0000 0.0000
vn -0.3090 0.0000 -0.9511
vn -0.8090 0.0000 0.5878
vn 0.0000 1.0000 0.0000
vn 0.8252 0.0118 0.5646
vn 0.3262 0.0018 -0.9453
vn -0.9998 0.0177 0.0000
vn 0.3262 0.0018 0.9453
vn 0.8252 0.0118 -0.5646
vn -0.8252 0.0118 -0.5646
vn -0.3262 0.0018 0.9453
vn 0.9998 0.0177 0.0000
vn -0.3262 0.0018 -0.9453
vn -0.8252 0.0118 0.5646
vn 0.9804 -0.0028 -0.1971
vn 0.0000 0.8626 0.5059
vn 0.0000 -1.0000 0.0000
vn 0.0000 -0.5002 -0.8659
vn 0.0000 -0.5002 0.8659
vn 0.0000 -0.9998 0.0205
vn -0.9804 -0.0028 0.1971
vn -0.9869 -0.0446 0.1549
vn 0.0000 0.8626 -0.5059
vn 0.9804 -0.0028 0.1971
vn -0.0000 -0.9998 -0.0205
vn 0.0000 -0.8118 -0.5840
vn 0.9869 -0.0446 -0.1549
vn 0.9869 -0.0446 0.1549
vn 0.0000 -0.8118 0.5840
vn -0.9804 -0.0028 -0.1971
vn -0.9869 -0.0446 -0.1549
vn 0.0000 0.6284 -0.7779
vn 0.0000 0.7497 0.6618
vn 0.0000 -0.9472 -0.3208
vn -0.9817 -0.0147 0.1900
vn 0.9817 -0.0147 0.1900
vn 0.0000 -0.9472 0.3208
vn 0.9817 -0.0147 -0.1900
vn -0.9817 -0.0147 -0.1900
vn 0.0000 0.7497 -0.6618
vn 0.0000 0.6284 0.7779
vn -0.9926 0.1216 0.0000
vn 0.0000 -0.0291 0.9996
vn 0.0000 -0.0291 -0.9996
vn 0.0000 0.7301 0.6834
vn 0.0000 0.7301 -0.6834
vn 0.9926 0.1216 0.0000
usemtl bakeTo
s off
f 4/1/1 14/2/1 15/3/1 5/4/1
f 1/5/2 11/6/2 12/7/2 2/8/2
f 8/9/3 18/10/3 19/11/3 9/12/3
f 5/4/4 15/3/4 16/13/4 6/14/4
f 2/8/5 12/7/5 13/15/5 3/16/5
f 9/12/6 19/11/6 20/17/6 10/18/6
f 6/14/7 16/13/7 17/19/7 7/20/7
f 3/16/8 13/15/8 14/2/8 4/1/8
f 10/18/9 20/17/9 11/21/9 1/22/9
f 7/20/10 17/19/10 18/10/10 8/9/10
f 11/6/11 21/23/11 12/7/11
f 18/10/12 21/23/12 19/11/12
f 15/3/13 21/23/13 16/13/13
f 12/7/14 21/23/14 13/15/14
f 19/11/15 21/23/15 20/17/15
f 16/13/16 21/23/16 17/19/16
f 13/15/17 21/23/17 14/2/17
f 20/17/18 21/23/18 11/21/18
f 17/19/19 21/23/19 18/10/19
f 14/2/20 21/23/20 15/3/20
f 8/9/21 26/24/21 31/25/21 7/20/21
f 1/22/22 28/26/22 22/27/22 10/18/22
f 4/1/23 30/28/23 23/29/23 3/16/23
f 7/20/24 31/25/24 24/30/24 6/14/24
f 10/18/25 22/27/25 25/31/25 9/12/25
f 3/16/26 23/29/26 27/32/26 2/8/26
f 6/14/27 24/30/27 29/33/27 5/4/27
f 9/12/28 25/31/28 26/24/28 8/9/28
f 2/8/29 27/32/29 28/34/29 1/5/29
f 5/4/30 29/33/30 30/28/30 4/1/30
f 26/24/31 36/35/31 41/36/31 31/25/31
f 27/32/31 37/37/31 38/38/31 28/34/31
f 28/26/31 38/39/31 32/40/31 22/27/31
f 29/33/31 39/41/31 40/42/31 30/28/31
f 30/28/31 40/42/31 33/43/31 23/29/31
f 31/25/31 41/36/31 34/44/31 24/30/31
f 36/35/32 44/45/32 45/46/32 41/36/32
f 38/39/33 43/47/33 46/48/33 32/40/33
f 40/42/34 42/49/34 47/50/34 33/43/34
f 41/36/35 45/46/35 48/51/35 34/44/35
f 32/40/36 46/48/36 49/52/36 35/53/36
f 33/43/37 47/50/37 50/54/37 37/37/37
f 34/44/38 48/51/38 51/55/38 39/41/38
f 35/53/39 49/52/39 44/45/39 36/35/39
f 37/37/40 50/54/40 43/56/40 38/38/40
f 39/41/41 51/55/41 42/49/41 40/42/41
f 25/31/31 35/53/31 36/35/31 26/24/31
f 24/30/31 34/44/31 39/41/31 29/33/31
f 23/29/31 33/43/31 37/37/31 27/32/31
f 22/27/31 32/40/31 35/53/31 25/31/31
f 52/57/23 53/58/23 55/59/23 54/60/23
f 59/61/42 58/62/42 83/63/42 77/64/42
f 58/62/28 59/61/28 57/65/28 56/66/28
f 57/65/43 53/58/43 74/67/43 69/68/43
f 54/60/44 58/69/44 56/70/44 52/57/44
f 59/61/31 55/59/31 53/58/31 57/65/31
f 63/71/45 62/72/45 65/73/45 64/74/45
f 67/75/46 66/76/46 61/77/46 60/78/46
f 58/69/47 54/60/47 80/79/47 83/80/47
f 53/58/48 52/57/48 73/81/48 74/67/48
f 75/82/49 72/83/49 60/78/49 61/77/49
f 55/59/50 59/61/50 77/64/50 78/84/50
f 56/66/51 57/65/51 69/68/51 70/85/51
f 52/57/52 56/70/52 70/86/52 73/81/52
f 72/83/53 71/87/53 67/75/53 60/78/53
f 76/88/54 82/89/54 64/90/54 65/73/54
f 71/91/55 68/92/55 66/76/55 67/93/55
f 82/94/56 81/95/56 63/71/56 64/74/56
f 54/60/57 55/59/57 78/84/57 80/79/57
f 81/95/58 79/96/58 62/72/58 63/71/58
f 79/96/59 76/88/59 65/73/59 62/72/59
f 75/82/60 68/92/60 69/68/60 74/67/60
f 71/87/61 72/83/61 73/81/61 70/86/61
f 72/83/62 75/82/62 74/67/62 73/81/62
f 68/92/63 71/91/63 70/85/63 69/68/63
f 81/95/64 82/94/64 83/80/64 80/79/64
f 82/89/65 76/88/65 77/64/65 83/63/65
f 79/96/66 81/95/66 80/79/66 78/84/66
f 76/88/67 79/96/67 78/84/67 77/64/67
f 68/92/68 75/82/68 61/77/68 66/76/68
f 89/97/69 88/98/69 92/99/69
f 86/100/28 87/101/28 90/102/28 91/103/28
f 85/104/23 84/105/23 88/98/23 89/97/23
f 84/106/70 86/100/70 91/103/70 88/107/70
f 87/108/71 85/104/71 89/97/71 90/109/71
f 88/107/72 91/103/72 92/110/72
f 90/109/73 89/97/73 92/99/73
f 91/103/74 90/102/74 92/110/74
