# Blender v2.90.1 OBJ File: ''
# www.blender.org
mtllib Weapon_Melee_bat.mtl
o Circle
v -0.000000 0.207557 -0.061733
v -0.036286 0.207557 -0.049943
v -0.058712 0.207557 -0.019077
v -0.058712 0.207557 0.019077
v -0.036286 0.207557 0.049943
v -0.000000 0.207557 0.061733
v 0.036286 0.207557 0.049943
v 0.058712 0.207557 0.019077
v 0.058712 0.207557 -0.019077
v 0.036286 0.207557 -0.049943
v -0.000000 -0.110697 -0.061733
v -0.036286 -0.110697 -0.049943
v -0.058712 -0.110697 -0.019077
v -0.058712 -0.110697 0.019077
v -0.036286 -0.110697 0.049943
v -0.000000 -0.110697 0.061733
v 0.036286 -0.110697 0.049943
v 0.058712 -0.110697 0.019077
v 0.058712 -0.110697 -0.019077
v 0.036286 -0.110697 -0.049943
v -0.000000 -0.154976 -0.089589
v -0.052659 -0.154976 -0.072479
v -0.085204 -0.154976 -0.027684
v -0.085204 -0.154976 0.027684
v -0.052659 -0.154976 0.072479
v -0.000000 -0.154976 0.089589
v 0.052659 -0.154976 0.072479
v 0.085204 -0.154976 0.027684
v 0.085204 -0.154976 -0.027685
v 0.052659 -0.154976 -0.072479
v -0.000000 -0.210325 -0.062546
v -0.036764 -0.210325 -0.050601
v -0.059485 -0.210325 -0.019328
v -0.059485 -0.210325 0.019328
v -0.036764 -0.210325 0.050601
v -0.000000 -0.210325 0.062546
v 0.036764 -0.210325 0.050601
v 0.059485 -0.210325 0.019328
v 0.059485 -0.210325 -0.019328
v 0.036764 -0.210325 -0.050601
v -0.000000 -0.235232 -0.000000
v -0.000000 0.097632 0.057264
v 0.033659 0.097632 -0.046327
v 0.033659 -0.000772 -0.046327
v 0.054461 -0.000772 -0.017696
v 0.054461 0.097632 -0.017696
v -0.054461 0.097632 -0.017696
v -0.054461 -0.000772 -0.017696
v -0.033659 -0.000772 -0.046327
v -0.033659 0.097632 -0.046327
v -0.000000 -0.000772 0.057264
v 0.033659 -0.000772 0.046327
v 0.033659 0.097632 0.046327
v -0.054461 -0.000772 0.017696
v -0.054461 0.097632 0.017696
v -0.000000 -0.000772 -0.057264
v -0.000000 0.097632 -0.057264
v 0.054461 -0.000772 0.017696
v 0.054461 0.097632 0.017696
v -0.033659 -0.000772 0.046327
v -0.033659 0.097632 0.046327
v -0.000000 1.214194 -0.059699
v -0.035090 1.214194 -0.048298
v -0.056778 1.214194 -0.018448
v -0.056778 1.214194 0.018448
v -0.035090 1.214194 0.048298
v -0.000000 1.214194 0.059699
v 0.035090 1.214194 0.048298
v 0.056777 1.214194 0.018448
v 0.056777 1.214194 -0.018448
v 0.035090 1.214194 -0.048298
v -0.000000 1.235714 -0.000000
v -0.000000 1.136283 -0.112698
v -0.000000 1.050444 -0.135331
v -0.079545 1.050444 -0.109485
v -0.066242 1.136283 -0.091175
v -0.128707 1.050444 -0.041819
v -0.107183 1.136283 -0.034826
v -0.128707 1.050444 0.041819
v -0.107183 1.136283 0.034826
v -0.079545 1.050444 0.109485
v -0.066242 1.136283 0.091175
v -0.000000 1.050444 0.135331
v -0.000000 1.136283 0.112698
v 0.079545 1.050444 0.109485
v 0.066242 1.136283 0.091175
v 0.128707 1.050444 0.041819
v 0.107182 1.136283 0.034826
v 0.128707 1.050444 -0.041819
v 0.107182 1.136283 -0.034826
v 0.079545 1.050444 -0.109485
v 0.066242 1.136283 -0.091175
vt 0.678803 0.157308
vt 0.662549 0.140256
vt 0.719944 0.092552
vt 0.731434 0.113576
vt 0.797299 0.250460
vt 0.778817 0.239106
vt 0.811840 0.185152
vt 0.831555 0.192956
vt 0.743610 0.215348
vt 0.726919 0.202386
vt 0.766068 0.157523
vt 0.779550 0.168009
vt 0.694745 0.173422
vt 0.742426 0.130869
vt 0.816380 0.262124
vt 0.852981 0.202774
vt 0.760895 0.227506
vt 0.794652 0.177097
vt 0.710696 0.188446
vt 0.753814 0.145295
vt 0.645631 0.122628
vt 0.705987 0.067409
vt 0.819715 0.164455
vt 0.840129 0.168748
vt 0.779208 0.143581
vt 0.790502 0.152207
vt 0.754862 0.103677
vt 0.761435 0.119994
vt 0.870578 0.173635
vt 0.803763 0.159103
vt 0.769558 0.132991
vt 0.745758 0.045177
vt 0.749935 0.081785
vt 0.789709 0.131446
vt 0.798366 0.137800
vt 0.775894 0.099358
vt 0.778024 0.112527
vt 0.837993 0.141109
vt 0.861407 0.129780
vt 0.808881 0.142010
vt 0.782851 0.123069
vt 0.789410 0.060936
vt 0.778127 0.082589
vt 0.821684 0.143578
vt 0.814843 0.104968
vt 0.642597 0.308915
vt 0.622574 0.293300
vt 0.669464 0.236148
vt 0.687702 0.250879
vt 0.704678 0.352324
vt 0.683583 0.338427
vt 0.725147 0.278352
vt 0.744359 0.291169
vt 0.564354 0.242020
vt 0.546116 0.223171
vt 0.599033 0.171363
vt 0.616289 0.188198
vt 0.602841 0.277039
vt 0.651506 0.220745
vt 0.662919 0.323950
vt 0.706257 0.264937
vt 0.748965 0.377978
vt 0.726368 0.365556
vt 0.763833 0.303428
vt 0.783477 0.315180
vt 0.583417 0.260014
vt 0.633787 0.204722
vt 0.209488 0.702547
vt 0.249306 0.710942
vt 0.240213 0.765708
vt 0.214962 0.767996
vt 0.333533 0.763564
vt 0.354555 0.791440
vt 0.305609 0.814432
vt 0.295091 0.795087
vt 0.281852 0.724177
vt 0.261954 0.770388
vt 0.166279 0.629321
vt 0.098260 0.608283
vt 0.372001 0.827635
vt 0.310256 0.838722
vt 0.309470 0.741588
vt 0.280306 0.780393
vt 0.383794 0.876299
vt 0.384983 0.946262
vt 0.285824 0.901812
vt 0.305779 0.868192
vt 0.486999 0.922978
vt 0.452050 0.852657
vt 0.420660 0.801764
vt 0.390941 0.763849
vt 0.332802 0.709582
vt 0.301256 0.687833
vt 0.221291 0.648311
vt 0.362095 0.734212
vt 0.265102 0.667645
vt 0.158321 0.701118
vt 0.186026 0.780926
vt 0.242919 0.831256
vt 0.154018 0.813492
vt 0.087209 0.711663
vn -0.9508 0.0204 -0.3089
vn -0.5876 0.0204 -0.8088
vn -0.5584 0.3120 -0.7686
vn -0.9036 0.3120 -0.2936
vn 0.5876 0.0204 -0.8088
vn 0.9508 0.0204 -0.3089
vn 0.9036 0.3120 -0.2936
vn 0.5584 0.3120 -0.7686
vn 0.5876 0.0204 0.8088
vn 0.0000 0.0204 0.9998
vn 0.0000 0.3120 0.9501
vn 0.5584 0.3120 0.7686
vn -0.9508 0.0204 0.3089
vn -0.9036 0.3120 0.2936
vn 0.0000 0.0204 -0.9998
vn 0.0000 0.3120 -0.9501
vn 0.9508 0.0204 0.3089
vn 0.9036 0.3120 0.2936
vn -0.5876 0.0204 0.8088
vn -0.5584 0.3120 0.7686
vn 0.9499 0.0490 -0.3086
vn 0.5871 0.0490 -0.8080
vn 0.0000 0.0490 0.9988
vn 0.5871 0.0490 0.8080
vn -0.9499 0.0490 -0.3086
vn -0.9499 0.0490 0.3086
vn 0.0000 0.0490 -0.9988
vn 0.9499 0.0490 0.3086
vn -0.5871 0.0490 0.8080
vn -0.5871 0.0490 -0.8080
vn 0.0000 -0.6992 0.7149
vn 0.4202 -0.6992 0.5784
vn -0.6799 -0.6992 -0.2209
vn -0.6799 -0.6992 0.2209
vn 0.4202 -0.6992 -0.5784
vn 0.0000 -0.6992 -0.7149
vn 0.6799 -0.6992 0.2209
vn -0.4202 -0.6992 0.5784
vn -0.4202 -0.6992 -0.5784
vn 0.6799 -0.6992 -0.2209
vn 0.0000 -1.0000 0.0000
vn 0.0000 -0.0641 0.9979
vn -0.5866 -0.0641 0.8073
vn -0.5876 -0.0204 0.8088
vn 0.0000 -0.0204 0.9998
vn 0.9491 -0.0641 -0.3084
vn 0.9491 -0.0641 0.3084
vn 0.9508 -0.0204 0.3089
vn 0.9508 -0.0204 -0.3089
vn -0.5866 -0.0641 -0.8073
vn 0.0000 -0.0641 -0.9979
vn 0.0000 -0.0204 -0.9998
vn -0.5876 -0.0204 -0.8088
vn -0.9491 -0.0641 0.3084
vn -0.9508 -0.0204 0.3089
vn 0.5866 -0.0641 0.8073
vn 0.5876 -0.0204 0.8088
vn 0.5866 -0.0641 -0.8073
vn 0.5876 -0.0204 -0.8088
vn -0.9491 -0.0641 -0.3084
vn -0.9508 -0.0204 -0.3089
vn -0.8706 0.4026 -0.2828
vn -0.8706 0.4026 0.2828
vn -0.6167 0.7613 0.2004
vn -0.6167 0.7613 -0.2004
vn 0.5380 0.4026 0.7405
vn 0.8706 0.4026 0.2828
vn 0.6167 0.7613 0.2004
vn 0.3811 0.7613 0.5246
vn -0.5380 0.4026 0.7405
vn -0.3811 0.7613 0.5246
vn -0.5858 0.0825 -0.8062
vn 0.0000 0.0825 -0.9966
vn 0.8706 0.4026 -0.2828
vn 0.6167 0.7613 -0.2004
vn 0.0000 0.4026 0.9154
vn 0.0000 0.7613 0.6484
vn 0.5380 0.4026 -0.7405
vn 0.0000 0.4026 -0.9154
vn 0.0000 0.7613 -0.6484
vn 0.3811 0.7613 -0.5246
vn 0.5858 0.0825 -0.8062
vn 0.9478 0.0825 -0.3080
vn 0.9478 0.0825 0.3080
vn 0.0000 0.0825 0.9966
vn -0.5858 0.0825 0.8062
vn -0.9478 0.0825 -0.3080
vn 0.5858 0.0825 0.8062
vn -0.9478 0.0825 0.3080
vn -0.5380 0.4026 -0.7405
vn -0.3811 0.7613 -0.5246
vn 0.0000 1.0000 0.0000
usemtl bakeTo
s 1
f 48/1/1 49/2/2 12/3/3 13/4/4
f 44/5/5 45/6/6 19/7/7 20/8/8
f 52/9/9 51/10/10 16/11/11 17/12/12
f 54/13/13 48/1/1 13/4/4 14/14/14
f 56/15/15 44/5/5 20/8/8 11/16/16
f 58/17/17 52/9/9 17/12/12 18/18/18
f 60/19/19 54/13/13 14/14/14 15/20/20
f 49/2/2 56/21/15 11/22/16 12/3/3
f 45/6/6 58/17/17 18/18/18 19/7/7
f 51/10/10 60/19/19 15/20/20 16/11/11
f 20/8/8 19/7/7 29/23/21 30/24/22
f 17/12/12 16/11/11 26/25/23 27/26/24
f 14/14/14 13/4/4 23/27/25 24/28/26
f 11/16/16 20/8/8 30/24/22 21/29/27
f 18/18/18 17/12/12 27/26/24 28/30/28
f 15/20/20 14/14/14 24/28/26 25/31/29
f 12/3/3 11/22/16 21/32/27 22/33/30
f 19/7/7 18/18/18 28/30/28 29/23/21
f 16/11/11 15/20/20 25/31/29 26/25/23
f 13/4/4 12/3/3 22/33/30 23/27/25
f 27/26/24 26/25/23 36/34/31 37/35/32
f 24/28/26 23/27/25 33/36/33 34/37/34
f 21/29/27 30/24/22 40/38/35 31/39/36
f 28/30/28 27/26/24 37/35/32 38/40/37
f 25/31/29 24/28/26 34/37/34 35/41/38
f 22/33/30 21/32/27 31/42/36 32/43/39
f 29/23/21 28/30/28 38/40/37 39/44/40
f 26/25/23 25/31/29 35/41/38 36/34/31
f 23/27/25 22/33/30 32/43/39 33/36/33
f 30/24/22 29/23/21 39/44/40 40/38/35
f 34/37/34 33/36/33 41/45/41
f 31/39/36 40/38/35 41/45/41
f 38/40/37 37/35/32 41/45/41
f 35/41/38 34/37/34 41/45/41
f 32/43/39 31/42/36 41/45/41
f 39/44/40 38/40/37 41/45/41
f 36/34/31 35/41/38 41/45/41
f 33/36/33 32/43/39 41/45/41
f 40/38/35 39/44/40 41/45/41
f 37/35/32 36/34/31 41/45/41
f 6/46/42 5/47/43 61/48/44 42/49/45
f 42/49/45 61/48/44 60/19/19 51/10/10
f 9/50/46 8/51/47 59/52/48 46/53/49
f 46/53/49 59/52/48 58/17/17 45/6/6
f 2/54/50 1/55/51 57/56/52 50/57/53
f 50/57/53 57/56/52 56/21/15 49/2/2
f 5/47/43 4/58/54 55/59/55 61/48/44
f 61/48/44 55/59/55 54/13/13 60/19/19
f 8/51/47 7/60/56 53/61/57 59/52/48
f 59/52/48 53/61/57 52/9/9 58/17/17
f 1/62/51 10/63/58 43/64/59 57/65/52
f 57/65/52 43/64/59 44/5/5 56/15/15
f 4/58/54 3/66/60 47/67/61 55/59/55
f 55/59/55 47/67/61 48/1/1 54/13/13
f 7/60/56 6/46/42 42/49/45 53/61/57
f 53/61/57 42/49/45 51/10/10 52/9/9
f 10/63/58 9/50/46 46/53/49 43/64/59
f 43/64/59 46/53/49 45/6/6 44/5/5
f 3/66/60 2/54/50 50/57/53 47/67/61
f 47/67/61 50/57/53 49/2/2 48/1/1
f 78/68/62 80/69/63 65/70/64 64/71/65
f 86/72/66 88/73/67 69/74/68 68/75/69
f 80/69/63 82/76/70 66/77/71 65/70/64
f 1/55/51 2/54/50 75/78/72 74/79/73
f 88/73/67 90/80/74 70/81/75 69/74/68
f 82/76/70 84/82/76 67/83/77 66/77/71
f 92/84/78 73/85/79 62/86/80 71/87/81
f 90/80/74 92/84/78 71/87/81 70/81/75
f 84/82/76 86/72/66 68/75/69 67/83/77
f 10/63/58 1/62/51 74/88/73 91/89/82
f 8/51/47 9/50/46 89/90/83 87/91/84
f 5/47/43 6/46/42 83/92/85 81/93/86
f 2/54/50 3/66/60 77/94/87 75/78/72
f 9/50/46 10/63/58 91/89/82 89/90/83
f 6/46/42 7/60/56 85/95/88 83/92/85
f 3/66/60 4/58/54 79/96/89 77/94/87
f 76/97/90 78/68/62 64/71/65 63/98/91
f 7/60/56 8/51/47 87/91/84 85/95/88
f 4/58/54 5/47/43 81/93/86 79/96/89
f 66/77/71 67/83/77 72/99/92
f 63/98/91 64/71/65 72/99/92
f 70/81/75 71/87/81 72/99/92
f 67/83/77 68/75/69 72/99/92
f 64/71/65 65/70/64 72/99/92
f 71/87/81 62/86/80 72/99/92
f 68/75/69 69/74/68 72/99/92
f 65/70/64 66/77/71 72/99/92
f 62/100/80 63/98/91 72/99/92
f 69/74/68 70/81/75 72/99/92
f 76/97/90 73/101/79 74/79/73 75/78/72
f 78/68/62 76/97/90 75/78/72 77/94/87
f 80/69/63 78/68/62 77/94/87 79/96/89
f 82/76/70 80/69/63 79/96/89 81/93/86
f 84/82/76 82/76/70 81/93/86 83/92/85
f 86/72/66 84/82/76 83/92/85 85/95/88
f 88/73/67 86/72/66 85/95/88 87/91/84
f 90/80/74 88/73/67 87/91/84 89/90/83
f 92/84/78 90/80/74 89/90/83 91/89/82
f 73/85/79 92/84/78 91/89/82 74/88/73
f 73/101/79 76/97/90 63/98/91 62/100/80
