# Blender v2.90.1 OBJ File: 'gunNewNov.blend'
# www.blender.org
mtllib weapons_guns_granadeLauncher.mtl
o Plane_Plane.004
v -0.093650 0.162312 0.029108
v 0.093650 0.162312 0.029108
v -0.093650 0.256750 -0.132641
v 0.093650 0.256750 -0.132641
v -0.093650 -0.182921 -0.380071
v -0.093650 -0.277359 -0.218322
v 0.093650 -0.277359 -0.218322
v 0.093650 -0.182921 -0.380071
v -0.126398 0.037529 0.200832
v -0.126398 0.290325 0.200832
v -0.126398 0.037529 -0.168786
v -0.061962 0.065044 0.204731
v 0.126398 0.037529 0.200832
v 0.126398 0.290325 0.200832
v 0.126398 0.037529 -0.168786
v -0.061962 -0.058881 0.204731
v -0.126398 0.290325 -0.094519
v -0.126398 0.216057 -0.168786
v -0.126398 0.268573 -0.147034
v 0.126398 0.216057 -0.168786
v 0.126398 0.290325 -0.094519
v 0.126398 0.268573 -0.147034
v -0.061962 0.065044 0.080806
v 0.061962 -0.058881 0.204731
v 0.061962 0.065044 0.204731
v 0.061962 0.065044 0.080806
v -0.061962 -0.003487 0.080806
v -0.061962 -0.058881 0.136200
v -0.061962 -0.042657 0.097031
v 0.061962 -0.058881 0.136200
v 0.061962 -0.003487 0.080806
v 0.061962 -0.042657 0.097031
v -0.062110 0.280436 0.000995
v -0.062110 0.368898 0.000995
v -0.062110 0.280436 -0.038655
v -0.062110 0.368898 -0.038655
v 0.062110 0.280436 0.000995
v 0.062110 0.368898 0.000995
v 0.062110 0.280436 -0.038655
v 0.062110 0.368898 -0.038655
v -0.062110 0.280436 0.839349
v -0.062110 0.368898 0.839349
v -0.062110 0.280436 0.799699
v -0.062110 0.368898 0.799699
v 0.062110 0.280436 0.839349
v 0.062110 0.368898 0.839349
v 0.062110 0.280436 0.799699
v 0.062110 0.368898 0.799699
v -0.049413 0.318135 0.876446
v -0.049413 0.363706 0.876446
v -0.049413 0.318135 -0.084198
v -0.049413 0.363706 -0.084198
v 0.049413 0.318135 0.876446
v 0.049413 0.363706 0.876446
v 0.049413 0.318135 -0.084198
v 0.049413 0.363706 -0.084198
v -0.000000 -0.281822 0.196713
v -0.175210 -0.224893 0.196713
v -0.283495 -0.075851 0.196713
v -0.283495 0.108376 0.196713
v -0.175210 0.257418 0.196713
v 0.000000 0.314347 0.196713
v 0.175210 0.257418 0.196713
v 0.283495 0.108376 0.196713
v 0.283495 -0.075851 0.196713
v 0.175210 -0.224893 0.196713
v -0.000000 -0.281822 0.314831
v -0.175210 -0.224893 0.314831
v -0.283495 -0.075851 0.314831
v -0.283495 0.108376 0.314831
v -0.175210 0.257418 0.314831
v 0.000000 0.314347 0.314831
v 0.175210 0.257418 0.314831
v 0.283495 0.108376 0.314831
v 0.283495 -0.075851 0.314831
v 0.175210 -0.224893 0.314831
v -0.000000 -0.281822 0.726675
v -0.175210 -0.224893 0.726675
v -0.283495 -0.075851 0.726675
v -0.283495 0.108376 0.726675
v -0.175210 0.257418 0.726675
v 0.000000 0.314347 0.726675
v 0.175210 0.257418 0.726675
v 0.283495 0.108376 0.726675
v 0.283495 -0.075851 0.726675
v 0.175210 -0.224893 0.726675
v -0.000000 -0.281822 0.778029
v -0.175210 -0.224893 0.778029
v -0.283495 -0.075851 0.778029
v -0.283495 0.108376 0.778029
v -0.175210 0.257418 0.778029
v 0.000000 0.314347 0.778029
v 0.175210 0.257418 0.778029
v 0.283495 0.108376 0.778029
v 0.283495 -0.075851 0.778029
v 0.175210 -0.224893 0.778029
v 0.017828 -0.288556 0.721335
v -0.152499 -0.233236 0.720522
v -0.257750 -0.088356 0.719620
v -0.257724 0.090745 0.718974
v -0.152429 0.235657 0.718831
v 0.017915 0.291028 0.719246
v 0.188242 0.235708 0.720060
v 0.293493 0.090828 0.720961
v 0.293466 -0.088273 0.721607
v 0.188171 -0.233185 0.721750
v 0.016225 -0.286952 0.315043
v -0.154102 -0.231633 0.314229
v -0.259354 -0.086753 0.313327
v -0.259327 0.092349 0.312682
v -0.154032 0.237260 0.312539
v 0.016312 0.292631 0.312953
v 0.186639 0.237311 0.313767
v 0.291890 0.092431 0.314669
v 0.291863 -0.086670 0.315315
v 0.186568 -0.231582 0.315457
v 0.000000 0.080746 1.089071
v -0.071468 0.110349 1.089071
v -0.101071 0.181817 1.089071
v -0.071468 0.253285 1.089071
v 0.000000 0.282888 1.089071
v 0.071468 0.253285 1.089071
v 0.101071 0.181817 1.089071
v 0.071468 0.110349 1.089071
v 0.000000 0.118134 1.089071
v -0.045030 0.136787 1.089071
v -0.063682 0.181817 1.089071
v -0.045030 0.226847 1.089071
v 0.000000 0.245499 1.089071
v 0.045030 0.226847 1.089071
v 0.063682 0.181817 1.089071
v 0.045030 0.136787 1.089071
v 0.000000 0.181817 0.917291
v 0.101071 0.181817 0.772853
v 0.071468 0.253285 0.772853
v 0.000000 0.282888 0.772853
v -0.071468 0.253285 0.772853
v -0.101071 0.181817 0.772853
v -0.071468 0.110349 0.772853
v 0.000000 0.080746 0.772853
v 0.071468 0.110349 0.772853
v -0.077129 0.126133 1.011889
v -0.077129 0.126133 0.757977
v 0.077129 0.126133 1.011889
v 0.077129 0.126133 0.757977
v -0.077129 0.048941 1.011889
v -0.012908 -0.015279 1.011889
v -0.058319 0.003531 1.011889
v -0.012908 -0.015279 0.757977
v -0.077129 0.048941 0.757977
v -0.058319 0.003531 0.757977
v 0.012908 -0.015279 1.011889
v 0.077129 0.048941 1.011889
v 0.058319 0.003531 1.011889
v 0.077129 0.048941 0.757977
v 0.012908 -0.015279 0.757977
v 0.058319 0.003531 0.757977
vt 0.225229 0.857329
vt 0.154607 0.857330
vt 0.154607 0.755825
vt 0.225229 0.755824
vt 0.741262 0.941980
vt 0.676741 0.941980
vt 0.676741 0.866774
vt 0.741262 0.866774
vt 0.861475 0.708799
vt 0.861475 0.889311
vt 0.787319 0.889323
vt 0.787319 0.708811
vt 0.823453 0.412444
vt 0.823453 0.233111
vt 0.897609 0.233119
vt 0.897609 0.412452
vt 0.152066 0.739370
vt 0.152066 0.536793
vt 0.226114 0.537982
vt 0.226114 0.740559
vt 0.823448 0.213955
vt 0.823448 0.011379
vt 0.897494 0.010188
vt 0.897494 0.212765
vt 0.005003 0.714608
vt 0.075661 0.714692
vt 0.096446 0.723442
vt 0.105055 0.744518
vt 0.105055 0.862994
vt 0.005003 0.862875
vt 0.849303 0.426721
vt 0.864795 0.433215
vt 0.871213 0.448929
vt 0.871213 0.476437
vt 0.822196 0.476495
vt 0.822196 0.426753
vt 0.461984 0.840150
vt 0.361938 0.840150
vt 0.361937 0.738645
vt 0.461983 0.738645
vt 0.678519 0.707193
vt 0.778607 0.707193
vt 0.778607 0.855593
vt 0.678519 0.855593
vt 0.498580 0.733764
vt 0.598633 0.733644
vt 0.598633 0.852117
vt 0.590024 0.873192
vt 0.569239 0.881943
vt 0.498580 0.882028
vt 0.251843 0.859118
vt 0.351931 0.859118
vt 0.351931 0.880045
vt 0.251843 0.880045
vt 0.133475 0.857328
vt 0.133475 0.755823
vt 0.251843 0.740545
vt 0.351931 0.740545
vt 0.288512 0.939251
vt 0.288512 0.889509
vt 0.337527 0.889567
vt 0.337527 0.917075
vt 0.331110 0.932790
vt 0.315618 0.939284
vt 0.522804 0.941697
vt 0.495695 0.941697
vt 0.495695 0.891937
vt 0.522804 0.891937
vt 0.893111 0.629124
vt 0.893111 0.678884
vt 0.877521 0.678884
vt 0.877521 0.629124
vt 0.538032 0.891935
vt 0.538032 0.941694
vt 0.920242 0.629124
vt 0.920242 0.678884
vt 0.670900 0.868167
vt 0.670900 0.903675
vt 0.655218 0.903656
vt 0.655218 0.868148
vt 0.785361 0.900844
vt 0.820355 0.900843
vt 0.820355 0.950721
vt 0.785361 0.950722
vt 0.128109 0.744492
vt 0.128109 0.708984
vt 0.143792 0.708965
vt 0.143792 0.744473
vt 0.463098 0.719065
vt 0.428088 0.719065
vt 0.428088 0.669187
vt 0.463098 0.669187
vt 0.110843 0.759560
vt 0.110843 0.709683
vt 0.126540 0.709683
vt 0.126540 0.759560
vt 0.476662 0.897597
vt 0.476662 0.847720
vt 0.492358 0.847720
vt 0.492358 0.897597
vt 0.492344 0.901886
vt 0.492344 0.937394
vt 0.476661 0.937376
vt 0.476661 0.901868
vt 0.823855 0.900844
vt 0.858849 0.900843
vt 0.858849 0.950721
vt 0.823855 0.950722
vt 0.126525 0.818696
vt 0.126525 0.854204
vt 0.110842 0.854223
vt 0.110842 0.818715
vt 0.576909 0.941819
vt 0.541900 0.941818
vt 0.541900 0.891941
vt 0.576909 0.891941
vt 0.126540 0.764548
vt 0.126540 0.814426
vt 0.110843 0.814426
vt 0.110843 0.764548
vt 0.874448 0.476604
vt 0.874448 0.426726
vt 0.890144 0.426726
vt 0.890144 0.476604
vt 0.976412 0.891364
vt 0.958376 0.891385
vt 0.958376 0.506046
vt 0.976412 0.506024
vt 0.884111 0.954454
vt 0.866084 0.954454
vt 0.866084 0.914773
vt 0.884111 0.914772
vt 0.956573 0.891395
vt 0.938537 0.891373
vt 0.938537 0.506025
vt 0.956573 0.506046
vt 0.597596 0.931112
vt 0.579562 0.931112
vt 0.579562 0.891431
vt 0.597596 0.891431
vt 0.774749 0.404979
vt 0.735622 0.404979
vt 0.735622 0.019285
vt 0.774749 0.019285
vt 0.778662 0.019283
vt 0.817789 0.019283
vt 0.817789 0.404949
vt 0.778662 0.404949
vt 0.903675 0.301531
vt 0.904079 0.231179
vt 0.950837 0.231179
vt 0.950433 0.301531
vt 0.824311 0.557406
vt 0.826234 0.496439
vt 0.872952 0.496495
vt 0.871029 0.557462
vt 0.869514 0.903106
vt 0.867614 0.842138
vt 0.914333 0.842082
vt 0.916233 0.903050
vt 0.904079 0.371883
vt 0.950837 0.371883
vt 0.824311 0.631353
vt 0.871029 0.631409
vt 0.406049 0.922613
vt 0.406343 0.992965
vt 0.359581 0.992965
vt 0.359288 0.922613
vt 0.867614 0.768191
vt 0.869514 0.709511
vt 0.916233 0.709455
vt 0.914333 0.768135
vt 0.826234 0.690034
vt 0.872952 0.690090
vt 0.406343 0.852261
vt 0.359581 0.852261
vt 0.370288 0.011966
vt 0.439647 0.034846
vt 0.482514 0.094691
vt 0.482514 0.168644
vt 0.439647 0.228455
vt 0.370288 0.251280
vt 0.300928 0.228399
vt 0.258062 0.168554
vt 0.258062 0.094602
vt 0.300928 0.034790
vt 0.235523 0.431996
vt 0.192684 0.491815
vt 0.123369 0.514637
vt 0.054054 0.491745
vt 0.011215 0.431883
vt 0.011215 0.357917
vt 0.054054 0.298098
vt 0.123369 0.275276
vt 0.192684 0.298168
vt 0.235523 0.358029
vt 0.468023 0.767839
vt 0.468427 0.697487
vt 0.488755 0.697487
vt 0.488351 0.767839
vt 0.976541 0.366477
vt 0.974618 0.427444
vt 0.954307 0.427420
vt 0.956230 0.366453
vt 0.984869 0.009681
vt 0.986769 0.070649
vt 0.966458 0.070673
vt 0.964558 0.009705
vt 0.468427 0.838190
vt 0.488755 0.838191
vt 0.976541 0.292530
vt 0.956230 0.292506
vt 0.998675 0.564143
vt 0.998969 0.634495
vt 0.978639 0.634495
vt 0.978345 0.564143
vt 0.986769 0.144596
vt 0.984869 0.203276
vt 0.964558 0.203300
vt 0.966458 0.144620
vt 0.974618 0.233849
vt 0.954307 0.233825
vt 0.998969 0.493791
vt 0.978639 0.493791
vt 0.235619 0.094642
vt 0.235619 0.168611
vt 0.192763 0.228465
vt 0.123419 0.251339
vt 0.054076 0.228498
vt 0.011220 0.168666
vt 0.011220 0.094696
vt 0.054076 0.034843
vt 0.123419 0.011969
vt 0.192763 0.034810
vt 0.482362 0.431934
vt 0.439523 0.491752
vt 0.370208 0.514574
vt 0.300893 0.491683
vt 0.258054 0.431821
vt 0.258054 0.357854
vt 0.300893 0.298035
vt 0.370208 0.275213
vt 0.439523 0.298105
vt 0.482362 0.357967
vt 0.613565 0.274880
vt 0.680980 0.297141
vt 0.722644 0.355339
vt 0.722644 0.427242
vt 0.680980 0.485388
vt 0.613565 0.507565
vt 0.546150 0.485303
vt 0.504486 0.427106
vt 0.504486 0.355202
vt 0.546150 0.297057
vt 0.613701 0.244245
vt 0.546299 0.222108
vt 0.504642 0.164000
vt 0.504642 0.092119
vt 0.546299 0.033918
vt 0.613701 0.011631
vt 0.681103 0.033768
vt 0.722760 0.091876
vt 0.722760 0.163758
vt 0.681103 0.221958
vt 0.747702 0.528401
vt 0.815135 0.527407
vt 0.815135 0.690532
vt 0.747702 0.691527
vt 0.662942 0.587866
vt 0.662484 0.659754
vt 0.501757 0.659754
vt 0.502215 0.587866
vt 0.006744 0.534813
vt 0.074187 0.534960
vt 0.074187 0.698095
vt 0.006744 0.697948
vt 0.417012 0.535953
vt 0.415672 0.592998
vt 0.254998 0.592998
vt 0.256337 0.535953
vt 0.664136 0.716814
vt 0.503409 0.716814
vt 0.141620 0.535846
vt 0.141620 0.698980
vt 0.416118 0.664887
vt 0.255444 0.664887
vt 0.680259 0.528439
vt 0.680259 0.691565
vt 0.665336 0.528609
vt 0.504609 0.528609
vt 0.418179 0.724160
vt 0.257504 0.724160
vt 0.737248 0.493494
vt 0.737248 0.462435
vt 0.750919 0.468175
vt 0.750919 0.487745
vt 0.758897 0.440466
vt 0.764559 0.454334
vt 0.789513 0.440457
vt 0.811161 0.462413
vt 0.797490 0.468162
vt 0.783850 0.454328
vt 0.811161 0.493472
vt 0.789513 0.515440
vt 0.783850 0.501573
vt 0.797490 0.487731
vt 0.758897 0.515449
vt 0.764559 0.501579
vt 0.266450 0.959093
vt 0.248622 0.959190
vt 0.266450 0.890457
vt 0.920251 0.147690
vt 0.937375 0.143432
vt 0.937375 0.215546
vt 0.780667 0.938740
vt 0.763542 0.934487
vt 0.780667 0.866619
vt 0.284279 0.959190
vt 0.902919 0.152691
vt 0.937544 0.454106
vt 0.920260 0.449671
vt 0.937544 0.382498
vt 0.903042 0.444975
vt 0.746211 0.929483
vt 0.932322 0.006356
vt 0.960617 0.006510
vt 0.960617 0.133471
vt 0.932322 0.133316
vt 0.904026 0.006510
vt 0.904026 0.133471
vt 0.606464 0.732595
vt 0.634441 0.733155
vt 0.634441 0.860001
vt 0.606464 0.859441
vt 0.934805 0.620278
vt 0.906510 0.620065
vt 0.906510 0.493114
vt 0.934805 0.493327
vt 0.429166 0.532981
vt 0.457761 0.533480
vt 0.457761 0.660323
vt 0.429166 0.659824
vt 0.663036 0.732662
vt 0.663036 0.859508
vt 0.878214 0.620278
vt 0.878214 0.493327
vt 0.485738 0.532913
vt 0.485738 0.659756
vt 0.058763 0.909663
vt 0.051319 0.927897
vt 0.033347 0.935450
vt 0.002798 0.935450
vt 0.002798 0.873510
vt 0.033347 0.873510
vt 0.051319 0.881063
vt 0.058763 0.899297
vt 0.203085 0.867514
vt 0.233636 0.867550
vt 0.233636 0.969403
vt 0.203085 0.969367
vt 0.064358 0.899297
vt 0.071799 0.881064
vt 0.089763 0.873511
vt 0.120298 0.873510
vt 0.120298 0.935450
vt 0.089763 0.935450
vt 0.071799 0.927898
vt 0.064358 0.909664
vt 0.161875 0.969365
vt 0.131324 0.969401
vt 0.131324 0.867550
vt 0.161875 0.867514
vt 0.411749 0.850323
vt 0.472824 0.850323
vt 0.472824 0.952260
vt 0.411749 0.952260
vt 0.634145 0.973418
vt 0.634145 0.871474
vt 0.652125 0.871572
vt 0.652125 0.973517
vt 0.180044 0.867831
vt 0.180044 0.969682
vt 0.623924 0.871474
vt 0.623924 0.973418
vt 0.605945 0.973517
vt 0.605945 0.871572
vt 0.184916 0.969680
vt 0.184916 0.867827
vn -0.5773 -0.5773 -0.5773
vn -0.6657 0.1456 -0.7319
vn 0.6657 0.1456 -0.7319
vn 0.5773 -0.5773 -0.5773
vn -0.5765 -0.7886 0.2139
vn -0.5782 -0.2136 -0.7874
vn 0.5782 -0.2136 -0.7874
vn 0.5765 -0.7886 0.2139
vn 0.7035 0.3485 -0.6193
vn -0.7035 0.3485 -0.6193
vn -0.7106 -0.3450 0.6131
vn 0.7106 -0.3450 0.6131
vn 0.6302 0.5490 -0.5490
vn 0.6657 0.7319 -0.1456
vn 0.5773 0.5773 0.5773
vn 0.5773 -0.5773 0.5773
vn 0.6657 -0.7319 -0.1456
vn 0.6302 -0.5490 -0.5490
vn 0.6657 -0.1456 -0.7319
vn 0.7071 0.0000 -0.7071
vn 1.0000 0.0000 0.0000
vn 0.7071 -0.7071 0.0000
vn -0.5773 0.5773 0.5773
vn -0.5773 -0.5773 0.5773
vn -0.6657 0.7319 -0.1456
vn -0.6302 0.5490 -0.5490
vn -0.7071 -0.7071 0.0000
vn -1.0000 0.0000 0.0000
vn -0.7071 0.0000 -0.7071
vn -0.6657 -0.1456 -0.7319
vn -0.6302 -0.5490 -0.5490
vn -0.6657 -0.7319 -0.1456
vn -0.5773 0.5773 -0.5773
vn 0.5773 0.5773 -0.5773
vn 0.0000 0.7653 -0.6437
vn -0.4498 0.6191 -0.6437
vn -0.4498 0.6191 0.6437
vn 0.0000 0.7653 0.6437
vn -0.7278 -0.2365 -0.6437
vn -0.4498 -0.6191 -0.6437
vn -0.4498 -0.6191 0.6437
vn -0.7278 -0.2365 0.6437
vn 0.4498 -0.6191 -0.6437
vn 0.7278 -0.2365 -0.6437
vn 0.7278 -0.2365 0.6437
vn 0.4498 -0.6191 0.6437
vn 0.4498 0.6191 -0.6437
vn 0.4498 0.6191 0.6437
vn -0.7278 0.2365 -0.6437
vn -0.7278 0.2365 0.6437
vn 0.0000 -0.7653 -0.6437
vn 0.0000 -0.7653 0.6437
vn 0.7278 0.2365 -0.6437
vn 0.7278 0.2365 0.6437
vn -0.4511 -0.6182 0.6437
vn -0.0011 -0.7653 0.6436
vn 0.4496 -0.6193 0.6436
vn 0.7280 -0.2358 0.6436
vn 0.7274 0.2378 0.6436
vn 0.4484 0.6201 0.6437
vn -0.0013 0.7652 0.6438
vn -0.4500 0.6189 0.6438
vn -0.7275 0.2373 0.6438
vn -0.7283 -0.2350 0.6437
vn -0.4484 -0.6201 -0.6437
vn -0.7274 -0.2378 -0.6436
vn -0.7280 0.2358 -0.6436
vn -0.4496 0.6193 -0.6436
vn 0.0011 0.7653 -0.6436
vn 0.4511 0.6182 -0.6437
vn 0.7283 0.2350 -0.6437
vn 0.7275 -0.2373 -0.6438
vn 0.4500 -0.6189 -0.6438
vn 0.0013 -0.7652 -0.6438
vn -0.5490 -0.5490 0.6302
vn 0.0000 -0.7764 0.6302
vn 0.0000 0.4594 0.8882
vn 0.3248 0.3248 0.8882
vn 0.5490 -0.5490 0.6302
vn -0.3248 0.3248 0.8882
vn 0.7764 0.0000 0.6302
vn 0.5490 0.5490 0.6302
vn -0.3248 -0.3248 0.8882
vn -0.4594 0.0000 0.8882
vn 0.0000 0.7764 0.6302
vn -0.5490 0.5490 0.6302
vn 0.3248 -0.3248 0.8882
vn 0.0000 -0.4594 0.8882
vn -0.7764 0.0000 0.6302
vn 0.4594 0.0000 0.8882
vn 0.0000 0.0000 1.0000
vn 0.0000 -1.0000 0.0000
vn 0.7071 0.7071 0.0000
vn 0.0000 1.0000 0.0000
vn -0.7071 0.7071 0.0000
vn 0.1456 -0.7319 0.6657
vn 0.7319 -0.1456 0.6657
vn -0.7319 -0.1456 0.6657
vn -0.1456 -0.7319 0.6657
vn 0.7319 -0.1456 -0.6657
vn -0.1456 -0.7319 -0.6657
vn -0.5490 -0.5490 -0.6302
vn -0.7319 -0.1456 -0.6657
vn 0.5490 -0.5490 -0.6302
vn 0.1456 -0.7319 -0.6657
usemtl bakeTo
s 1
f 11/1/1 18/2/2 20/3/3 15/4/4
f 6/5/5 5/6/6 8/7/7 7/8/8
f 4/9/9 8/10/7 5/11/6 3/12/10
f 1/13/11 6/14/5 7/15/8 2/16/12
f 2/17/12 7/18/8 8/19/7 4/20/9
f 3/21/10 5/22/6 6/23/5 1/24/11
f 15/25/4 20/26/3 22/27/13 21/28/14 14/29/15 13/30/16
f 30/31/17 32/32/18 31/33/19 26/34/20 25/35/21 24/36/22
f 13/37/16 14/38/15 10/39/23 9/40/24
f 11/41/1 15/42/4 13/43/16 9/44/24
f 9/45/24 10/46/23 17/47/25 19/48/26 18/49/2 11/50/1
f 17/51/25 21/52/14 22/53/13 19/54/26
f 19/55/26 22/56/13 20/3/3 18/2/2
f 21/52/14 17/51/25 10/57/23 14/58/15
f 16/59/27 12/60/28 23/61/29 27/62/30 29/63/31 28/64/32
f 27/65/30 23/66/29 26/67/20 31/68/19
f 30/69/17 28/70/32 29/71/31 32/72/18
f 32/73/18 29/74/31 27/65/30 31/68/19
f 28/70/32 30/69/17 24/75/22 16/76/27
f 33/77/24 34/78/23 36/79/33 35/80/1
f 35/81/1 36/82/33 40/83/34 39/84/4
f 39/85/4 40/86/34 38/87/15 37/88/16
f 37/89/16 38/90/15 34/91/23 33/92/24
f 35/93/1 39/94/4 37/95/16 33/96/24
f 40/97/34 36/98/33 34/99/23 38/100/15
f 41/101/24 42/102/23 44/103/33 43/104/1
f 43/105/1 44/106/33 48/107/34 47/108/4
f 47/109/4 48/110/34 46/111/15 45/112/16
f 45/113/16 46/114/15 42/115/23 41/116/24
f 43/117/1 47/118/4 45/119/16 41/120/24
f 48/121/34 44/122/33 42/123/23 46/124/15
f 49/125/24 50/126/23 52/127/33 51/128/1
f 51/129/1 52/130/33 56/131/34 55/132/4
f 55/133/4 56/134/34 54/135/15 53/136/16
f 53/137/16 54/138/15 50/139/23 49/140/24
f 51/141/1 55/142/4 53/143/16 49/144/24
f 56/145/34 52/146/33 50/147/23 54/148/15
f 62/149/35 61/150/36 71/151/37 72/152/38
f 59/153/39 58/154/40 68/155/41 69/156/42
f 66/157/43 65/158/44 75/159/45 76/160/46
f 63/161/47 62/149/35 72/152/38 73/162/48
f 60/163/49 59/153/39 69/156/42 70/164/50
f 57/165/51 66/166/43 76/167/46 67/168/52
f 64/169/53 63/170/47 73/171/48 74/172/54
f 61/173/36 60/163/49 70/164/50 71/174/37
f 58/175/40 57/165/51 67/168/52 68/176/41
f 65/158/44 64/169/53 74/172/54 75/159/45
f 68/177/41 67/178/52 76/179/46 75/180/45 74/181/54 73/182/48 72/183/38 71/184/37 70/185/50 69/186/42
f 58/187/40 59/188/39 60/189/49 61/190/36 62/191/35 63/192/47 64/193/53 65/194/44 66/195/43 57/196/51
f 82/197/35 81/198/36 91/199/37 92/200/38
f 79/201/39 78/202/40 88/203/41 89/204/42
f 86/205/43 85/206/44 95/207/45 96/208/46
f 83/209/47 82/197/35 92/200/38 93/210/48
f 80/211/49 79/201/39 89/204/42 90/212/50
f 77/213/51 86/214/43 96/215/46 87/216/52
f 84/217/53 83/218/47 93/219/48 94/220/54
f 81/221/36 80/211/49 90/212/50 91/222/37
f 78/223/40 77/213/51 87/216/52 88/224/41
f 85/206/44 84/217/53 94/220/54 95/207/45
f 88/225/41 87/226/52 96/227/46 95/228/45 94/229/54 93/230/48 92/231/38 91/232/37 90/233/50 89/234/42
f 78/235/40 79/236/39 80/237/49 81/238/36 82/239/35 83/240/47 84/241/53 85/242/44 86/243/43 77/244/51
f 98/245/55 97/246/56 106/247/57 105/248/58 104/249/59 103/250/60 102/251/61 101/252/62 100/253/63 99/254/64
f 108/255/65 109/256/66 110/257/67 111/258/68 112/259/69 113/260/70 114/261/71 115/262/72 116/263/73 107/264/74
f 102/265/61 103/266/60 113/267/70 112/268/69
f 99/269/64 100/270/63 110/271/67 109/272/66
f 106/273/57 97/274/56 107/275/74 116/276/73
f 103/277/60 104/278/59 114/279/71 113/280/70
f 100/270/63 101/281/62 111/282/68 110/271/67
f 97/274/56 98/283/55 108/284/65 107/275/74
f 104/278/59 105/285/58 115/286/72 114/279/71
f 101/287/62 102/265/61 112/268/69 111/288/68
f 98/289/55 99/269/64 109/272/66 108/290/65
f 105/285/58 106/291/57 116/292/73 115/286/72
f 118/293/75 117/294/76 125/295/77 126/296/78
f 117/294/76 124/297/79 132/298/80 125/295/77
f 123/299/81 122/300/82 130/301/83 131/302/84
f 121/303/85 120/304/86 128/305/87 129/306/88
f 119/307/89 118/293/75 126/296/78 127/308/90
f 124/297/79 123/299/81 131/302/84 132/298/80
f 122/300/82 121/303/85 129/306/88 130/301/83
f 120/304/86 119/307/89 127/308/90 128/305/87
f 129/309/88 128/310/87 133/311/91
f 127/312/90 126/313/78 133/314/91
f 132/315/80 131/316/84 133/317/91
f 130/318/83 129/309/88 133/311/91
f 128/319/87 127/312/90 133/314/91
f 126/320/78 125/321/77 133/322/91
f 125/321/77 132/323/80 133/322/91
f 131/316/84 130/324/83 133/317/91
f 117/325/76 118/326/75 139/327/27 140/328/92
f 124/329/79 117/325/76 140/328/92 141/330/22
f 122/331/82 123/332/81 134/333/21 135/334/93
f 120/335/86 121/336/85 136/337/94 137/338/95
f 118/339/75 119/340/89 138/341/28 139/342/27
f 123/332/81 124/343/79 141/344/22 134/333/21
f 121/336/85 122/345/82 135/346/93 136/337/94
f 119/340/89 120/347/86 137/348/95 138/341/28
f 152/349/96 154/350/79 153/351/97 144/352/15 142/353/23 146/354/98 148/355/75 147/356/99
f 155/357/100 145/358/34 144/359/15 153/360/97
f 149/361/101 151/362/102 150/363/103 143/364/33 145/365/34 155/366/100 157/367/104 156/368/105
f 146/369/98 142/370/23 143/371/33 150/372/103
f 145/373/34 143/374/33 142/375/23 144/376/15
f 149/377/101 147/378/99 148/379/75 151/380/102
f 151/381/102 148/382/75 146/369/98 150/372/103
f 152/383/96 156/384/105 157/385/104 154/386/79
f 154/387/79 157/388/104 155/357/100 153/360/97
f 149/377/101 156/384/105 152/383/96 147/378/99
l 25 12
