# Blender v2.90.1 OBJ File: 'gunNewNov.blend'
# www.blender.org
mtllib weapons_guns_shotgun.mtl
o shotgun_lp_Cube
v 0.139730 0.099166 0.270691
v -0.139730 0.099166 0.270691
v -0.172988 -0.060421 0.461831
v -0.172988 -0.038001 0.484252
v -0.195408 -0.038001 0.461831
v -0.172988 0.307975 0.484252
v -0.172988 0.330395 0.461831
v -0.195408 0.307975 0.461831
v -0.172988 -0.060421 -0.024167
v -0.195408 -0.038001 -0.024167
v -0.172988 -0.038001 -0.046587
v -0.172988 0.330395 -0.024167
v -0.172988 0.307975 -0.046587
v -0.195408 0.307975 -0.024167
v 0.172988 -0.060421 0.461831
v 0.195408 -0.038001 0.461831
v 0.172988 -0.038001 0.484252
v 0.172988 0.330395 0.461831
v 0.172988 0.307975 0.484252
v 0.195408 0.307975 0.461831
v 0.172988 -0.060421 -0.024167
v 0.172988 -0.038001 -0.046587
v 0.195408 -0.038001 -0.024167
v 0.172988 0.330395 -0.024167
v 0.195408 0.307975 -0.024167
v 0.172988 0.307975 -0.046587
v -0.139730 -0.170352 0.097776
v 0.139730 -0.170352 0.097776
v -0.139730 -0.346759 -0.156303
v 0.139730 -0.346759 -0.156303
v 0.086406 0.281080 0.058547
v 0.139730 0.246430 0.098955
v -0.139730 0.246430 0.098955
v -0.086406 0.281080 0.058547
v -0.139730 -0.004475 -0.053920
v -0.086406 0.035875 -0.090820
v 0.086406 0.035875 -0.090820
v 0.139730 -0.004475 -0.053920
v -0.086406 -0.114543 -0.311783
v -0.139730 -0.159489 -0.281689
v 0.139730 -0.159489 -0.281689
v 0.086406 -0.114543 -0.311783
v -0.032105 -0.025578 1.141216
v -0.095422 0.022815 1.150632
v -0.045403 -0.057683 1.141216
v -0.095422 0.022815 0.391888
v -0.032105 -0.089788 1.141216
v 0.095422 0.022815 1.150632
v 0.000000 -0.103086 1.141216
v 0.095422 0.022815 0.391888
v -0.095422 -0.076489 1.150632
v -0.040207 -0.131705 1.150632
v -0.040207 -0.131705 0.391888
v -0.095422 -0.076489 0.391888
v 0.040207 -0.131705 1.150632
v 0.095422 -0.076489 1.150632
v 0.095422 -0.076489 0.391888
v 0.040207 -0.131705 0.391888
v 0.000000 -0.012280 1.141216
v 0.032105 -0.025578 1.141216
v 0.045403 -0.057683 1.141216
v 0.032105 -0.089788 1.141216
v -0.032105 -0.025578 1.385343
v -0.045403 -0.057683 1.385343
v -0.032105 -0.089788 1.385343
v 0.000000 -0.103086 1.385343
v 0.000000 -0.012280 1.385343
v 0.032105 -0.025578 1.385343
v 0.045403 -0.057683 1.385343
v 0.032105 -0.089788 1.385343
v 0.000000 -0.057683 1.431156
v -0.027507 -0.030175 1.412140
v -0.019113 -0.038570 1.423548
v -0.038901 -0.057683 1.412140
v -0.027030 -0.057683 1.423548
v -0.019113 -0.076796 1.423548
v -0.027507 -0.085191 1.412140
v 0.000000 -0.084713 1.423548
v 0.000000 -0.096585 1.412140
v 0.000000 -0.018781 1.412140
v 0.000000 -0.030653 1.423548
v 0.019113 -0.038570 1.423548
v 0.027508 -0.030175 1.412140
v 0.038902 -0.057683 1.412140
v 0.027030 -0.057683 1.423548
v 0.027508 -0.085191 1.412140
v 0.019113 -0.076796 1.423548
v -0.163885 0.002725 0.571708
v -0.128800 -0.032360 0.571708
v -0.128800 -0.032360 0.455008
v -0.163885 0.002725 0.455008
v 0.128800 -0.032360 0.571708
v 0.163885 0.002725 0.571708
v 0.163885 0.002725 0.455008
v 0.128800 -0.032360 0.455008
v -0.094755 0.295410 0.571708
v -0.163885 0.226280 0.571708
v -0.143637 0.275162 0.571708
v -0.163885 0.226280 0.455008
v -0.094755 0.295410 0.455008
v -0.143637 0.275162 0.455008
v 0.163885 0.226280 0.571708
v 0.094755 0.295410 0.571708
v 0.143637 0.275162 0.571708
v 0.094755 0.295410 0.455008
v 0.163885 0.226280 0.455008
v 0.143637 0.275162 0.455008
v -0.163885 0.002725 1.130258
v -0.128800 -0.032360 1.130258
v -0.128800 -0.032360 1.088326
v -0.163885 0.002725 1.088326
v 0.128800 -0.032360 1.130258
v 0.163885 0.002725 1.130258
v 0.163885 0.002725 1.088326
v 0.128800 -0.032360 1.088326
v -0.094755 0.295410 1.130258
v -0.163885 0.226280 1.130258
v -0.143637 0.275162 1.130258
v -0.163885 0.226280 1.088326
v -0.094755 0.295410 1.088326
v -0.143637 0.275162 1.088326
v 0.163885 0.226280 1.130258
v 0.094755 0.295410 1.130258
v 0.143637 0.275162 1.130258
v 0.094755 0.295410 1.088326
v 0.163885 0.226280 1.088326
v 0.143637 0.275162 1.088326
v 0.000000 -0.030321 0.443544
v -0.109054 0.014851 0.443544
v -0.154226 0.123905 0.443544
v -0.109054 0.232959 0.443544
v 0.000000 0.278131 0.443544
v 0.109054 0.232959 0.443544
v 0.154226 0.123905 0.443544
v 0.109054 0.014851 0.443544
v 0.000000 -0.030321 1.499464
v -0.109054 0.014851 1.499464
v -0.154226 0.123905 1.499464
v -0.109054 0.232959 1.499464
v 0.000000 0.278131 1.499464
v 0.109054 0.232959 1.499464
v 0.154226 0.123905 1.499464
v 0.109054 0.014851 1.499464
v 0.000000 0.037700 1.499464
v -0.060956 0.062949 1.499464
v -0.086205 0.123905 1.499464
v -0.060956 0.184861 1.499464
v 0.000000 0.210110 1.499464
v 0.060956 0.184861 1.499464
v 0.086205 0.123905 1.499464
v 0.060956 0.062949 1.499464
v 0.000000 0.123905 1.236691
v 0.109054 0.232959 1.227280
v 0.154226 0.123905 1.227280
v -0.109054 0.232959 1.227280
v 0.000000 0.278131 1.227280
v -0.109054 0.014851 1.227280
v -0.154226 0.123905 1.227280
v 0.109054 0.014851 1.227280
v 0.000000 -0.030321 1.227280
v 0.109054 0.232959 1.186742
v -0.109054 0.232959 1.186742
v -0.109054 0.014851 1.186742
v 0.000000 -0.030321 1.186742
v 0.154226 0.123905 1.186742
v 0.000000 0.278131 1.186742
v -0.154226 0.123905 1.186742
v 0.109054 0.014851 1.186742
v 0.143081 0.123905 1.207011
v 0.000000 0.266986 1.207011
v -0.143081 0.123905 1.207011
v 0.101173 0.022731 1.207011
v 0.101173 0.225078 1.207011
v -0.101173 0.225078 1.207011
v -0.101173 0.022731 1.207011
v 0.000000 -0.019176 1.207011
vt 0.734241 0.682188
vt 0.584213 0.682188
vt 0.584213 0.530507
vt 0.734241 0.530507
vt 0.584213 0.021550
vt 0.734219 0.021608
vt 0.734219 0.234670
vt 0.584213 0.234612
vt 0.157666 0.743373
vt 0.007508 0.743373
vt 0.007508 0.530312
vt 0.157666 0.530312
vt 0.584213 0.277498
vt 0.734219 0.277441
vt 0.734219 0.490502
vt 0.584213 0.490560
vt 0.418539 0.765103
vt 0.418539 0.613556
vt 0.568697 0.613556
vt 0.568697 0.765103
vt 0.744368 0.530507
vt 0.734645 0.520677
vt 0.734657 0.267694
vt 0.744378 0.277519
vt 0.376625 0.733616
vt 0.386356 0.733723
vt 0.376625 0.743552
vt 0.744378 0.490581
vt 0.734657 0.500414
vt 0.744368 0.682188
vt 0.734645 0.692018
vt 0.744378 0.234591
vt 0.734657 0.244416
vt 0.226467 0.733616
vt 0.226467 0.743552
vt 0.216737 0.733723
vt 0.744378 0.021529
vt 0.734657 0.011696
vt 0.376625 0.520559
vt 0.386356 0.520666
vt 0.584617 0.520677
vt 0.584652 0.500471
vt 0.418539 0.603322
vt 0.568697 0.603322
vt 0.584652 0.011639
vt 0.226467 0.520559
vt 0.216737 0.520666
vt 0.584617 0.692018
vt 0.007508 0.520572
vt 0.157666 0.520572
vt 0.527539 0.779318
vt 0.416579 0.779318
vt 0.416579 0.901838
vt 0.527539 0.901838
vt 0.758387 0.494824
vt 0.878412 0.494824
vt 0.878412 0.372304
vt 0.758387 0.372304
vt 0.520766 0.153636
vt 0.546941 0.035796
vt 0.451734 0.013528
vt 0.423568 0.146094
vt 0.546727 0.279672
vt 0.448700 0.284089
vt 0.448700 0.311145
vt 0.423568 0.449139
vt 0.520766 0.441597
vt 0.546727 0.315561
vt 0.762640 0.959612
vt 0.762640 0.863462
vt 0.687637 0.863462
vt 0.687637 0.959612
vt 0.581100 0.987300
vt 0.660045 0.987300
vt 0.678993 0.963922
vt 0.678993 0.888158
vt 0.660045 0.864780
vt 0.581100 0.864780
vt 0.451734 0.581705
vt 0.546941 0.559437
vt 0.543554 0.154836
vt 0.568937 0.277998
vt 0.568937 0.317235
vt 0.543554 0.440398
vt 0.568937 0.040506
vt 0.568937 0.554727
vt 0.888163 0.371685
vt 0.888163 0.481815
vt 0.963166 0.481815
vt 0.963166 0.371685
vt 0.481387 0.971609
vt 0.457444 0.995816
vt 0.414381 0.995816
vt 0.414381 0.912147
vt 0.457444 0.912147
vt 0.481387 0.936355
vt 0.936068 0.349283
vt 0.893012 0.349266
vt 0.893012 0.016633
vt 0.936068 0.016649
vt 0.206833 0.895496
vt 0.192653 0.895452
vt 0.192653 0.788427
vt 0.206833 0.788470
vt 0.555092 0.971609
vt 0.531149 0.995816
vt 0.488088 0.995816
vt 0.488088 0.912147
vt 0.531149 0.912147
vt 0.555092 0.936355
vt 0.888706 0.349266
vt 0.845651 0.349283
vt 0.845651 0.016649
vt 0.888706 0.016633
vt 0.178993 0.895507
vt 0.178993 0.788481
vt 0.815392 0.349270
vt 0.815392 0.016644
vt 0.839356 0.016908
vt 0.839356 0.349534
vt 0.780492 0.016645
vt 0.780492 0.349270
vt 0.756528 0.349534
vt 0.756528 0.016908
vt 0.206862 0.764823
vt 0.192929 0.764770
vt 0.192929 0.657745
vt 0.206862 0.657798
vt 0.393831 0.879445
vt 0.380172 0.879391
vt 0.380172 0.772365
vt 0.393831 0.772419
vt 0.365992 0.879434
vt 0.365992 0.772409
vt 0.206862 0.634144
vt 0.192929 0.634080
vt 0.192929 0.527057
vt 0.206862 0.527121
vt 0.178995 0.764823
vt 0.178995 0.657798
vt 0.178995 0.634144
vt 0.178995 0.527121
vt 0.773817 0.655863
vt 0.780161 0.662272
vt 0.769204 0.666760
vt 0.764845 0.655869
vt 0.780161 0.671341
vt 0.773817 0.677757
vt 0.764845 0.677763
vt 0.758501 0.671354
vt 0.758501 0.662285
vt 0.180990 0.515395
vt 0.192929 0.515341
vt 0.367895 0.760679
vt 0.380044 0.760642
vt 0.192780 0.776703
vt 0.204929 0.776740
vt 0.180990 0.646069
vt 0.192929 0.646024
vt 0.391748 0.760688
vt 0.181076 0.776750
vt 0.204867 0.515395
vt 0.204867 0.646069
vt 0.785108 0.673409
vt 0.775978 0.682643
vt 0.763065 0.682651
vt 0.753934 0.673428
vt 0.753934 0.660376
vt 0.763065 0.651142
vt 0.785108 0.660357
vt 0.775978 0.651134
vt 0.946788 0.637816
vt 0.946751 0.539905
vt 0.997399 0.539905
vt 0.997435 0.637816
vt 0.940785 0.256318
vt 0.940822 0.158407
vt 0.991469 0.158407
vt 0.991432 0.256318
vt 0.149237 0.890016
vt 0.134024 0.905398
vt 0.037083 0.905398
vt 0.015887 0.896521
vt 0.007107 0.875090
vt 0.007107 0.792006
vt 0.015887 0.770575
vt 0.037083 0.761698
vt 0.134024 0.761698
vt 0.149237 0.777080
vt 0.725445 0.836088
vt 0.710231 0.851469
vt 0.613289 0.851469
vt 0.592092 0.842592
vt 0.583312 0.821161
vt 0.583312 0.738077
vt 0.592092 0.716646
vt 0.613289 0.707770
vt 0.710231 0.707770
vt 0.725445 0.723151
vt 0.941509 0.534677
vt 0.890863 0.534677
vt 0.891029 0.519295
vt 0.941675 0.519295
vt 0.890863 0.647613
vt 0.941509 0.647613
vt 0.941675 0.662995
vt 0.891029 0.662995
vt 0.942162 0.728313
vt 0.891514 0.728313
vt 0.891435 0.706882
vt 0.942082 0.706882
vt 0.946817 0.518096
vt 0.997464 0.518096
vt 0.891514 0.811397
vt 0.942162 0.811397
vt 0.942082 0.832828
vt 0.891435 0.832828
vt 0.940756 0.136598
vt 0.991403 0.136598
vt 0.534060 0.898903
vt 0.534000 0.800992
vt 0.552198 0.800988
vt 0.552259 0.898898
vt 0.572343 0.779183
vt 0.572283 0.877093
vt 0.554085 0.877089
vt 0.554145 0.779179
vt 0.357493 0.890204
vt 0.342279 0.905586
vt 0.245339 0.905586
vt 0.224142 0.896709
vt 0.215362 0.875278
vt 0.215362 0.792194
vt 0.224142 0.770763
vt 0.245339 0.761886
vt 0.342279 0.761886
vt 0.357493 0.777268
vt 0.881792 0.836087
vt 0.866578 0.851469
vt 0.769636 0.851469
vt 0.748439 0.842592
vt 0.739659 0.821161
vt 0.739659 0.738077
vt 0.748439 0.716646
vt 0.769636 0.707770
vt 0.866578 0.707770
vt 0.881792 0.723151
vt 0.175460 0.777080
vt 0.157262 0.777080
vt 0.157428 0.761698
vt 0.175626 0.761698
vt 0.157262 0.890016
vt 0.175460 0.890016
vt 0.175626 0.905398
vt 0.157428 0.905398
vt 0.945612 0.811397
vt 0.963810 0.811397
vt 0.963889 0.832828
vt 0.945691 0.832828
vt 0.534060 0.779183
vt 0.552259 0.779179
vt 0.963810 0.728313
vt 0.945612 0.728313
vt 0.945691 0.706882
vt 0.963889 0.706882
vt 0.572343 0.898903
vt 0.554145 0.898898
vt 0.317006 0.366929
vt 0.317006 0.486255
vt 0.363405 0.486070
vt 0.363405 0.366745
vt 0.004733 0.366953
vt 0.004733 0.486276
vt 0.052064 0.486060
vt 0.052064 0.366738
vt 0.212984 0.366893
vt 0.212984 0.486218
vt 0.261150 0.486070
vt 0.261150 0.366745
vt 0.411572 0.486218
vt 0.411572 0.366893
vt 0.099395 0.486276
vt 0.099395 0.366953
vt 0.307550 0.486255
vt 0.307550 0.366929
vt 0.156192 0.142658
vt 0.156192 0.023333
vt 0.108861 0.023155
vt 0.108861 0.142479
vt 0.203523 0.142479
vt 0.203523 0.023155
vt 0.794753 0.643310
vt 0.806042 0.615755
vt 0.785809 0.595317
vt 0.758555 0.606745
vt 0.882143 0.606667
vt 0.854889 0.595273
vt 0.834656 0.615737
vt 0.845945 0.643278
vt 0.845945 0.518358
vt 0.834656 0.545913
vt 0.854889 0.566351
vt 0.882143 0.554923
vt 0.758555 0.555001
vt 0.785809 0.566395
vt 0.806042 0.545931
vt 0.794753 0.518390
vt 0.820516 0.983072
vt 0.820516 0.864579
vt 0.794719 0.977142
vt 0.992172 0.124675
vt 0.992172 0.005937
vt 0.966939 0.118619
vt 0.851812 0.870647
vt 0.877045 0.983330
vt 0.877044 0.864591
vt 0.768968 0.971017
vt 0.940790 0.112148
vt 0.917224 0.850959
vt 0.943025 0.963591
vt 0.943025 0.845052
vt 0.891476 0.857102
vt 0.825662 0.877118
vt 0.200102 0.151334
vt 0.156192 0.151500
vt 0.112281 0.151334
vt 0.260932 0.357900
vt 0.303979 0.358071
vt 0.052064 0.357905
vt 0.095974 0.358105
vt 0.363623 0.357900
vt 0.408309 0.358037
vt 0.216247 0.358037
vt 0.008153 0.358105
vt 0.320577 0.358071
vt 0.317006 0.023339
vt 0.317006 0.349157
vt 0.363405 0.348973
vt 0.363405 0.023155
vt 0.004733 0.023372
vt 0.004733 0.349182
vt 0.052064 0.348966
vt 0.052064 0.023156
vt 0.212984 0.023303
vt 0.212984 0.349121
vt 0.261151 0.348973
vt 0.261151 0.023155
vt 0.411572 0.349121
vt 0.411572 0.023303
vt 0.099395 0.349182
vt 0.099395 0.023372
vt 0.307550 0.349157
vt 0.307550 0.023339
vt 0.156192 0.486246
vt 0.156192 0.160430
vt 0.108861 0.160251
vt 0.108861 0.486068
vt 0.203523 0.486068
vt 0.203523 0.160251
vn 0.3416 -0.3416 0.8756
vn 0.3416 0.3416 0.8756
vn -0.3416 0.3416 0.8756
vn -0.3416 -0.3416 0.8756
vn 0.8756 -0.3416 -0.3416
vn 0.8756 0.3416 -0.3416
vn 0.8756 0.3416 0.3416
vn 0.8756 -0.3416 0.3416
vn 0.3416 0.8756 -0.3416
vn -0.3416 0.8756 -0.3416
vn -0.3416 0.8756 0.3416
vn 0.3416 0.8756 0.3416
vn -0.8756 -0.3416 0.3416
vn -0.8756 0.3416 0.3416
vn -0.8756 0.3416 -0.3416
vn -0.8756 -0.3416 -0.3416
vn -0.3416 -0.3416 -0.8756
vn -0.3416 0.3416 -0.8756
vn 0.3416 0.3416 -0.8756
vn 0.3416 -0.3416 -0.8756
vn -0.3416 -0.8756 0.3416
vn -0.3416 -0.8756 -0.3416
vn 0.3416 -0.8756 0.3416
vn 0.3416 -0.8756 -0.3416
vn -0.6656 -0.5180 0.5372
vn -0.5765 -0.8029 -0.1519
vn 0.5765 -0.8029 -0.1519
vn 0.6656 -0.5180 0.5372
vn -0.7363 -0.3654 0.5695
vn 0.7363 -0.3654 0.5695
vn -0.9433 0.2301 -0.2391
vn -0.7176 -0.1083 -0.6879
vn -0.9074 0.2186 -0.3589
vn 0.9433 0.2301 -0.2391
vn 0.9074 0.2186 -0.3589
vn 0.4078 0.6269 -0.6639
vn 0.2996 0.2418 -0.9229
vn -0.2996 0.2418 -0.9229
vn -0.4078 0.6269 -0.6639
vn 0.7176 -0.1083 -0.6879
vn -0.3648 0.4844 -0.7951
vn 0.3648 0.4844 -0.7951
vn 0.2971 -0.7173 0.6302
vn 0.7173 -0.2971 0.6302
vn 0.7071 0.0000 0.7071
vn -0.7071 0.0000 0.7071
vn -0.7173 -0.2971 0.6302
vn -0.2971 -0.7173 0.6302
vn 0.7173 -0.2971 -0.6302
vn 0.7071 0.0000 -0.7071
vn -0.7071 0.7071 0.0000
vn -1.0000 0.0000 0.0000
vn -0.9933 0.0000 0.1155
vn -0.7024 0.7024 0.1155
vn -0.2971 -0.7173 -0.6302
vn -0.7173 -0.2971 -0.6302
vn -0.7071 0.0000 -0.7071
vn 0.2971 -0.7173 -0.6302
vn -0.7071 -0.7071 0.0000
vn -0.7024 -0.7024 0.1155
vn 0.7071 0.7071 0.0000
vn 0.0000 1.0000 0.0000
vn 0.0000 0.9933 0.1155
vn 0.7024 0.7024 0.1155
vn 0.7071 -0.7071 0.0000
vn 1.0000 0.0000 0.0000
vn 0.9933 0.0000 0.1155
vn 0.7024 -0.7024 0.1155
vn 0.0000 -1.0000 0.0000
vn 0.0000 -0.9933 0.1155
vn -0.5396 0.0000 0.8419
vn -0.3815 -0.3815 0.8419
vn 0.0000 0.0000 1.0000
vn -0.3815 0.3815 0.8419
vn 0.0000 -0.5396 0.8419
vn 0.3815 -0.3815 0.8419
vn 0.5396 0.0000 0.8419
vn 0.3815 0.3815 0.8419
vn 0.0000 0.5396 0.8419
vn 0.6238 -0.6238 0.4708
vn 0.0000 -0.8822 0.4708
vn 0.6238 0.6238 0.4708
vn 0.8822 0.0000 0.4708
vn -0.8822 0.0000 0.4708
vn -0.6238 0.6238 0.4708
vn 0.0000 0.8822 0.4708
vn -0.6238 -0.6238 0.4708
vn -0.7319 0.1456 0.6657
vn -0.7319 0.1456 -0.6657
vn 0.7319 0.1456 -0.6657
vn 0.7319 0.1456 0.6657
vn -0.5490 0.5490 -0.6302
vn -0.1456 0.7319 -0.6657
vn 0.1456 0.7319 -0.6657
vn 0.5490 0.5490 -0.6302
vn 0.5490 0.5490 0.6302
vn 0.1456 0.7319 0.6657
vn -0.1456 0.7319 0.6657
vn -0.5490 0.5490 0.6302
vn 0.6872 0.6872 -0.2352
vn 0.7764 0.0000 0.6302
vn 0.9719 0.0000 -0.2352
vn -0.6872 0.6872 -0.2352
vn 0.0000 0.7764 0.6302
vn 0.0000 0.9719 -0.2352
vn -0.6872 -0.6872 -0.2352
vn -0.5490 -0.5490 0.6302
vn -0.7764 0.0000 0.6302
vn -0.9719 0.0000 -0.2352
vn 0.5490 -0.5490 0.6302
vn 0.6872 -0.6872 -0.2352
vn 0.0000 -0.9719 -0.2352
vn 0.0000 -0.7764 0.6302
vn -0.4739 0.0000 0.8806
vn -0.3351 0.3351 0.8806
vn 0.0000 -0.4739 0.8806
vn -0.3351 -0.3351 0.8806
vn 0.4739 0.0000 0.8806
vn 0.3351 -0.3351 0.8806
vn 0.0000 0.4739 0.8806
vn 0.3351 0.3351 0.8806
vn 0.6872 0.6872 0.2352
vn 0.9719 0.0000 0.2352
vn -0.6872 0.6872 0.2352
vn 0.0000 0.9719 0.2352
vn -0.6872 -0.6872 0.2352
vn -0.9719 0.0000 0.2352
vn 0.6872 -0.6872 0.2352
vn 0.0000 -0.9719 0.2352
usemtl bakeTo
s 1
f 17/1/1 19/2/2 6/3/3 4/4/4
f 23/5/5 25/6/6 20/7/7 16/8/8
f 24/9/9 12/10/10 7/11/11 18/12/12
f 5/13/13 8/14/14 14/15/15 10/16/16
f 11/17/17 13/18/18 26/19/19 22/20/20
f 3/21/21 4/4/4 5/22/13
f 6/23/3 7/24/11 8/14/14
f 9/25/22 10/26/16 11/27/17
f 12/28/10 13/29/18 14/15/15
f 15/30/23 16/31/8 17/1/1
f 18/32/12 19/33/2 20/7/7
f 21/34/24 22/35/20 23/36/5
f 24/37/9 25/6/6 26/38/19
f 9/25/22 3/39/21 5/40/13 10/26/16
f 4/4/4 6/3/3 8/41/14 5/22/13
f 7/24/11 12/28/10 14/15/15 8/14/14
f 13/29/18 11/42/17 10/16/16 14/15/15
f 21/34/24 9/25/22 11/27/17 22/35/20
f 12/43/10 24/44/9 26/19/19 13/18/18
f 25/6/6 23/5/5 22/45/20 26/38/19
f 15/46/23 21/34/24 23/36/5 16/47/8
f 24/37/9 18/32/12 20/7/7 25/6/6
f 19/2/2 17/1/1 16/31/8 20/48/7
f 3/21/21 15/30/23 17/1/1 4/4/4
f 18/12/12 7/11/11 6/49/3 19/50/2
f 9/25/22 21/34/24 15/46/23 3/39/21
f 27/51/25 29/52/26 30/53/27 28/54/28
f 2/55/29 27/56/25 28/57/28 1/58/30
f 35/59/31 40/60/32 29/61/26 27/62/25
f 33/63/33 35/59/31 27/62/25 2/64/29
f 1/65/30 28/66/28 38/67/34 32/68/35
f 37/69/36 42/70/37 39/71/38 36/72/39
f 29/73/26 40/74/32 39/75/38 42/76/37 41/77/40 30/78/27
f 28/66/28 30/79/27 41/80/40 38/67/34
f 36/81/39 35/59/31 33/63/33 34/82/41
f 31/83/42 32/68/35 38/67/34 37/84/36
f 39/85/38 40/60/32 35/59/31 36/81/39
f 37/84/36 38/67/34 41/80/40 42/86/37
f 31/87/42 37/88/36 36/89/39 34/90/41
f 55/91/43 56/92/44 48/93/45 44/94/46 51/95/47 52/96/48
f 57/97/49 50/98/50 48/99/45 56/100/44
f 43/101/51 45/102/52 64/103/53 63/104/54
f 53/105/55 54/106/56 46/107/57 50/108/50 57/109/49 58/110/58
f 51/111/47 44/112/46 46/113/57 54/114/56
f 45/102/52 47/115/59 65/116/60 64/103/53
f 53/117/55 52/118/48 51/119/47 54/120/56
f 55/121/43 58/122/58 57/123/49 56/124/44
f 53/117/55 58/122/58 55/121/43 52/118/48
f 60/125/61 59/126/62 67/127/63 68/128/64
f 62/129/65 61/130/66 69/131/67 70/132/68
f 61/130/66 60/133/61 68/134/64 69/131/67
f 47/135/59 49/136/69 66/137/70 65/138/60
f 59/126/62 43/139/51 63/140/54 67/127/63
f 49/136/69 62/141/65 70/142/68 66/137/70
f 75/143/71 76/144/72 71/145/73
f 73/146/74 75/143/71 71/145/73
f 76/144/72 78/147/75 71/145/73
f 78/147/75 87/148/76 71/145/73
f 85/149/77 82/150/78 71/145/73
f 82/150/78 81/151/79 71/145/73
f 87/148/76 85/149/77 71/145/73
f 66/137/70 70/142/68 86/152/80 79/153/81
f 69/131/67 68/134/64 83/154/82 84/155/83
f 63/104/54 64/103/53 74/156/84 72/157/85
f 67/127/63 63/140/54 72/158/85 80/159/86
f 70/132/68 69/131/67 84/155/83 86/160/80
f 64/103/53 65/116/60 77/161/87 74/156/84
f 65/138/60 66/137/70 79/153/81 77/162/87
f 68/128/64 67/127/63 80/159/86 83/163/82
f 79/164/81 86/165/80 87/148/76 78/147/75
f 86/165/80 84/166/83 85/149/77 87/148/76
f 83/167/82 80/168/86 81/151/79 82/150/78
f 80/168/86 72/169/85 73/146/74 81/151/79
f 77/170/87 79/164/81 78/147/75 76/144/72
f 72/169/85 74/171/84 75/143/71 73/146/74
f 74/171/84 77/170/87 76/144/72 75/143/71
f 84/166/83 83/167/82 82/150/78 85/149/77
f 81/151/79 73/146/74 71/145/73
f 88/172/47 97/173/88 99/174/89 91/175/56
f 94/176/49 106/177/90 102/178/91 93/179/44
f 90/180/55 91/181/56 99/182/89 101/183/92 100/184/93 105/185/94 107/186/95 106/187/90 94/188/49 95/189/58
f 92/190/43 93/191/44 102/192/91 104/193/96 103/194/97 96/195/98 98/196/99 97/197/88 88/198/47 89/199/48
f 90/200/55 89/201/48 88/202/47 91/203/56
f 92/204/43 95/205/58 94/206/49 93/207/44
f 90/200/55 95/205/58 92/204/43 89/201/48
f 96/208/98 100/209/93 101/210/92 98/211/99
f 98/212/99 101/213/92 99/174/89 97/173/88
f 105/214/94 103/215/97 104/216/96 107/217/95
f 107/218/95 104/219/96 102/178/91 106/177/90
f 105/214/94 100/209/93 96/208/98 103/215/97
f 108/220/47 117/221/88 119/222/89 111/223/56
f 114/224/49 126/225/90 122/226/91 113/227/44
f 110/228/55 111/229/56 119/230/89 121/231/92 120/232/93 125/233/94 127/234/95 126/235/90 114/236/49 115/237/58
f 112/238/43 113/239/44 122/240/91 124/241/96 123/242/97 116/243/98 118/244/99 117/245/88 108/246/47 109/247/48
f 110/248/55 109/249/48 108/250/47 111/251/56
f 112/252/43 115/253/58 114/254/49 113/255/44
f 110/248/55 115/253/58 112/252/43 109/249/48
f 116/256/98 120/257/93 121/258/92 118/259/99
f 118/260/99 121/261/92 119/222/89 117/221/88
f 125/262/94 123/263/97 124/264/96 127/265/95
f 127/266/95 124/267/96 122/226/91 126/225/90
f 125/262/94 120/257/93 116/256/98 123/263/97
f 153/268/100 141/269/96 142/270/101 154/271/102
f 155/272/103 139/273/99 140/274/104 156/275/105
f 157/276/106 137/277/107 138/278/108 158/279/109
f 154/271/102 142/270/101 143/280/110 159/281/111
f 156/275/105 140/274/104 141/282/96 153/283/100
f 158/279/109 138/278/108 139/284/99 155/285/103
f 160/286/112 136/287/113 137/288/107 157/289/106
f 159/290/111 143/291/110 136/287/113 160/286/112
f 142/292/101 150/293/114 151/294/115 143/295/110
f 140/296/104 148/297/116 149/298/117 141/299/96
f 138/300/108 146/301/118 147/302/119 139/303/99
f 136/304/113 144/305/120 145/306/121 137/307/107
f 143/295/110 151/294/115 144/305/120 136/304/113
f 141/299/96 149/298/117 150/293/114 142/292/101
f 139/303/99 147/302/119 148/297/116 140/296/104
f 137/307/107 145/306/121 146/301/118 138/300/108
f 147/308/119 152/309/73 148/310/116
f 145/311/121 152/312/73 146/313/118
f 150/314/114 152/315/73 151/316/115
f 148/310/116 152/309/73 149/317/117
f 146/313/118 152/312/73 147/318/119
f 144/319/120 152/320/73 145/321/121
f 151/322/115 152/320/73 144/319/120
f 149/323/117 152/315/73 150/314/114
f 172/324/65 159/290/111 160/286/112 176/325/69
f 176/325/69 160/286/112 157/289/106 175/326/59
f 171/327/52 158/279/109 155/285/103 174/328/51
f 170/329/62 156/275/105 153/283/100 173/330/61
f 169/331/66 154/271/102 159/281/111 172/332/65
f 175/333/59 157/276/106 158/279/109 171/327/52
f 174/334/51 155/272/103 156/275/105 170/329/62
f 173/335/61 153/268/100 154/271/102 169/331/66
f 133/336/61 161/337/122 165/338/123 134/339/66
f 131/340/51 162/341/124 166/342/125 132/343/62
f 129/344/59 163/345/126 167/346/127 130/347/52
f 134/339/66 165/338/123 168/348/128 135/349/65
f 132/343/62 166/342/125 161/350/122 133/351/61
f 130/347/52 167/346/127 162/352/124 131/353/51
f 128/354/69 164/355/129 163/356/126 129/357/59
f 135/358/65 168/359/128 164/355/129 128/354/69
f 161/337/122 173/335/61 169/331/66 165/338/123
f 162/341/124 174/334/51 170/329/62 166/342/125
f 163/345/126 175/333/59 171/327/52 167/346/127
f 165/338/123 169/331/66 172/332/65 168/348/128
f 166/342/125 170/329/62 173/330/61 161/350/122
f 167/346/127 171/327/52 174/328/51 162/352/124
f 164/355/129 176/325/69 175/326/59 163/356/126
f 168/359/128 172/324/65 176/325/69 164/355/129
