# Blender v2.90.1 OBJ File: 'gunNewNov.blend'
# www.blender.org
mtllib weapons_guns_smg.mtl
o smg_lp_Plane.001
v 0.117930 0.037404 -0.097838
v -0.117930 0.037404 -0.097838
v -0.117930 0.037404 0.588632
v 0.117930 0.037404 0.588632
v 0.117930 0.297275 -0.097838
v 0.038802 0.376403 -0.097838
v 0.094754 0.353227 -0.097838
v -0.038802 0.376403 -0.097838
v -0.117930 0.297275 -0.097838
v -0.094754 0.353227 -0.097838
v -0.117930 0.297275 0.588632
v -0.038802 0.376403 0.588632
v -0.094754 0.353227 0.588632
v 0.038802 0.376403 0.588632
v 0.117930 0.297275 0.588632
v 0.094754 0.353227 0.588632
v -0.082793 0.159418 0.951912
v -0.035895 0.112520 0.951912
v -0.069057 0.126256 0.951912
v -0.035895 0.334472 0.951912
v -0.082793 0.287573 0.951912
v -0.069057 0.320735 0.951912
v -0.035895 0.112520 0.556668
v -0.082793 0.159418 0.556668
v -0.069057 0.126256 0.556668
v -0.082793 0.287573 0.556668
v -0.035895 0.334472 0.556668
v -0.069057 0.320735 0.556668
v 0.035895 0.112520 0.951912
v 0.082793 0.159418 0.951912
v 0.069057 0.126256 0.951912
v 0.082793 0.287573 0.951912
v 0.035895 0.334472 0.951912
v 0.069057 0.320735 0.951912
v 0.082793 0.159418 0.556668
v 0.035895 0.112520 0.556668
v 0.069057 0.126256 0.556668
v 0.035895 0.334472 0.556668
v 0.082793 0.287573 0.556668
v 0.069057 0.320735 0.556668
v 0.000000 0.181153 0.945826
v -0.052184 0.202768 0.945826
v -0.073800 0.254953 0.945826
v -0.052184 0.307137 0.945826
v 0.000000 0.328753 0.945826
v 0.052184 0.307137 0.945826
v 0.073800 0.254953 0.945826
v 0.052184 0.202768 0.945826
v 0.000000 0.181153 1.279428
v -0.052184 0.202768 1.279428
v -0.073800 0.254953 1.279428
v -0.052184 0.307137 1.279428
v 0.000000 0.328753 1.279428
v 0.052184 0.307137 1.279428
v 0.073800 0.254953 1.279428
v 0.052184 0.202768 1.279428
v 0.000000 0.213967 1.279428
v -0.028981 0.225971 1.279428
v -0.040986 0.254953 1.279428
v -0.028981 0.283934 1.279428
v 0.000000 0.295939 1.279428
v 0.028981 0.283934 1.279428
v 0.040986 0.254953 1.279428
v 0.028981 0.225971 1.279428
v 0.000000 0.254953 0.964673
v 0.000000 0.323181 -0.085114
v -0.062636 0.297237 -0.085114
v -0.088580 0.234601 -0.085114
v -0.062636 0.171965 -0.085114
v 0.000000 0.146021 -0.085114
v 0.062636 0.171965 -0.085114
v 0.088580 0.234601 -0.085114
v 0.062636 0.297237 -0.085114
v 0.000000 0.323181 -0.146904
v -0.062636 0.297237 -0.146904
v -0.088580 0.234601 -0.146904
v -0.062636 0.171965 -0.146904
v 0.000000 0.146021 -0.146904
v 0.062636 0.171965 -0.146904
v 0.088580 0.234601 -0.146904
v 0.062636 0.297237 -0.146904
v 0.000000 0.294714 -0.146904
v -0.042506 0.277107 -0.146904
v -0.060113 0.234601 -0.146904
v -0.042506 0.192095 -0.146904
v 0.000000 0.174488 -0.146904
v 0.042506 0.192095 -0.146904
v 0.060113 0.234601 -0.146904
v 0.042506 0.277107 -0.146904
v 0.000000 0.294714 -0.505376
v -0.042506 0.277107 -0.505376
v -0.060113 0.234601 -0.505376
v -0.042506 0.192095 -0.505376
v 0.000000 0.174488 -0.505376
v 0.042506 0.192095 -0.505376
v 0.060113 0.234601 -0.505376
v 0.042506 0.277107 -0.505376
v 0.000000 0.303738 -0.505376
v -0.048887 0.283488 -0.505376
v -0.069137 0.234601 -0.505376
v -0.048887 0.185714 -0.505376
v 0.000000 0.165464 -0.505376
v 0.048887 0.185714 -0.505376
v 0.069137 0.234601 -0.505376
v 0.048887 0.283488 -0.505376
v 0.000000 0.303738 -0.554481
v -0.048887 0.283488 -0.554481
v -0.069137 0.234601 -0.554481
v -0.048887 0.185714 -0.554481
v 0.000000 0.165464 -0.554481
v 0.048887 0.185714 -0.554481
v 0.069137 0.234601 -0.554481
v 0.048887 0.283488 -0.554481
v -0.086257 -0.038472 -0.541537
v -0.086257 -0.038472 -0.625197
v 0.086257 -0.038472 -0.541537
v 0.086257 -0.038472 -0.625197
v -0.086257 -0.011590 -0.541537
v -0.086257 -0.011590 -0.625197
v 0.086257 -0.011590 -0.625197
v 0.086257 -0.011590 -0.541537
v -0.086257 -0.038472 -0.518887
v 0.086257 -0.038472 -0.518887
v -0.086257 -0.011590 -0.518887
v 0.086257 -0.011590 -0.518887
v -0.028123 0.321154 -0.541537
v -0.086257 0.263020 -0.541537
v -0.069230 0.304127 -0.541537
v -0.086257 0.263020 -0.625197
v -0.028123 0.321154 -0.625197
v -0.069230 0.304127 -0.625197
v 0.086257 0.263020 -0.541537
v 0.028123 0.321154 -0.541537
v 0.069230 0.304127 -0.541537
v 0.028123 0.321154 -0.625197
v 0.086257 0.263020 -0.625197
v 0.069230 0.304127 -0.625197
v -0.074836 -0.032610 0.561816
v -0.074836 0.091935 0.561816
v -0.074836 -0.032610 0.320650
v -0.074836 0.091935 0.320650
v 0.074836 -0.032610 0.561816
v 0.074836 0.091935 0.561816
v 0.074836 -0.032610 0.320650
v 0.074836 0.091935 0.320650
v -0.030373 -0.011153 0.540813
v -0.030373 -0.011153 0.341653
v 0.030373 -0.011153 0.540813
v 0.030373 -0.011153 0.341653
v -0.030373 -0.321570 0.341653
v -0.030373 -0.321570 0.589450
v 0.030373 -0.321570 0.341653
v 0.030373 -0.321570 0.589450
v -0.030373 -0.272575 0.589450
v 0.030373 -0.272575 0.341653
v 0.030373 -0.272575 0.589450
v -0.030373 -0.272575 0.341653
v -0.030373 -0.261305 0.570982
v -0.030373 -0.217669 0.540813
v -0.030373 -0.240897 0.549650
v 0.030373 -0.217669 0.540813
v 0.030373 -0.261305 0.570982
v 0.030373 -0.240897 0.549650
v 0.030373 -0.261809 0.341653
v 0.030373 -0.217669 0.341653
v 0.030373 -0.239739 0.341653
v -0.030373 -0.217669 0.341653
v -0.030373 -0.261809 0.341653
v -0.030373 -0.239739 0.341653
v -0.063411 -0.283502 -0.073918
v -0.063411 0.180956 0.171090
v -0.063411 -0.178860 -0.259799
v -0.063411 0.278727 -0.017368
v 0.063411 -0.283502 -0.073918
v 0.063411 0.180956 0.171090
v 0.063411 -0.178860 -0.259799
v 0.063411 0.278727 -0.017368
v -0.063411 -0.210375 -0.035342
v -0.063411 -0.106815 -0.221629
v 0.063411 -0.106815 -0.221629
v 0.063411 -0.210375 -0.035342
v 0.063411 -0.235184 0.011687
v 0.063411 -0.308311 -0.026889
v -0.063411 -0.308311 -0.026889
v -0.063411 -0.235184 0.011687
vt 0.001809 0.004060
vt 0.001809 0.398162
vt 0.150657 0.398162
vt 0.150657 0.004060
vt 0.335171 0.398044
vt 0.335171 0.003942
vt 0.186323 0.003942
vt 0.186323 0.398044
vt 0.001351 0.598558
vt 0.136446 0.598558
vt 0.136446 0.449451
vt 0.123171 0.417347
vt 0.091123 0.404050
vt 0.046673 0.404050
vt 0.014626 0.417347
vt 0.001351 0.449451
vt 0.505473 0.598145
vt 0.505473 0.449027
vt 0.492199 0.416921
vt 0.460151 0.403622
vt 0.415701 0.403622
vt 0.383653 0.416921
vt 0.370378 0.449027
vt 0.370378 0.598145
vt 0.370378 0.003938
vt 0.370378 0.397739
vt 0.505473 0.397739
vt 0.505473 0.003938
vt 0.695594 0.005574
vt 0.663546 0.003927
vt 0.663546 0.395016
vt 0.695594 0.396662
vt 0.182705 0.003942
vt 0.182705 0.398044
vt 0.740044 0.396662
vt 0.772092 0.395016
vt 0.772092 0.003927
vt 0.740044 0.005574
vt 0.367218 0.004060
vt 0.367218 0.398162
vt 0.690272 0.760742
vt 0.671277 0.752860
vt 0.663409 0.733831
vt 0.663409 0.660293
vt 0.671277 0.641264
vt 0.690272 0.633382
vt 0.731391 0.633382
vt 0.750386 0.641264
vt 0.758253 0.660293
vt 0.758253 0.733831
vt 0.750386 0.752860
vt 0.731391 0.760742
vt 0.834082 0.229322
vt 0.792963 0.229322
vt 0.792963 0.002587
vt 0.834082 0.002587
vt 0.682569 0.402859
vt 0.755973 0.402859
vt 0.755973 0.629769
vt 0.682569 0.629769
vt 0.462540 0.829270
vt 0.389136 0.829270
vt 0.389136 0.602360
vt 0.462540 0.602361
vt 0.836987 0.628025
vt 0.836987 0.402851
vt 0.855981 0.403827
vt 0.855981 0.629001
vt 0.663575 0.629839
vt 0.663575 0.402929
vt 0.773969 0.229006
vt 0.773969 0.002271
vt 0.774968 0.402929
vt 0.774968 0.629839
vt 0.795868 0.402851
vt 0.795868 0.628025
vt 0.776873 0.629001
vt 0.776873 0.403827
vt 0.481534 0.602431
vt 0.481534 0.829340
vt 0.853077 0.002271
vt 0.853077 0.229006
vt 0.370141 0.829340
vt 0.370141 0.602430
vt 0.857370 0.402616
vt 0.857370 0.594137
vt 0.887260 0.594027
vt 0.887260 0.402506
vt 0.692949 0.955563
vt 0.692949 0.764042
vt 0.663059 0.763932
vt 0.663059 0.955453
vt 0.168285 0.767584
vt 0.168285 0.957640
vt 0.198175 0.959176
vt 0.198175 0.769120
vt 0.917150 0.594137
vt 0.917150 0.402616
vt 0.884356 0.193293
vt 0.884356 0.001919
vt 0.854466 0.002416
vt 0.854466 0.193791
vt 0.914246 0.193791
vt 0.914246 0.002416
vt 0.722839 0.955453
vt 0.722839 0.763932
vt 0.138395 0.769120
vt 0.138395 0.959176
vt 0.776863 0.920375
vt 0.794218 0.913174
vt 0.794218 0.895166
vt 0.776863 0.887950
vt 0.832063 0.943328
vt 0.824875 0.925921
vt 0.806916 0.925913
vt 0.799728 0.943314
vt 0.854928 0.887983
vt 0.837573 0.895185
vt 0.837573 0.913193
vt 0.854928 0.920409
vt 0.832063 0.865045
vt 0.824874 0.882445
vt 0.806916 0.882438
vt 0.799727 0.865031
vt 0.978811 0.634542
vt 0.995346 0.814691
vt 0.995346 0.633079
vt 0.978887 0.997925
vt 0.978887 0.818306
vt 0.962287 0.998201
vt 0.119162 0.785453
vt 0.135698 0.965601
vt 0.135698 0.783989
vt 0.740220 0.945306
vt 0.756828 0.763837
vt 0.723767 0.942936
vt 0.756828 0.945976
vt 0.962286 0.636127
vt 0.995487 0.998201
vt 0.102638 0.787038
vt 0.045644 0.979453
vt 0.043805 0.943493
vt 0.078924 0.943493
vt 0.080763 0.979453
vt 0.199259 0.983035
vt 0.199128 0.947074
vt 0.234518 0.947074
vt 0.234650 0.983035
vt 0.368117 0.876243
vt 0.367521 0.912203
vt 0.332158 0.912203
vt 0.332754 0.876243
vt 0.368117 0.948164
vt 0.332754 0.948164
vt 0.235360 0.947074
vt 0.235492 0.911114
vt 0.270882 0.911114
vt 0.270750 0.947074
vt 0.045644 0.907532
vt 0.080763 0.907532
vt 0.199259 0.911114
vt 0.234650 0.911114
vt 0.235492 0.983035
vt 0.270882 0.983034
vt 0.000954 0.878353
vt 0.000937 0.839433
vt 0.015996 0.845687
vt 0.016008 0.872099
vt 0.028369 0.811912
vt 0.067181 0.811912
vt 0.060951 0.827011
vt 0.034612 0.827011
vt 0.094637 0.839433
vt 0.094654 0.878353
vt 0.079595 0.872099
vt 0.079583 0.845687
vt 0.067222 0.905873
vt 0.028410 0.905873
vt 0.034640 0.890775
vt 0.060979 0.890775
vt 0.912776 0.633411
vt 0.937122 0.633321
vt 0.937122 0.839120
vt 0.912776 0.839210
vt 0.613281 0.617080
vt 0.637627 0.617485
vt 0.637627 0.823127
vt 0.613281 0.822721
vt 0.661974 0.617080
vt 0.661974 0.822721
vt 0.939677 0.002059
vt 0.964023 0.002149
vt 0.964023 0.207948
vt 0.939677 0.207858
vt 0.942581 0.402644
vt 0.966928 0.403895
vt 0.966928 0.608121
vt 0.942581 0.606870
vt 0.961469 0.633411
vt 0.961469 0.839210
vt 0.915330 0.002149
vt 0.915330 0.207948
vt 0.918235 0.403895
vt 0.918235 0.608121
vt 0.861213 0.914874
vt 0.879839 0.933543
vt 0.877862 0.938330
vt 0.856440 0.916858
vt 0.906179 0.933533
vt 0.924805 0.914850
vt 0.929578 0.916831
vt 0.908156 0.938319
vt 0.924805 0.888438
vt 0.906179 0.869768
vt 0.908156 0.864981
vt 0.929578 0.886453
vt 0.879839 0.869778
vt 0.861213 0.888462
vt 0.856440 0.886481
vt 0.877862 0.864993
vt 0.590030 0.941464
vt 0.591465 0.913397
vt 0.619375 0.913397
vt 0.617939 0.941464
vt 0.369310 0.947886
vt 0.369413 0.919819
vt 0.397537 0.919819
vt 0.397434 0.947886
vt 0.398205 0.975953
vt 0.398102 0.947886
vt 0.426227 0.947886
vt 0.426330 0.975953
vt 0.591465 0.969531
vt 0.619375 0.969531
vt 0.369413 0.975953
vt 0.397537 0.975953
vt 0.648522 0.913397
vt 0.648057 0.941464
vt 0.619954 0.941464
vt 0.620419 0.913397
vt 0.648522 0.969531
vt 0.620419 0.969531
vt 0.398205 0.919819
vt 0.426330 0.919819
vt 0.283045 0.932211
vt 0.283045 0.899919
vt 0.330925 0.899919
vt 0.330925 0.932211
vt 0.911673 0.648690
vt 0.911604 0.806350
vt 0.863687 0.806329
vt 0.863756 0.648669
vt 0.296143 0.858117
vt 0.296074 0.700458
vt 0.343991 0.700437
vt 0.344060 0.858096
vt 0.442351 0.931645
vt 0.442351 0.832600
vt 0.489901 0.832600
vt 0.489901 0.931645
vt 0.000988 0.793485
vt 0.000988 0.635922
vt 0.010741 0.612336
vt 0.034286 0.602566
vt 0.066502 0.602566
vt 0.090048 0.612336
vt 0.099801 0.635922
vt 0.099801 0.793485
vt 0.863763 0.633236
vt 0.850784 0.648664
vt 0.850791 0.633230
vt 0.911680 0.633257
vt 0.000988 0.808909
vt 0.099801 0.808909
vt 0.296150 0.873551
vt 0.344067 0.873530
vt 0.482802 0.601081
vt 0.498192 0.601081
vt 0.498192 0.700126
vt 0.482802 0.700126
vt 0.759331 0.732144
vt 0.759331 0.633099
vt 0.772294 0.633099
vt 0.772294 0.732144
vt 0.283178 0.873557
vt 0.283171 0.858123
vt 0.502774 0.832600
vt 0.502774 0.931645
vt 0.283436 0.876319
vt 0.331316 0.876319
vt 0.296150 0.676857
vt 0.344067 0.676836
vt 0.331316 0.955812
vt 0.283436 0.955812
vt 0.911680 0.829950
vt 0.863763 0.829929
vt 0.507812 0.807863
vt 0.507812 0.650287
vt 0.517565 0.626699
vt 0.541110 0.616929
vt 0.573327 0.616929
vt 0.596872 0.626699
vt 0.606625 0.650287
vt 0.606625 0.807863
vt 0.932670 0.371431
vt 0.861333 0.371431
vt 0.861333 0.232978
vt 0.932670 0.232978
vt 0.441033 0.918398
vt 0.369740 0.918398
vt 0.369740 0.832469
vt 0.441033 0.832469
vt 0.578874 0.949610
vt 0.507538 0.949610
vt 0.507538 0.811157
vt 0.578874 0.811157
vt 0.590449 0.826046
vt 0.661748 0.826046
vt 0.661748 0.911976
vt 0.590449 0.911976
vt 0.859763 0.370362
vt 0.774035 0.370362
vt 0.774035 0.232967
vt 0.859763 0.232967
vt 0.538806 0.257028
vt 0.538814 0.003015
vt 0.660414 0.003849
vt 0.660853 0.254341
vt 0.933731 0.233005
vt 0.968525 0.233005
vt 0.968525 0.374177
vt 0.933731 0.374177
vt 0.882196 0.196058
vt 0.882196 0.230934
vt 0.854148 0.230934
vt 0.854148 0.196058
vt 0.137449 0.630395
vt 0.102655 0.630395
vt 0.102655 0.602284
vt 0.137449 0.602284
vt 0.281143 0.613797
vt 0.139216 0.613797
vt 0.139216 0.585669
vt 0.281143 0.585669
vt 0.139216 0.553975
vt 0.281143 0.553975
vt 0.281143 0.582104
vt 0.139216 0.582104
vt 0.149793 0.547505
vt 0.281143 0.547794
vt 0.281143 0.619978
vt 0.149793 0.620268
vt 0.137449 0.636573
vt 0.102655 0.636573
vt 0.355739 0.675218
vt 0.355739 0.710093
vt 0.344911 0.710093
vt 0.344911 0.675218
vt 0.281143 0.763886
vt 0.167073 0.763886
vt 0.167073 0.645320
vt 0.281143 0.645320
vt 0.137449 0.780392
vt 0.102655 0.780392
vt 0.102655 0.661899
vt 0.137449 0.661899
vt 0.167073 0.403887
vt 0.281143 0.403887
vt 0.281143 0.522452
vt 0.167073 0.522452
vt 0.162012 0.535788
vt 0.281143 0.535123
vt 0.281143 0.632649
vt 0.162012 0.631984
vt 0.137449 0.649236
vt 0.102655 0.649236
vt 0.368417 0.675218
vt 0.368417 0.710093
vt 0.999652 0.132983
vt 0.964858 0.132983
vt 0.964858 0.119819
vt 0.999652 0.119819
vt 0.964858 0.001317
vt 0.999652 0.001317
vt 0.355928 0.446882
vt 0.355928 0.672195
vt 0.283288 0.672195
vt 0.283288 0.446882
vt 0.508432 0.561850
vt 0.508871 0.311359
vt 0.630471 0.310524
vt 0.630479 0.564538
vt 0.776808 0.861964
vt 0.776808 0.633547
vt 0.849448 0.633547
vt 0.849448 0.861964
vt 0.272139 0.908975
vt 0.199499 0.908975
vt 0.199499 0.795642
vt 0.272139 0.795642
vt 0.930584 0.937787
vt 0.930584 0.864976
vt 0.958069 0.864976
vt 0.958069 0.937787
vt 0.508350 0.608659
vt 0.630481 0.612004
vt 0.355928 0.404779
vt 0.283288 0.404779
vt 0.538804 0.304495
vt 0.660935 0.301150
vt 0.000426 0.907541
vt 0.043009 0.907541
vt 0.043009 0.980352
vt 0.000426 0.980352
vt 0.508350 0.304495
vt 0.508352 0.257028
vt 0.199499 0.767087
vt 0.272139 0.767087
vt 0.660933 0.564538
vt 0.660935 0.612004
vn 0.5773 -0.5773 0.5773
vn 0.5773 -0.5773 -0.5773
vn 0.7319 0.1456 -0.6657
vn 0.7319 0.1456 0.6657
vn -0.7319 0.1456 0.6657
vn -0.7319 0.1456 -0.6657
vn -0.5773 -0.5773 -0.5773
vn -0.5773 -0.5773 0.5773
vn 0.5490 0.5490 0.6302
vn 0.1456 0.7319 0.6657
vn -0.1456 0.7319 0.6657
vn -0.5490 0.5490 0.6302
vn -0.5490 0.5490 -0.6302
vn -0.1456 0.7319 -0.6657
vn 0.1456 0.7319 -0.6657
vn 0.5490 0.5490 -0.6302
vn 0.1456 -0.7319 0.6657
vn 0.5490 -0.5490 0.6302
vn 0.7319 -0.1456 0.6657
vn -0.7319 -0.1456 0.6657
vn -0.5490 -0.5490 0.6302
vn -0.1456 -0.7319 0.6657
vn 0.1951 0.9808 0.0000
vn -0.1951 0.9808 0.0000
vn -0.9808 0.1951 0.0000
vn -0.9808 -0.1951 0.0000
vn 0.9808 -0.1951 0.0000
vn 0.9808 0.1951 0.0000
vn -0.1951 -0.9808 0.0000
vn -0.7071 -0.7071 0.0000
vn -0.7071 0.7071 0.0000
vn 0.1951 -0.9808 0.0000
vn 0.7071 -0.7071 0.0000
vn 0.7071 0.7071 0.0000
vn -0.7764 0.0000 0.6302
vn -1.0000 0.0000 0.0000
vn 1.0000 0.0000 0.0000
vn 0.7764 0.0000 0.6302
vn 0.0000 1.0000 0.0000
vn 0.0000 0.7764 0.6302
vn 0.0000 -1.0000 0.0000
vn 0.0000 -0.7764 0.6302
vn 0.0000 -0.5453 0.8382
vn -0.3856 -0.3856 0.8382
vn 0.5453 0.0000 0.8382
vn 0.3856 -0.3856 0.8382
vn 0.0000 0.5453 0.8382
vn 0.3856 0.3856 0.8382
vn -0.3856 0.3856 0.8382
vn -0.5453 0.0000 0.8382
vn 0.0000 0.0000 1.0000
vn 0.0000 -0.7764 -0.6302
vn 0.5490 -0.5490 -0.6302
vn -0.7764 0.0000 -0.6302
vn -0.5490 -0.5490 -0.6302
vn 0.0000 0.7764 -0.6302
vn 0.7764 0.0000 -0.6302
vn 0.4203 0.4203 -0.8042
vn 0.0000 0.5943 -0.8042
vn 0.4203 -0.4203 -0.8042
vn 0.5943 0.0000 -0.8042
vn -0.4203 -0.4203 -0.8042
vn 0.0000 -0.5943 -0.8042
vn -0.4203 0.4203 -0.8042
vn -0.5943 0.0000 -0.8042
vn -0.5943 0.0000 0.8042
vn -0.4203 -0.4203 0.8042
vn 0.0000 0.5943 0.8042
vn -0.4203 0.4203 0.8042
vn 0.4203 0.4203 0.8042
vn 0.4203 -0.4203 0.8042
vn 0.5943 0.0000 0.8042
vn 0.0000 -0.5943 0.8042
vn 0.7071 0.0000 -0.7071
vn 0.9045 0.3015 0.3015
vn -0.9045 0.3015 0.3015
vn -0.7071 0.0000 -0.7071
vn 0.5773 0.5773 0.5773
vn -0.5773 0.5773 0.5773
vn -0.7071 0.0000 0.7071
vn 0.7071 0.0000 0.7071
vn -0.9045 0.1260 0.4073
vn -0.7056 -0.3306 0.6268
vn -0.7090 0.3301 -0.6231
vn -0.7071 0.3310 -0.6248
vn 0.6117 0.3871 0.6898
vn -0.6117 0.3871 0.6898
vn -0.7321 0.5400 0.4153
vn 0.7321 0.5400 0.4153
vn 0.7501 0.1195 0.6504
vn -0.7501 0.1195 0.6504
vn -0.7602 0.3591 0.5415
vn 0.7602 0.3591 0.5415
vn 0.7090 0.3301 -0.6231
vn 0.7071 0.3310 -0.6248
vn 0.7056 -0.3306 0.6268
vn 0.9045 0.1260 0.4073
vn -0.5787 -0.2296 -0.7825
vn 0.5787 -0.2296 -0.7825
vn 0.7040 -0.6235 -0.3399
vn -0.7040 -0.6235 -0.3399
vn -0.5773 0.2412 0.7800
vn 0.5773 0.2412 0.7800
vn 0.5773 -0.7800 0.2412
vn -0.5773 -0.7800 0.2412
usemtl bakeTo
s 1
f 4/1/1 1/2/2 5/3/3 15/4/4
f 11/5/5 9/6/6 2/7/7 3/8/8
f 3/9/8 4/10/1 15/11/4 16/12/9 14/13/10 12/14/11 13/15/12 11/16/5
f 2/17/7 9/18/6 10/19/13 8/20/14 6/21/15 7/22/16 5/23/3 1/24/2
f 3/25/8 2/26/7 1/27/2 4/28/1
f 14/29/10 16/30/9 7/31/16 6/32/15
f 16/33/9 15/4/4 5/3/3 7/34/16
f 8/35/14 10/36/13 13/37/12 12/38/11
f 10/39/13 9/6/6 11/5/5 13/40/12
f 14/29/10 6/32/15 8/35/14 12/38/11
f 29/41/17 31/42/18 30/43/19 32/44/4 34/45/9 33/46/10 20/47/11 22/48/12 21/49/5 17/50/20 19/51/21 18/52/22
f 38/53/23 27/54/24 20/55/11 33/56/10
f 17/57/20 21/58/5 26/59/25 24/60/26
f 35/61/27 39/62/28 32/63/4 30/64/19
f 23/65/29 18/66/22 19/67/21 25/68/30
f 25/69/30 19/70/21 17/57/20 24/60/26
f 20/55/11 27/54/24 28/71/31 22/72/12
f 22/73/12 28/74/31 26/59/25 21/58/5
f 29/75/17 36/76/32 37/77/33 31/78/18
f 31/79/18 37/80/33 35/61/27 30/64/19
f 38/53/23 33/56/10 34/81/9 40/82/34
f 40/83/34 34/84/9 32/63/4 39/62/28
f 23/65/29 36/76/32 29/75/17 18/66/22
f 42/85/30 50/86/21 51/87/35 43/88/36
f 47/89/37 55/90/38 56/91/18 48/92/33
f 45/93/39 53/94/40 54/95/9 46/96/34
f 43/88/36 51/87/35 52/97/12 44/98/31
f 41/99/41 49/100/42 50/101/21 42/102/30
f 48/103/33 56/104/18 49/100/42 41/99/41
f 46/105/34 54/106/9 55/90/38 47/89/37
f 44/107/31 52/108/12 53/94/40 45/93/39
f 53/109/40 61/110/43 62/111/44 54/112/9
f 51/113/35 59/114/45 60/115/46 52/116/12
f 49/117/42 57/118/47 58/119/48 50/120/21
f 56/121/18 64/122/49 57/118/47 49/117/42
f 54/112/9 62/111/44 63/123/50 55/124/38
f 52/116/12 60/115/46 61/110/43 53/109/40
f 50/120/21 58/119/48 59/114/45 51/113/35
f 55/124/38 63/123/50 64/122/49 56/121/18
f 63/125/50 65/126/51 64/127/49
f 61/128/43 65/129/51 62/130/44
f 59/131/45 65/132/51 60/133/46
f 57/134/47 65/135/51 58/136/48
f 64/137/49 65/135/51 57/134/47
f 62/138/44 65/126/51 63/125/50
f 60/139/46 65/129/51 61/128/43
f 58/140/48 65/132/51 59/131/45
f 71/141/33 70/142/41 78/143/52 79/144/53
f 69/145/30 68/146/36 76/147/54 77/148/55
f 67/149/31 66/150/39 74/151/56 75/152/13
f 66/150/39 73/153/34 81/154/16 74/151/56
f 72/155/37 71/156/33 79/157/53 80/158/57
f 70/142/41 69/159/30 77/160/55 78/143/52
f 68/146/36 67/161/31 75/162/13 76/147/54
f 73/163/34 72/155/37 80/158/57 81/164/16
f 74/165/56 81/166/16 89/167/58 82/168/59
f 80/169/57 79/170/53 87/171/60 88/172/61
f 78/173/52 77/174/55 85/175/62 86/176/63
f 76/177/54 75/178/13 83/179/64 84/180/65
f 81/166/16 80/169/57 88/172/61 89/167/58
f 79/170/53 78/173/52 86/176/63 87/171/60
f 77/174/55 76/177/54 84/180/65 85/175/62
f 75/178/13 74/165/56 82/168/59 83/179/64
f 85/181/62 84/182/65 92/183/66 93/184/67
f 83/185/64 82/186/59 90/187/68 91/188/69
f 82/186/59 89/189/58 97/190/70 90/187/68
f 88/191/61 87/192/60 95/193/71 96/194/72
f 86/195/63 85/196/62 93/197/67 94/198/73
f 84/182/65 83/199/64 91/200/69 92/183/66
f 89/201/58 88/191/61 96/194/72 97/202/70
f 87/203/60 86/195/63 94/198/73 95/204/71
f 97/205/70 96/206/72 104/207/38 105/208/9
f 95/209/71 94/210/73 102/211/42 103/212/18
f 93/213/67 92/214/66 100/215/35 101/216/21
f 91/217/69 90/218/68 98/219/40 99/220/12
f 90/218/68 97/205/70 105/208/9 98/219/40
f 96/206/72 95/209/71 103/212/18 104/207/38
f 94/210/73 93/213/67 101/216/21 102/211/42
f 92/214/66 91/217/69 99/220/12 100/215/35
f 102/221/42 101/222/21 109/223/30 110/224/41
f 100/225/35 99/226/12 107/227/31 108/228/36
f 105/229/9 104/230/38 112/231/37 113/232/34
f 103/233/18 102/221/42 110/224/41 111/234/33
f 101/235/21 100/225/35 108/228/36 109/236/30
f 99/237/12 98/238/40 106/239/39 107/240/31
f 98/238/40 105/241/9 113/242/34 106/239/39
f 104/230/38 103/243/18 111/244/33 112/231/37
f 135/245/15 130/246/14 126/247/11 133/248/10
f 120/249/74 136/250/3 132/251/4 121/252/75
f 118/253/76 127/254/5 129/255/6 119/256/77
f 115/257/7 117/258/2 116/259/33 114/260/30
f 119/261/77 129/262/6 131/263/13 130/264/14 135/265/15 137/266/16 136/267/3 120/268/74
f 116/269/33 121/252/75 125/270/78 123/271/1
f 117/272/2 120/249/74 121/252/75 116/269/33
f 115/273/7 119/261/77 120/268/74 117/274/2
f 114/275/30 118/253/76 119/256/77 115/276/7
f 123/277/1 125/278/78 124/279/79 122/280/8
f 121/281/75 118/282/76 124/283/79 125/284/78
f 118/253/76 114/275/30 122/285/8 124/286/79
f 114/260/30 116/259/33 123/287/1 122/288/8
f 126/247/11 130/246/14 131/289/13 128/290/12
f 128/291/12 131/292/13 129/255/6 127/254/5
f 135/245/15 133/248/10 134/293/9 137/294/16
f 137/295/16 134/296/9 132/251/4 136/250/3
f 121/297/75 132/298/4 134/299/9 133/300/10 126/301/11 128/302/12 127/303/5 118/304/76
f 138/305/8 139/306/80 141/307/77 140/308/7
f 140/309/7 141/310/77 145/311/74 144/312/2
f 144/313/2 145/314/74 143/315/81 142/316/1
f 142/317/1 143/318/81 139/319/80 138/320/8
f 140/321/7 144/322/2 142/323/1 138/324/8
f 178/325/82 171/326/83 173/327/84 179/328/85
f 150/329/7 152/330/2 153/331/1 151/332/8
f 156/333/86 154/334/87 151/335/8 153/336/1
f 157/337/77 155/338/74 152/339/2 150/340/7
f 155/341/74 156/342/86 153/343/1 152/344/2
f 154/345/87 157/346/77 150/347/7 151/348/8
f 158/349/88 168/350/77 157/346/77 154/345/87
f 164/351/74 162/352/89 156/342/86 155/341/74
f 168/353/77 164/354/74 155/338/74 157/337/77
f 162/355/89 158/356/88 154/357/87 156/358/86
f 149/359/74 148/360/81 161/361/90 165/362/74
f 147/363/77 149/364/74 165/365/74 167/366/77
f 146/367/80 147/368/77 167/369/77 159/370/91
f 168/350/77 158/349/88 160/371/92 169/372/77
f 169/372/77 160/371/92 159/370/91 167/369/77
f 162/352/89 164/351/74 166/373/74 163/374/93
f 163/374/93 166/373/74 165/362/74 161/361/90
f 164/354/74 168/353/77 169/375/77 166/376/74
f 166/376/74 169/375/77 167/366/77 165/365/74
f 158/356/88 162/355/89 163/377/93 160/378/92
f 160/379/92 163/380/93 161/381/90 159/382/91
f 148/383/81 146/384/80 159/382/91 161/381/90
f 179/385/85 173/386/84 177/387/94 180/388/95
f 180/389/95 177/390/94 175/391/96 181/392/97
f 181/393/97 175/394/96 171/395/83 178/396/82
f 172/397/98 176/398/99 174/399/100 170/400/101
f 181/401/97 178/402/82 185/403/102 182/404/103
f 176/405/99 180/389/95 181/392/97 174/406/100
f 172/407/98 179/385/85 180/388/95 176/408/99
f 170/409/101 178/325/82 179/328/85 172/410/98
f 183/411/104 182/412/103 185/413/102 184/414/105
f 178/325/82 170/409/101 184/415/105 185/416/102
f 170/400/101 174/399/100 183/417/104 184/418/105
f 174/406/100 181/392/97 182/419/103 183/420/104
