# Blender v2.83.0 OBJ File: ''
# www.blender.org
mtllib test_player.mtl
o Circle_Circle.001
v 0.000000 0.000000 -1.000000
v -0.951057 0.000000 -0.309017
v -0.587785 0.000000 0.809017
v 0.587785 0.000000 0.809017
v 0.951056 0.000000 -0.309017
v 0.000000 1.116785 -0.316307
v -0.300826 1.116785 -0.097744
v -0.185920 1.116785 0.255898
v 0.185921 1.116785 0.255898
v 0.300826 1.116785 -0.097744
v 0.000000 1.390303 -0.538716
v -0.512349 1.390303 -0.166472
v -0.316649 1.390303 0.435830
v 0.316649 1.390303 0.435830
v 0.512349 1.390303 -0.166472
v 0.000000 1.997735 -0.538716
v -0.512349 1.997735 -0.166472
v -0.316649 1.997735 0.435830
v 0.316649 1.997735 0.435830
v 0.512349 1.997735 -0.166472
v 0.000000 2.099596 -0.000000
v -0.812090 0.869227 -0.052697
v -0.812090 0.557321 -0.052697
v -0.812090 0.869227 1.346750
v -0.812090 0.557321 1.346750
v -0.500184 0.557321 1.346750
v -0.500184 0.869227 1.346750
v -0.500184 0.557321 -0.052697
v -0.500184 0.869227 -0.052697
v -0.500184 0.869227 0.591214
v -0.500184 0.557321 0.591214
v -0.812090 0.869227 0.591214
v -0.812090 0.557321 0.591214
v -0.812090 0.210903 -0.052697
v -0.500184 0.210903 -0.052697
v -0.500184 0.210903 0.591214
v -0.812090 0.210903 0.591214
vt 0.000000 0.000000
vt 0.000000 0.000000
vt 0.000000 0.000000
vt 0.000000 0.000000
vt 0.000000 0.000000
vt 0.000000 0.000000
vt 0.000000 0.000000
vt 0.000000 0.000000
vt 0.000000 0.000000
vt 0.000000 0.000000
vt 0.000000 0.000000
vt 0.000000 0.000000
vt 0.000000 0.000000
vt 0.000000 0.000000
vt 0.000000 0.000000
vt 0.000000 0.000000
vt 0.000000 0.000000
vt 0.000000 0.000000
vt 0.000000 0.000000
vt 0.000000 0.000000
vt 0.000000 0.000000
vt 0.375000 0.134970
vt 0.625000 0.134970
vt 0.625000 0.250000
vt 0.375000 0.250000
vt 0.625000 0.500000
vt 0.375000 0.500000
vt 0.375000 0.615030
vt 0.625000 0.615030
vt 0.625000 0.750000
vt 0.375000 0.750000
vt 0.625000 1.000000
vt 0.375000 1.000000
vt 0.125000 0.615030
vt 0.125000 0.750000
vt 0.875000 0.615030
vt 0.875000 0.750000
vt 0.875000 0.500000
vt 0.375000 0.500000
vt 0.375000 0.250000
vt 0.375000 0.000000
vt 0.625000 0.000000
vt 0.125000 0.500000
vt 0.375000 0.615030
vt 0.125000 0.615030
vt 0.375000 0.134970
vn 0.5267 0.4438 -0.7250
vn 0.0000 0.4438 0.8961
vn -0.5267 0.4438 -0.7250
vn 0.8523 0.4438 0.2769
vn -0.8523 0.4438 0.2769
vn -0.7945 -0.5496 0.2582
vn 0.4911 -0.5496 -0.6759
vn 0.0000 -0.5496 0.8354
vn -0.4911 -0.5496 -0.6759
vn 0.7945 -0.5496 0.2582
vn 0.0000 0.0000 1.0000
vn -0.5878 0.0000 -0.8090
vn 0.9511 0.0000 0.3090
vn -0.9511 0.0000 0.3090
vn 0.5878 0.0000 -0.8090
vn 0.2164 0.9738 0.0703
vn -0.2164 0.9738 0.0703
vn 0.1338 0.9738 -0.1841
vn 0.0000 0.9738 0.2276
vn -0.1338 0.9738 -0.1841
vn -1.0000 0.0000 0.0000
vn 0.0000 0.0000 -1.0000
vn 1.0000 0.0000 0.0000
vn 0.0000 -1.0000 0.0000
vn 0.0000 1.0000 0.0000
usemtl None
s off
f 1/1/1 6/2/1 10/3/1 5/4/1
f 4/5/2 9/6/2 8/7/2 3/8/2
f 2/9/3 7/10/3 6/2/3 1/1/3
f 5/4/4 10/3/4 9/6/4 4/5/4
f 3/8/5 8/7/5 7/10/5 2/9/5
f 8/7/6 13/11/6 12/12/6 7/10/6
f 6/2/7 11/13/7 15/14/7 10/3/7
f 9/6/8 14/15/8 13/11/8 8/7/8
f 7/10/9 12/12/9 11/13/9 6/2/9
f 10/3/10 15/14/10 14/15/10 9/6/10
f 14/15/11 19/16/11 18/17/11 13/11/11
f 12/12/12 17/18/12 16/19/12 11/13/12
f 15/14/13 20/20/13 19/16/13 14/15/13
f 13/11/14 18/17/14 17/18/14 12/12/14
f 11/13/15 16/19/15 20/20/15 15/14/15
f 20/20/16 21/21/16 19/16/16
f 18/17/17 21/21/17 17/18/17
f 16/19/18 21/21/18 20/20/18
f 19/16/19 21/21/19 18/17/19
f 17/18/20 21/21/20 16/19/20
f 33/22/21 32/23/21 22/24/21 23/25/21
f 23/25/22 22/24/22 29/26/22 28/27/22
f 31/28/23 30/29/23 27/30/23 26/31/23
f 26/31/11 27/30/11 24/32/11 25/33/11
f 33/34/24 31/28/24 26/31/24 25/35/24
f 30/29/25 32/36/25 24/37/25 27/30/25
f 29/26/25 22/38/25 32/36/25 30/29/25
f 23/25/22 28/27/22 35/39/22 34/40/22
f 28/27/23 29/26/23 30/29/23 31/28/23
f 25/41/21 24/42/21 32/23/21 33/22/21
f 34/43/24 35/39/24 36/44/24 37/45/24
f 31/28/11 33/34/11 37/45/11 36/44/11
f 33/22/21 23/25/21 34/40/21 37/46/21
f 28/27/23 31/28/23 36/44/23 35/39/23
