# Blender v2.83.0 OBJ File: ''
# www.blender.org
mtllib test_key.mtl
o Circle_Circle.002
v -0.019662 0.814649 0.086807
v -0.154797 0.677350 0.086807
v -0.103180 0.455197 0.086807
v 0.063856 0.455197 0.086807
v 0.115473 0.677351 0.086807
v 0.008178 0.455197 0.086807
v -0.047501 0.455197 0.086807
v 0.008178 0.103047 0.086807
v -0.047501 0.103047 0.086807
v -0.047501 0.280175 0.086807
v 0.008178 0.280176 0.086807
v -0.047501 0.221133 0.086807
v -0.047501 0.162090 0.086807
v 0.008178 0.162090 0.086807
v 0.008178 0.221133 0.086807
v 0.066826 0.103047 0.086807
v 0.066826 0.280176 0.086807
v 0.066826 0.162090 0.086807
v 0.066826 0.221133 0.086807
v -0.019662 0.728473 0.086807
v -0.097692 0.649193 0.086807
v -0.067887 0.520916 0.086807
v 0.028564 0.520916 0.086807
v 0.058369 0.649193 0.086807
v -0.003586 0.520916 0.086807
v -0.035737 0.520916 0.086807
v -0.154797 0.677350 -0.013193
v -0.019662 0.814649 -0.013193
v -0.103180 0.455197 -0.013193
v -0.047501 0.455197 -0.013193
v 0.115473 0.677351 -0.013193
v 0.063856 0.455197 -0.013193
v 0.008178 0.455197 -0.013193
v 0.008178 0.103047 -0.013193
v -0.047501 0.103047 -0.013193
v -0.047501 0.162090 -0.013193
v 0.008178 0.280176 -0.013193
v -0.047501 0.280175 -0.013193
v 0.008178 0.221133 -0.013193
v -0.047501 0.221133 -0.013193
v 0.008178 0.162090 -0.013193
v 0.066826 0.221133 -0.013193
v 0.066826 0.280176 -0.013193
v 0.066826 0.103047 -0.013193
v 0.066826 0.162090 -0.013193
v -0.097692 0.649193 -0.013193
v -0.019662 0.728473 -0.013193
v -0.067887 0.520916 -0.013193
v -0.035737 0.520916 -0.013193
v 0.058369 0.649193 -0.013193
v 0.028564 0.520916 -0.013193
v -0.003586 0.520916 -0.013193
vt 0.000000 0.000000
vt 0.000000 0.000000
vt 0.000000 0.000000
vt 0.000000 0.000000
vt 0.000000 0.000000
vt 0.000000 0.000000
vt 0.000000 0.000000
vt 0.000000 0.000000
vt 0.000000 0.000000
vt 0.000000 0.000000
vt 0.000000 0.000000
vt 0.000000 0.000000
vt 0.000000 0.000000
vt 0.000000 0.000000
vt 0.000000 0.000000
vt 0.000000 0.000000
vt 0.000000 0.000000
vt 0.000000 0.000000
vt 0.000000 0.000000
vt 0.000000 0.000000
vt 0.000000 0.000000
vt 0.000000 0.000000
vt 0.000000 0.000000
vt 0.000000 0.000000
vt 0.000000 0.000000
vt 0.000000 0.000000
vt 0.000000 0.000000
vt 0.000000 0.000000
vt 0.000000 0.000000
vt 0.000000 0.000000
vt 0.000000 0.000000
vt 0.000000 0.000000
vt 0.000000 0.000000
vt 0.000000 0.000000
vt 0.000000 0.000000
vt 0.000000 0.000000
vt 0.000000 0.000000
vt 0.000000 0.000000
vt 0.000000 0.000000
vt 0.000000 0.000000
vt 0.000000 0.000000
vt 0.000000 0.000000
vt 0.000000 0.000000
vt 0.000000 0.000000
vt 0.000000 0.000000
vt 0.000000 0.000000
vt 0.000000 0.000000
vt 0.000000 0.000000
vt 0.000000 0.000000
vt 0.000000 0.000000
vt 0.000000 0.000000
vt 0.000000 0.000000
vn 0.0000 -0.0000 1.0000
vn 0.0000 0.0000 -1.0000
vn -1.0000 0.0000 0.0000
vn 0.7127 -0.7015 0.0000
vn 0.9741 -0.2263 0.0000
vn 0.9741 0.2263 0.0000
vn 0.7127 0.7015 0.0000
vn 1.0000 0.0000 0.0000
vn 0.0000 1.0000 -0.0000
vn 0.0000 -1.0000 0.0000
vn -0.9741 0.2263 0.0000
vn -0.7127 -0.7015 0.0000
vn -0.7127 0.7015 0.0000
vn -0.9741 -0.2263 0.0000
usemtl None
s off
f 14/1/1 13/2/1 9/3/1 8/4/1
f 6/5/1 7/6/1 10/7/1 11/8/1
f 11/8/1 10/7/1 12/9/1 15/10/1
f 15/10/1 12/9/1 13/2/1 14/1/1
f 14/1/1 8/4/1 16/11/1 18/12/1
f 11/8/1 15/10/1 19/13/1 17/14/1
f 2/15/1 3/16/1 22/17/1 21/18/1
f 7/6/1 6/5/1 25/19/1 26/20/1
f 5/21/1 1/22/1 20/23/1 24/24/1
f 3/16/1 7/6/1 26/20/1 22/17/1
f 1/22/1 2/15/1 21/18/1 20/23/1
f 6/5/1 4/25/1 23/26/1 25/19/1
f 4/25/1 5/21/1 24/24/1 23/26/1
f 41/27/2 34/28/2 35/29/2 36/30/2
f 33/31/2 37/32/2 38/33/2 30/34/2
f 37/32/2 39/35/2 40/36/2 38/33/2
f 39/35/2 41/27/2 36/30/2 40/36/2
f 41/27/2 45/37/2 44/38/2 34/28/2
f 37/32/2 43/39/2 42/40/2 39/35/2
f 27/41/2 46/42/2 48/43/2 29/44/2
f 30/34/2 49/45/2 52/46/2 33/31/2
f 31/47/2 50/48/2 47/49/2 28/50/2
f 29/44/2 48/43/2 49/45/2 30/34/2
f 28/50/2 47/49/2 46/42/2 27/41/2
f 33/31/2 52/46/2 51/51/2 32/52/2
f 32/52/2 51/51/2 50/48/2 31/47/2
f 7/6/3 30/34/3 38/33/3 10/7/3
f 21/18/4 46/42/4 47/49/4 20/23/4
f 4/25/5 32/52/5 31/47/5 5/21/5
f 22/17/6 48/43/6 46/42/6 21/18/6
f 5/21/7 31/47/7 28/50/7 1/22/7
f 19/13/8 42/40/8 43/39/8 17/14/8
f 26/20/9 49/45/9 48/43/9 22/17/9
f 6/5/10 33/31/10 32/52/10 4/25/10
f 16/11/8 44/38/8 45/37/8 18/12/8
f 10/7/3 38/33/3 40/36/3 12/9/3
f 24/24/11 50/48/11 51/51/11 23/26/11
f 18/12/9 45/37/9 41/27/9 14/1/9
f 12/9/3 40/36/3 36/30/3 13/2/3
f 20/23/12 47/49/12 50/48/12 24/24/12
f 9/3/10 35/29/10 34/28/10 8/4/10
f 8/4/10 34/28/10 44/38/10 16/11/10
f 1/22/13 28/50/13 27/41/13 2/15/13
f 23/26/9 51/51/9 52/46/9 25/19/9
f 13/2/3 36/30/3 35/29/3 9/3/3
f 17/14/9 43/39/9 37/32/9 11/8/9
f 2/15/14 27/41/14 29/44/14 3/16/14
f 14/1/8 41/27/8 39/35/8 15/10/8
f 25/19/9 52/46/9 49/45/9 26/20/9
f 11/8/8 37/32/8 33/31/8 6/5/8
f 15/10/10 39/35/10 42/40/10 19/13/10
f 3/16/10 29/44/10 30/34/10 7/6/10
