# Blender v2.83.0 OBJ File: ''
# www.blender.org
mtllib coin.mtl
o Circle.001
v 0.000000 2.112442 0.262328
v -0.500000 1.978467 0.262328
v -0.866025 1.612442 0.262328
v -1.000000 1.112442 0.262328
v -0.866025 0.612442 0.262328
v -0.500000 0.246417 0.262328
v -0.000000 0.112442 0.262328
v 0.500000 0.246417 0.262328
v 0.866025 0.612442 0.262328
v 1.000000 1.112442 0.262328
v 0.866026 1.612442 0.262328
v 0.500001 1.978467 0.262328
v 0.000000 1.755855 0.262328
v -0.321706 1.669654 0.262328
v -0.557212 1.434149 0.262328
v -0.643413 1.112442 0.262328
v -0.557212 0.790736 0.262328
v -0.321707 0.555230 0.262328
v -0.000000 0.469029 0.262328
v 0.321706 0.555230 0.262328
v 0.557212 0.790735 0.262328
v 0.643413 1.112442 0.262328
v 0.557212 1.434148 0.262328
v 0.321707 1.669654 0.262328
v 0.000000 1.755855 0.106558
v -0.321706 1.669654 0.106558
v -0.557212 1.434149 0.106557
v -0.643413 1.112442 0.106557
v -0.557212 0.790736 0.106557
v -0.321707 0.555230 0.106557
v -0.000000 0.469029 0.106557
v 0.321706 0.555230 0.106557
v 0.557212 0.790735 0.106557
v 0.643413 1.112442 0.106557
v 0.557212 1.434148 0.106557
v 0.321707 1.669654 0.106558
v 0.000000 1.112442 0.106557
v 0.000000 2.112442 0.000000
v -0.500000 1.978467 0.000000
v -0.866025 1.612442 0.000000
v -1.000000 1.112442 0.000000
v -0.866025 0.612442 -0.000000
v -0.500000 0.246417 -0.000000
v -0.000000 0.112442 -0.000000
v 0.500000 0.246417 -0.000000
v 0.866025 0.612442 -0.000000
v 1.000000 1.112442 -0.000000
v 0.866026 1.612442 0.000000
v 0.500001 1.978467 0.000000
v 0.000000 2.112442 -0.262328
v -0.500000 1.978467 -0.262328
v -0.866025 1.612442 -0.262328
v -1.000000 1.112442 -0.262328
v -0.866025 0.612442 -0.262328
v -0.500000 0.246417 -0.262328
v -0.000000 0.112442 -0.262328
v 0.500000 0.246417 -0.262328
v 0.866025 0.612442 -0.262328
v 1.000000 1.112442 -0.262328
v 0.866026 1.612442 -0.262328
v 0.500001 1.978467 -0.262328
v 0.000000 1.755855 -0.262328
v -0.321706 1.669654 -0.262328
v -0.557212 1.434149 -0.262328
v -0.643413 1.112442 -0.262328
v -0.557212 0.790736 -0.262328
v -0.321707 0.555230 -0.262328
v -0.000000 0.469029 -0.262328
v 0.321706 0.555230 -0.262328
v 0.557212 0.790735 -0.262328
v 0.643413 1.112442 -0.262328
v 0.557212 1.434148 -0.262328
v 0.321707 1.669654 -0.262328
v 0.000000 1.755855 -0.106557
v -0.321706 1.669654 -0.106557
v -0.557212 1.434149 -0.106557
v -0.643413 1.112442 -0.106557
v -0.557212 0.790736 -0.106558
v -0.321707 0.555230 -0.106558
v -0.000000 0.469029 -0.106558
v 0.321706 0.555230 -0.106558
v 0.557212 0.790735 -0.106558
v 0.643413 1.112442 -0.106557
v 0.557212 1.434148 -0.106557
v 0.321707 1.669654 -0.106557
v 0.000000 1.112442 -0.106557
vt 0.891551 0.610265
vt 0.823507 0.610265
vt 0.823507 0.742987
vt 0.891551 0.742987
vt 0.569140 0.752338
vt 0.637184 0.752338
vt 0.637184 0.637397
vt 0.569140 0.637397
vt 0.891551 0.314023
vt 0.959595 0.314023
vt 0.959595 0.181302
vt 0.891551 0.181302
vt 0.891551 0.495325
vt 0.823507 0.495325
vt 0.569140 0.885059
vt 0.637184 0.885059
vt 0.891551 0.428964
vt 0.959595 0.428964
vt 0.891551 0.066361
vt 0.959595 0.066361
vt 0.959595 0.000000
vt 0.891551 0.000000
vt 0.569140 1.000000
vt 0.637184 1.000000
vt 0.823507 0.857928
vt 0.891551 0.857928
vt 0.891551 0.495325
vt 0.959595 0.495325
vt 0.823507 0.924289
vt 0.891551 0.924289
vt 0.501095 0.181302
vt 0.411753 0.204965
vt 0.411753 0.290360
vt 0.501095 0.314023
vt 0.317682 0.495325
vt 0.293743 0.407012
vt 0.207353 0.407012
vt 0.183414 0.495325
vt 0.067134 0.066361
vt 0.132537 0.131011
vt 0.207353 0.088313
vt 0.183414 0.000000
vt 0.000000 0.314023
vt 0.089342 0.290360
vt 0.089342 0.204965
vt 0.000000 0.181302
vt 0.433961 0.066361
vt 0.368558 0.131011
vt 0.433961 0.428964
vt 0.368558 0.364314
vt 0.067134 0.428964
vt 0.132537 0.364314
vt 0.317682 0.000000
vt 0.293743 0.088313
vt 0.637184 0.754049
vt 0.677589 0.754049
vt 0.677589 0.680095
vt 0.637184 0.680095
vt 0.758398 0.839444
vt 0.798803 0.839444
vt 0.798803 0.754049
vt 0.758398 0.754049
vt 1.000000 0.392653
vt 0.959595 0.392653
vt 0.959595 0.466607
vt 1.000000 0.466607
vt 1.000000 0.233304
vt 0.959595 0.233304
vt 0.959595 0.307258
vt 1.000000 0.307258
vt 0.637184 0.839444
vt 0.677589 0.839444
vt 0.758398 0.913398
vt 0.798803 0.913398
vt 0.758398 0.680095
vt 0.798803 0.680095
vt 0.798803 0.637397
vt 0.758398 0.637397
vt 0.637184 0.913398
vt 0.677589 0.913398
vt 0.677589 0.637397
vt 0.637184 0.637397
vt 0.637184 0.956095
vt 0.677589 0.956095
vt 0.619106 0.318699
vt 0.662301 0.478048
vt 0.705496 0.318699
vt 0.823507 0.435350
vt 0.823507 0.520745
vt 0.705496 0.637397
vt 0.619106 0.637397
vt 0.544290 0.361396
vt 0.501095 0.520745
vt 0.501095 0.435350
vt 0.780312 0.361396
vt 0.780312 0.594700
vt 0.544290 0.594700
vt 0.959595 0.742987
vt 0.959595 0.610265
vt 0.501095 0.637397
vt 0.501095 0.752338
vt 0.823507 0.181302
vt 0.823507 0.314023
vt 0.959595 0.495325
vt 0.501095 0.885059
vt 0.823507 0.428964
vt 0.823507 0.000000
vt 0.823507 0.066361
vt 0.501095 1.000000
vt 0.959595 0.857928
vt 0.823507 0.495325
vt 0.959595 0.924289
vt 0.067134 0.561686
vt 0.000000 0.676626
vt 0.089342 0.700290
vt 0.132537 0.626336
vt 0.067134 0.924289
vt 0.183414 0.990650
vt 0.207353 0.902337
vt 0.132537 0.859639
vt 0.501095 0.676626
vt 0.433961 0.561686
vt 0.368558 0.626336
vt 0.411753 0.700290
vt 0.433961 0.924289
vt 0.501095 0.809348
vt 0.411753 0.785685
vt 0.368558 0.859639
vt 0.183414 0.495325
vt 0.207353 0.583638
vt 0.000000 0.809348
vt 0.089342 0.785685
vt 0.317682 0.990650
vt 0.293743 0.902337
vt 0.317682 0.495325
vt 0.293743 0.583638
vt 0.677589 0.839444
vt 0.677589 0.913398
vt 0.717993 0.913398
vt 0.717993 0.839444
vt 0.758398 0.839444
vt 0.758398 0.754049
vt 0.717993 0.754049
vt 0.717993 0.839444
vt 1.000000 0.073954
vt 1.000000 0.000000
vt 0.959595 0.000000
vt 0.959595 0.073954
vt 1.000000 0.233304
vt 1.000000 0.159349
vt 0.959595 0.159349
vt 0.959595 0.233304
vt 0.677589 0.754049
vt 0.717993 0.754049
vt 0.758398 0.913398
vt 0.717993 0.913398
vt 0.758398 0.680095
vt 0.758398 0.637397
vt 0.717993 0.637397
vt 0.717993 0.680095
vt 0.677589 0.680095
vt 0.717993 0.680095
vt 0.677589 0.956095
vt 0.717993 0.956095
vt 0.677589 0.637397
vt 0.717993 0.637397
vt 0.705496 0.000000
vt 0.619106 0.000000
vt 0.662301 0.159349
vt 0.501095 0.116652
vt 0.501095 0.202047
vt 0.619106 0.318699
vt 0.705496 0.318698
vt 0.780312 0.042697
vt 0.823507 0.202047
vt 0.823507 0.116652
vt 0.544290 0.042698
vt 0.544290 0.276001
vt 0.780312 0.276001
vn -0.8660 0.5000 0.0000
vn -0.6557 0.3786 0.6532
vn -0.3786 0.6557 0.6532
vn -0.5000 0.8660 0.0000
vn 1.0000 0.0000 0.0000
vn 0.7571 0.0000 0.6532
vn 0.6557 -0.3786 0.6532
vn 0.8660 -0.5000 0.0000
vn 0.0000 -1.0000 0.0000
vn 0.0000 -0.7571 0.6532
vn -0.3786 -0.6557 0.6532
vn -0.5000 -0.8660 0.0000
vn -1.0000 0.0000 0.0000
vn -0.7571 0.0000 0.6532
vn 0.8660 0.5000 0.0000
vn 0.6557 0.3786 0.6532
vn 0.5000 -0.8660 0.0000
vn 0.3786 -0.6557 0.6532
vn -0.8660 -0.5000 0.0000
vn -0.6557 -0.3786 0.6532
vn 0.5000 0.8660 0.0000
vn 0.3786 0.6557 0.6532
vn 0.0000 0.7571 0.6532
vn 0.0000 1.0000 0.0000
vn -0.3189 0.5523 0.7703
vn 0.0000 0.6377 0.7703
vn 0.5523 0.3189 0.7703
vn 0.6377 0.0000 0.7703
vn -0.3189 -0.5523 0.7703
vn -0.5523 -0.3189 0.7703
vn 0.3189 -0.5523 0.7703
vn 0.0000 -0.6377 0.7703
vn -0.5523 0.3189 0.7703
vn 0.3189 0.5523 0.7703
vn 0.5523 -0.3189 0.7703
vn -0.6377 0.0000 0.7703
vn 0.0000 0.0000 1.0000
vn -0.3786 0.6557 -0.6532
vn -0.6557 0.3786 -0.6532
vn 0.6557 -0.3786 -0.6532
vn 0.7571 0.0000 -0.6532
vn -0.3786 -0.6557 -0.6532
vn 0.0000 -0.7571 -0.6532
vn -0.7571 0.0000 -0.6532
vn 0.6557 0.3786 -0.6532
vn 0.3786 -0.6557 -0.6532
vn -0.6557 -0.3786 -0.6532
vn 0.3786 0.6557 -0.6532
vn 0.0000 0.7571 -0.6532
vn 0.0000 0.6377 -0.7703
vn -0.3189 0.5523 -0.7703
vn 0.6377 0.0000 -0.7703
vn 0.5523 0.3189 -0.7703
vn -0.5523 -0.3189 -0.7703
vn -0.3189 -0.5523 -0.7703
vn 0.0000 -0.6377 -0.7703
vn 0.3189 -0.5523 -0.7703
vn -0.5523 0.3189 -0.7703
vn 0.3189 0.5523 -0.7703
vn 0.5523 -0.3189 -0.7703
vn -0.6377 0.0000 -0.7703
vn 0.0000 0.0000 -1.0000
usemtl baketo
s 1
f 40/1/1 3/2/2 2/3/3 39/4/4
f 47/5/5 10/6/6 9/7/7 46/8/8
f 44/9/9 7/10/10 6/11/11 43/12/12
f 41/13/13 4/14/14 3/2/2 40/1/1
f 48/15/15 11/16/16 10/6/6 47/5/5
f 45/17/17 8/18/18 7/10/10 44/9/9
f 42/19/19 5/20/20 4/21/14 41/22/13
f 49/23/21 12/24/22 11/16/16 48/15/15
f 39/4/4 2/3/3 1/25/23 38/26/24
f 46/27/8 9/28/7 8/18/18 45/17/17
f 43/12/12 6/11/11 5/20/20 42/19/19
f 38/26/24 1/25/23 12/29/22 49/30/21
f 8/31/18 20/32/25 19/33/26 7/34/10
f 5/35/20 17/36/27 16/37/28 4/38/14
f 12/39/22 24/40/29 23/41/30 11/42/16
f 2/43/3 14/44/31 13/45/32 1/46/23
f 9/47/7 21/48/33 20/32/25 8/31/18
f 6/49/11 18/50/34 17/36/27 5/35/20
f 1/46/23 13/45/32 24/40/29 12/39/22
f 3/51/2 15/52/35 14/44/31 2/43/3
f 10/53/6 22/54/36 21/48/33 9/47/7
f 7/34/10 19/33/26 18/50/34 6/49/11
f 4/38/14 16/37/28 15/52/35 3/51/2
f 11/42/16 23/41/30 22/54/36 10/53/6
f 20/55/25 32/56/3 31/57/23 19/58/26
f 17/59/27 29/60/16 28/61/6 16/62/28
f 24/63/29 36/64/11 35/65/20 23/66/30
f 14/67/31 26/68/18 25/69/10 13/70/32
f 21/71/33 33/72/2 32/56/3 20/55/25
f 18/73/34 30/74/22 29/60/16 17/59/27
f 13/70/32 25/69/10 36/64/11 24/63/29
f 15/75/35 27/76/7 26/77/18 14/78/31
f 22/79/36 34/80/14 33/72/2 21/71/33
f 19/58/26 31/57/23 30/81/22 18/82/34
f 16/62/28 28/61/6 27/76/7 15/75/35
f 23/83/30 35/84/20 34/80/14 22/79/36
f 35/85/20 37/86/37 34/87/14
f 32/88/3 37/86/37 31/89/23
f 29/90/16 37/86/37 28/91/6
f 36/92/11 37/86/37 35/85/20
f 26/93/18 37/86/37 25/94/10
f 33/95/2 37/86/37 32/88/3
f 30/96/22 37/86/37 29/90/16
f 25/94/10 37/86/37 36/92/11
f 27/97/7 37/86/37 26/93/18
f 34/87/14 37/86/37 33/95/2
f 31/89/23 37/86/37 30/96/22
f 28/91/6 37/86/37 27/97/7
f 40/1/1 39/4/4 51/98/38 52/99/39
f 47/5/5 46/8/8 58/100/40 59/101/41
f 44/9/9 43/12/12 55/102/42 56/103/43
f 41/13/13 40/1/1 52/99/39 53/104/44
f 48/15/15 47/5/5 59/101/41 60/105/45
f 45/17/17 44/9/9 56/103/43 57/106/46
f 42/19/19 41/22/13 53/107/44 54/108/47
f 49/23/21 48/15/15 60/105/45 61/109/48
f 39/4/4 38/26/24 50/110/49 51/98/38
f 46/27/8 45/17/17 57/106/46 58/111/40
f 43/12/12 42/19/19 54/108/47 55/102/42
f 38/26/24 49/30/21 61/112/48 50/110/49
f 57/113/46 56/114/43 68/115/50 69/116/51
f 54/117/47 53/118/44 65/119/52 66/120/53
f 61/121/48 60/122/45 72/123/54 73/124/55
f 51/125/38 50/126/49 62/127/56 63/128/57
f 58/129/40 57/113/46 69/116/51 70/130/58
f 55/131/42 54/117/47 66/120/53 67/132/59
f 50/126/49 61/121/48 73/124/55 62/127/56
f 52/133/39 51/125/38 63/128/57 64/134/60
f 59/135/41 58/129/40 70/130/58 71/136/61
f 56/114/43 55/131/42 67/132/59 68/115/50
f 53/118/44 52/133/39 64/134/60 65/119/52
f 60/122/45 59/135/41 71/136/61 72/123/54
f 69/137/51 68/138/50 80/139/49 81/140/38
f 66/141/53 65/142/52 77/143/41 78/144/45
f 73/145/55 72/146/54 84/147/47 85/148/42
f 63/149/57 62/150/56 74/151/43 75/152/46
f 70/153/58 69/137/51 81/140/38 82/154/39
f 67/155/59 66/141/53 78/144/45 79/156/48
f 62/150/56 73/145/55 85/148/42 74/151/43
f 64/157/60 63/158/57 75/159/46 76/160/40
f 71/161/61 70/153/58 82/154/39 83/162/44
f 68/138/50 67/163/59 79/164/48 80/139/49
f 65/142/52 64/157/60 76/160/40 77/143/41
f 72/165/54 71/161/61 83/162/44 84/166/47
f 84/167/47 83/168/44 86/169/62
f 81/170/38 80/171/49 86/169/62
f 78/172/45 77/173/41 86/169/62
f 85/174/42 84/167/47 86/169/62
f 75/175/46 74/176/43 86/169/62
f 82/177/39 81/170/38 86/169/62
f 79/178/48 78/172/45 86/169/62
f 74/176/43 85/174/42 86/169/62
f 76/179/40 75/175/46 86/169/62
f 83/168/44 82/177/39 86/169/62
f 80/171/49 79/178/48 86/169/62
f 77/173/41 76/179/40 86/169/62
