# Blender v2.90.1 OBJ File: 'guns2.blend'
# www.blender.org
mtllib shotGun1.mtl
o ShotGun_1_Cube.001
v -0.030385 0.167549 0.177433
v -0.034809 0.178173 0.166158
v -0.071998 0.125320 0.177433
v -0.085778 0.126586 0.166248
v -0.059777 0.155214 0.177433
v -0.070828 0.163064 0.166186
v 0.071998 0.125320 0.177433
v 0.085778 0.126586 0.166248
v 0.030385 0.167549 0.177433
v 0.034809 0.178173 0.166158
v 0.059777 0.155214 0.177433
v 0.070828 0.163064 0.166186
v -0.071998 0.032695 0.177433
v -0.086021 0.022401 0.166379
v -0.063374 0.023553 0.177433
v -0.070785 0.006264 0.166437
v 0.063374 0.023553 0.177433
v 0.070785 0.006264 0.166437
v 0.071998 0.032695 0.177433
v 0.086021 0.022401 0.166379
v 0.027181 -0.199820 -0.536602
v 0.035486 -0.191834 -0.540035
v -0.035486 -0.191834 -0.540035
v -0.027181 -0.199820 -0.536602
v 0.027044 -0.142199 -0.561345
v 0.035228 -0.159518 -0.553890
v 0.007371 -0.135024 -0.564432
v -0.027044 -0.142199 -0.561345
v -0.007371 -0.135024 -0.564432
v -0.035228 -0.159518 -0.553890
v -0.000000 -0.170586 -0.562302
v -0.068288 -0.024376 -0.273566
v -0.079124 0.024531 -0.177321
v -0.027556 0.071039 -0.192340
v -0.014275 0.024704 -0.289773
v -0.052389 0.010338 -0.285029
v -0.063756 0.057414 -0.187945
v 0.014275 0.024704 -0.289773
v 0.027556 0.071039 -0.192340
v 0.079124 0.024531 -0.177321
v 0.068288 -0.024376 -0.273566
v 0.063756 0.057414 -0.187945
v 0.052389 0.010338 -0.285029
v -0.052771 -0.105316 -0.246925
v -0.066808 -0.080293 -0.143847
v -0.081821 -0.065139 -0.148692
v -0.068875 -0.089267 -0.252246
v 0.068875 -0.089267 -0.252246
v 0.081821 -0.065139 -0.148692
v 0.066808 -0.080293 -0.143847
v 0.052771 -0.105316 -0.246925
v 0.056755 -0.223238 -0.493654
v 0.065896 -0.222904 -0.463719
v 0.086034 -0.203549 -0.472034
v 0.074062 -0.206549 -0.500856
v -0.086034 -0.203549 -0.472034
v -0.074062 -0.206549 -0.500856
v -0.065896 -0.222904 -0.463719
v -0.056755 -0.223238 -0.493654
v 0.065591 -0.083213 -0.523689
v 0.056326 -0.103113 -0.545395
v 0.073430 -0.139154 -0.529832
v 0.085430 -0.125213 -0.505615
v 0.015345 -0.088208 -0.551835
v 0.017878 -0.065812 -0.531176
v -0.056326 -0.103113 -0.545395
v -0.065591 -0.083213 -0.523689
v -0.017878 -0.065812 -0.531176
v -0.015345 -0.088208 -0.551835
v -0.073430 -0.139154 -0.529832
v -0.085430 -0.125213 -0.505615
v -0.060534 0.111716 0.153969
v 0.060534 0.111716 0.153969
v -0.024242 0.022149 0.935157
v -0.024242 0.058441 0.971450
v -0.060534 0.058441 0.935157
v -0.024242 0.032779 0.960820
v -0.045195 0.037488 0.956111
v -0.049904 0.058441 0.960820
v -0.049904 0.032779 0.935157
v -0.060534 0.111716 0.935157
v -0.024242 0.111716 0.971450
v -0.049904 0.111716 0.960820
v -0.024242 0.022149 0.153969
v -0.060534 0.058441 0.153969
v -0.049904 0.032779 0.153969
v 0.024242 0.022149 0.935157
v 0.060534 0.058441 0.935157
v 0.024242 0.058441 0.971450
v 0.049904 0.032779 0.935157
v 0.045195 0.037488 0.956111
v 0.049904 0.058441 0.960820
v 0.024242 0.032779 0.960820
v 0.024242 0.111716 0.971450
v 0.060534 0.111716 0.935157
v 0.049904 0.111716 0.960820
v 0.060534 0.058441 0.153969
v 0.024242 0.022149 0.153969
v 0.049904 0.032779 0.153969
v -0.000000 0.160615 0.166151
v -0.026815 0.151902 0.166151
v -0.043388 0.129091 0.166151
v -0.043388 0.100896 0.166151
v -0.026815 0.078086 0.166151
v -0.000000 0.069373 0.166151
v 0.026815 0.078086 0.166151
v 0.043388 0.100896 0.166151
v 0.043388 0.129091 0.166151
v 0.026815 0.151902 0.166151
v -0.000000 0.149535 1.159678
v -0.020303 0.142938 1.159678
v -0.032851 0.125668 1.159678
v -0.032851 0.104320 1.159678
v -0.020303 0.087049 1.159678
v -0.000000 0.080452 1.159678
v 0.020303 0.087049 1.159678
v 0.032851 0.104320 1.159678
v 0.032851 0.125668 1.159678
v 0.020303 0.142938 1.159678
v -0.000000 0.114994 0.997650
v -0.000000 0.160615 1.155414
v -0.000000 0.156131 1.159678
v -0.024180 0.148274 1.159678
v -0.026815 0.151902 1.155414
v -0.039124 0.127706 1.159678
v -0.043388 0.129091 1.155414
v -0.039124 0.102282 1.159678
v -0.043388 0.100896 1.155414
v -0.024180 0.081713 1.159678
v -0.026815 0.078086 1.155414
v -0.000000 0.073857 1.159678
v -0.000000 0.069373 1.155414
v 0.024180 0.081713 1.159678
v 0.026815 0.078086 1.155414
v 0.039123 0.102282 1.159678
v 0.043388 0.100896 1.155414
v 0.039123 0.127706 1.159678
v 0.043388 0.129091 1.155414
v 0.024180 0.148274 1.159678
v 0.026815 0.151902 1.155414
v -0.112194 0.085937 -0.073050
v -0.116180 0.111968 0.006516
v -0.065462 0.163006 -0.000207
v -0.061769 0.137076 -0.079903
v -0.097635 0.122087 -0.077916
v -0.101416 0.148056 0.001754
v 0.116180 0.111968 0.006516
v 0.112194 0.085937 -0.073050
v 0.061769 0.137076 -0.079903
v 0.065462 0.163006 -0.000207
v 0.101416 0.148056 0.001754
v 0.097635 0.122087 -0.077916
v -0.115696 -0.048485 0.028070
v -0.111562 -0.067625 -0.052177
v -0.096098 -0.082743 -0.050184
v -0.100371 -0.063672 0.030017
v 0.111562 -0.067625 -0.052177
v 0.115696 -0.048485 0.028070
v 0.100371 -0.063672 0.030017
v 0.096098 -0.082743 -0.050184
vt 0.125143 0.329205
vt 0.145228 0.236075
vt 0.155831 0.235236
vt 0.135438 0.331210
vt 0.033523 0.329205
vt 0.013438 0.236075
vt 0.104328 0.895901
vt 0.098105 0.904668
vt 0.035051 0.904668
vt 0.014701 0.892244
vt 0.006304 0.862365
vt 0.006304 0.800585
vt 0.014701 0.770706
vt 0.035051 0.758282
vt 0.098105 0.758282
vt 0.104328 0.767049
vt 0.302329 0.279002
vt 0.406360 0.249973
vt 0.390549 0.373034
vt 0.326159 0.373892
vt 0.460294 0.395470
vt 0.524684 0.396327
vt 0.540495 0.519388
vt 0.436464 0.490359
vt 0.308564 0.901912
vt 0.297749 0.860252
vt 0.327952 0.852145
vt 0.333156 0.872144
vt 0.383602 0.769361
vt 0.395710 0.786955
vt 0.374950 0.817020
vt 0.369157 0.808577
vt 0.308564 0.787392
vt 0.334715 0.770003
vt 0.345720 0.808839
vt 0.333156 0.817159
vt 0.317076 0.043138
vt 0.384781 0.010046
vt 0.406408 0.164894
vt 0.297749 0.195454
vt 0.237996 0.492807
vt 0.264130 0.490556
vt 0.273182 0.745875
vt 0.240466 0.750345
vt 0.247102 0.387156
vt 0.270562 0.263048
vt 0.295156 0.263666
vt 0.271925 0.385125
vt 0.185852 0.263048
vt 0.209312 0.387156
vt 0.184490 0.385125
vt 0.161259 0.263666
vt 0.409544 0.000000
vt 0.431883 0.159465
vt 0.395710 0.902349
vt 0.383602 0.919943
vt 0.369157 0.880727
vt 0.374949 0.872284
vt 0.334715 0.919301
vt 0.345720 0.880465
vt 0.023228 0.331210
vt 0.002835 0.235236
vt 0.148158 0.152367
vt 0.127871 0.002963
vt 0.138318 0.000000
vt 0.158666 0.151470
vt 0.431883 0.573907
vt 0.540542 0.604467
vt 0.518916 0.759315
vt 0.451210 0.726223
vt 0.297749 0.829052
vt 0.327952 0.837159
vt 0.010283 0.903478
vt 0.000000 0.866861
vt 0.035110 0.918677
vt 0.000000 0.796089
vt 0.010283 0.759471
vt 0.035110 0.744273
vt 0.566018 0.609897
vt 0.543679 0.769361
vt 0.115519 0.436887
vt 0.126561 0.439198
vt 0.138327 0.680206
vt 0.124518 0.675521
vt 0.252076 0.009444
vt 0.204339 0.009444
vt 0.207372 0.000000
vt 0.249043 0.000000
vt 0.273095 0.178713
vt 0.276775 0.012045
vt 0.297749 0.179351
vt 0.106023 0.744026
vt 0.117003 0.759515
vt 0.030795 0.002963
vt 0.010508 0.152367
vt 0.000000 0.151470
vt 0.020348 0.000000
vt 0.183320 0.178713
vt 0.158666 0.179351
vt 0.179641 0.012045
vt 0.117003 0.903435
vt 0.106023 0.918924
vt 0.549342 0.395046
vt 0.566018 0.524759
vt 0.043148 0.436887
vt 0.034148 0.675521
vt 0.379606 0.482122
vt 0.405666 0.483679
vt 0.393693 0.741229
vt 0.361245 0.735247
vt 0.513741 0.287239
vt 0.467116 0.287057
vt 0.437467 0.041411
vt 0.495380 0.034114
vt 0.218418 0.492807
vt 0.215948 0.750345
vt 0.539800 0.285682
vt 0.527828 0.028132
vt 0.332981 0.482305
vt 0.303333 0.727950
vt 0.032106 0.439198
vt 0.020339 0.680206
vt 0.192284 0.490556
vt 0.183231 0.745875
vt 0.352237 0.844652
vt 0.415208 0.374315
vt 0.118250 0.705496
vt 0.040416 0.705496
vt 0.442372 0.011563
vt 0.492222 0.005192
vt 0.217684 0.774935
vt 0.189584 0.771078
vt 0.266829 0.771079
vt 0.238729 0.774935
vt 0.385949 0.769361
vt 0.358087 0.764169
vt 0.520083 0.000000
vt 0.130118 0.709567
vt 0.028549 0.709567
vt 0.308238 0.757798
vt 0.097971 0.744026
vt 0.060695 0.744026
vt 0.470214 0.844737
vt 0.433948 0.844737
vt 0.433948 0.795450
vt 0.470214 0.795450
vt 0.890004 0.001629
vt 0.926451 0.002146
vt 0.925973 0.789758
vt 0.889526 0.789242
vt 0.566018 0.000000
vt 0.649035 0.000000
vt 0.649035 0.782428
vt 0.641746 0.808132
vt 0.624149 0.818779
vt 0.590904 0.818779
vt 0.573307 0.808132
vt 0.566018 0.782428
vt 0.835538 0.025011
vt 0.871985 0.024494
vt 0.872463 0.812106
vt 0.836015 0.812623
vt 0.666632 0.780569
vt 0.666632 0.808202
vt 0.652264 0.804378
vt 0.649035 0.782559
vt 0.471089 0.769361
vt 0.485741 0.774149
vt 0.488559 0.795450
vt 0.818474 0.026639
vt 0.821902 0.006079
vt 0.836015 0.000517
vt 0.699877 0.780569
vt 0.717474 0.782559
vt 0.714245 0.804378
vt 0.699877 0.808202
vt 0.890004 0.813735
vt 0.875890 0.808173
vt 0.872463 0.787613
vt 0.488559 0.844737
vt 0.485741 0.866039
vt 0.471089 0.870826
vt 0.666632 0.000000
vt 0.649035 0.001990
vt 0.818952 0.814252
vt 0.434823 0.769361
vt 0.872463 0.000000
vt 0.699877 0.000000
vt 0.717474 0.001990
vt 0.872940 0.000000
vt 0.434823 0.870826
vt 0.926451 0.814252
vt 0.491261 0.813469
vt 0.495750 0.813469
vt 0.500241 0.834109
vt 0.496609 0.838050
vt 0.511998 0.846865
vt 0.510611 0.853242
vt 0.541920 0.838050
vt 0.538287 0.834109
vt 0.542778 0.813469
vt 0.547268 0.813469
vt 0.527918 0.773696
vt 0.526530 0.780073
vt 0.511998 0.780073
vt 0.510611 0.773696
vt 0.527918 0.853242
vt 0.526530 0.846865
vt 0.541920 0.788888
vt 0.538287 0.792829
vt 0.500241 0.792829
vt 0.496609 0.788888
vt 0.784347 0.997399
vt 0.784347 0.000000
vt 0.803636 0.000248
vt 0.803636 0.997647
vt 0.944838 0.000000
vt 0.944838 0.988479
vt 0.926451 0.990110
vt 0.926451 0.001631
vt 0.733847 0.002601
vt 0.733847 1.000000
vt 0.717474 0.998048
vt 0.717474 0.000649
vt 0.767974 0.999351
vt 0.767974 0.001952
vt 0.963225 0.001631
vt 0.963225 0.990110
vt 0.753136 0.002353
vt 0.753136 0.999752
vt 0.981613 0.001516
vt 0.981613 0.992350
vt 0.963225 0.990834
vt 0.963225 0.000000
vt 0.818474 0.002601
vt 0.818474 1.000000
vt 0.767974 0.000000
vt 0.767974 0.997399
vt 1.000000 0.000000
vt 1.000000 0.990834
vt 0.200204 0.778757
vt 0.213907 0.933705
vt 0.186300 0.780302
vt 0.422703 0.928430
vt 0.412949 0.769361
vt 0.433948 0.930067
vt 0.154542 0.744026
vt 0.154542 0.907719
vt 0.143713 0.748804
vt 0.213907 0.774935
vt 0.408098 0.928430
vt 0.172381 0.776239
vt 0.186300 0.943336
vt 0.158666 0.779995
vt 0.129374 0.752922
vt 0.117003 0.754807
vt 0.395710 0.930067
vt 0.186300 0.774935
vt 0.494490 0.786209
vt 0.488559 0.813469
vt 0.510018 0.769361
vt 0.529212 0.769361
vt 0.544740 0.786209
vt 0.944838 0.993580
vt 0.928258 0.995051
vt 0.961418 0.995051
vt 0.529212 0.857577
vt 0.544740 0.840729
vt 0.510018 0.857577
vt 0.494490 0.840729
vt 0.431883 0.244602
vn -0.3711 -0.9286 0.0080
vn -0.3886 -0.9210 0.0283
vn -0.9022 -0.4181 -0.1061
vn -0.9095 -0.3844 -0.1582
vn 0.3711 -0.9286 0.0080
vn 0.3886 -0.9210 0.0283
vn 0.1283 -0.2956 0.9466
vn 0.3384 -0.1058 0.9350
vn 0.3614 0.0764 0.9292
vn 0.2819 0.3048 0.9097
vn 0.0750 0.4163 0.9061
vn -0.0750 0.4163 0.9061
vn -0.2819 0.3048 0.9097
vn -0.3614 0.0764 0.9292
vn -0.3384 -0.1058 0.9350
vn -0.1283 -0.2956 0.9466
vn -0.9587 0.1543 -0.2387
vn -0.9494 0.1373 -0.2824
vn 0.9095 -0.3844 -0.1582
vn 0.9494 0.1373 -0.2824
vn 0.9587 0.1543 -0.2387
vn 0.9022 -0.4181 -0.1061
vn -0.5499 0.2776 -0.7877
vn -0.1493 0.4771 -0.8660
vn -0.0923 0.1010 -0.9906
vn -0.3356 -0.0279 -0.9416
vn 0.7149 -0.5067 -0.4818
vn 0.2925 -0.9052 -0.3082
vn 0.1531 -0.7349 -0.6607
vn 0.4206 -0.4862 -0.7659
vn 0.5499 0.2776 -0.7878
vn 0.7793 -0.0879 -0.6204
vn 0.4763 -0.2535 -0.8419
vn 0.3356 -0.0279 -0.9416
vn -0.7761 -0.2530 0.5775
vn -0.8544 0.1817 0.4868
vn -0.9792 0.2009 0.0272
vn -0.9075 -0.3691 0.2005
vn 0.1797 0.9015 -0.3935
vn 0.6867 0.6574 -0.3102
vn 0.6854 0.5751 -0.4467
vn 0.1852 0.8148 -0.5494
vn 0.1753 0.8533 -0.4910
vn 0.1973 0.8832 -0.4255
vn 0.6870 0.6180 -0.3821
vn 0.6615 0.5913 -0.4613
vn -0.1973 0.8832 -0.4255
vn -0.1753 0.8533 -0.4910
vn -0.6615 0.5913 -0.4613
vn -0.6870 0.6180 -0.3821
vn -0.6294 0.6574 0.4143
vn -0.7137 0.6943 -0.0927
vn -0.2925 -0.9052 -0.3082
vn -0.7149 -0.5067 -0.4818
vn -0.4206 -0.4862 -0.7659
vn -0.1531 -0.7349 -0.6607
vn -0.7793 -0.0879 -0.6204
vn -0.4763 -0.2535 -0.8419
vn -0.3858 -0.8594 0.3354
vn -0.2973 -0.6827 0.6675
vn 0.9075 -0.3691 0.2005
vn 0.9792 0.2009 0.0272
vn 0.8544 0.1817 0.4868
vn 0.7761 -0.2530 0.5775
vn 0.1493 0.4771 -0.8660
vn 0.0923 0.1010 -0.9906
vn 0.6294 0.6574 0.4143
vn 0.1772 0.9233 0.3408
vn -0.1772 0.9233 0.3408
vn 0.7137 0.6943 -0.0927
vn -0.3870 -0.8652 0.3188
vn -0.9391 -0.3295 0.0973
vn -0.9077 -0.4193 -0.0171
vn -0.3990 -0.8957 0.1962
vn 0.2084 0.9611 -0.1809
vn 0.2973 -0.6827 0.6675
vn 0.3858 -0.8594 0.3354
vn -0.2084 0.9611 -0.1809
vn 0.3870 -0.8652 0.3188
vn 0.3990 -0.8957 0.1962
vn -0.9764 0.1869 -0.1079
vn -0.6867 0.6574 -0.3102
vn -0.6854 0.5751 -0.4466
vn -0.9640 0.1190 -0.2375
vn 0.9764 0.1869 -0.1079
vn 0.9391 -0.3295 0.0973
vn 0.9077 -0.4193 -0.0171
vn 0.9640 0.1190 -0.2375
vn -0.1797 0.9015 -0.3935
vn -0.1852 0.8148 -0.5494
vn 0.0000 -0.3679 -0.9299
vn 0.1794 -0.1794 0.9673
vn 0.1456 0.6657 0.7319
vn -0.1456 0.6657 0.7319
vn -0.1794 -0.1794 0.9673
vn 0.9808 -0.1951 0.0000
vn 0.7071 0.7071 0.0000
vn 0.7319 0.6657 0.1456
vn 0.9673 -0.1794 0.1794
vn -0.7071 0.7071 0.0000
vn -0.7319 0.6657 0.1456
vn -0.5490 0.6302 0.5490
vn 0.5490 0.6302 0.5490
vn -0.9673 -0.1794 0.1794
vn -0.9808 -0.1951 0.0000
vn -0.1794 -0.9673 0.1794
vn -0.1726 -0.6965 0.6965
vn -0.5773 -0.5773 0.5773
vn -0.6965 -0.6965 0.1726
vn -0.6965 -0.1726 0.6965
vn 0.1794 -0.9673 0.1794
vn 0.6965 -0.6965 0.1726
vn 0.5773 -0.5773 0.5773
vn 0.1726 -0.6965 0.6965
vn 0.6965 -0.1726 0.6965
vn -0.1951 -0.9808 0.0000
vn -0.7071 -0.7071 0.0000
vn 0.1951 -0.9808 0.0000
vn 0.7071 -0.7071 0.0000
vn 0.0000 0.4313 0.9022
vn 0.0000 -0.5407 0.8412
vn -0.3178 -0.4374 0.8412
vn 0.2535 0.3489 0.9022
vn -0.5142 -0.1671 0.8412
vn 0.4102 0.1333 0.9022
vn 0.2535 -0.3489 0.9022
vn -0.3178 0.4374 0.8412
vn 0.0000 0.5407 0.8412
vn 0.0000 -0.4313 0.9022
vn -0.4102 -0.1333 0.9022
vn 0.5142 0.1671 0.8412
vn 0.5142 -0.1671 0.8412
vn -0.4102 0.1333 0.9022
vn 0.4102 -0.1333 0.9022
vn -0.5142 0.1671 0.8412
vn -0.2535 -0.3489 0.9022
vn 0.3178 0.4374 0.8412
vn 0.3178 -0.4374 0.8412
vn -0.2535 0.3489 0.9022
vn 0.9510 0.3090 0.0000
vn 0.8841 0.2872 0.3686
vn 0.8841 -0.2872 0.3686
vn 0.9510 -0.3090 0.0000
vn 0.0000 -1.0000 0.0000
vn 0.0000 -0.9296 0.3686
vn -0.5464 -0.7520 0.3686
vn -0.5878 -0.8090 0.0000
vn -0.9510 0.3090 0.0000
vn -0.8841 0.2872 0.3686
vn -0.5464 0.7520 0.3686
vn -0.5878 0.8090 0.0000
vn 0.5878 0.8090 0.0000
vn 0.5464 0.7520 0.3686
vn 0.5878 -0.8090 0.0000
vn 0.5464 -0.7520 0.3686
vn -0.9510 -0.3090 0.0000
vn -0.8841 -0.2872 0.3686
vn 0.0000 1.0000 0.0000
vn 0.0000 0.9296 0.3686
vn 0.0000 0.0000 1.0000
usemtl None
s 1
f 45/1/1 155/2/2 154/3/3 46/4/4
f 45/1/1 50/5/5 160/6/6 155/2/2
f 17/7/7 19/8/8 7/9/9 11/10/10 9/11/11 1/12/12 5/13/13 3/14/14 13/15/15 15/16/16
f 154/17/3 141/18/17 33/19/18 46/20/4
f 49/21/19 40/22/20 148/23/21 157/24/22
f 66/25/23 69/26/24 29/27/25 28/28/26
f 55/29/27 52/30/28 21/31/29 22/32/30
f 61/33/31 62/34/32 26/35/33 25/36/34
f 14/37/35 4/38/36 142/39/37 153/40/38
f 38/41/39 43/42/40 60/43/41 65/44/42
f 39/45/43 149/46/44 152/47/45 42/48/46
f 144/49/47 34/50/48 37/51/49 145/52/50
f 6/53/51 146/54/52 142/39/37 4/38/36
f 59/55/53 57/56/54 23/57/55 24/58/56
f 57/56/54 70/59/57 30/60/58 23/57/55
f 62/34/32 55/29/27 22/32/30 26/35/33
f 160/6/6 50/5/5 49/61/19 157/62/22
f 156/63/59 16/64/60 14/65/35 153/66/38
f 158/67/61 147/68/62 8/69/63 20/70/64
f 64/71/65 61/33/31 25/36/34 27/72/66
f 9/11/11 11/10/10 12/73/67 10/74/68
f 11/10/10 7/9/9 8/75/63 12/73/67
f 5/13/13 1/12/12 2/76/69 6/77/51
f 3/14/14 5/13/13 6/77/51 4/78/36
f 151/79/70 12/80/67 8/69/63 147/68/62
f 44/81/71 47/82/72 56/83/73 58/84/74
f 10/85/68 2/86/69 1/87/12 9/88/11
f 150/89/75 10/85/68 12/90/67 151/91/70
f 15/16/16 13/15/15 14/92/35 16/93/60
f 18/94/76 159/95/77 158/96/61 20/97/64
f 2/86/69 143/98/78 146/99/52 6/100/51
f 19/8/8 17/7/7 18/101/76 20/102/64
f 13/15/15 3/14/14 4/78/36 14/92/35
f 17/7/7 15/16/16 16/93/60 18/101/76
f 20/102/64 8/75/63 7/9/9 19/8/8
f 156/63/59 159/95/77 18/94/76 16/64/60
f 150/89/75 143/98/78 2/86/69 10/85/68
f 42/103/46 152/104/45 148/23/21 40/22/20
f 39/45/43 34/50/48 144/49/47 149/46/44
f 51/105/79 44/81/71 58/84/74 53/106/80
f 32/107/81 36/108/82 67/109/83 71/110/84
f 41/111/85 48/112/86 54/113/87 63/114/88
f 69/26/24 64/71/65 27/72/66 29/27/25
f 35/115/89 38/41/39 65/44/42 68/116/90
f 43/117/40 41/111/85 63/114/88 60/118/41
f 47/119/72 32/107/81 71/110/84 56/120/73
f 48/121/86 51/105/79 53/106/80 54/122/87
f 36/123/82 35/115/89 68/116/90 67/124/83
f 24/58/56 23/57/55 31/125/91
f 27/72/66 25/36/34 31/125/91
f 21/31/29 24/58/56 31/125/91
f 22/32/30 21/31/29 31/125/91
f 30/60/58 28/28/26 31/125/91
f 26/35/33 22/32/30 31/125/91
f 29/27/25 27/72/66 31/125/91
f 25/36/34 26/35/33 31/125/91
f 28/28/26 29/27/25 31/125/91
f 23/57/55 30/60/58 31/125/91
f 37/51/49 34/50/48 35/115/89 36/123/82
f 33/19/18 37/126/49 36/108/82 32/107/81
f 39/45/43 42/48/46 43/42/40 38/41/39
f 42/103/46 40/22/20 41/111/85 43/117/40
f 34/50/48 39/45/43 38/41/39 35/115/89
f 49/61/19 50/5/5 51/105/79 48/121/86
f 45/1/1 46/4/4 47/82/72 44/81/71
f 50/5/5 45/1/1 44/81/71 51/105/79
f 46/20/4 33/19/18 32/107/81 47/119/72
f 40/22/20 49/21/19 48/112/86 41/111/85
f 70/59/57 66/25/23 28/28/26 30/60/58
f 53/106/80 58/84/74 59/127/53 52/128/28
f 63/114/88 54/113/87 55/129/27 62/130/32
f 67/124/83 68/116/90 69/131/24 66/132/23
f 65/44/42 60/43/41 61/133/31 64/134/65
f 71/110/84 67/109/83 66/135/23 70/136/57
f 60/118/41 63/114/88 62/130/32 61/137/31
f 58/84/74 56/83/73 57/138/54 59/127/53
f 54/122/87 53/106/80 52/128/28 55/139/27
f 68/116/90 65/44/42 64/134/65 69/131/24
f 56/120/73 71/110/84 70/136/57 57/140/54
f 52/128/28 59/127/53 24/141/56 21/142/29
f 89/143/92 94/144/93 82/145/94 75/146/95
f 97/147/96 73/148/97 95/149/98 88/150/99
f 73/151/97 72/152/100 81/153/101 83/154/102 82/155/94 94/156/93 96/157/103 95/158/98
f 76/159/104 81/160/101 72/161/100 85/162/105
f 74/163/106 77/164/107 78/165/108 80/166/109
f 75/146/95 79/167/110 78/168/108 77/169/107
f 76/159/104 80/170/109 78/171/108 79/172/110
f 87/173/111 90/174/112 91/175/113 93/176/114
f 88/150/99 92/177/115 91/178/113 90/179/112
f 89/143/92 93/180/114 91/181/113 92/182/115
f 84/183/116 74/163/106 80/166/109 86/184/117
f 86/185/117 80/170/109 76/159/104 85/162/105
f 75/146/95 82/145/94 83/186/102 79/167/110
f 79/172/110 83/187/102 81/160/101 76/159/104
f 87/173/111 98/188/118 99/189/119 90/174/112
f 90/179/112 99/190/119 97/147/96 88/150/99
f 94/144/93 89/143/92 92/182/115 96/191/103
f 96/192/103 92/177/115 88/150/99 95/149/98
f 74/163/106 87/173/111 93/176/114 77/164/107
f 77/169/107 93/180/114 89/143/92 75/146/95
f 84/183/116 98/188/118 87/173/111 74/163/106
f 122/193/120 110/194/121 119/195/122 139/196/123
f 139/196/123 119/195/122 118/197/124 137/198/125
f 133/199/126 116/200/127 115/201/128 131/202/129
f 127/203/130 113/204/131 112/205/132 125/206/133
f 135/207/134 117/208/135 116/200/127 133/199/126
f 129/209/136 114/210/137 113/204/131 127/203/130
f 125/206/133 112/205/132 111/211/138 123/212/139
f 137/198/125 118/197/124 117/208/135 135/207/134
f 131/202/129 115/201/128 114/210/137 129/209/136
f 108/213/140 138/214/141 136/215/142 107/216/143
f 105/217/144 132/218/145 130/219/146 104/220/147
f 102/221/148 126/222/149 124/223/150 101/224/151
f 109/225/152 140/226/153 138/214/141 108/213/140
f 106/227/154 134/228/155 132/218/145 105/217/144
f 103/229/156 128/230/157 126/222/149 102/221/148
f 100/231/158 121/232/159 140/233/153 109/234/152
f 107/216/143 136/215/142 134/235/155 106/236/154
f 104/237/147 130/238/146 128/230/157 103/229/156
f 101/239/151 124/240/150 121/232/159 100/231/158
f 115/241/128 120/242/160 114/243/137
f 112/244/132 120/245/160 111/246/138
f 119/247/122 120/248/160 118/249/124
f 116/250/127 120/242/160 115/241/128
f 113/251/131 120/245/160 112/244/132
f 110/252/121 120/253/160 119/254/122
f 117/255/135 120/248/160 116/256/127
f 114/257/137 120/245/160 113/251/131
f 111/258/138 120/253/160 110/252/121
f 118/249/124 120/248/160 117/255/135
f 124/259/150 123/212/139 122/193/120 121/260/159
f 126/261/149 125/206/133 123/212/139 124/259/150
f 128/262/157 127/203/130 125/206/133 126/261/149
f 130/263/146 129/209/136 127/203/130 128/262/157
f 132/218/145 131/264/129 129/265/136 130/219/146
f 134/228/155 133/266/126 131/264/129 132/218/145
f 136/267/142 135/207/134 133/199/126 134/268/155
f 138/269/141 137/198/125 135/207/134 136/267/142
f 140/270/153 139/196/123 137/198/125 138/269/141
f 121/260/159 122/193/120 139/196/123 140/270/153
f 123/212/139 111/211/138 110/194/121 122/193/120
f 146/99/52 143/98/78 144/49/47 145/52/50
f 142/39/37 146/54/52 145/271/50 141/18/17
f 152/47/45 149/46/44 150/89/75 151/91/70
f 148/23/21 152/104/45 151/79/70 147/68/62
f 149/46/44 144/49/47 143/98/78 150/89/75
f 154/3/3 155/2/2 156/63/59 153/66/38
f 158/96/61 159/95/77 160/6/6 157/62/22
f 141/18/17 154/17/3 153/40/38 142/39/37
f 155/2/2 160/6/6 159/95/77 156/63/59
f 157/24/22 148/23/21 147/68/62 158/67/61
f 145/271/50 37/126/49 33/19/18 141/18/17
