# Blender v2.90.1 OBJ File: 'Mountain.blend'
# www.blender.org
mtllib world_mountain_border_edge.mtl
o Straight.002_Plane.031
v -4.000001 -0.220306 -4.000000
v -4.000001 -0.220306 0.225357
v -4.000001 4.067729 -4.000000
v -4.000001 3.935450 -3.297142
v -4.000001 2.095975 -1.549718
v -4.000001 1.199380 -0.622323
v -4.000001 0.595969 -0.077383
v -4.000001 3.025998 -2.415200
v -4.000001 1.646750 -1.087060
v -4.000001 4.023771 -3.627481
v -4.000001 0.369056 0.186181
v -4.000001 2.553769 -1.990356
v -4.000001 1.424157 -0.853714
v -4.000001 0.906665 -0.343208
v -4.000001 3.494840 -2.844716
v -4.000001 1.870034 -1.319665
v 0.225357 -0.220306 -4.000001
v -3.297141 3.935449 -4.000001
v -1.549718 2.095975 -4.000001
v -0.622323 1.199380 -4.000001
v -0.077383 0.595969 -4.000001
v -2.415200 3.025998 -4.000001
v -1.087060 1.646750 -4.000001
v -3.627481 4.023770 -4.000001
v 0.186181 0.369056 -4.000001
v -1.990356 2.553769 -4.000001
v -0.853714 1.424157 -4.000001
v -0.343208 0.906665 -4.000001
v -2.844715 3.494839 -4.000001
v -1.319664 1.870034 -4.000001
v -3.656645 3.915561 -3.651819
v -1.778155 0.363687 -0.250269
v -0.221171 0.281200 -1.943003
v -0.970025 0.369655 -1.122399
v -0.362687 -0.265359 -1.930332
v -1.831557 -0.262711 -0.309991
v -1.107300 -0.227263 -1.183137
v -2.288751 0.854101 -0.332912
v -0.177756 0.725974 -2.047635
v -1.025781 0.750527 -1.208658
v -2.380501 1.213207 -0.691972
v -0.569950 1.346464 -2.208370
v -1.301638 1.085557 -1.478613
v -2.390833 1.385645 -0.894131
v -0.868969 1.532937 -2.500232
v -1.451132 1.286074 -1.643771
v -2.505670 1.628407 -1.101992
v -1.043379 1.646874 -2.623370
v -1.579307 1.513318 -1.756963
v -2.638386 1.800467 -1.277045
v -1.220704 1.801045 -2.737525
v -1.733153 1.745213 -1.904394
v -2.773427 1.984943 -1.471684
v -1.404961 1.988768 -2.876511
v -1.889449 1.945659 -2.039280
v -2.916059 2.167259 -1.668961
v -1.592662 2.176728 -3.025279
v -2.040457 2.149612 -2.158398
v -3.168417 2.569219 -2.031804
v -1.937491 2.608101 -3.248318
v -2.336596 2.581348 -2.425054
v -3.405101 3.038203 -2.375760
v -2.304401 3.093825 -3.458475
v -2.611336 3.043410 -2.684760
v -3.633364 3.493901 -2.775596
v -2.772663 3.488867 -3.701919
v -2.930809 3.462370 -2.964335
v -3.824933 3.933383 -3.473377
v -2.886034 -0.298797 0.020282
v -2.851849 0.342690 0.133773
v -2.805709 0.901086 -0.043742
v -3.034029 1.277501 -0.498706
v -3.207776 1.421064 -0.719539
v -3.268647 1.583408 -0.905829
v -3.334731 1.790735 -1.110911
v -3.392985 2.000915 -1.321068
v -3.455500 2.206681 -1.545722
v -3.559185 2.626436 -1.943351
v -3.700417 3.082059 -2.345714
v -3.820015 3.504937 -2.802195
v -3.480005 3.916632 -3.834108
v -0.046120 0.368445 -2.953594
v -0.178883 0.810184 -3.065382
v -0.049933 -0.228263 -2.953752
v -0.538700 1.039765 -3.188701
v -0.818087 1.229421 -3.245838
v -1.000742 1.448639 -3.311547
v -1.173374 1.686460 -3.387236
v -1.373539 1.912027 -3.443991
v -1.566868 2.138052 -3.515070
v -1.923844 2.603365 -3.668331
v -2.337417 3.069744 -3.807549
v -2.822075 3.462308 -3.829232
vt 0.210551 0.226178
vt 0.243902 0.093776
vt 0.296134 0.120502
vt 0.263146 0.240158
vt 0.080257 0.794375
vt 0.050608 0.635420
vt 0.133601 0.626359
vt 0.163978 0.777180
vt 0.207501 0.766388
vt 0.175938 0.627846
vt 0.228069 0.627244
vt 0.260116 0.752971
vt 0.279475 0.626767
vt 0.311692 0.739415
vt 0.320620 0.626358
vt 0.352651 0.728402
vt 0.362145 0.625616
vt 0.393670 0.717090
vt 0.404163 0.624349
vt 0.434850 0.705395
vt 0.446696 0.622373
vt 0.476231 0.693206
vt 0.531835 0.615788
vt 0.558275 0.667533
vt 0.617640 0.604024
vt 0.640162 0.638446
vt 0.703687 0.585154
vt 0.721248 0.604067
vt 0.709004 0.411125
vt 0.812888 0.502187
vt 0.663597 0.497490
vt 0.643429 0.359867
vt 0.664273 0.330967
vt 0.739190 0.380646
vt 0.724386 0.396021
vt 0.561596 0.329336
vt 0.587161 0.283836
vt 0.479469 0.302452
vt 0.508476 0.238086
vt 0.438027 0.289721
vt 0.468299 0.215250
vt 0.396790 0.277523
vt 0.428070 0.192587
vt 0.355723 0.265738
vt 0.387753 0.170093
vt 0.314731 0.254273
vt 0.347291 0.147824
vt 0.083473 0.196690
vt 0.117764 0.048307
vt 0.200260 0.069498
vt 0.166997 0.214985
vt 0.622402 0.389419
vt 0.586168 0.496389
vt 0.535996 0.375678
vt 0.505492 0.495545
vt 0.450195 0.367706
vt 0.424434 0.494927
vt 0.407356 0.365184
vt 0.383680 0.494676
vt 0.365055 0.363448
vt 0.343359 0.494458
vt 0.323280 0.362295
vt 0.303433 0.494264
vt 0.281922 0.361512
vt 0.263764 0.494085
vt 0.230309 0.360580
vt 0.214054 0.493865
vt 0.178029 0.359517
vt 0.163674 0.493641
vt 0.135531 0.360729
vt 0.122004 0.493493
vt 0.052659 0.350536
vt 0.041274 0.492937
vt 0.812388 0.466167
vt 0.812202 0.537777
vt 0.738666 0.623803
vt 0.812511 0.572841
vt 0.197091 0.931562
vt 0.240818 0.907493
vt 0.663175 0.673082
vt 0.585430 0.719735
vt 0.506275 0.764941
vt 0.465917 0.787492
vt 0.425534 0.809883
vt 0.385082 0.832114
vt 0.344496 0.854126
vt 0.293193 0.881116
vt 0.114400 0.951693
vt 0.812888 0.431609
vt 0.734067 0.086881
vt 0.861443 0.086881
vt 0.861443 0.214257
vt 0.734067 0.086881
vt 0.861443 0.086881
vt 0.861443 0.214257
vt 0.734067 0.086881
vt 0.861443 0.086881
vt 0.861443 0.086881
vt 0.861443 0.214257
vt 0.734067 0.086881
vt 0.861443 0.086881
vt 0.861443 0.214257
vt 0.734067 0.086881
vt 0.861443 0.086881
vt 0.861443 0.214257
vt 0.734067 0.086881
vt 0.861443 0.086881
vt 0.861443 0.214257
vt 0.734067 0.086881
vt 0.861443 0.086881
vt 0.734067 0.086881
vt 0.861443 0.086881
vt 0.734067 0.086881
vt 0.861443 0.086881
vt 0.734067 0.086881
vt 0.861443 0.086881
vt 0.734067 0.086881
vt 0.861443 0.086881
vt 0.734067 0.086881
vt 0.734067 0.086881
vt 0.861443 0.086881
vt 0.861443 0.086881
vt 0.861443 0.214257
vt 0.734067 0.086881
vt 0.861443 0.086881
vt 0.861443 0.214257
vt 0.861443 0.086881
vt 0.861443 0.214257
vt 0.734067 0.086881
vt 0.861443 0.086881
vt 0.861443 0.214257
vt 0.734067 0.086881
vt 0.861443 0.086881
vt 0.861443 0.214257
vt 0.734067 0.086881
vt 0.861443 0.214257
vt 0.734067 0.086881
vt 0.861443 0.214257
vt 0.734067 0.086881
vt 0.861443 0.214257
vt 0.734067 0.086881
vt 0.861443 0.214257
vt 0.734067 0.086881
vt 0.861443 0.214257
vt 0.734067 0.086881
vt 0.861443 0.214257
vt 0.734067 0.086881
vt 0.734067 0.086881
vt 0.861443 0.214257
vt 0.734067 0.086881
vt 0.861443 0.086881
vt 0.861443 0.214257
vt 0.734067 0.214257
vt 0.861443 0.214257
vt 0.861443 0.086881
vt 0.861443 0.214257
vt 0.734067 0.214257
vn 0.8320 0.5546 0.0139
vn 0.5419 0.4360 -0.7185
vn 0.4686 0.5418 -0.6977
vn 0.6762 0.7343 -0.0595
vn 0.2162 -0.1074 0.9704
vn 0.5415 -0.1698 0.8233
vn 0.5634 0.1484 0.8127
vn 0.1883 0.1700 0.9673
vn 0.1447 0.6030 0.7845
vn 0.4117 0.5904 0.6942
vn 0.3501 0.7632 0.5430
vn 0.0529 0.7727 0.6325
vn 0.3520 0.7376 0.5762
vn 0.0031 0.7499 0.6615
vn 0.3189 0.7203 0.6160
vn 0.0153 0.7262 0.6872
vn 0.2821 0.7485 0.6001
vn 0.0105 0.7270 0.6866
vn 0.2758 0.7542 0.5959
vn 0.0146 0.7390 0.6735
vn 0.2731 0.7343 0.6214
vn 0.0236 0.7266 0.6866
vn 0.2699 0.6796 0.6821
vn 0.0197 0.6854 0.7279
vn 0.2202 0.6735 0.7056
vn -0.0508 0.6819 0.7296
vn 0.1781 0.7879 0.5894
vn 0.0617 0.7733 0.6310
vn 0.5766 0.8159 0.0439
vn 0.2973 0.9157 0.2702
vn 0.4012 0.8158 0.4165
vn 0.7144 0.6706 -0.1998
vn 0.4436 0.4187 -0.7924
vn 0.4863 0.5619 -0.6691
vn 0.6204 0.7841 0.0180
vn 0.7707 0.6272 -0.1121
vn 0.4763 0.3974 -0.7844
vn 0.7570 0.6525 -0.0340
vn 0.5100 0.4532 -0.7311
vn 0.7344 0.6786 -0.0138
vn 0.5150 0.4915 -0.7022
vn 0.7436 0.6686 -0.0016
vn 0.5345 0.4991 -0.6820
vn 0.7413 0.6710 -0.0111
vn 0.5479 0.5128 -0.6609
vn 0.6854 0.7263 -0.0522
vn 0.5091 0.5480 -0.6637
vn 0.9719 -0.0469 0.2307
vn 0.8000 0.0238 -0.5994
vn 0.8062 0.2285 -0.5457
vn 0.9773 0.1340 0.1639
vn 0.7104 0.6975 0.0935
vn 0.4940 0.6976 0.5190
vn 0.7423 0.6496 0.1641
vn 0.5075 0.6850 0.5226
vn 0.7056 0.6899 0.1617
vn 0.4865 0.7294 0.4810
vn 0.6718 0.7229 0.1614
vn 0.4772 0.7510 0.4563
vn 0.6725 0.7216 0.1645
vn 0.4826 0.7437 0.4625
vn 0.6603 0.7364 0.1472
vn 0.4881 0.7151 0.5003
vn 0.5693 0.8129 0.1230
vn 0.4151 0.7526 0.5112
vn 0.5666 0.7818 0.2601
vn 0.4287 0.7248 0.5393
vn 0.8481 0.4019 0.3451
vn 0.5805 0.5082 0.6361
vn 0.8874 -0.0099 0.4607
vn 0.7129 0.0837 0.6962
vn 0.8532 -0.1699 0.4931
vn 0.7226 -0.1891 0.6648
vn 0.4065 0.8707 0.2767
vn 0.2698 0.8896 0.3684
vn -0.7123 0.5233 0.4676
vn -0.5758 0.7005 0.4216
vn -0.6060 0.1784 0.7751
vn -0.7639 0.3791 0.5223
vn -0.7870 0.4112 0.4599
vn -0.7760 0.4187 0.4717
vn -0.7630 0.4520 0.4620
vn -0.7571 0.4636 0.4603
vn -0.7501 0.4665 0.4688
vn -0.7452 0.4778 0.4651
vn -0.7484 0.4819 0.4557
vn -0.7573 0.4622 0.4613
vn -0.6337 -0.0490 0.7720
vn 0.4635 0.7233 -0.5119
vn -0.7071 0.0000 -0.7071
vn -0.5763 0.8044 0.1438
vn -0.5162 0.6836 -0.5159
vn 0.1704 0.8066 -0.5660
usemtl BakeTo
s 1
f 83/1/1 21/2/2 28/3/3 85/4/4
f 69/5/5 36/6/6 32/7/7 70/8/8
f 71/9/9 38/10/10 41/11/11 72/12/12
f 72/12/12 41/11/11 44/13/13 73/14/14
f 73/14/14 44/13/13 47/15/15 74/16/16
f 74/16/16 47/15/15 50/17/17 75/18/18
f 75/18/18 50/17/17 53/19/19 76/20/20
f 76/20/20 53/19/19 56/21/21 77/22/22
f 77/22/22 56/21/21 59/23/23 78/24/24
f 78/24/24 59/23/23 62/25/25 79/26/26
f 79/26/26 62/25/25 65/27/27 80/28/28
f 66/29/29 31/30/30 67/31/31
f 92/32/32 22/33/33 29/34/34 93/35/35
f 91/36/36 26/37/37 22/33/33 92/32/32
f 90/38/38 19/39/39 26/37/37 91/36/36
f 89/40/40 30/41/41 19/39/39 90/38/38
f 88/42/42 23/43/43 30/41/41 89/40/40
f 87/44/44 27/45/45 23/43/43 88/42/42
f 86/46/46 20/47/47 27/45/45 87/44/44
f 85/4/4 28/3/3 20/47/47 86/46/46
f 84/48/48 17/49/49 25/50/50 82/51/51
f 70/8/8 32/7/7 38/10/10 71/9/9
f 63/52/52 66/29/29 67/31/31 64/53/53
f 64/53/53 67/31/31 65/27/27 62/25/25
f 60/54/54 63/52/52 64/53/53 61/55/55
f 61/55/55 64/53/53 62/25/25 59/23/23
f 57/56/56 60/54/54 61/55/55 58/57/57
f 58/57/57 61/55/55 59/23/23 56/21/21
f 54/58/58 57/56/56 58/57/57 55/59/59
f 55/59/59 58/57/57 56/21/21 53/19/19
f 51/60/60 54/58/58 55/59/59 52/61/61
f 52/61/61 55/59/59 53/19/19 50/17/17
f 48/62/62 51/60/60 52/61/61 49/63/63
f 49/63/63 52/61/61 50/17/17 47/15/15
f 45/64/64 48/62/62 49/63/63 46/65/65
f 46/65/65 49/63/63 47/15/15 44/13/13
f 42/66/66 45/64/64 46/65/65 43/67/67
f 43/67/67 46/65/65 44/13/13 41/11/11
f 39/68/68 42/66/66 43/67/67 40/69/69
f 40/69/69 43/67/67 41/11/11 38/10/10
f 33/70/70 39/68/68 40/69/69 34/71/71
f 34/71/71 40/69/69 38/10/10 32/7/7
f 35/72/72 33/70/70 34/71/71 37/73/73
f 37/73/73 34/71/71 32/7/7 36/6/6
f 82/51/51 25/50/50 21/2/2 83/1/1
f 81/74/74 31/30/30 66/29/29 93/35/35
f 65/27/27 67/31/31 31/30/30
f 80/28/28 65/27/27 31/30/30 68/75/75
f 15/76/76 80/28/28 68/75/75 4/77/77
f 11/78/78 70/8/8 71/9/9 7/79/79
f 8/80/80 79/26/26 80/28/28 15/76/76
f 12/81/81 78/24/24 79/26/26 8/80/80
f 5/82/82 77/22/22 78/24/24 12/81/81
f 16/83/83 76/20/20 77/22/22 5/82/82
f 9/84/84 75/18/18 76/20/20 16/83/83
f 13/85/85 74/16/16 75/18/18 9/84/84
f 6/86/86 73/14/14 74/16/16 13/85/85
f 14/87/87 72/12/12 73/14/14 6/86/86
f 7/79/79 71/9/9 72/12/12 14/87/87
f 2/88/88 69/5/5 70/8/8 11/78/78
f 18/89/89 81/74/74 93/35/35 29/34/34
f 33/70/70 82/51/51 83/1/1 39/68/68
f 35/72/72 84/48/48 82/51/51 33/70/70
f 42/66/66 85/4/4 86/46/46 45/64/64
f 45/64/64 86/46/46 87/44/44 48/62/62
f 48/62/62 87/44/44 88/42/42 51/60/60
f 51/60/60 88/42/42 89/40/40 54/58/58
f 54/58/58 89/40/40 90/38/38 57/56/56
f 57/56/56 90/38/38 91/36/36 60/54/54
f 60/54/54 91/36/36 92/32/32 63/52/52
f 63/52/52 92/32/32 93/35/35 66/29/29
f 39/68/68 83/1/1 85/4/4 42/66/66
usemtl baclk
f 1/90/90 16/91/83 5/92/82
f 10/93/91 3/94/92 15/95/76
f 3/96/92 1/97/90 15/95/76
f 1/90/90 2/98/88 14/99/87
f 2/100/88 11/101/78 7/102/79
f 7/103/79 14/104/87 2/105/88
f 14/106/87 6/107/86 1/108/90
f 4/109/77 10/110/91 15/95/76
f 8/111/80 15/112/76 1/108/90
f 12/113/81 8/114/80 1/108/90
f 6/115/86 13/116/85 1/108/90
f 13/117/85 9/118/84 1/108/90
f 9/119/84 16/91/83 1/108/90
f 5/120/82 12/121/81 1/108/90
f 1/90/90 19/122/39 30/123/41
f 24/124/93 29/125/34 3/126/92
f 3/96/92 29/125/34 1/108/90
f 1/90/90 28/127/3 17/128/49
f 17/129/49 21/130/2 25/131/50
f 21/132/2 17/133/49 28/134/3
f 28/135/3 1/97/90 20/136/47
f 18/137/89 29/125/34 24/138/93
f 22/139/33 1/97/90 29/140/34
f 26/141/37 1/97/90 22/142/33
f 20/143/47 1/97/90 27/144/45
f 27/145/45 1/97/90 23/146/43
f 23/147/43 1/97/90 30/123/41
f 19/148/39 1/97/90 26/149/37
f 31/150/30 81/151/74 18/152/89 24/153/93
f 24/124/93 3/94/92 31/154/30
f 3/96/92 10/110/91 31/154/30
f 10/93/91 4/155/77 68/156/75 31/157/30
