# Blender v2.83.0 OBJ File: 'Jungle.blend'
# www.blender.org
mtllib world_jungle_ruins_border_edge.mtl
o Plane.017_Plane.054
v -2.000000 0.000000 0.000000
v -2.000000 0.000000 -2.000000
v -2.000000 0.904892 0.000000
v -2.000000 1.058140 -0.156897
v -2.000000 3.309424 -0.156897
v -2.000000 3.309424 0.255413
v -2.000000 3.828070 0.255413
v -2.000000 3.828070 -2.000000
v 0.000006 0.000000 -2.000013
v 0.000006 0.904892 -2.000013
v -0.156891 1.058140 -2.000013
v -0.156891 3.309424 -2.000013
v 0.255419 3.309424 -2.000013
v 0.255419 3.828070 -2.000013
vt 0.423503 0.463667
vt 0.000000 0.463668
vt 0.000000 0.336888
vt 0.423503 0.336887
vt 0.016611 0.315417
vt 0.406892 0.315417
vt 0.925733 0.446886
vt 0.925733 0.893773
vt 0.848076 0.893773
vt 0.848076 0.446886
vt 0.016611 0.000000
vt 0.406892 0.000000
vt 0.809012 0.854975
vt 0.761208 0.891528
vt 0.809012 0.446886
vt 0.848076 0.491617
vt 1.000000 0.000000
vt 1.000000 0.446886
vt 0.761208 0.223443
vt 0.337704 0.463668
vt 0.061735 0.536333
vt 0.000000 0.536333
vt 0.000000 0.463668
vt 0.337704 1.000000
vt 0.061735 0.851749
vt 0.038243 0.873220
vt 0.038243 1.000000
vt 0.485239 0.463668
vt 0.485239 0.148251
vt 0.761208 0.000000
vt 0.761208 0.536332
vt 0.423503 0.463667
vt 0.423503 0.536332
vt 0.461746 0.126780
vt 0.461746 0.000000
vn 0.7071 0.0000 0.7071
vn 0.5728 0.5864 0.5728
vn 0.0000 -1.0000 0.0000
vn 0.0000 1.0000 0.0000
vn -1.0000 0.0000 0.0000
vn -0.0000 0.0000 -1.0000
usemtl bakeTo
s off
f 1/1/1 9/2/1 10/3/1 3/4/1
f 3/4/2 10/3/2 11/5/2 4/6/2
f 6/7/1 13/8/1 14/9/1 7/10/1
f 11/5/1 12/11/1 5/12/1 4/6/1
f 12/13/3 13/14/3 6/15/3 5/16/3
usemtl PureBlack
f 7/17/4 14/18/4 8/19/4
f 8/20/5 5/21/5 6/22/5
f 7/23/5 8/20/5 6/22/5
f 5/21/5 8/20/5 2/24/5 4/25/5
f 4/25/5 2/24/5 3/26/5
f 2/24/5 1/27/5 3/26/5
f 12/28/6 11/29/6 2/30/6 8/31/6
f 13/32/6 12/28/6 8/31/6
f 14/33/6 13/32/6 8/31/6
f 10/34/6 2/30/6 11/29/6
f 9/35/6 2/30/6 10/34/6
