# Blender v2.83.0 OBJ File: 'Jungle.blend'
# www.blender.org
mtllib world_jungle_ruins_border_straight.mtl
o Plane.019_Plane.044
v -2.000000 0.000000 0.000000
v -0.797153 0.000000 0.000000
v -1.202847 0.000000 0.000000
v -0.797153 0.000000 0.272463
v -1.202847 0.000000 0.272463
v -2.000000 0.890332 0.000000
v -0.797153 0.890332 0.000000
v -1.202847 0.890332 0.000000
v -0.797153 0.967675 0.272463
v -1.202847 0.967675 0.272463
v -2.000000 1.048643 -0.149851
v -0.797153 1.048643 -0.149851
v -1.202847 1.048643 -0.149851
v -2.000000 3.319982 -0.149851
v -0.797153 3.319982 -0.149851
v -1.202847 3.319982 -0.149851
v -0.797153 3.316356 0.272463
v -1.202847 3.316356 0.272463
v -2.000000 3.319982 0.272463
v -2.000000 3.826195 0.272463
v -2.000000 3.826195 -2.003480
v -2.000000 -0.002390 -2.003480
v 2.000000 0.000000 0.000000
v 1.202847 0.000000 0.000000
v 0.797153 0.000000 0.000000
v 1.202847 0.000000 0.272463
v 0.797153 0.000000 0.272463
v 2.000000 0.890332 0.000000
v 1.202847 0.890332 0.000000
v 0.797153 0.890332 0.000000
v 1.202847 0.967675 0.272463
v 0.797153 0.967675 0.272463
v 2.000000 1.048643 -0.149851
v 1.202847 1.048643 -0.149851
v 0.797153 1.048643 -0.149851
v 2.000000 3.319982 -0.149851
v 1.202847 3.319982 -0.149851
v 0.797153 3.319982 -0.149851
v 1.202847 3.316356 0.272463
v 0.797153 3.316356 0.272463
v 2.000000 3.319982 0.272463
v 2.000000 3.826195 0.272463
v 1.954309 3.833680 -1.970894
v 1.954309 0.005095 -1.970894
vt 0.496171 0.831673
vt 0.496171 0.871918
vt 0.353236 0.871918
vt 0.364660 0.831673
vt 0.642678 0.008342
vt 0.642678 0.599182
vt 0.567369 0.421510
vt 0.567369 0.186015
vt 0.496171 0.931844
vt 0.496171 0.972089
vt 0.364660 0.972089
vt 0.353236 0.931844
vt 0.005785 0.484002
vt 0.137294 0.483401
vt 0.137832 0.601147
vt 0.006323 0.601748
vt 0.567905 0.599183
vt 0.567369 0.481435
vt 0.169493 0.483254
vt 0.170031 0.601000
vt 0.341276 0.994224
vt 0.341276 0.809538
vt 0.504988 0.481721
vt 0.505526 0.599468
vt 0.005776 0.994224
vt 0.006312 0.931844
vt 0.169486 0.186015
vt 0.504987 0.186015
vt 0.504987 0.421510
vt 0.169487 0.421510
vt 0.006312 0.871918
vt 0.005776 0.809538
vt 0.005776 0.186015
vt 0.137288 0.186015
vt 0.137288 0.421511
vt 0.005776 0.421511
vt 0.496171 0.635435
vt 0.496171 0.675681
vt 0.353236 0.675681
vt 0.364660 0.635435
vt 0.006321 0.005776
vt 0.137831 0.006377
vt 0.137293 0.124123
vt 0.005783 0.123523
vt 0.496171 0.735606
vt 0.496171 0.775851
vt 0.364660 0.775851
vt 0.353236 0.735606
vt 0.567369 0.126089
vt 0.170029 0.006524
vt 0.169491 0.124270
vt 0.341276 0.797986
vt 0.341276 0.613301
vt 0.005776 0.797986
vt 0.006312 0.735606
vt 0.505525 0.008057
vt 0.504988 0.125803
vt 0.006312 0.675681
vt 0.005776 0.613301
vt 0.567905 0.008342
vt 0.760567 0.012663
vt 0.973818 0.012664
vt 0.973818 0.387456
vt 0.763619 0.383175
vt 0.973877 0.965671
vt 0.801221 0.965344
vt 0.801221 0.787012
vt 0.973877 0.787339
vt 0.782741 0.616779
vt 0.753386 0.721920
vt 0.782650 0.592422
vt 0.753454 0.592504
vt 0.913743 0.616439
vt 0.974204 0.721346
vt 0.922853 0.607774
vt 0.974204 0.607641
vt 0.975233 0.578122
vt 0.946036 0.471211
vt 0.946036 0.446853
vt 0.975233 0.446853
vt 0.754414 0.578122
vt 0.815034 0.471211
vt 0.805903 0.462569
vt 0.754552 0.462569
vn -1.0000 0.0000 0.0000
vn 0.0000 -0.0000 1.0000
vn 1.0000 0.0000 0.0000
vn 0.0000 0.6874 0.7262
vn -0.0023 -1.0000 -0.0043
vn 0.0000 -1.0000 -0.0086
vn 0.0023 -1.0000 -0.0043
vn -0.0009 1.0000 0.0017
vn 0.0082 0.0000 -1.0000
vn 0.9961 0.0886 0.0000
vn 0.9998 0.0000 -0.0204
vn 0.9997 0.0000 -0.0251
vn 0.9997 -0.0154 -0.0163
vn 0.9997 0.0000 -0.0232
usemtl bakeTo
s off
f 3/1/1 5/2/1 10/3/1 8/4/1
f 42/5/2 20/6/2 17/7/2 40/8/2
f 4/9/3 2/10/3 7/11/3 9/12/3
f 4/9/2 9/12/2 10/3/2 5/2/2
f 3/13/2 8/14/2 6/15/2 1/16/2
f 19/17/2 18/18/2 20/6/2
f 8/14/4 13/19/4 11/20/4 6/15/4
f 9/12/3 7/11/3 12/21/3
f 10/3/1 13/22/1 8/4/1
f 13/19/2 16/23/2 14/24/2 11/20/2
f 9/12/3 12/21/3 15/25/3 17/26/3
f 35/27/2 38/28/2 15/29/2 12/30/2
f 13/22/1 10/3/1 18/31/1 16/32/1
f 9/12/2 17/26/2 18/31/2 10/3/2
f 25/33/2 30/34/2 7/35/2 2/36/2
f 14/24/5 16/23/5 18/18/5 19/17/5
f 25/37/1 27/38/1 32/39/1 30/40/1
f 23/41/2 28/42/2 29/43/2 24/44/2
f 26/45/3 24/46/3 29/47/3 31/48/3
f 26/45/2 31/48/2 32/39/2 27/38/2
f 42/5/2 40/8/2 39/49/2
f 28/42/4 33/50/4 34/51/4 29/43/4
f 18/18/2 17/7/2 20/6/2
f 31/48/3 29/47/3 34/52/3
f 32/39/1 35/53/1 30/40/1
f 17/7/6 15/29/6 38/28/6 40/8/6
f 31/48/3 34/52/3 37/54/3 39/55/3
f 33/50/2 36/56/2 37/57/2 34/51/2
f 35/53/1 32/39/1 40/58/1 38/59/1
f 31/48/2 39/55/2 40/58/2 32/39/2
f 41/60/7 39/49/7 37/57/7 36/56/7
f 30/34/4 35/27/4 12/30/4 7/35/4
f 42/5/2 39/49/2 41/60/2
usemtl black
f 21/61/8 20/62/8 42/63/8 43/64/8
f 22/65/9 21/66/9 43/67/9 44/68/9
f 36/69/10 43/70/10 41/71/10
f 41/71/11 43/70/11 42/72/11
f 33/73/12 44/74/12 43/70/12 36/69/12
f 33/73/13 28/75/13 44/74/13
f 28/75/14 23/76/14 44/74/14
f 21/77/1 14/78/1 19/79/1
f 20/80/1 21/77/1 19/79/1
f 14/78/1 21/77/1 22/81/1 11/82/1
f 11/82/1 22/81/1 6/83/1
f 6/83/1 22/81/1 1/84/1
