# Blender v2.83.0 OBJ File: 'Jungle.blend'
# www.blender.org
mtllib world_jungle_ruins_pit_straight.mtl
o Plane.037_Plane.036
v -2.000000 -4.958431 2.000000
v 2.000000 -4.958431 2.000000
v -2.000000 -4.958431 -2.000000
v 2.000000 -4.958431 -2.000000
v -2.000000 -0.534486 -2.000000
v 2.000000 -0.534486 -2.000000
v -2.000000 -0.534486 -1.398756
v 2.000000 -0.534486 -1.398756
v -2.000000 0.005025 -1.398756
v 2.000000 0.005025 -1.398756
v -2.000000 0.005025 -1.507350
v 2.000000 0.005025 -1.507350
v -2.000000 0.641002 -1.507350
v 2.000000 0.641002 -1.507350
v -2.000000 0.641002 -1.905538
v 2.000000 0.641002 -1.905538
v -2.000000 0.025392 -1.905538
v 2.000000 0.025392 -1.905538
v -2.000000 0.025392 -2.000000
v 2.000000 0.025392 -2.000000
vt 0.993270 0.493270
vt 0.506730 0.493270
vt 0.506730 0.006730
vt 0.993270 0.006730
vt 0.493270 0.544837
vt 0.006730 0.544836
vt 0.006730 0.006730
vt 0.493270 0.006730
vt 0.006730 0.558297
vt 0.493269 0.558297
vt 0.493269 0.631429
vt 0.006730 0.631429
vt 0.493269 0.697053
vt 0.006730 0.697052
vt 0.493269 0.710261
vt 0.006730 0.710262
vt 0.493269 0.787619
vt 0.006730 0.787619
vt 0.493269 0.836052
vt 0.006730 0.836052
vt 0.493269 0.910932
vt 0.006730 0.910932
vt 0.493269 0.922422
vt 0.006730 0.922423
vn 0.0000 1.0000 0.0000
vn 0.0000 0.7071 0.7071
vn 0.0000 -0.7071 0.7071
vn 0.0000 0.7071 -0.7071
usemtl bakeTo
s 1
f 1/1/1 2/2/1 4/3/2 3/4/2
f 3/5/2 4/6/2 6/7/3 5/8/3
f 5/9/3 6/10/3 8/11/3 7/12/3
f 7/12/3 8/11/3 10/13/2 9/14/2
f 9/14/2 10/13/2 12/15/2 11/16/2
f 11/16/2 12/15/2 14/17/2 13/18/2
f 13/18/2 14/17/2 16/19/4 15/20/4
f 15/20/4 16/19/4 18/21/4 17/22/4
f 17/22/4 18/21/4 20/23/1 19/24/1
