# Blender v2.90.1 OBJ File: 'gunNewNov.blend'
# www.blender.org
mtllib weapons_bullet_granade.mtl
o Cube.001_Cube.007
v -0.048394 -0.120846 0.089784
v -0.048394 -0.044106 0.166523
v -0.125133 -0.044106 0.089784
v -0.048394 0.044106 0.166523
v -0.048394 0.120846 0.089784
v -0.125133 0.044106 0.089784
v -0.048394 -0.120846 -0.089784
v -0.125133 -0.044106 -0.089784
v -0.048394 -0.044106 -0.166523
v -0.048394 0.120846 -0.089784
v -0.048394 0.044106 -0.166523
v -0.125133 0.044106 -0.089784
v 0.048394 -0.120846 0.089784
v 0.125133 -0.044106 0.089784
v 0.048394 -0.044106 0.166523
v 0.048394 0.120846 0.089784
v 0.048394 0.044106 0.166523
v 0.125133 0.044106 0.089784
v 0.048394 -0.120846 -0.089784
v 0.048394 -0.044106 -0.166523
v 0.125133 -0.044106 -0.089784
v 0.048394 0.120846 -0.089784
v 0.125133 0.044106 -0.089784
v 0.048394 0.044106 -0.166523
vt 0.103924 0.534114
vt 0.195817 0.551265
vt 0.130303 0.636092
vt 0.038410 0.618941
vt 0.356379 0.130503
vt 0.437142 0.130503
vt 0.437142 0.381425
vt 0.356379 0.381425
vt 0.577659 0.130503
vt 0.666273 0.130503
vt 0.666273 0.381425
vt 0.577659 0.381425
vt 0.244626 0.130503
vt 0.325389 0.130503
vt 0.325389 0.381426
vt 0.244627 0.381426
vt 0.914246 0.700111
vt 0.833484 0.787273
vt 0.744869 0.691638
vt 0.825632 0.604476
vt 0.104109 0.130503
vt 0.174368 0.023269
vt 0.238242 0.733189
vt 0.106357 0.785524
vt 0.104109 0.381426
vt 0.174368 0.488659
vt 0.763225 0.863099
vt 0.903742 0.863099
vt 0.423667 0.736271
vt 0.564134 0.740328
vt 0.490645 0.869586
vt 0.507400 0.488659
vt 0.895891 0.528651
vt 0.755374 0.528651
vt 0.507400 0.023269
vt 0.014465 0.768373
vt 0.303756 0.925479
vt 0.171871 0.977815
vt 0.984505 0.775937
vt 0.984505 0.624286
vt 0.674611 0.767464
vt 0.674611 0.615813
vt 0.428746 0.531466
vt 0.569213 0.535523
vt 0.570131 0.922222
vt 0.643621 0.792964
vt 0.333716 0.788907
vt 0.400694 0.922222
vt 0.303756 0.648362
vt 0.015495 0.381426
vt 0.015495 0.130503
vn 0.3416 -0.3416 0.8756
vn 0.3416 0.3416 0.8756
vn -0.3416 0.3416 0.8756
vn -0.3416 -0.3416 0.8756
vn 0.8756 -0.3416 -0.3416
vn 0.8756 0.3416 -0.3416
vn 0.8756 0.3416 0.3416
vn 0.8756 -0.3416 0.3416
vn 0.3416 0.8756 -0.3416
vn -0.3416 0.8756 -0.3416
vn -0.3416 0.8756 0.3416
vn 0.3416 0.8756 0.3416
vn -0.8756 -0.3416 0.3416
vn -0.8756 0.3416 0.3416
vn -0.8756 0.3416 -0.3416
vn -0.8756 -0.3416 -0.3416
vn -0.3416 -0.3416 -0.8756
vn -0.3416 0.3416 -0.8756
vn 0.3416 0.3416 -0.8756
vn 0.3416 -0.3416 -0.8756
vn -0.3416 -0.8756 0.3416
vn -0.3416 -0.8756 -0.3416
vn 0.3416 -0.8756 0.3416
vn 0.3416 -0.8756 -0.3416
usemtl bakeTo
s 1
f 15/1/1 17/2/2 4/3/3 2/4/4
f 21/5/5 23/6/6 18/7/7 14/8/8
f 22/9/9 10/10/10 5/11/11 16/12/12
f 3/13/13 6/14/14 12/15/15 8/16/16
f 9/17/17 11/18/18 24/19/19 20/20/20
f 1/21/21 2/22/4 3/13/13
f 4/3/3 5/23/11 6/24/14
f 7/25/22 8/16/16 9/26/17
f 10/27/10 11/18/18 12/28/15
f 13/29/23 14/30/8 15/31/1
f 16/12/12 17/32/2 18/7/7
f 19/33/24 20/20/20 21/34/5
f 22/9/9 23/6/6 24/35/19
f 7/25/22 1/21/21 3/13/13 8/16/16
f 2/4/4 4/3/3 6/24/14 3/36/13
f 5/23/11 10/37/10 12/38/15 6/24/14
f 11/18/18 9/17/17 8/39/16 12/28/15
f 19/33/24 7/40/22 9/17/17 20/20/20
f 10/27/10 22/41/9 24/19/19 11/18/18
f 23/42/6 21/34/5 20/20/20 24/19/19
f 13/29/23 19/43/24 21/44/5 14/30/8
f 22/9/9 16/12/12 18/7/7 23/6/6
f 17/45/2 15/31/1 14/30/8 18/46/7
f 1/47/21 13/29/23 15/31/1 2/48/4
f 16/49/12 5/23/11 4/3/3 17/2/2
f 7/25/22 19/50/24 13/51/23 1/21/21
